%
M48
M72
T01C0.02362
T02C0.03200
T03C0.03600
T04C0.04000
%
T01
X65433Y80433
X110433Y80433
X110433Y110433
X110433Y120433
X145433Y130433
X150433Y120433
X175433Y130433
X150433Y150433
X140433Y180433
X140433Y190433
X100433Y155433
X90433Y170433
X90433Y175433
X75433Y170433
X155433Y90433
X165433Y50433
X185433Y185433
T02
X35433Y40433
X45433Y40433
X60433Y35433
X67933Y40433
X60433Y45433
X40433Y60433
X40433Y75433
X40433Y87933
X35433Y95433
X45433Y95433
X60433Y85433
X80433Y75433
X90433Y70433
X100433Y70433
X100433Y55433
X110433Y40433
X110433Y30433
X90433Y30433
X80433Y60433
X90433Y85433
X90433Y95433
X90433Y105433
X90433Y115433
X85433Y130433
X70433Y145433
X60433Y145433
X70433Y160433
X70433Y175433
X60433Y185433
X40433Y180433
X40433Y190433
X40433Y155433
X32933Y150433
X40433Y145433
X60433Y125433
X45433Y120433
X35433Y120433
X110433Y145433
X110433Y160433
X125433Y160433
X135433Y145433
X135433Y135433
X125433Y130433
X135433Y125433
X135433Y115433
X135433Y105433
X135433Y95433
X135433Y85433
X120433Y85433
X120433Y95433
X120433Y105433
X120433Y115433
X165433Y115433
X165433Y125433
X165433Y135433
X165433Y145433
X175433Y145433
X165433Y160433
X190433Y180433
X195433Y187933
X200433Y180433
X195433Y165433
X195433Y155433
X175433Y185433
X170433Y195433
X160433Y185433
X150433Y185433
X130433Y185433
X120433Y185433
X110433Y175433
X165433Y105433
X165433Y95433
X165433Y85433
X155433Y70433
X162933Y65433
X155433Y60433
X140433Y55433
X140433Y70433
X130433Y40433
X130433Y30433
X170433Y30433
X170433Y40433
X175433Y50433
X182933Y55433
X175433Y60433
X190433Y35433
X200433Y35433
X210433Y195433
T03
X100433Y190433
X90433Y190433
X80433Y190433
X70433Y190433
T04
X75433Y130933
X75433Y119933
X75433Y100933
X75433Y89933
X205433Y100433
X205433Y110433
X205433Y120433
M30
