G75*
%MOIN*%
%OFA0B0*%
%FSLAX25Y25*%
%IPPOS*%
%LPD*%
%AMOC8*
5,1,8,0,0,1.08239X$1,22.5*
%
%ADD10C,0.00800*%
%ADD11C,0.01000*%
%ADD12C,0.00600*%
%ADD13R,0.02400X0.03400*%
%ADD14R,0.03400X0.02400*%
%ADD15C,0.00500*%
D10*
X0050433Y0032933D02*
X0050433Y0047933D01*
X0102933Y0025433D02*
X0117933Y0025433D01*
X0205433Y0027933D02*
X0205433Y0042933D01*
X0210158Y0098622D02*
X0210158Y0122244D01*
X0210276Y0122244D02*
X0237638Y0122244D01*
X0237717Y0122244D02*
X0237717Y0098622D01*
X0237638Y0098622D02*
X0210276Y0098622D01*
X0217759Y0107066D02*
X0217680Y0107290D01*
X0217607Y0107516D01*
X0217540Y0107743D01*
X0217478Y0107971D01*
X0217421Y0108201D01*
X0217370Y0108433D01*
X0217325Y0108665D01*
X0217285Y0108899D01*
X0217251Y0109134D01*
X0217223Y0109369D01*
X0217200Y0109605D01*
X0217183Y0109841D01*
X0217171Y0110078D01*
X0217166Y0110315D01*
X0217166Y0110551D01*
X0217171Y0110788D01*
X0217183Y0111025D01*
X0217200Y0111261D01*
X0217223Y0111497D01*
X0217251Y0111732D01*
X0217285Y0111967D01*
X0217325Y0112201D01*
X0217370Y0112433D01*
X0217421Y0112665D01*
X0217478Y0112895D01*
X0217540Y0113123D01*
X0217607Y0113350D01*
X0217680Y0113576D01*
X0217759Y0113800D01*
X0236257Y0113800D02*
X0236336Y0113576D01*
X0236409Y0113350D01*
X0236476Y0113123D01*
X0236538Y0112895D01*
X0236595Y0112665D01*
X0236646Y0112433D01*
X0236691Y0112201D01*
X0236731Y0111967D01*
X0236765Y0111732D01*
X0236793Y0111497D01*
X0236816Y0111261D01*
X0236833Y0111025D01*
X0236845Y0110788D01*
X0236850Y0110551D01*
X0236850Y0110315D01*
X0236845Y0110078D01*
X0236833Y0109841D01*
X0236816Y0109605D01*
X0236793Y0109369D01*
X0236765Y0109134D01*
X0236731Y0108899D01*
X0236691Y0108665D01*
X0236646Y0108433D01*
X0236595Y0108201D01*
X0236538Y0107971D01*
X0236476Y0107743D01*
X0236409Y0107516D01*
X0236336Y0107290D01*
X0236257Y0107066D01*
X0230375Y0119682D02*
X0230151Y0119761D01*
X0229925Y0119834D01*
X0229698Y0119901D01*
X0229470Y0119963D01*
X0229240Y0120020D01*
X0229008Y0120071D01*
X0228776Y0120116D01*
X0228542Y0120156D01*
X0228307Y0120190D01*
X0228072Y0120218D01*
X0227836Y0120241D01*
X0227600Y0120258D01*
X0227363Y0120270D01*
X0227126Y0120275D01*
X0226890Y0120275D01*
X0226653Y0120270D01*
X0226416Y0120258D01*
X0226180Y0120241D01*
X0225944Y0120218D01*
X0225709Y0120190D01*
X0225474Y0120156D01*
X0225240Y0120116D01*
X0225008Y0120071D01*
X0224776Y0120020D01*
X0224546Y0119963D01*
X0224318Y0119901D01*
X0224091Y0119834D01*
X0223865Y0119761D01*
X0223641Y0119682D01*
X0223641Y0101184D02*
X0223865Y0101105D01*
X0224091Y0101032D01*
X0224318Y0100965D01*
X0224546Y0100903D01*
X0224776Y0100846D01*
X0225008Y0100795D01*
X0225240Y0100750D01*
X0225474Y0100710D01*
X0225709Y0100676D01*
X0225944Y0100648D01*
X0226180Y0100625D01*
X0226416Y0100608D01*
X0226653Y0100596D01*
X0226890Y0100591D01*
X0227126Y0100591D01*
X0227363Y0100596D01*
X0227600Y0100608D01*
X0227836Y0100625D01*
X0228072Y0100648D01*
X0228307Y0100676D01*
X0228542Y0100710D01*
X0228776Y0100750D01*
X0229008Y0100795D01*
X0229240Y0100846D01*
X0229470Y0100903D01*
X0229698Y0100965D01*
X0229925Y0101032D01*
X0230151Y0101105D01*
X0230375Y0101184D01*
X0209764Y0115906D02*
X0201102Y0115906D01*
X0201102Y0124961D01*
X0209764Y0124961D01*
X0209764Y0115906D01*
X0202933Y0170433D02*
X0187933Y0170433D01*
X0145433Y0177933D02*
X0145433Y0192933D01*
X0135433Y0192933D02*
X0135433Y0177933D01*
X0047933Y0175433D02*
X0032933Y0175433D01*
X0030433Y0127933D02*
X0030433Y0112933D01*
D11*
X0050433Y0047933D02*
X0050246Y0048176D01*
X0050054Y0048414D01*
X0049855Y0048647D01*
X0049651Y0048875D01*
X0049442Y0049098D01*
X0049227Y0049316D01*
X0049007Y0049529D01*
X0048782Y0049736D01*
X0048551Y0049938D01*
X0048316Y0050134D01*
X0048076Y0050324D01*
X0047832Y0050508D01*
X0047583Y0050686D01*
X0047329Y0050858D01*
X0047072Y0051024D01*
X0046811Y0051184D01*
X0046546Y0051337D01*
X0046277Y0051483D01*
X0046004Y0051623D01*
X0045729Y0051756D01*
X0045450Y0051882D01*
X0045168Y0052002D01*
X0044883Y0052114D01*
X0044596Y0052219D01*
X0044306Y0052318D01*
X0044014Y0052409D01*
X0043719Y0052493D01*
X0043423Y0052570D01*
X0043125Y0052640D01*
X0042825Y0052702D01*
X0042524Y0052757D01*
X0042222Y0052804D01*
X0041918Y0052844D01*
X0041614Y0052877D01*
X0041309Y0052902D01*
X0041003Y0052920D01*
X0040697Y0052930D01*
X0040391Y0052933D01*
X0040085Y0052928D01*
X0039779Y0052916D01*
X0039473Y0052896D01*
X0039169Y0052869D01*
X0038864Y0052834D01*
X0038561Y0052792D01*
X0038259Y0052743D01*
X0037958Y0052686D01*
X0037659Y0052621D01*
X0037361Y0052550D01*
X0037066Y0052471D01*
X0036772Y0052385D01*
X0036480Y0052292D01*
X0036191Y0052191D01*
X0035904Y0052084D01*
X0035620Y0051969D01*
X0035339Y0051848D01*
X0035061Y0051720D01*
X0034786Y0051585D01*
X0034515Y0051443D01*
X0034247Y0051295D01*
X0033983Y0051140D01*
X0033723Y0050979D01*
X0033467Y0050812D01*
X0033214Y0050638D01*
X0032967Y0050458D01*
X0032723Y0050272D01*
X0032485Y0050081D01*
X0032251Y0049883D01*
X0032022Y0049680D01*
X0031798Y0049471D01*
X0031579Y0049257D01*
X0031366Y0049037D01*
X0031158Y0048813D01*
X0030955Y0048583D01*
X0030759Y0048349D01*
X0030568Y0048109D01*
X0030383Y0047866D01*
X0030204Y0047617D01*
X0030031Y0047365D01*
X0029864Y0047108D01*
X0029704Y0046847D01*
X0029550Y0046582D01*
X0029403Y0046314D01*
X0029262Y0046042D01*
X0029128Y0045767D01*
X0029001Y0045488D01*
X0028880Y0045207D01*
X0028767Y0044922D01*
X0028661Y0044635D01*
X0028561Y0044346D01*
X0028469Y0044054D01*
X0028384Y0043760D01*
X0028306Y0043464D01*
X0028235Y0043166D01*
X0028172Y0042866D01*
X0028116Y0042565D01*
X0028068Y0042263D01*
X0028027Y0041960D01*
X0027993Y0041656D01*
X0027967Y0041351D01*
X0027948Y0041045D01*
X0027937Y0040739D01*
X0027933Y0040433D01*
X0027937Y0040127D01*
X0027948Y0039821D01*
X0027967Y0039515D01*
X0027993Y0039210D01*
X0028027Y0038906D01*
X0028068Y0038603D01*
X0028116Y0038301D01*
X0028172Y0038000D01*
X0028235Y0037700D01*
X0028306Y0037402D01*
X0028384Y0037106D01*
X0028469Y0036812D01*
X0028561Y0036520D01*
X0028661Y0036231D01*
X0028767Y0035944D01*
X0028880Y0035659D01*
X0029001Y0035378D01*
X0029128Y0035099D01*
X0029262Y0034824D01*
X0029403Y0034552D01*
X0029550Y0034284D01*
X0029704Y0034019D01*
X0029864Y0033758D01*
X0030031Y0033501D01*
X0030204Y0033249D01*
X0030383Y0033000D01*
X0030568Y0032757D01*
X0030759Y0032517D01*
X0030955Y0032283D01*
X0031158Y0032053D01*
X0031366Y0031829D01*
X0031579Y0031609D01*
X0031798Y0031395D01*
X0032022Y0031186D01*
X0032251Y0030983D01*
X0032485Y0030785D01*
X0032723Y0030594D01*
X0032967Y0030408D01*
X0033214Y0030228D01*
X0033467Y0030054D01*
X0033723Y0029887D01*
X0033983Y0029726D01*
X0034247Y0029571D01*
X0034515Y0029423D01*
X0034786Y0029281D01*
X0035061Y0029146D01*
X0035339Y0029018D01*
X0035620Y0028897D01*
X0035904Y0028782D01*
X0036191Y0028675D01*
X0036480Y0028574D01*
X0036772Y0028481D01*
X0037066Y0028395D01*
X0037361Y0028316D01*
X0037659Y0028245D01*
X0037958Y0028180D01*
X0038259Y0028123D01*
X0038561Y0028074D01*
X0038864Y0028032D01*
X0039169Y0027997D01*
X0039473Y0027970D01*
X0039779Y0027950D01*
X0040085Y0027938D01*
X0040391Y0027933D01*
X0040697Y0027936D01*
X0041003Y0027946D01*
X0041309Y0027964D01*
X0041614Y0027989D01*
X0041918Y0028022D01*
X0042222Y0028062D01*
X0042524Y0028109D01*
X0042825Y0028164D01*
X0043125Y0028226D01*
X0043423Y0028296D01*
X0043719Y0028373D01*
X0044014Y0028457D01*
X0044306Y0028548D01*
X0044596Y0028647D01*
X0044883Y0028752D01*
X0045168Y0028864D01*
X0045450Y0028984D01*
X0045729Y0029110D01*
X0046004Y0029243D01*
X0046277Y0029383D01*
X0046546Y0029529D01*
X0046811Y0029682D01*
X0047072Y0029842D01*
X0047329Y0030008D01*
X0047583Y0030180D01*
X0047832Y0030358D01*
X0048076Y0030542D01*
X0048316Y0030732D01*
X0048551Y0030928D01*
X0048782Y0031130D01*
X0049007Y0031337D01*
X0049227Y0031550D01*
X0049442Y0031768D01*
X0049651Y0031991D01*
X0049855Y0032219D01*
X0050054Y0032452D01*
X0050246Y0032690D01*
X0050433Y0032933D01*
X0102933Y0025433D02*
X0102690Y0025620D01*
X0102452Y0025812D01*
X0102219Y0026011D01*
X0101991Y0026215D01*
X0101768Y0026424D01*
X0101550Y0026639D01*
X0101337Y0026859D01*
X0101130Y0027084D01*
X0100928Y0027315D01*
X0100732Y0027550D01*
X0100542Y0027790D01*
X0100358Y0028034D01*
X0100180Y0028283D01*
X0100008Y0028537D01*
X0099842Y0028794D01*
X0099682Y0029055D01*
X0099529Y0029320D01*
X0099383Y0029589D01*
X0099243Y0029862D01*
X0099110Y0030137D01*
X0098984Y0030416D01*
X0098864Y0030698D01*
X0098752Y0030983D01*
X0098647Y0031270D01*
X0098548Y0031560D01*
X0098457Y0031852D01*
X0098373Y0032147D01*
X0098296Y0032443D01*
X0098226Y0032741D01*
X0098164Y0033041D01*
X0098109Y0033342D01*
X0098062Y0033644D01*
X0098022Y0033948D01*
X0097989Y0034252D01*
X0097964Y0034557D01*
X0097946Y0034863D01*
X0097936Y0035169D01*
X0097933Y0035475D01*
X0097938Y0035781D01*
X0097950Y0036087D01*
X0097970Y0036393D01*
X0097997Y0036697D01*
X0098032Y0037002D01*
X0098074Y0037305D01*
X0098123Y0037607D01*
X0098180Y0037908D01*
X0098245Y0038207D01*
X0098316Y0038505D01*
X0098395Y0038800D01*
X0098481Y0039094D01*
X0098574Y0039386D01*
X0098675Y0039675D01*
X0098782Y0039962D01*
X0098897Y0040246D01*
X0099018Y0040527D01*
X0099146Y0040805D01*
X0099281Y0041080D01*
X0099423Y0041351D01*
X0099571Y0041619D01*
X0099726Y0041883D01*
X0099887Y0042143D01*
X0100054Y0042399D01*
X0100228Y0042652D01*
X0100408Y0042899D01*
X0100594Y0043143D01*
X0100785Y0043381D01*
X0100983Y0043615D01*
X0101186Y0043844D01*
X0101395Y0044068D01*
X0101609Y0044287D01*
X0101829Y0044500D01*
X0102053Y0044708D01*
X0102283Y0044911D01*
X0102517Y0045107D01*
X0102757Y0045298D01*
X0103000Y0045483D01*
X0103249Y0045662D01*
X0103501Y0045835D01*
X0103758Y0046002D01*
X0104019Y0046162D01*
X0104284Y0046316D01*
X0104552Y0046463D01*
X0104824Y0046604D01*
X0105099Y0046738D01*
X0105378Y0046865D01*
X0105659Y0046986D01*
X0105944Y0047099D01*
X0106231Y0047205D01*
X0106520Y0047305D01*
X0106812Y0047397D01*
X0107106Y0047482D01*
X0107402Y0047560D01*
X0107700Y0047631D01*
X0108000Y0047694D01*
X0108301Y0047750D01*
X0108603Y0047798D01*
X0108906Y0047839D01*
X0109210Y0047873D01*
X0109515Y0047899D01*
X0109821Y0047918D01*
X0110127Y0047929D01*
X0110433Y0047933D01*
X0110739Y0047929D01*
X0111045Y0047918D01*
X0111351Y0047899D01*
X0111656Y0047873D01*
X0111960Y0047839D01*
X0112263Y0047798D01*
X0112565Y0047750D01*
X0112866Y0047694D01*
X0113166Y0047631D01*
X0113464Y0047560D01*
X0113760Y0047482D01*
X0114054Y0047397D01*
X0114346Y0047305D01*
X0114635Y0047205D01*
X0114922Y0047099D01*
X0115207Y0046986D01*
X0115488Y0046865D01*
X0115767Y0046738D01*
X0116042Y0046604D01*
X0116314Y0046463D01*
X0116582Y0046316D01*
X0116847Y0046162D01*
X0117108Y0046002D01*
X0117365Y0045835D01*
X0117617Y0045662D01*
X0117866Y0045483D01*
X0118109Y0045298D01*
X0118349Y0045107D01*
X0118583Y0044911D01*
X0118813Y0044708D01*
X0119037Y0044500D01*
X0119257Y0044287D01*
X0119471Y0044068D01*
X0119680Y0043844D01*
X0119883Y0043615D01*
X0120081Y0043381D01*
X0120272Y0043143D01*
X0120458Y0042899D01*
X0120638Y0042652D01*
X0120812Y0042399D01*
X0120979Y0042143D01*
X0121140Y0041883D01*
X0121295Y0041619D01*
X0121443Y0041351D01*
X0121585Y0041080D01*
X0121720Y0040805D01*
X0121848Y0040527D01*
X0121969Y0040246D01*
X0122084Y0039962D01*
X0122191Y0039675D01*
X0122292Y0039386D01*
X0122385Y0039094D01*
X0122471Y0038800D01*
X0122550Y0038505D01*
X0122621Y0038207D01*
X0122686Y0037908D01*
X0122743Y0037607D01*
X0122792Y0037305D01*
X0122834Y0037002D01*
X0122869Y0036697D01*
X0122896Y0036393D01*
X0122916Y0036087D01*
X0122928Y0035781D01*
X0122933Y0035475D01*
X0122930Y0035169D01*
X0122920Y0034863D01*
X0122902Y0034557D01*
X0122877Y0034252D01*
X0122844Y0033948D01*
X0122804Y0033644D01*
X0122757Y0033342D01*
X0122702Y0033041D01*
X0122640Y0032741D01*
X0122570Y0032443D01*
X0122493Y0032147D01*
X0122409Y0031852D01*
X0122318Y0031560D01*
X0122219Y0031270D01*
X0122114Y0030983D01*
X0122002Y0030698D01*
X0121882Y0030416D01*
X0121756Y0030137D01*
X0121623Y0029862D01*
X0121483Y0029589D01*
X0121337Y0029320D01*
X0121184Y0029055D01*
X0121024Y0028794D01*
X0120858Y0028537D01*
X0120686Y0028283D01*
X0120508Y0028034D01*
X0120324Y0027790D01*
X0120134Y0027550D01*
X0119938Y0027315D01*
X0119736Y0027084D01*
X0119529Y0026859D01*
X0119316Y0026639D01*
X0119098Y0026424D01*
X0118875Y0026215D01*
X0118647Y0026011D01*
X0118414Y0025812D01*
X0118176Y0025620D01*
X0117933Y0025433D01*
X0080433Y0084933D02*
X0070433Y0084933D01*
X0070433Y0105933D01*
X0080433Y0105933D01*
X0080433Y0084933D01*
X0077933Y0095433D02*
X0072933Y0095433D01*
X0070433Y0114933D02*
X0070433Y0135933D01*
X0080433Y0135933D01*
X0080433Y0114933D01*
X0070433Y0114933D01*
X0072933Y0125433D02*
X0077933Y0125433D01*
X0030433Y0127933D02*
X0030620Y0128176D01*
X0030812Y0128414D01*
X0031011Y0128647D01*
X0031215Y0128875D01*
X0031424Y0129098D01*
X0031639Y0129316D01*
X0031859Y0129529D01*
X0032084Y0129736D01*
X0032315Y0129938D01*
X0032550Y0130134D01*
X0032790Y0130324D01*
X0033034Y0130508D01*
X0033283Y0130686D01*
X0033537Y0130858D01*
X0033794Y0131024D01*
X0034055Y0131184D01*
X0034320Y0131337D01*
X0034589Y0131483D01*
X0034862Y0131623D01*
X0035137Y0131756D01*
X0035416Y0131882D01*
X0035698Y0132002D01*
X0035983Y0132114D01*
X0036270Y0132219D01*
X0036560Y0132318D01*
X0036852Y0132409D01*
X0037147Y0132493D01*
X0037443Y0132570D01*
X0037741Y0132640D01*
X0038041Y0132702D01*
X0038342Y0132757D01*
X0038644Y0132804D01*
X0038948Y0132844D01*
X0039252Y0132877D01*
X0039557Y0132902D01*
X0039863Y0132920D01*
X0040169Y0132930D01*
X0040475Y0132933D01*
X0040781Y0132928D01*
X0041087Y0132916D01*
X0041393Y0132896D01*
X0041697Y0132869D01*
X0042002Y0132834D01*
X0042305Y0132792D01*
X0042607Y0132743D01*
X0042908Y0132686D01*
X0043207Y0132621D01*
X0043505Y0132550D01*
X0043800Y0132471D01*
X0044094Y0132385D01*
X0044386Y0132292D01*
X0044675Y0132191D01*
X0044962Y0132084D01*
X0045246Y0131969D01*
X0045527Y0131848D01*
X0045805Y0131720D01*
X0046080Y0131585D01*
X0046351Y0131443D01*
X0046619Y0131295D01*
X0046883Y0131140D01*
X0047143Y0130979D01*
X0047399Y0130812D01*
X0047652Y0130638D01*
X0047899Y0130458D01*
X0048143Y0130272D01*
X0048381Y0130081D01*
X0048615Y0129883D01*
X0048844Y0129680D01*
X0049068Y0129471D01*
X0049287Y0129257D01*
X0049500Y0129037D01*
X0049708Y0128813D01*
X0049911Y0128583D01*
X0050107Y0128349D01*
X0050298Y0128109D01*
X0050483Y0127866D01*
X0050662Y0127617D01*
X0050835Y0127365D01*
X0051002Y0127108D01*
X0051162Y0126847D01*
X0051316Y0126582D01*
X0051463Y0126314D01*
X0051604Y0126042D01*
X0051738Y0125767D01*
X0051865Y0125488D01*
X0051986Y0125207D01*
X0052099Y0124922D01*
X0052205Y0124635D01*
X0052305Y0124346D01*
X0052397Y0124054D01*
X0052482Y0123760D01*
X0052560Y0123464D01*
X0052631Y0123166D01*
X0052694Y0122866D01*
X0052750Y0122565D01*
X0052798Y0122263D01*
X0052839Y0121960D01*
X0052873Y0121656D01*
X0052899Y0121351D01*
X0052918Y0121045D01*
X0052929Y0120739D01*
X0052933Y0120433D01*
X0052929Y0120127D01*
X0052918Y0119821D01*
X0052899Y0119515D01*
X0052873Y0119210D01*
X0052839Y0118906D01*
X0052798Y0118603D01*
X0052750Y0118301D01*
X0052694Y0118000D01*
X0052631Y0117700D01*
X0052560Y0117402D01*
X0052482Y0117106D01*
X0052397Y0116812D01*
X0052305Y0116520D01*
X0052205Y0116231D01*
X0052099Y0115944D01*
X0051986Y0115659D01*
X0051865Y0115378D01*
X0051738Y0115099D01*
X0051604Y0114824D01*
X0051463Y0114552D01*
X0051316Y0114284D01*
X0051162Y0114019D01*
X0051002Y0113758D01*
X0050835Y0113501D01*
X0050662Y0113249D01*
X0050483Y0113000D01*
X0050298Y0112757D01*
X0050107Y0112517D01*
X0049911Y0112283D01*
X0049708Y0112053D01*
X0049500Y0111829D01*
X0049287Y0111609D01*
X0049068Y0111395D01*
X0048844Y0111186D01*
X0048615Y0110983D01*
X0048381Y0110785D01*
X0048143Y0110594D01*
X0047899Y0110408D01*
X0047652Y0110228D01*
X0047399Y0110054D01*
X0047143Y0109887D01*
X0046883Y0109726D01*
X0046619Y0109571D01*
X0046351Y0109423D01*
X0046080Y0109281D01*
X0045805Y0109146D01*
X0045527Y0109018D01*
X0045246Y0108897D01*
X0044962Y0108782D01*
X0044675Y0108675D01*
X0044386Y0108574D01*
X0044094Y0108481D01*
X0043800Y0108395D01*
X0043505Y0108316D01*
X0043207Y0108245D01*
X0042908Y0108180D01*
X0042607Y0108123D01*
X0042305Y0108074D01*
X0042002Y0108032D01*
X0041697Y0107997D01*
X0041393Y0107970D01*
X0041087Y0107950D01*
X0040781Y0107938D01*
X0040475Y0107933D01*
X0040169Y0107936D01*
X0039863Y0107946D01*
X0039557Y0107964D01*
X0039252Y0107989D01*
X0038948Y0108022D01*
X0038644Y0108062D01*
X0038342Y0108109D01*
X0038041Y0108164D01*
X0037741Y0108226D01*
X0037443Y0108296D01*
X0037147Y0108373D01*
X0036852Y0108457D01*
X0036560Y0108548D01*
X0036270Y0108647D01*
X0035983Y0108752D01*
X0035698Y0108864D01*
X0035416Y0108984D01*
X0035137Y0109110D01*
X0034862Y0109243D01*
X0034589Y0109383D01*
X0034320Y0109529D01*
X0034055Y0109682D01*
X0033794Y0109842D01*
X0033537Y0110008D01*
X0033283Y0110180D01*
X0033034Y0110358D01*
X0032790Y0110542D01*
X0032550Y0110732D01*
X0032315Y0110928D01*
X0032084Y0111130D01*
X0031859Y0111337D01*
X0031639Y0111550D01*
X0031424Y0111768D01*
X0031215Y0111991D01*
X0031011Y0112219D01*
X0030812Y0112452D01*
X0030620Y0112690D01*
X0030433Y0112933D01*
X0032933Y0175433D02*
X0032690Y0175620D01*
X0032452Y0175812D01*
X0032219Y0176011D01*
X0031991Y0176215D01*
X0031768Y0176424D01*
X0031550Y0176639D01*
X0031337Y0176859D01*
X0031130Y0177084D01*
X0030928Y0177315D01*
X0030732Y0177550D01*
X0030542Y0177790D01*
X0030358Y0178034D01*
X0030180Y0178283D01*
X0030008Y0178537D01*
X0029842Y0178794D01*
X0029682Y0179055D01*
X0029529Y0179320D01*
X0029383Y0179589D01*
X0029243Y0179862D01*
X0029110Y0180137D01*
X0028984Y0180416D01*
X0028864Y0180698D01*
X0028752Y0180983D01*
X0028647Y0181270D01*
X0028548Y0181560D01*
X0028457Y0181852D01*
X0028373Y0182147D01*
X0028296Y0182443D01*
X0028226Y0182741D01*
X0028164Y0183041D01*
X0028109Y0183342D01*
X0028062Y0183644D01*
X0028022Y0183948D01*
X0027989Y0184252D01*
X0027964Y0184557D01*
X0027946Y0184863D01*
X0027936Y0185169D01*
X0027933Y0185475D01*
X0027938Y0185781D01*
X0027950Y0186087D01*
X0027970Y0186393D01*
X0027997Y0186697D01*
X0028032Y0187002D01*
X0028074Y0187305D01*
X0028123Y0187607D01*
X0028180Y0187908D01*
X0028245Y0188207D01*
X0028316Y0188505D01*
X0028395Y0188800D01*
X0028481Y0189094D01*
X0028574Y0189386D01*
X0028675Y0189675D01*
X0028782Y0189962D01*
X0028897Y0190246D01*
X0029018Y0190527D01*
X0029146Y0190805D01*
X0029281Y0191080D01*
X0029423Y0191351D01*
X0029571Y0191619D01*
X0029726Y0191883D01*
X0029887Y0192143D01*
X0030054Y0192399D01*
X0030228Y0192652D01*
X0030408Y0192899D01*
X0030594Y0193143D01*
X0030785Y0193381D01*
X0030983Y0193615D01*
X0031186Y0193844D01*
X0031395Y0194068D01*
X0031609Y0194287D01*
X0031829Y0194500D01*
X0032053Y0194708D01*
X0032283Y0194911D01*
X0032517Y0195107D01*
X0032757Y0195298D01*
X0033000Y0195483D01*
X0033249Y0195662D01*
X0033501Y0195835D01*
X0033758Y0196002D01*
X0034019Y0196162D01*
X0034284Y0196316D01*
X0034552Y0196463D01*
X0034824Y0196604D01*
X0035099Y0196738D01*
X0035378Y0196865D01*
X0035659Y0196986D01*
X0035944Y0197099D01*
X0036231Y0197205D01*
X0036520Y0197305D01*
X0036812Y0197397D01*
X0037106Y0197482D01*
X0037402Y0197560D01*
X0037700Y0197631D01*
X0038000Y0197694D01*
X0038301Y0197750D01*
X0038603Y0197798D01*
X0038906Y0197839D01*
X0039210Y0197873D01*
X0039515Y0197899D01*
X0039821Y0197918D01*
X0040127Y0197929D01*
X0040433Y0197933D01*
X0040739Y0197929D01*
X0041045Y0197918D01*
X0041351Y0197899D01*
X0041656Y0197873D01*
X0041960Y0197839D01*
X0042263Y0197798D01*
X0042565Y0197750D01*
X0042866Y0197694D01*
X0043166Y0197631D01*
X0043464Y0197560D01*
X0043760Y0197482D01*
X0044054Y0197397D01*
X0044346Y0197305D01*
X0044635Y0197205D01*
X0044922Y0197099D01*
X0045207Y0196986D01*
X0045488Y0196865D01*
X0045767Y0196738D01*
X0046042Y0196604D01*
X0046314Y0196463D01*
X0046582Y0196316D01*
X0046847Y0196162D01*
X0047108Y0196002D01*
X0047365Y0195835D01*
X0047617Y0195662D01*
X0047866Y0195483D01*
X0048109Y0195298D01*
X0048349Y0195107D01*
X0048583Y0194911D01*
X0048813Y0194708D01*
X0049037Y0194500D01*
X0049257Y0194287D01*
X0049471Y0194068D01*
X0049680Y0193844D01*
X0049883Y0193615D01*
X0050081Y0193381D01*
X0050272Y0193143D01*
X0050458Y0192899D01*
X0050638Y0192652D01*
X0050812Y0192399D01*
X0050979Y0192143D01*
X0051140Y0191883D01*
X0051295Y0191619D01*
X0051443Y0191351D01*
X0051585Y0191080D01*
X0051720Y0190805D01*
X0051848Y0190527D01*
X0051969Y0190246D01*
X0052084Y0189962D01*
X0052191Y0189675D01*
X0052292Y0189386D01*
X0052385Y0189094D01*
X0052471Y0188800D01*
X0052550Y0188505D01*
X0052621Y0188207D01*
X0052686Y0187908D01*
X0052743Y0187607D01*
X0052792Y0187305D01*
X0052834Y0187002D01*
X0052869Y0186697D01*
X0052896Y0186393D01*
X0052916Y0186087D01*
X0052928Y0185781D01*
X0052933Y0185475D01*
X0052930Y0185169D01*
X0052920Y0184863D01*
X0052902Y0184557D01*
X0052877Y0184252D01*
X0052844Y0183948D01*
X0052804Y0183644D01*
X0052757Y0183342D01*
X0052702Y0183041D01*
X0052640Y0182741D01*
X0052570Y0182443D01*
X0052493Y0182147D01*
X0052409Y0181852D01*
X0052318Y0181560D01*
X0052219Y0181270D01*
X0052114Y0180983D01*
X0052002Y0180698D01*
X0051882Y0180416D01*
X0051756Y0180137D01*
X0051623Y0179862D01*
X0051483Y0179589D01*
X0051337Y0179320D01*
X0051184Y0179055D01*
X0051024Y0178794D01*
X0050858Y0178537D01*
X0050686Y0178283D01*
X0050508Y0178034D01*
X0050324Y0177790D01*
X0050134Y0177550D01*
X0049938Y0177315D01*
X0049736Y0177084D01*
X0049529Y0176859D01*
X0049316Y0176639D01*
X0049098Y0176424D01*
X0048875Y0176215D01*
X0048647Y0176011D01*
X0048414Y0175812D01*
X0048176Y0175620D01*
X0047933Y0175433D01*
X0135433Y0177933D02*
X0135246Y0177690D01*
X0135054Y0177452D01*
X0134855Y0177219D01*
X0134651Y0176991D01*
X0134442Y0176768D01*
X0134227Y0176550D01*
X0134007Y0176337D01*
X0133782Y0176130D01*
X0133551Y0175928D01*
X0133316Y0175732D01*
X0133076Y0175542D01*
X0132832Y0175358D01*
X0132583Y0175180D01*
X0132329Y0175008D01*
X0132072Y0174842D01*
X0131811Y0174682D01*
X0131546Y0174529D01*
X0131277Y0174383D01*
X0131004Y0174243D01*
X0130729Y0174110D01*
X0130450Y0173984D01*
X0130168Y0173864D01*
X0129883Y0173752D01*
X0129596Y0173647D01*
X0129306Y0173548D01*
X0129014Y0173457D01*
X0128719Y0173373D01*
X0128423Y0173296D01*
X0128125Y0173226D01*
X0127825Y0173164D01*
X0127524Y0173109D01*
X0127222Y0173062D01*
X0126918Y0173022D01*
X0126614Y0172989D01*
X0126309Y0172964D01*
X0126003Y0172946D01*
X0125697Y0172936D01*
X0125391Y0172933D01*
X0125085Y0172938D01*
X0124779Y0172950D01*
X0124473Y0172970D01*
X0124169Y0172997D01*
X0123864Y0173032D01*
X0123561Y0173074D01*
X0123259Y0173123D01*
X0122958Y0173180D01*
X0122659Y0173245D01*
X0122361Y0173316D01*
X0122066Y0173395D01*
X0121772Y0173481D01*
X0121480Y0173574D01*
X0121191Y0173675D01*
X0120904Y0173782D01*
X0120620Y0173897D01*
X0120339Y0174018D01*
X0120061Y0174146D01*
X0119786Y0174281D01*
X0119515Y0174423D01*
X0119247Y0174571D01*
X0118983Y0174726D01*
X0118723Y0174887D01*
X0118467Y0175054D01*
X0118214Y0175228D01*
X0117967Y0175408D01*
X0117723Y0175594D01*
X0117485Y0175785D01*
X0117251Y0175983D01*
X0117022Y0176186D01*
X0116798Y0176395D01*
X0116579Y0176609D01*
X0116366Y0176829D01*
X0116158Y0177053D01*
X0115955Y0177283D01*
X0115759Y0177517D01*
X0115568Y0177757D01*
X0115383Y0178000D01*
X0115204Y0178249D01*
X0115031Y0178501D01*
X0114864Y0178758D01*
X0114704Y0179019D01*
X0114550Y0179284D01*
X0114403Y0179552D01*
X0114262Y0179824D01*
X0114128Y0180099D01*
X0114001Y0180378D01*
X0113880Y0180659D01*
X0113767Y0180944D01*
X0113661Y0181231D01*
X0113561Y0181520D01*
X0113469Y0181812D01*
X0113384Y0182106D01*
X0113306Y0182402D01*
X0113235Y0182700D01*
X0113172Y0183000D01*
X0113116Y0183301D01*
X0113068Y0183603D01*
X0113027Y0183906D01*
X0112993Y0184210D01*
X0112967Y0184515D01*
X0112948Y0184821D01*
X0112937Y0185127D01*
X0112933Y0185433D01*
X0112937Y0185739D01*
X0112948Y0186045D01*
X0112967Y0186351D01*
X0112993Y0186656D01*
X0113027Y0186960D01*
X0113068Y0187263D01*
X0113116Y0187565D01*
X0113172Y0187866D01*
X0113235Y0188166D01*
X0113306Y0188464D01*
X0113384Y0188760D01*
X0113469Y0189054D01*
X0113561Y0189346D01*
X0113661Y0189635D01*
X0113767Y0189922D01*
X0113880Y0190207D01*
X0114001Y0190488D01*
X0114128Y0190767D01*
X0114262Y0191042D01*
X0114403Y0191314D01*
X0114550Y0191582D01*
X0114704Y0191847D01*
X0114864Y0192108D01*
X0115031Y0192365D01*
X0115204Y0192617D01*
X0115383Y0192866D01*
X0115568Y0193109D01*
X0115759Y0193349D01*
X0115955Y0193583D01*
X0116158Y0193813D01*
X0116366Y0194037D01*
X0116579Y0194257D01*
X0116798Y0194471D01*
X0117022Y0194680D01*
X0117251Y0194883D01*
X0117485Y0195081D01*
X0117723Y0195272D01*
X0117967Y0195458D01*
X0118214Y0195638D01*
X0118467Y0195812D01*
X0118723Y0195979D01*
X0118983Y0196140D01*
X0119247Y0196295D01*
X0119515Y0196443D01*
X0119786Y0196585D01*
X0120061Y0196720D01*
X0120339Y0196848D01*
X0120620Y0196969D01*
X0120904Y0197084D01*
X0121191Y0197191D01*
X0121480Y0197292D01*
X0121772Y0197385D01*
X0122066Y0197471D01*
X0122361Y0197550D01*
X0122659Y0197621D01*
X0122958Y0197686D01*
X0123259Y0197743D01*
X0123561Y0197792D01*
X0123864Y0197834D01*
X0124169Y0197869D01*
X0124473Y0197896D01*
X0124779Y0197916D01*
X0125085Y0197928D01*
X0125391Y0197933D01*
X0125697Y0197930D01*
X0126003Y0197920D01*
X0126309Y0197902D01*
X0126614Y0197877D01*
X0126918Y0197844D01*
X0127222Y0197804D01*
X0127524Y0197757D01*
X0127825Y0197702D01*
X0128125Y0197640D01*
X0128423Y0197570D01*
X0128719Y0197493D01*
X0129014Y0197409D01*
X0129306Y0197318D01*
X0129596Y0197219D01*
X0129883Y0197114D01*
X0130168Y0197002D01*
X0130450Y0196882D01*
X0130729Y0196756D01*
X0131004Y0196623D01*
X0131277Y0196483D01*
X0131546Y0196337D01*
X0131811Y0196184D01*
X0132072Y0196024D01*
X0132329Y0195858D01*
X0132583Y0195686D01*
X0132832Y0195508D01*
X0133076Y0195324D01*
X0133316Y0195134D01*
X0133551Y0194938D01*
X0133782Y0194736D01*
X0134007Y0194529D01*
X0134227Y0194316D01*
X0134442Y0194098D01*
X0134651Y0193875D01*
X0134855Y0193647D01*
X0135054Y0193414D01*
X0135246Y0193176D01*
X0135433Y0192933D01*
X0145433Y0192933D02*
X0145620Y0193176D01*
X0145812Y0193414D01*
X0146011Y0193647D01*
X0146215Y0193875D01*
X0146424Y0194098D01*
X0146639Y0194316D01*
X0146859Y0194529D01*
X0147084Y0194736D01*
X0147315Y0194938D01*
X0147550Y0195134D01*
X0147790Y0195324D01*
X0148034Y0195508D01*
X0148283Y0195686D01*
X0148537Y0195858D01*
X0148794Y0196024D01*
X0149055Y0196184D01*
X0149320Y0196337D01*
X0149589Y0196483D01*
X0149862Y0196623D01*
X0150137Y0196756D01*
X0150416Y0196882D01*
X0150698Y0197002D01*
X0150983Y0197114D01*
X0151270Y0197219D01*
X0151560Y0197318D01*
X0151852Y0197409D01*
X0152147Y0197493D01*
X0152443Y0197570D01*
X0152741Y0197640D01*
X0153041Y0197702D01*
X0153342Y0197757D01*
X0153644Y0197804D01*
X0153948Y0197844D01*
X0154252Y0197877D01*
X0154557Y0197902D01*
X0154863Y0197920D01*
X0155169Y0197930D01*
X0155475Y0197933D01*
X0155781Y0197928D01*
X0156087Y0197916D01*
X0156393Y0197896D01*
X0156697Y0197869D01*
X0157002Y0197834D01*
X0157305Y0197792D01*
X0157607Y0197743D01*
X0157908Y0197686D01*
X0158207Y0197621D01*
X0158505Y0197550D01*
X0158800Y0197471D01*
X0159094Y0197385D01*
X0159386Y0197292D01*
X0159675Y0197191D01*
X0159962Y0197084D01*
X0160246Y0196969D01*
X0160527Y0196848D01*
X0160805Y0196720D01*
X0161080Y0196585D01*
X0161351Y0196443D01*
X0161619Y0196295D01*
X0161883Y0196140D01*
X0162143Y0195979D01*
X0162399Y0195812D01*
X0162652Y0195638D01*
X0162899Y0195458D01*
X0163143Y0195272D01*
X0163381Y0195081D01*
X0163615Y0194883D01*
X0163844Y0194680D01*
X0164068Y0194471D01*
X0164287Y0194257D01*
X0164500Y0194037D01*
X0164708Y0193813D01*
X0164911Y0193583D01*
X0165107Y0193349D01*
X0165298Y0193109D01*
X0165483Y0192866D01*
X0165662Y0192617D01*
X0165835Y0192365D01*
X0166002Y0192108D01*
X0166162Y0191847D01*
X0166316Y0191582D01*
X0166463Y0191314D01*
X0166604Y0191042D01*
X0166738Y0190767D01*
X0166865Y0190488D01*
X0166986Y0190207D01*
X0167099Y0189922D01*
X0167205Y0189635D01*
X0167305Y0189346D01*
X0167397Y0189054D01*
X0167482Y0188760D01*
X0167560Y0188464D01*
X0167631Y0188166D01*
X0167694Y0187866D01*
X0167750Y0187565D01*
X0167798Y0187263D01*
X0167839Y0186960D01*
X0167873Y0186656D01*
X0167899Y0186351D01*
X0167918Y0186045D01*
X0167929Y0185739D01*
X0167933Y0185433D01*
X0167929Y0185127D01*
X0167918Y0184821D01*
X0167899Y0184515D01*
X0167873Y0184210D01*
X0167839Y0183906D01*
X0167798Y0183603D01*
X0167750Y0183301D01*
X0167694Y0183000D01*
X0167631Y0182700D01*
X0167560Y0182402D01*
X0167482Y0182106D01*
X0167397Y0181812D01*
X0167305Y0181520D01*
X0167205Y0181231D01*
X0167099Y0180944D01*
X0166986Y0180659D01*
X0166865Y0180378D01*
X0166738Y0180099D01*
X0166604Y0179824D01*
X0166463Y0179552D01*
X0166316Y0179284D01*
X0166162Y0179019D01*
X0166002Y0178758D01*
X0165835Y0178501D01*
X0165662Y0178249D01*
X0165483Y0178000D01*
X0165298Y0177757D01*
X0165107Y0177517D01*
X0164911Y0177283D01*
X0164708Y0177053D01*
X0164500Y0176829D01*
X0164287Y0176609D01*
X0164068Y0176395D01*
X0163844Y0176186D01*
X0163615Y0175983D01*
X0163381Y0175785D01*
X0163143Y0175594D01*
X0162899Y0175408D01*
X0162652Y0175228D01*
X0162399Y0175054D01*
X0162143Y0174887D01*
X0161883Y0174726D01*
X0161619Y0174571D01*
X0161351Y0174423D01*
X0161080Y0174281D01*
X0160805Y0174146D01*
X0160527Y0174018D01*
X0160246Y0173897D01*
X0159962Y0173782D01*
X0159675Y0173675D01*
X0159386Y0173574D01*
X0159094Y0173481D01*
X0158800Y0173395D01*
X0158505Y0173316D01*
X0158207Y0173245D01*
X0157908Y0173180D01*
X0157607Y0173123D01*
X0157305Y0173074D01*
X0157002Y0173032D01*
X0156697Y0172997D01*
X0156393Y0172970D01*
X0156087Y0172950D01*
X0155781Y0172938D01*
X0155475Y0172933D01*
X0155169Y0172936D01*
X0154863Y0172946D01*
X0154557Y0172964D01*
X0154252Y0172989D01*
X0153948Y0173022D01*
X0153644Y0173062D01*
X0153342Y0173109D01*
X0153041Y0173164D01*
X0152741Y0173226D01*
X0152443Y0173296D01*
X0152147Y0173373D01*
X0151852Y0173457D01*
X0151560Y0173548D01*
X0151270Y0173647D01*
X0150983Y0173752D01*
X0150698Y0173864D01*
X0150416Y0173984D01*
X0150137Y0174110D01*
X0149862Y0174243D01*
X0149589Y0174383D01*
X0149320Y0174529D01*
X0149055Y0174682D01*
X0148794Y0174842D01*
X0148537Y0175008D01*
X0148283Y0175180D01*
X0148034Y0175358D01*
X0147790Y0175542D01*
X0147550Y0175732D01*
X0147315Y0175928D01*
X0147084Y0176130D01*
X0146859Y0176337D01*
X0146639Y0176550D01*
X0146424Y0176768D01*
X0146215Y0176991D01*
X0146011Y0177219D01*
X0145812Y0177452D01*
X0145620Y0177690D01*
X0145433Y0177933D01*
X0187933Y0170433D02*
X0187690Y0170246D01*
X0187452Y0170054D01*
X0187219Y0169855D01*
X0186991Y0169651D01*
X0186768Y0169442D01*
X0186550Y0169227D01*
X0186337Y0169007D01*
X0186130Y0168782D01*
X0185928Y0168551D01*
X0185732Y0168316D01*
X0185542Y0168076D01*
X0185358Y0167832D01*
X0185180Y0167583D01*
X0185008Y0167329D01*
X0184842Y0167072D01*
X0184682Y0166811D01*
X0184529Y0166546D01*
X0184383Y0166277D01*
X0184243Y0166004D01*
X0184110Y0165729D01*
X0183984Y0165450D01*
X0183864Y0165168D01*
X0183752Y0164883D01*
X0183647Y0164596D01*
X0183548Y0164306D01*
X0183457Y0164014D01*
X0183373Y0163719D01*
X0183296Y0163423D01*
X0183226Y0163125D01*
X0183164Y0162825D01*
X0183109Y0162524D01*
X0183062Y0162222D01*
X0183022Y0161918D01*
X0182989Y0161614D01*
X0182964Y0161309D01*
X0182946Y0161003D01*
X0182936Y0160697D01*
X0182933Y0160391D01*
X0182938Y0160085D01*
X0182950Y0159779D01*
X0182970Y0159473D01*
X0182997Y0159169D01*
X0183032Y0158864D01*
X0183074Y0158561D01*
X0183123Y0158259D01*
X0183180Y0157958D01*
X0183245Y0157659D01*
X0183316Y0157361D01*
X0183395Y0157066D01*
X0183481Y0156772D01*
X0183574Y0156480D01*
X0183675Y0156191D01*
X0183782Y0155904D01*
X0183897Y0155620D01*
X0184018Y0155339D01*
X0184146Y0155061D01*
X0184281Y0154786D01*
X0184423Y0154515D01*
X0184571Y0154247D01*
X0184726Y0153983D01*
X0184887Y0153723D01*
X0185054Y0153467D01*
X0185228Y0153214D01*
X0185408Y0152967D01*
X0185594Y0152723D01*
X0185785Y0152485D01*
X0185983Y0152251D01*
X0186186Y0152022D01*
X0186395Y0151798D01*
X0186609Y0151579D01*
X0186829Y0151366D01*
X0187053Y0151158D01*
X0187283Y0150955D01*
X0187517Y0150759D01*
X0187757Y0150568D01*
X0188000Y0150383D01*
X0188249Y0150204D01*
X0188501Y0150031D01*
X0188758Y0149864D01*
X0189019Y0149704D01*
X0189284Y0149550D01*
X0189552Y0149403D01*
X0189824Y0149262D01*
X0190099Y0149128D01*
X0190378Y0149001D01*
X0190659Y0148880D01*
X0190944Y0148767D01*
X0191231Y0148661D01*
X0191520Y0148561D01*
X0191812Y0148469D01*
X0192106Y0148384D01*
X0192402Y0148306D01*
X0192700Y0148235D01*
X0193000Y0148172D01*
X0193301Y0148116D01*
X0193603Y0148068D01*
X0193906Y0148027D01*
X0194210Y0147993D01*
X0194515Y0147967D01*
X0194821Y0147948D01*
X0195127Y0147937D01*
X0195433Y0147933D01*
X0195739Y0147937D01*
X0196045Y0147948D01*
X0196351Y0147967D01*
X0196656Y0147993D01*
X0196960Y0148027D01*
X0197263Y0148068D01*
X0197565Y0148116D01*
X0197866Y0148172D01*
X0198166Y0148235D01*
X0198464Y0148306D01*
X0198760Y0148384D01*
X0199054Y0148469D01*
X0199346Y0148561D01*
X0199635Y0148661D01*
X0199922Y0148767D01*
X0200207Y0148880D01*
X0200488Y0149001D01*
X0200767Y0149128D01*
X0201042Y0149262D01*
X0201314Y0149403D01*
X0201582Y0149550D01*
X0201847Y0149704D01*
X0202108Y0149864D01*
X0202365Y0150031D01*
X0202617Y0150204D01*
X0202866Y0150383D01*
X0203109Y0150568D01*
X0203349Y0150759D01*
X0203583Y0150955D01*
X0203813Y0151158D01*
X0204037Y0151366D01*
X0204257Y0151579D01*
X0204471Y0151798D01*
X0204680Y0152022D01*
X0204883Y0152251D01*
X0205081Y0152485D01*
X0205272Y0152723D01*
X0205458Y0152967D01*
X0205638Y0153214D01*
X0205812Y0153467D01*
X0205979Y0153723D01*
X0206140Y0153983D01*
X0206295Y0154247D01*
X0206443Y0154515D01*
X0206585Y0154786D01*
X0206720Y0155061D01*
X0206848Y0155339D01*
X0206969Y0155620D01*
X0207084Y0155904D01*
X0207191Y0156191D01*
X0207292Y0156480D01*
X0207385Y0156772D01*
X0207471Y0157066D01*
X0207550Y0157361D01*
X0207621Y0157659D01*
X0207686Y0157958D01*
X0207743Y0158259D01*
X0207792Y0158561D01*
X0207834Y0158864D01*
X0207869Y0159169D01*
X0207896Y0159473D01*
X0207916Y0159779D01*
X0207928Y0160085D01*
X0207933Y0160391D01*
X0207930Y0160697D01*
X0207920Y0161003D01*
X0207902Y0161309D01*
X0207877Y0161614D01*
X0207844Y0161918D01*
X0207804Y0162222D01*
X0207757Y0162524D01*
X0207702Y0162825D01*
X0207640Y0163125D01*
X0207570Y0163423D01*
X0207493Y0163719D01*
X0207409Y0164014D01*
X0207318Y0164306D01*
X0207219Y0164596D01*
X0207114Y0164883D01*
X0207002Y0165168D01*
X0206882Y0165450D01*
X0206756Y0165729D01*
X0206623Y0166004D01*
X0206483Y0166277D01*
X0206337Y0166546D01*
X0206184Y0166811D01*
X0206024Y0167072D01*
X0205858Y0167329D01*
X0205686Y0167583D01*
X0205508Y0167832D01*
X0205324Y0168076D01*
X0205134Y0168316D01*
X0204938Y0168551D01*
X0204736Y0168782D01*
X0204529Y0169007D01*
X0204316Y0169227D01*
X0204098Y0169442D01*
X0203875Y0169651D01*
X0203647Y0169855D01*
X0203414Y0170054D01*
X0203176Y0170246D01*
X0202933Y0170433D01*
X0205433Y0042933D02*
X0205246Y0043176D01*
X0205054Y0043414D01*
X0204855Y0043647D01*
X0204651Y0043875D01*
X0204442Y0044098D01*
X0204227Y0044316D01*
X0204007Y0044529D01*
X0203782Y0044736D01*
X0203551Y0044938D01*
X0203316Y0045134D01*
X0203076Y0045324D01*
X0202832Y0045508D01*
X0202583Y0045686D01*
X0202329Y0045858D01*
X0202072Y0046024D01*
X0201811Y0046184D01*
X0201546Y0046337D01*
X0201277Y0046483D01*
X0201004Y0046623D01*
X0200729Y0046756D01*
X0200450Y0046882D01*
X0200168Y0047002D01*
X0199883Y0047114D01*
X0199596Y0047219D01*
X0199306Y0047318D01*
X0199014Y0047409D01*
X0198719Y0047493D01*
X0198423Y0047570D01*
X0198125Y0047640D01*
X0197825Y0047702D01*
X0197524Y0047757D01*
X0197222Y0047804D01*
X0196918Y0047844D01*
X0196614Y0047877D01*
X0196309Y0047902D01*
X0196003Y0047920D01*
X0195697Y0047930D01*
X0195391Y0047933D01*
X0195085Y0047928D01*
X0194779Y0047916D01*
X0194473Y0047896D01*
X0194169Y0047869D01*
X0193864Y0047834D01*
X0193561Y0047792D01*
X0193259Y0047743D01*
X0192958Y0047686D01*
X0192659Y0047621D01*
X0192361Y0047550D01*
X0192066Y0047471D01*
X0191772Y0047385D01*
X0191480Y0047292D01*
X0191191Y0047191D01*
X0190904Y0047084D01*
X0190620Y0046969D01*
X0190339Y0046848D01*
X0190061Y0046720D01*
X0189786Y0046585D01*
X0189515Y0046443D01*
X0189247Y0046295D01*
X0188983Y0046140D01*
X0188723Y0045979D01*
X0188467Y0045812D01*
X0188214Y0045638D01*
X0187967Y0045458D01*
X0187723Y0045272D01*
X0187485Y0045081D01*
X0187251Y0044883D01*
X0187022Y0044680D01*
X0186798Y0044471D01*
X0186579Y0044257D01*
X0186366Y0044037D01*
X0186158Y0043813D01*
X0185955Y0043583D01*
X0185759Y0043349D01*
X0185568Y0043109D01*
X0185383Y0042866D01*
X0185204Y0042617D01*
X0185031Y0042365D01*
X0184864Y0042108D01*
X0184704Y0041847D01*
X0184550Y0041582D01*
X0184403Y0041314D01*
X0184262Y0041042D01*
X0184128Y0040767D01*
X0184001Y0040488D01*
X0183880Y0040207D01*
X0183767Y0039922D01*
X0183661Y0039635D01*
X0183561Y0039346D01*
X0183469Y0039054D01*
X0183384Y0038760D01*
X0183306Y0038464D01*
X0183235Y0038166D01*
X0183172Y0037866D01*
X0183116Y0037565D01*
X0183068Y0037263D01*
X0183027Y0036960D01*
X0182993Y0036656D01*
X0182967Y0036351D01*
X0182948Y0036045D01*
X0182937Y0035739D01*
X0182933Y0035433D01*
X0182937Y0035127D01*
X0182948Y0034821D01*
X0182967Y0034515D01*
X0182993Y0034210D01*
X0183027Y0033906D01*
X0183068Y0033603D01*
X0183116Y0033301D01*
X0183172Y0033000D01*
X0183235Y0032700D01*
X0183306Y0032402D01*
X0183384Y0032106D01*
X0183469Y0031812D01*
X0183561Y0031520D01*
X0183661Y0031231D01*
X0183767Y0030944D01*
X0183880Y0030659D01*
X0184001Y0030378D01*
X0184128Y0030099D01*
X0184262Y0029824D01*
X0184403Y0029552D01*
X0184550Y0029284D01*
X0184704Y0029019D01*
X0184864Y0028758D01*
X0185031Y0028501D01*
X0185204Y0028249D01*
X0185383Y0028000D01*
X0185568Y0027757D01*
X0185759Y0027517D01*
X0185955Y0027283D01*
X0186158Y0027053D01*
X0186366Y0026829D01*
X0186579Y0026609D01*
X0186798Y0026395D01*
X0187022Y0026186D01*
X0187251Y0025983D01*
X0187485Y0025785D01*
X0187723Y0025594D01*
X0187967Y0025408D01*
X0188214Y0025228D01*
X0188467Y0025054D01*
X0188723Y0024887D01*
X0188983Y0024726D01*
X0189247Y0024571D01*
X0189515Y0024423D01*
X0189786Y0024281D01*
X0190061Y0024146D01*
X0190339Y0024018D01*
X0190620Y0023897D01*
X0190904Y0023782D01*
X0191191Y0023675D01*
X0191480Y0023574D01*
X0191772Y0023481D01*
X0192066Y0023395D01*
X0192361Y0023316D01*
X0192659Y0023245D01*
X0192958Y0023180D01*
X0193259Y0023123D01*
X0193561Y0023074D01*
X0193864Y0023032D01*
X0194169Y0022997D01*
X0194473Y0022970D01*
X0194779Y0022950D01*
X0195085Y0022938D01*
X0195391Y0022933D01*
X0195697Y0022936D01*
X0196003Y0022946D01*
X0196309Y0022964D01*
X0196614Y0022989D01*
X0196918Y0023022D01*
X0197222Y0023062D01*
X0197524Y0023109D01*
X0197825Y0023164D01*
X0198125Y0023226D01*
X0198423Y0023296D01*
X0198719Y0023373D01*
X0199014Y0023457D01*
X0199306Y0023548D01*
X0199596Y0023647D01*
X0199883Y0023752D01*
X0200168Y0023864D01*
X0200450Y0023984D01*
X0200729Y0024110D01*
X0201004Y0024243D01*
X0201277Y0024383D01*
X0201546Y0024529D01*
X0201811Y0024682D01*
X0202072Y0024842D01*
X0202329Y0025008D01*
X0202583Y0025180D01*
X0202832Y0025358D01*
X0203076Y0025542D01*
X0203316Y0025732D01*
X0203551Y0025928D01*
X0203782Y0026130D01*
X0204007Y0026337D01*
X0204227Y0026550D01*
X0204442Y0026768D01*
X0204651Y0026991D01*
X0204855Y0027219D01*
X0205054Y0027452D01*
X0205246Y0027690D01*
X0205433Y0027933D01*
D12*
X0185433Y0035433D02*
X0185436Y0035678D01*
X0185445Y0035924D01*
X0185460Y0036169D01*
X0185481Y0036413D01*
X0185508Y0036657D01*
X0185541Y0036900D01*
X0185580Y0037143D01*
X0185625Y0037384D01*
X0185676Y0037624D01*
X0185733Y0037863D01*
X0185795Y0038100D01*
X0185864Y0038336D01*
X0185938Y0038570D01*
X0186018Y0038802D01*
X0186103Y0039032D01*
X0186194Y0039260D01*
X0186291Y0039485D01*
X0186393Y0039709D01*
X0186501Y0039929D01*
X0186614Y0040147D01*
X0186732Y0040362D01*
X0186856Y0040574D01*
X0186984Y0040783D01*
X0187118Y0040989D01*
X0187257Y0041191D01*
X0187401Y0041390D01*
X0187550Y0041585D01*
X0187703Y0041777D01*
X0187861Y0041965D01*
X0188023Y0042149D01*
X0188191Y0042328D01*
X0188362Y0042504D01*
X0188538Y0042675D01*
X0188717Y0042843D01*
X0188901Y0043005D01*
X0189089Y0043163D01*
X0189281Y0043316D01*
X0189476Y0043465D01*
X0189675Y0043609D01*
X0189877Y0043748D01*
X0190083Y0043882D01*
X0190292Y0044010D01*
X0190504Y0044134D01*
X0190719Y0044252D01*
X0190937Y0044365D01*
X0191157Y0044473D01*
X0191381Y0044575D01*
X0191606Y0044672D01*
X0191834Y0044763D01*
X0192064Y0044848D01*
X0192296Y0044928D01*
X0192530Y0045002D01*
X0192766Y0045071D01*
X0193003Y0045133D01*
X0193242Y0045190D01*
X0193482Y0045241D01*
X0193723Y0045286D01*
X0193966Y0045325D01*
X0194209Y0045358D01*
X0194453Y0045385D01*
X0194697Y0045406D01*
X0194942Y0045421D01*
X0195188Y0045430D01*
X0195433Y0045433D01*
X0195678Y0045430D01*
X0195924Y0045421D01*
X0196169Y0045406D01*
X0196413Y0045385D01*
X0196657Y0045358D01*
X0196900Y0045325D01*
X0197143Y0045286D01*
X0197384Y0045241D01*
X0197624Y0045190D01*
X0197863Y0045133D01*
X0198100Y0045071D01*
X0198336Y0045002D01*
X0198570Y0044928D01*
X0198802Y0044848D01*
X0199032Y0044763D01*
X0199260Y0044672D01*
X0199485Y0044575D01*
X0199709Y0044473D01*
X0199929Y0044365D01*
X0200147Y0044252D01*
X0200362Y0044134D01*
X0200574Y0044010D01*
X0200783Y0043882D01*
X0200989Y0043748D01*
X0201191Y0043609D01*
X0201390Y0043465D01*
X0201585Y0043316D01*
X0201777Y0043163D01*
X0201965Y0043005D01*
X0202149Y0042843D01*
X0202328Y0042675D01*
X0202504Y0042504D01*
X0202675Y0042328D01*
X0202843Y0042149D01*
X0203005Y0041965D01*
X0203163Y0041777D01*
X0203316Y0041585D01*
X0203465Y0041390D01*
X0203609Y0041191D01*
X0203748Y0040989D01*
X0203882Y0040783D01*
X0204010Y0040574D01*
X0204134Y0040362D01*
X0204252Y0040147D01*
X0204365Y0039929D01*
X0204473Y0039709D01*
X0204575Y0039485D01*
X0204672Y0039260D01*
X0204763Y0039032D01*
X0204848Y0038802D01*
X0204928Y0038570D01*
X0205002Y0038336D01*
X0205071Y0038100D01*
X0205133Y0037863D01*
X0205190Y0037624D01*
X0205241Y0037384D01*
X0205286Y0037143D01*
X0205325Y0036900D01*
X0205358Y0036657D01*
X0205385Y0036413D01*
X0205406Y0036169D01*
X0205421Y0035924D01*
X0205430Y0035678D01*
X0205433Y0035433D01*
X0205430Y0035188D01*
X0205421Y0034942D01*
X0205406Y0034697D01*
X0205385Y0034453D01*
X0205358Y0034209D01*
X0205325Y0033966D01*
X0205286Y0033723D01*
X0205241Y0033482D01*
X0205190Y0033242D01*
X0205133Y0033003D01*
X0205071Y0032766D01*
X0205002Y0032530D01*
X0204928Y0032296D01*
X0204848Y0032064D01*
X0204763Y0031834D01*
X0204672Y0031606D01*
X0204575Y0031381D01*
X0204473Y0031157D01*
X0204365Y0030937D01*
X0204252Y0030719D01*
X0204134Y0030504D01*
X0204010Y0030292D01*
X0203882Y0030083D01*
X0203748Y0029877D01*
X0203609Y0029675D01*
X0203465Y0029476D01*
X0203316Y0029281D01*
X0203163Y0029089D01*
X0203005Y0028901D01*
X0202843Y0028717D01*
X0202675Y0028538D01*
X0202504Y0028362D01*
X0202328Y0028191D01*
X0202149Y0028023D01*
X0201965Y0027861D01*
X0201777Y0027703D01*
X0201585Y0027550D01*
X0201390Y0027401D01*
X0201191Y0027257D01*
X0200989Y0027118D01*
X0200783Y0026984D01*
X0200574Y0026856D01*
X0200362Y0026732D01*
X0200147Y0026614D01*
X0199929Y0026501D01*
X0199709Y0026393D01*
X0199485Y0026291D01*
X0199260Y0026194D01*
X0199032Y0026103D01*
X0198802Y0026018D01*
X0198570Y0025938D01*
X0198336Y0025864D01*
X0198100Y0025795D01*
X0197863Y0025733D01*
X0197624Y0025676D01*
X0197384Y0025625D01*
X0197143Y0025580D01*
X0196900Y0025541D01*
X0196657Y0025508D01*
X0196413Y0025481D01*
X0196169Y0025460D01*
X0195924Y0025445D01*
X0195678Y0025436D01*
X0195433Y0025433D01*
X0195188Y0025436D01*
X0194942Y0025445D01*
X0194697Y0025460D01*
X0194453Y0025481D01*
X0194209Y0025508D01*
X0193966Y0025541D01*
X0193723Y0025580D01*
X0193482Y0025625D01*
X0193242Y0025676D01*
X0193003Y0025733D01*
X0192766Y0025795D01*
X0192530Y0025864D01*
X0192296Y0025938D01*
X0192064Y0026018D01*
X0191834Y0026103D01*
X0191606Y0026194D01*
X0191381Y0026291D01*
X0191157Y0026393D01*
X0190937Y0026501D01*
X0190719Y0026614D01*
X0190504Y0026732D01*
X0190292Y0026856D01*
X0190083Y0026984D01*
X0189877Y0027118D01*
X0189675Y0027257D01*
X0189476Y0027401D01*
X0189281Y0027550D01*
X0189089Y0027703D01*
X0188901Y0027861D01*
X0188717Y0028023D01*
X0188538Y0028191D01*
X0188362Y0028362D01*
X0188191Y0028538D01*
X0188023Y0028717D01*
X0187861Y0028901D01*
X0187703Y0029089D01*
X0187550Y0029281D01*
X0187401Y0029476D01*
X0187257Y0029675D01*
X0187118Y0029877D01*
X0186984Y0030083D01*
X0186856Y0030292D01*
X0186732Y0030504D01*
X0186614Y0030719D01*
X0186501Y0030937D01*
X0186393Y0031157D01*
X0186291Y0031381D01*
X0186194Y0031606D01*
X0186103Y0031834D01*
X0186018Y0032064D01*
X0185938Y0032296D01*
X0185864Y0032530D01*
X0185795Y0032766D01*
X0185733Y0033003D01*
X0185676Y0033242D01*
X0185625Y0033482D01*
X0185580Y0033723D01*
X0185541Y0033966D01*
X0185508Y0034209D01*
X0185481Y0034453D01*
X0185460Y0034697D01*
X0185445Y0034942D01*
X0185436Y0035188D01*
X0185433Y0035433D01*
X0162933Y0033933D02*
X0162933Y0026933D01*
X0162931Y0026873D01*
X0162926Y0026812D01*
X0162917Y0026753D01*
X0162904Y0026694D01*
X0162888Y0026635D01*
X0162868Y0026578D01*
X0162845Y0026523D01*
X0162818Y0026468D01*
X0162789Y0026416D01*
X0162756Y0026365D01*
X0162720Y0026316D01*
X0162682Y0026270D01*
X0162640Y0026226D01*
X0162596Y0026184D01*
X0162550Y0026146D01*
X0162501Y0026110D01*
X0162450Y0026077D01*
X0162398Y0026048D01*
X0162343Y0026021D01*
X0162288Y0025998D01*
X0162231Y0025978D01*
X0162172Y0025962D01*
X0162113Y0025949D01*
X0162054Y0025940D01*
X0161993Y0025935D01*
X0161933Y0025933D01*
X0160433Y0025933D01*
X0159933Y0026433D01*
X0140933Y0026433D01*
X0140433Y0025933D01*
X0138933Y0025933D01*
X0138873Y0025935D01*
X0138812Y0025940D01*
X0138753Y0025949D01*
X0138694Y0025962D01*
X0138635Y0025978D01*
X0138578Y0025998D01*
X0138523Y0026021D01*
X0138468Y0026048D01*
X0138416Y0026077D01*
X0138365Y0026110D01*
X0138316Y0026146D01*
X0138270Y0026184D01*
X0138226Y0026226D01*
X0138184Y0026270D01*
X0138146Y0026316D01*
X0138110Y0026365D01*
X0138077Y0026416D01*
X0138048Y0026468D01*
X0138021Y0026523D01*
X0137998Y0026578D01*
X0137978Y0026635D01*
X0137962Y0026694D01*
X0137949Y0026753D01*
X0137940Y0026812D01*
X0137935Y0026873D01*
X0137933Y0026933D01*
X0137933Y0033933D01*
X0137935Y0033993D01*
X0137940Y0034054D01*
X0137949Y0034113D01*
X0137962Y0034172D01*
X0137978Y0034231D01*
X0137998Y0034288D01*
X0138021Y0034343D01*
X0138048Y0034398D01*
X0138077Y0034450D01*
X0138110Y0034501D01*
X0138146Y0034550D01*
X0138184Y0034596D01*
X0138226Y0034640D01*
X0138270Y0034682D01*
X0138316Y0034720D01*
X0138365Y0034756D01*
X0138416Y0034789D01*
X0138468Y0034818D01*
X0138523Y0034845D01*
X0138578Y0034868D01*
X0138635Y0034888D01*
X0138694Y0034904D01*
X0138753Y0034917D01*
X0138812Y0034926D01*
X0138873Y0034931D01*
X0138933Y0034933D01*
X0140433Y0034933D01*
X0140933Y0034433D01*
X0159933Y0034433D01*
X0160433Y0034933D01*
X0161933Y0034933D01*
X0161993Y0034931D01*
X0162054Y0034926D01*
X0162113Y0034917D01*
X0162172Y0034904D01*
X0162231Y0034888D01*
X0162288Y0034868D01*
X0162343Y0034845D01*
X0162398Y0034818D01*
X0162450Y0034789D01*
X0162501Y0034756D01*
X0162550Y0034720D01*
X0162596Y0034682D01*
X0162640Y0034640D01*
X0162682Y0034596D01*
X0162720Y0034550D01*
X0162756Y0034501D01*
X0162789Y0034450D01*
X0162818Y0034398D01*
X0162845Y0034343D01*
X0162868Y0034288D01*
X0162888Y0034231D01*
X0162904Y0034172D01*
X0162917Y0034113D01*
X0162926Y0034054D01*
X0162931Y0033993D01*
X0162933Y0033933D01*
X0161933Y0035933D02*
X0160433Y0035933D01*
X0159933Y0036433D01*
X0140933Y0036433D01*
X0140433Y0035933D01*
X0138933Y0035933D01*
X0138873Y0035935D01*
X0138812Y0035940D01*
X0138753Y0035949D01*
X0138694Y0035962D01*
X0138635Y0035978D01*
X0138578Y0035998D01*
X0138523Y0036021D01*
X0138468Y0036048D01*
X0138416Y0036077D01*
X0138365Y0036110D01*
X0138316Y0036146D01*
X0138270Y0036184D01*
X0138226Y0036226D01*
X0138184Y0036270D01*
X0138146Y0036316D01*
X0138110Y0036365D01*
X0138077Y0036416D01*
X0138048Y0036468D01*
X0138021Y0036523D01*
X0137998Y0036578D01*
X0137978Y0036635D01*
X0137962Y0036694D01*
X0137949Y0036753D01*
X0137940Y0036812D01*
X0137935Y0036873D01*
X0137933Y0036933D01*
X0137933Y0043933D01*
X0137935Y0043993D01*
X0137940Y0044054D01*
X0137949Y0044113D01*
X0137962Y0044172D01*
X0137978Y0044231D01*
X0137998Y0044288D01*
X0138021Y0044343D01*
X0138048Y0044398D01*
X0138077Y0044450D01*
X0138110Y0044501D01*
X0138146Y0044550D01*
X0138184Y0044596D01*
X0138226Y0044640D01*
X0138270Y0044682D01*
X0138316Y0044720D01*
X0138365Y0044756D01*
X0138416Y0044789D01*
X0138468Y0044818D01*
X0138523Y0044845D01*
X0138578Y0044868D01*
X0138635Y0044888D01*
X0138694Y0044904D01*
X0138753Y0044917D01*
X0138812Y0044926D01*
X0138873Y0044931D01*
X0138933Y0044933D01*
X0140433Y0044933D01*
X0140933Y0044433D01*
X0159933Y0044433D01*
X0160433Y0044933D01*
X0161933Y0044933D01*
X0161993Y0044931D01*
X0162054Y0044926D01*
X0162113Y0044917D01*
X0162172Y0044904D01*
X0162231Y0044888D01*
X0162288Y0044868D01*
X0162343Y0044845D01*
X0162398Y0044818D01*
X0162450Y0044789D01*
X0162501Y0044756D01*
X0162550Y0044720D01*
X0162596Y0044682D01*
X0162640Y0044640D01*
X0162682Y0044596D01*
X0162720Y0044550D01*
X0162756Y0044501D01*
X0162789Y0044450D01*
X0162818Y0044398D01*
X0162845Y0044343D01*
X0162868Y0044288D01*
X0162888Y0044231D01*
X0162904Y0044172D01*
X0162917Y0044113D01*
X0162926Y0044054D01*
X0162931Y0043993D01*
X0162933Y0043933D01*
X0162933Y0036933D01*
X0162931Y0036873D01*
X0162926Y0036812D01*
X0162917Y0036753D01*
X0162904Y0036694D01*
X0162888Y0036635D01*
X0162868Y0036578D01*
X0162845Y0036523D01*
X0162818Y0036468D01*
X0162789Y0036416D01*
X0162756Y0036365D01*
X0162720Y0036316D01*
X0162682Y0036270D01*
X0162640Y0036226D01*
X0162596Y0036184D01*
X0162550Y0036146D01*
X0162501Y0036110D01*
X0162450Y0036077D01*
X0162398Y0036048D01*
X0162343Y0036021D01*
X0162288Y0035998D01*
X0162231Y0035978D01*
X0162172Y0035962D01*
X0162113Y0035949D01*
X0162054Y0035940D01*
X0161993Y0035935D01*
X0161933Y0035933D01*
X0132933Y0051933D02*
X0132933Y0058933D01*
X0132931Y0058993D01*
X0132926Y0059054D01*
X0132917Y0059113D01*
X0132904Y0059172D01*
X0132888Y0059231D01*
X0132868Y0059288D01*
X0132845Y0059343D01*
X0132818Y0059398D01*
X0132789Y0059450D01*
X0132756Y0059501D01*
X0132720Y0059550D01*
X0132682Y0059596D01*
X0132640Y0059640D01*
X0132596Y0059682D01*
X0132550Y0059720D01*
X0132501Y0059756D01*
X0132450Y0059789D01*
X0132398Y0059818D01*
X0132343Y0059845D01*
X0132288Y0059868D01*
X0132231Y0059888D01*
X0132172Y0059904D01*
X0132113Y0059917D01*
X0132054Y0059926D01*
X0131993Y0059931D01*
X0131933Y0059933D01*
X0130433Y0059933D01*
X0129933Y0059433D01*
X0110933Y0059433D01*
X0110433Y0059933D01*
X0108933Y0059933D01*
X0108873Y0059931D01*
X0108812Y0059926D01*
X0108753Y0059917D01*
X0108694Y0059904D01*
X0108635Y0059888D01*
X0108578Y0059868D01*
X0108523Y0059845D01*
X0108468Y0059818D01*
X0108416Y0059789D01*
X0108365Y0059756D01*
X0108316Y0059720D01*
X0108270Y0059682D01*
X0108226Y0059640D01*
X0108184Y0059596D01*
X0108146Y0059550D01*
X0108110Y0059501D01*
X0108077Y0059450D01*
X0108048Y0059398D01*
X0108021Y0059343D01*
X0107998Y0059288D01*
X0107978Y0059231D01*
X0107962Y0059172D01*
X0107949Y0059113D01*
X0107940Y0059054D01*
X0107935Y0058993D01*
X0107933Y0058933D01*
X0107933Y0051933D01*
X0107935Y0051873D01*
X0107940Y0051812D01*
X0107949Y0051753D01*
X0107962Y0051694D01*
X0107978Y0051635D01*
X0107998Y0051578D01*
X0108021Y0051523D01*
X0108048Y0051468D01*
X0108077Y0051416D01*
X0108110Y0051365D01*
X0108146Y0051316D01*
X0108184Y0051270D01*
X0108226Y0051226D01*
X0108270Y0051184D01*
X0108316Y0051146D01*
X0108365Y0051110D01*
X0108416Y0051077D01*
X0108468Y0051048D01*
X0108523Y0051021D01*
X0108578Y0050998D01*
X0108635Y0050978D01*
X0108694Y0050962D01*
X0108753Y0050949D01*
X0108812Y0050940D01*
X0108873Y0050935D01*
X0108933Y0050933D01*
X0110433Y0050933D01*
X0110933Y0051433D01*
X0129933Y0051433D01*
X0130433Y0050933D01*
X0131933Y0050933D01*
X0131993Y0050935D01*
X0132054Y0050940D01*
X0132113Y0050949D01*
X0132172Y0050962D01*
X0132231Y0050978D01*
X0132288Y0050998D01*
X0132343Y0051021D01*
X0132398Y0051048D01*
X0132450Y0051077D01*
X0132501Y0051110D01*
X0132550Y0051146D01*
X0132596Y0051184D01*
X0132640Y0051226D01*
X0132682Y0051270D01*
X0132720Y0051316D01*
X0132756Y0051365D01*
X0132789Y0051416D01*
X0132818Y0051468D01*
X0132845Y0051523D01*
X0132868Y0051578D01*
X0132888Y0051635D01*
X0132904Y0051694D01*
X0132917Y0051753D01*
X0132926Y0051812D01*
X0132931Y0051873D01*
X0132933Y0051933D01*
X0131933Y0065933D02*
X0130433Y0065933D01*
X0129933Y0066433D01*
X0110933Y0066433D01*
X0110433Y0065933D01*
X0108933Y0065933D01*
X0108873Y0065935D01*
X0108812Y0065940D01*
X0108753Y0065949D01*
X0108694Y0065962D01*
X0108635Y0065978D01*
X0108578Y0065998D01*
X0108523Y0066021D01*
X0108468Y0066048D01*
X0108416Y0066077D01*
X0108365Y0066110D01*
X0108316Y0066146D01*
X0108270Y0066184D01*
X0108226Y0066226D01*
X0108184Y0066270D01*
X0108146Y0066316D01*
X0108110Y0066365D01*
X0108077Y0066416D01*
X0108048Y0066468D01*
X0108021Y0066523D01*
X0107998Y0066578D01*
X0107978Y0066635D01*
X0107962Y0066694D01*
X0107949Y0066753D01*
X0107940Y0066812D01*
X0107935Y0066873D01*
X0107933Y0066933D01*
X0107933Y0073933D01*
X0107935Y0073993D01*
X0107940Y0074054D01*
X0107949Y0074113D01*
X0107962Y0074172D01*
X0107978Y0074231D01*
X0107998Y0074288D01*
X0108021Y0074343D01*
X0108048Y0074398D01*
X0108077Y0074450D01*
X0108110Y0074501D01*
X0108146Y0074550D01*
X0108184Y0074596D01*
X0108226Y0074640D01*
X0108270Y0074682D01*
X0108316Y0074720D01*
X0108365Y0074756D01*
X0108416Y0074789D01*
X0108468Y0074818D01*
X0108523Y0074845D01*
X0108578Y0074868D01*
X0108635Y0074888D01*
X0108694Y0074904D01*
X0108753Y0074917D01*
X0108812Y0074926D01*
X0108873Y0074931D01*
X0108933Y0074933D01*
X0110433Y0074933D01*
X0110933Y0074433D01*
X0129933Y0074433D01*
X0130433Y0074933D01*
X0131933Y0074933D01*
X0131993Y0074931D01*
X0132054Y0074926D01*
X0132113Y0074917D01*
X0132172Y0074904D01*
X0132231Y0074888D01*
X0132288Y0074868D01*
X0132343Y0074845D01*
X0132398Y0074818D01*
X0132450Y0074789D01*
X0132501Y0074756D01*
X0132550Y0074720D01*
X0132596Y0074682D01*
X0132640Y0074640D01*
X0132682Y0074596D01*
X0132720Y0074550D01*
X0132756Y0074501D01*
X0132789Y0074450D01*
X0132818Y0074398D01*
X0132845Y0074343D01*
X0132868Y0074288D01*
X0132888Y0074231D01*
X0132904Y0074172D01*
X0132917Y0074113D01*
X0132926Y0074054D01*
X0132931Y0073993D01*
X0132933Y0073933D01*
X0132933Y0066933D01*
X0132931Y0066873D01*
X0132926Y0066812D01*
X0132917Y0066753D01*
X0132904Y0066694D01*
X0132888Y0066635D01*
X0132868Y0066578D01*
X0132845Y0066523D01*
X0132818Y0066468D01*
X0132789Y0066416D01*
X0132756Y0066365D01*
X0132720Y0066316D01*
X0132682Y0066270D01*
X0132640Y0066226D01*
X0132596Y0066184D01*
X0132550Y0066146D01*
X0132501Y0066110D01*
X0132450Y0066077D01*
X0132398Y0066048D01*
X0132343Y0066021D01*
X0132288Y0065998D01*
X0132231Y0065978D01*
X0132172Y0065962D01*
X0132113Y0065949D01*
X0132054Y0065940D01*
X0131993Y0065935D01*
X0131933Y0065933D01*
X0138933Y0080433D02*
X0161933Y0080433D01*
X0161933Y0150433D01*
X0154433Y0150433D01*
X0154431Y0150307D01*
X0154425Y0150182D01*
X0154415Y0150057D01*
X0154401Y0149932D01*
X0154384Y0149807D01*
X0154362Y0149683D01*
X0154337Y0149560D01*
X0154307Y0149438D01*
X0154274Y0149317D01*
X0154237Y0149197D01*
X0154197Y0149078D01*
X0154152Y0148961D01*
X0154104Y0148844D01*
X0154052Y0148730D01*
X0153997Y0148617D01*
X0153938Y0148506D01*
X0153876Y0148397D01*
X0153810Y0148290D01*
X0153741Y0148185D01*
X0153669Y0148082D01*
X0153594Y0147981D01*
X0153515Y0147883D01*
X0153433Y0147788D01*
X0153349Y0147695D01*
X0153261Y0147605D01*
X0153171Y0147517D01*
X0153078Y0147433D01*
X0152983Y0147351D01*
X0152885Y0147272D01*
X0152784Y0147197D01*
X0152681Y0147125D01*
X0152576Y0147056D01*
X0152469Y0146990D01*
X0152360Y0146928D01*
X0152249Y0146869D01*
X0152136Y0146814D01*
X0152022Y0146762D01*
X0151905Y0146714D01*
X0151788Y0146669D01*
X0151669Y0146629D01*
X0151549Y0146592D01*
X0151428Y0146559D01*
X0151306Y0146529D01*
X0151183Y0146504D01*
X0151059Y0146482D01*
X0150934Y0146465D01*
X0150809Y0146451D01*
X0150684Y0146441D01*
X0150559Y0146435D01*
X0150433Y0146433D01*
X0150307Y0146435D01*
X0150182Y0146441D01*
X0150057Y0146451D01*
X0149932Y0146465D01*
X0149807Y0146482D01*
X0149683Y0146504D01*
X0149560Y0146529D01*
X0149438Y0146559D01*
X0149317Y0146592D01*
X0149197Y0146629D01*
X0149078Y0146669D01*
X0148961Y0146714D01*
X0148844Y0146762D01*
X0148730Y0146814D01*
X0148617Y0146869D01*
X0148506Y0146928D01*
X0148397Y0146990D01*
X0148290Y0147056D01*
X0148185Y0147125D01*
X0148082Y0147197D01*
X0147981Y0147272D01*
X0147883Y0147351D01*
X0147788Y0147433D01*
X0147695Y0147517D01*
X0147605Y0147605D01*
X0147517Y0147695D01*
X0147433Y0147788D01*
X0147351Y0147883D01*
X0147272Y0147981D01*
X0147197Y0148082D01*
X0147125Y0148185D01*
X0147056Y0148290D01*
X0146990Y0148397D01*
X0146928Y0148506D01*
X0146869Y0148617D01*
X0146814Y0148730D01*
X0146762Y0148844D01*
X0146714Y0148961D01*
X0146669Y0149078D01*
X0146629Y0149197D01*
X0146592Y0149317D01*
X0146559Y0149438D01*
X0146529Y0149560D01*
X0146504Y0149683D01*
X0146482Y0149807D01*
X0146465Y0149932D01*
X0146451Y0150057D01*
X0146441Y0150182D01*
X0146435Y0150307D01*
X0146433Y0150433D01*
X0138933Y0150433D01*
X0138933Y0080433D01*
X0116933Y0080433D02*
X0109433Y0080433D01*
X0109431Y0080559D01*
X0109425Y0080684D01*
X0109415Y0080809D01*
X0109401Y0080934D01*
X0109384Y0081059D01*
X0109362Y0081183D01*
X0109337Y0081306D01*
X0109307Y0081428D01*
X0109274Y0081549D01*
X0109237Y0081669D01*
X0109197Y0081788D01*
X0109152Y0081905D01*
X0109104Y0082022D01*
X0109052Y0082136D01*
X0108997Y0082249D01*
X0108938Y0082360D01*
X0108876Y0082469D01*
X0108810Y0082576D01*
X0108741Y0082681D01*
X0108669Y0082784D01*
X0108594Y0082885D01*
X0108515Y0082983D01*
X0108433Y0083078D01*
X0108349Y0083171D01*
X0108261Y0083261D01*
X0108171Y0083349D01*
X0108078Y0083433D01*
X0107983Y0083515D01*
X0107885Y0083594D01*
X0107784Y0083669D01*
X0107681Y0083741D01*
X0107576Y0083810D01*
X0107469Y0083876D01*
X0107360Y0083938D01*
X0107249Y0083997D01*
X0107136Y0084052D01*
X0107022Y0084104D01*
X0106905Y0084152D01*
X0106788Y0084197D01*
X0106669Y0084237D01*
X0106549Y0084274D01*
X0106428Y0084307D01*
X0106306Y0084337D01*
X0106183Y0084362D01*
X0106059Y0084384D01*
X0105934Y0084401D01*
X0105809Y0084415D01*
X0105684Y0084425D01*
X0105559Y0084431D01*
X0105433Y0084433D01*
X0105307Y0084431D01*
X0105182Y0084425D01*
X0105057Y0084415D01*
X0104932Y0084401D01*
X0104807Y0084384D01*
X0104683Y0084362D01*
X0104560Y0084337D01*
X0104438Y0084307D01*
X0104317Y0084274D01*
X0104197Y0084237D01*
X0104078Y0084197D01*
X0103961Y0084152D01*
X0103844Y0084104D01*
X0103730Y0084052D01*
X0103617Y0083997D01*
X0103506Y0083938D01*
X0103397Y0083876D01*
X0103290Y0083810D01*
X0103185Y0083741D01*
X0103082Y0083669D01*
X0102981Y0083594D01*
X0102883Y0083515D01*
X0102788Y0083433D01*
X0102695Y0083349D01*
X0102605Y0083261D01*
X0102517Y0083171D01*
X0102433Y0083078D01*
X0102351Y0082983D01*
X0102272Y0082885D01*
X0102197Y0082784D01*
X0102125Y0082681D01*
X0102056Y0082576D01*
X0101990Y0082469D01*
X0101928Y0082360D01*
X0101869Y0082249D01*
X0101814Y0082136D01*
X0101762Y0082022D01*
X0101714Y0081905D01*
X0101669Y0081788D01*
X0101629Y0081669D01*
X0101592Y0081549D01*
X0101559Y0081428D01*
X0101529Y0081306D01*
X0101504Y0081183D01*
X0101482Y0081059D01*
X0101465Y0080934D01*
X0101451Y0080809D01*
X0101441Y0080684D01*
X0101435Y0080559D01*
X0101433Y0080433D01*
X0093933Y0080433D01*
X0093933Y0120433D01*
X0116933Y0120433D01*
X0116933Y0080433D01*
X0094933Y0061933D02*
X0094933Y0060433D01*
X0094433Y0059933D01*
X0094433Y0040933D01*
X0094933Y0040433D01*
X0094933Y0038933D01*
X0094931Y0038873D01*
X0094926Y0038812D01*
X0094917Y0038753D01*
X0094904Y0038694D01*
X0094888Y0038635D01*
X0094868Y0038578D01*
X0094845Y0038523D01*
X0094818Y0038468D01*
X0094789Y0038416D01*
X0094756Y0038365D01*
X0094720Y0038316D01*
X0094682Y0038270D01*
X0094640Y0038226D01*
X0094596Y0038184D01*
X0094550Y0038146D01*
X0094501Y0038110D01*
X0094450Y0038077D01*
X0094398Y0038048D01*
X0094343Y0038021D01*
X0094288Y0037998D01*
X0094231Y0037978D01*
X0094172Y0037962D01*
X0094113Y0037949D01*
X0094054Y0037940D01*
X0093993Y0037935D01*
X0093933Y0037933D01*
X0086933Y0037933D01*
X0086873Y0037935D01*
X0086812Y0037940D01*
X0086753Y0037949D01*
X0086694Y0037962D01*
X0086635Y0037978D01*
X0086578Y0037998D01*
X0086523Y0038021D01*
X0086468Y0038048D01*
X0086416Y0038077D01*
X0086365Y0038110D01*
X0086316Y0038146D01*
X0086270Y0038184D01*
X0086226Y0038226D01*
X0086184Y0038270D01*
X0086146Y0038316D01*
X0086110Y0038365D01*
X0086077Y0038416D01*
X0086048Y0038468D01*
X0086021Y0038523D01*
X0085998Y0038578D01*
X0085978Y0038635D01*
X0085962Y0038694D01*
X0085949Y0038753D01*
X0085940Y0038812D01*
X0085935Y0038873D01*
X0085933Y0038933D01*
X0085933Y0040433D01*
X0086433Y0040933D01*
X0086433Y0059933D01*
X0085933Y0060433D01*
X0085933Y0061933D01*
X0085935Y0061993D01*
X0085940Y0062054D01*
X0085949Y0062113D01*
X0085962Y0062172D01*
X0085978Y0062231D01*
X0085998Y0062288D01*
X0086021Y0062343D01*
X0086048Y0062398D01*
X0086077Y0062450D01*
X0086110Y0062501D01*
X0086146Y0062550D01*
X0086184Y0062596D01*
X0086226Y0062640D01*
X0086270Y0062682D01*
X0086316Y0062720D01*
X0086365Y0062756D01*
X0086416Y0062789D01*
X0086468Y0062818D01*
X0086523Y0062845D01*
X0086578Y0062868D01*
X0086635Y0062888D01*
X0086694Y0062904D01*
X0086753Y0062917D01*
X0086812Y0062926D01*
X0086873Y0062931D01*
X0086933Y0062933D01*
X0093933Y0062933D01*
X0093993Y0062931D01*
X0094054Y0062926D01*
X0094113Y0062917D01*
X0094172Y0062904D01*
X0094231Y0062888D01*
X0094288Y0062868D01*
X0094343Y0062845D01*
X0094398Y0062818D01*
X0094450Y0062789D01*
X0094501Y0062756D01*
X0094550Y0062720D01*
X0094596Y0062682D01*
X0094640Y0062640D01*
X0094682Y0062596D01*
X0094720Y0062550D01*
X0094756Y0062501D01*
X0094789Y0062450D01*
X0094818Y0062398D01*
X0094845Y0062343D01*
X0094868Y0062288D01*
X0094888Y0062231D01*
X0094904Y0062172D01*
X0094917Y0062113D01*
X0094926Y0062054D01*
X0094931Y0061993D01*
X0094933Y0061933D01*
X0072933Y0063933D02*
X0072933Y0056933D01*
X0072931Y0056873D01*
X0072926Y0056812D01*
X0072917Y0056753D01*
X0072904Y0056694D01*
X0072888Y0056635D01*
X0072868Y0056578D01*
X0072845Y0056523D01*
X0072818Y0056468D01*
X0072789Y0056416D01*
X0072756Y0056365D01*
X0072720Y0056316D01*
X0072682Y0056270D01*
X0072640Y0056226D01*
X0072596Y0056184D01*
X0072550Y0056146D01*
X0072501Y0056110D01*
X0072450Y0056077D01*
X0072398Y0056048D01*
X0072343Y0056021D01*
X0072288Y0055998D01*
X0072231Y0055978D01*
X0072172Y0055962D01*
X0072113Y0055949D01*
X0072054Y0055940D01*
X0071993Y0055935D01*
X0071933Y0055933D01*
X0070433Y0055933D01*
X0069933Y0056433D01*
X0050933Y0056433D01*
X0050433Y0055933D01*
X0048933Y0055933D01*
X0048873Y0055935D01*
X0048812Y0055940D01*
X0048753Y0055949D01*
X0048694Y0055962D01*
X0048635Y0055978D01*
X0048578Y0055998D01*
X0048523Y0056021D01*
X0048468Y0056048D01*
X0048416Y0056077D01*
X0048365Y0056110D01*
X0048316Y0056146D01*
X0048270Y0056184D01*
X0048226Y0056226D01*
X0048184Y0056270D01*
X0048146Y0056316D01*
X0048110Y0056365D01*
X0048077Y0056416D01*
X0048048Y0056468D01*
X0048021Y0056523D01*
X0047998Y0056578D01*
X0047978Y0056635D01*
X0047962Y0056694D01*
X0047949Y0056753D01*
X0047940Y0056812D01*
X0047935Y0056873D01*
X0047933Y0056933D01*
X0047933Y0063933D01*
X0047935Y0063993D01*
X0047940Y0064054D01*
X0047949Y0064113D01*
X0047962Y0064172D01*
X0047978Y0064231D01*
X0047998Y0064288D01*
X0048021Y0064343D01*
X0048048Y0064398D01*
X0048077Y0064450D01*
X0048110Y0064501D01*
X0048146Y0064550D01*
X0048184Y0064596D01*
X0048226Y0064640D01*
X0048270Y0064682D01*
X0048316Y0064720D01*
X0048365Y0064756D01*
X0048416Y0064789D01*
X0048468Y0064818D01*
X0048523Y0064845D01*
X0048578Y0064868D01*
X0048635Y0064888D01*
X0048694Y0064904D01*
X0048753Y0064917D01*
X0048812Y0064926D01*
X0048873Y0064931D01*
X0048933Y0064933D01*
X0050433Y0064933D01*
X0050933Y0064433D01*
X0069933Y0064433D01*
X0070433Y0064933D01*
X0071933Y0064933D01*
X0071993Y0064931D01*
X0072054Y0064926D01*
X0072113Y0064917D01*
X0072172Y0064904D01*
X0072231Y0064888D01*
X0072288Y0064868D01*
X0072343Y0064845D01*
X0072398Y0064818D01*
X0072450Y0064789D01*
X0072501Y0064756D01*
X0072550Y0064720D01*
X0072596Y0064682D01*
X0072640Y0064640D01*
X0072682Y0064596D01*
X0072720Y0064550D01*
X0072756Y0064501D01*
X0072789Y0064450D01*
X0072818Y0064398D01*
X0072845Y0064343D01*
X0072868Y0064288D01*
X0072888Y0064231D01*
X0072904Y0064172D01*
X0072917Y0064113D01*
X0072926Y0064054D01*
X0072931Y0063993D01*
X0072933Y0063933D01*
X0071933Y0070933D02*
X0070433Y0070933D01*
X0069933Y0071433D01*
X0050933Y0071433D01*
X0050433Y0070933D01*
X0048933Y0070933D01*
X0048873Y0070935D01*
X0048812Y0070940D01*
X0048753Y0070949D01*
X0048694Y0070962D01*
X0048635Y0070978D01*
X0048578Y0070998D01*
X0048523Y0071021D01*
X0048468Y0071048D01*
X0048416Y0071077D01*
X0048365Y0071110D01*
X0048316Y0071146D01*
X0048270Y0071184D01*
X0048226Y0071226D01*
X0048184Y0071270D01*
X0048146Y0071316D01*
X0048110Y0071365D01*
X0048077Y0071416D01*
X0048048Y0071468D01*
X0048021Y0071523D01*
X0047998Y0071578D01*
X0047978Y0071635D01*
X0047962Y0071694D01*
X0047949Y0071753D01*
X0047940Y0071812D01*
X0047935Y0071873D01*
X0047933Y0071933D01*
X0047933Y0078933D01*
X0047935Y0078993D01*
X0047940Y0079054D01*
X0047949Y0079113D01*
X0047962Y0079172D01*
X0047978Y0079231D01*
X0047998Y0079288D01*
X0048021Y0079343D01*
X0048048Y0079398D01*
X0048077Y0079450D01*
X0048110Y0079501D01*
X0048146Y0079550D01*
X0048184Y0079596D01*
X0048226Y0079640D01*
X0048270Y0079682D01*
X0048316Y0079720D01*
X0048365Y0079756D01*
X0048416Y0079789D01*
X0048468Y0079818D01*
X0048523Y0079845D01*
X0048578Y0079868D01*
X0048635Y0079888D01*
X0048694Y0079904D01*
X0048753Y0079917D01*
X0048812Y0079926D01*
X0048873Y0079931D01*
X0048933Y0079933D01*
X0050433Y0079933D01*
X0050933Y0079433D01*
X0069933Y0079433D01*
X0070433Y0079933D01*
X0071933Y0079933D01*
X0071993Y0079931D01*
X0072054Y0079926D01*
X0072113Y0079917D01*
X0072172Y0079904D01*
X0072231Y0079888D01*
X0072288Y0079868D01*
X0072343Y0079845D01*
X0072398Y0079818D01*
X0072450Y0079789D01*
X0072501Y0079756D01*
X0072550Y0079720D01*
X0072596Y0079682D01*
X0072640Y0079640D01*
X0072682Y0079596D01*
X0072720Y0079550D01*
X0072756Y0079501D01*
X0072789Y0079450D01*
X0072818Y0079398D01*
X0072845Y0079343D01*
X0072868Y0079288D01*
X0072888Y0079231D01*
X0072904Y0079172D01*
X0072917Y0079113D01*
X0072926Y0079054D01*
X0072931Y0078993D01*
X0072933Y0078933D01*
X0072933Y0071933D01*
X0072931Y0071873D01*
X0072926Y0071812D01*
X0072917Y0071753D01*
X0072904Y0071694D01*
X0072888Y0071635D01*
X0072868Y0071578D01*
X0072845Y0071523D01*
X0072818Y0071468D01*
X0072789Y0071416D01*
X0072756Y0071365D01*
X0072720Y0071316D01*
X0072682Y0071270D01*
X0072640Y0071226D01*
X0072596Y0071184D01*
X0072550Y0071146D01*
X0072501Y0071110D01*
X0072450Y0071077D01*
X0072398Y0071048D01*
X0072343Y0071021D01*
X0072288Y0070998D01*
X0072231Y0070978D01*
X0072172Y0070962D01*
X0072113Y0070949D01*
X0072054Y0070940D01*
X0071993Y0070935D01*
X0071933Y0070933D01*
X0063933Y0092933D02*
X0056933Y0092933D01*
X0056873Y0092935D01*
X0056812Y0092940D01*
X0056753Y0092949D01*
X0056694Y0092962D01*
X0056635Y0092978D01*
X0056578Y0092998D01*
X0056523Y0093021D01*
X0056468Y0093048D01*
X0056416Y0093077D01*
X0056365Y0093110D01*
X0056316Y0093146D01*
X0056270Y0093184D01*
X0056226Y0093226D01*
X0056184Y0093270D01*
X0056146Y0093316D01*
X0056110Y0093365D01*
X0056077Y0093416D01*
X0056048Y0093468D01*
X0056021Y0093523D01*
X0055998Y0093578D01*
X0055978Y0093635D01*
X0055962Y0093694D01*
X0055949Y0093753D01*
X0055940Y0093812D01*
X0055935Y0093873D01*
X0055933Y0093933D01*
X0055933Y0095433D01*
X0056433Y0095933D01*
X0056433Y0114933D01*
X0055933Y0115433D01*
X0055933Y0116933D01*
X0055935Y0116993D01*
X0055940Y0117054D01*
X0055949Y0117113D01*
X0055962Y0117172D01*
X0055978Y0117231D01*
X0055998Y0117288D01*
X0056021Y0117343D01*
X0056048Y0117398D01*
X0056077Y0117450D01*
X0056110Y0117501D01*
X0056146Y0117550D01*
X0056184Y0117596D01*
X0056226Y0117640D01*
X0056270Y0117682D01*
X0056316Y0117720D01*
X0056365Y0117756D01*
X0056416Y0117789D01*
X0056468Y0117818D01*
X0056523Y0117845D01*
X0056578Y0117868D01*
X0056635Y0117888D01*
X0056694Y0117904D01*
X0056753Y0117917D01*
X0056812Y0117926D01*
X0056873Y0117931D01*
X0056933Y0117933D01*
X0063933Y0117933D01*
X0063993Y0117931D01*
X0064054Y0117926D01*
X0064113Y0117917D01*
X0064172Y0117904D01*
X0064231Y0117888D01*
X0064288Y0117868D01*
X0064343Y0117845D01*
X0064398Y0117818D01*
X0064450Y0117789D01*
X0064501Y0117756D01*
X0064550Y0117720D01*
X0064596Y0117682D01*
X0064640Y0117640D01*
X0064682Y0117596D01*
X0064720Y0117550D01*
X0064756Y0117501D01*
X0064789Y0117450D01*
X0064818Y0117398D01*
X0064845Y0117343D01*
X0064868Y0117288D01*
X0064888Y0117231D01*
X0064904Y0117172D01*
X0064917Y0117113D01*
X0064926Y0117054D01*
X0064931Y0116993D01*
X0064933Y0116933D01*
X0064933Y0115433D01*
X0064433Y0114933D01*
X0064433Y0095933D01*
X0064933Y0095433D01*
X0064933Y0093933D01*
X0064931Y0093873D01*
X0064926Y0093812D01*
X0064917Y0093753D01*
X0064904Y0093694D01*
X0064888Y0093635D01*
X0064868Y0093578D01*
X0064845Y0093523D01*
X0064818Y0093468D01*
X0064789Y0093416D01*
X0064756Y0093365D01*
X0064720Y0093316D01*
X0064682Y0093270D01*
X0064640Y0093226D01*
X0064596Y0093184D01*
X0064550Y0093146D01*
X0064501Y0093110D01*
X0064450Y0093077D01*
X0064398Y0093048D01*
X0064343Y0093021D01*
X0064288Y0092998D01*
X0064231Y0092978D01*
X0064172Y0092962D01*
X0064113Y0092949D01*
X0064054Y0092940D01*
X0063993Y0092935D01*
X0063933Y0092933D01*
X0030433Y0120433D02*
X0030436Y0120678D01*
X0030445Y0120924D01*
X0030460Y0121169D01*
X0030481Y0121413D01*
X0030508Y0121657D01*
X0030541Y0121900D01*
X0030580Y0122143D01*
X0030625Y0122384D01*
X0030676Y0122624D01*
X0030733Y0122863D01*
X0030795Y0123100D01*
X0030864Y0123336D01*
X0030938Y0123570D01*
X0031018Y0123802D01*
X0031103Y0124032D01*
X0031194Y0124260D01*
X0031291Y0124485D01*
X0031393Y0124709D01*
X0031501Y0124929D01*
X0031614Y0125147D01*
X0031732Y0125362D01*
X0031856Y0125574D01*
X0031984Y0125783D01*
X0032118Y0125989D01*
X0032257Y0126191D01*
X0032401Y0126390D01*
X0032550Y0126585D01*
X0032703Y0126777D01*
X0032861Y0126965D01*
X0033023Y0127149D01*
X0033191Y0127328D01*
X0033362Y0127504D01*
X0033538Y0127675D01*
X0033717Y0127843D01*
X0033901Y0128005D01*
X0034089Y0128163D01*
X0034281Y0128316D01*
X0034476Y0128465D01*
X0034675Y0128609D01*
X0034877Y0128748D01*
X0035083Y0128882D01*
X0035292Y0129010D01*
X0035504Y0129134D01*
X0035719Y0129252D01*
X0035937Y0129365D01*
X0036157Y0129473D01*
X0036381Y0129575D01*
X0036606Y0129672D01*
X0036834Y0129763D01*
X0037064Y0129848D01*
X0037296Y0129928D01*
X0037530Y0130002D01*
X0037766Y0130071D01*
X0038003Y0130133D01*
X0038242Y0130190D01*
X0038482Y0130241D01*
X0038723Y0130286D01*
X0038966Y0130325D01*
X0039209Y0130358D01*
X0039453Y0130385D01*
X0039697Y0130406D01*
X0039942Y0130421D01*
X0040188Y0130430D01*
X0040433Y0130433D01*
X0040678Y0130430D01*
X0040924Y0130421D01*
X0041169Y0130406D01*
X0041413Y0130385D01*
X0041657Y0130358D01*
X0041900Y0130325D01*
X0042143Y0130286D01*
X0042384Y0130241D01*
X0042624Y0130190D01*
X0042863Y0130133D01*
X0043100Y0130071D01*
X0043336Y0130002D01*
X0043570Y0129928D01*
X0043802Y0129848D01*
X0044032Y0129763D01*
X0044260Y0129672D01*
X0044485Y0129575D01*
X0044709Y0129473D01*
X0044929Y0129365D01*
X0045147Y0129252D01*
X0045362Y0129134D01*
X0045574Y0129010D01*
X0045783Y0128882D01*
X0045989Y0128748D01*
X0046191Y0128609D01*
X0046390Y0128465D01*
X0046585Y0128316D01*
X0046777Y0128163D01*
X0046965Y0128005D01*
X0047149Y0127843D01*
X0047328Y0127675D01*
X0047504Y0127504D01*
X0047675Y0127328D01*
X0047843Y0127149D01*
X0048005Y0126965D01*
X0048163Y0126777D01*
X0048316Y0126585D01*
X0048465Y0126390D01*
X0048609Y0126191D01*
X0048748Y0125989D01*
X0048882Y0125783D01*
X0049010Y0125574D01*
X0049134Y0125362D01*
X0049252Y0125147D01*
X0049365Y0124929D01*
X0049473Y0124709D01*
X0049575Y0124485D01*
X0049672Y0124260D01*
X0049763Y0124032D01*
X0049848Y0123802D01*
X0049928Y0123570D01*
X0050002Y0123336D01*
X0050071Y0123100D01*
X0050133Y0122863D01*
X0050190Y0122624D01*
X0050241Y0122384D01*
X0050286Y0122143D01*
X0050325Y0121900D01*
X0050358Y0121657D01*
X0050385Y0121413D01*
X0050406Y0121169D01*
X0050421Y0120924D01*
X0050430Y0120678D01*
X0050433Y0120433D01*
X0050430Y0120188D01*
X0050421Y0119942D01*
X0050406Y0119697D01*
X0050385Y0119453D01*
X0050358Y0119209D01*
X0050325Y0118966D01*
X0050286Y0118723D01*
X0050241Y0118482D01*
X0050190Y0118242D01*
X0050133Y0118003D01*
X0050071Y0117766D01*
X0050002Y0117530D01*
X0049928Y0117296D01*
X0049848Y0117064D01*
X0049763Y0116834D01*
X0049672Y0116606D01*
X0049575Y0116381D01*
X0049473Y0116157D01*
X0049365Y0115937D01*
X0049252Y0115719D01*
X0049134Y0115504D01*
X0049010Y0115292D01*
X0048882Y0115083D01*
X0048748Y0114877D01*
X0048609Y0114675D01*
X0048465Y0114476D01*
X0048316Y0114281D01*
X0048163Y0114089D01*
X0048005Y0113901D01*
X0047843Y0113717D01*
X0047675Y0113538D01*
X0047504Y0113362D01*
X0047328Y0113191D01*
X0047149Y0113023D01*
X0046965Y0112861D01*
X0046777Y0112703D01*
X0046585Y0112550D01*
X0046390Y0112401D01*
X0046191Y0112257D01*
X0045989Y0112118D01*
X0045783Y0111984D01*
X0045574Y0111856D01*
X0045362Y0111732D01*
X0045147Y0111614D01*
X0044929Y0111501D01*
X0044709Y0111393D01*
X0044485Y0111291D01*
X0044260Y0111194D01*
X0044032Y0111103D01*
X0043802Y0111018D01*
X0043570Y0110938D01*
X0043336Y0110864D01*
X0043100Y0110795D01*
X0042863Y0110733D01*
X0042624Y0110676D01*
X0042384Y0110625D01*
X0042143Y0110580D01*
X0041900Y0110541D01*
X0041657Y0110508D01*
X0041413Y0110481D01*
X0041169Y0110460D01*
X0040924Y0110445D01*
X0040678Y0110436D01*
X0040433Y0110433D01*
X0040188Y0110436D01*
X0039942Y0110445D01*
X0039697Y0110460D01*
X0039453Y0110481D01*
X0039209Y0110508D01*
X0038966Y0110541D01*
X0038723Y0110580D01*
X0038482Y0110625D01*
X0038242Y0110676D01*
X0038003Y0110733D01*
X0037766Y0110795D01*
X0037530Y0110864D01*
X0037296Y0110938D01*
X0037064Y0111018D01*
X0036834Y0111103D01*
X0036606Y0111194D01*
X0036381Y0111291D01*
X0036157Y0111393D01*
X0035937Y0111501D01*
X0035719Y0111614D01*
X0035504Y0111732D01*
X0035292Y0111856D01*
X0035083Y0111984D01*
X0034877Y0112118D01*
X0034675Y0112257D01*
X0034476Y0112401D01*
X0034281Y0112550D01*
X0034089Y0112703D01*
X0033901Y0112861D01*
X0033717Y0113023D01*
X0033538Y0113191D01*
X0033362Y0113362D01*
X0033191Y0113538D01*
X0033023Y0113717D01*
X0032861Y0113901D01*
X0032703Y0114089D01*
X0032550Y0114281D01*
X0032401Y0114476D01*
X0032257Y0114675D01*
X0032118Y0114877D01*
X0031984Y0115083D01*
X0031856Y0115292D01*
X0031732Y0115504D01*
X0031614Y0115719D01*
X0031501Y0115937D01*
X0031393Y0116157D01*
X0031291Y0116381D01*
X0031194Y0116606D01*
X0031103Y0116834D01*
X0031018Y0117064D01*
X0030938Y0117296D01*
X0030864Y0117530D01*
X0030795Y0117766D01*
X0030733Y0118003D01*
X0030676Y0118242D01*
X0030625Y0118482D01*
X0030580Y0118723D01*
X0030541Y0118966D01*
X0030508Y0119209D01*
X0030481Y0119453D01*
X0030460Y0119697D01*
X0030445Y0119942D01*
X0030436Y0120188D01*
X0030433Y0120433D01*
X0056933Y0152933D02*
X0063933Y0152933D01*
X0063993Y0152935D01*
X0064054Y0152940D01*
X0064113Y0152949D01*
X0064172Y0152962D01*
X0064231Y0152978D01*
X0064288Y0152998D01*
X0064343Y0153021D01*
X0064398Y0153048D01*
X0064450Y0153077D01*
X0064501Y0153110D01*
X0064550Y0153146D01*
X0064596Y0153184D01*
X0064640Y0153226D01*
X0064682Y0153270D01*
X0064720Y0153316D01*
X0064756Y0153365D01*
X0064789Y0153416D01*
X0064818Y0153468D01*
X0064845Y0153523D01*
X0064868Y0153578D01*
X0064888Y0153635D01*
X0064904Y0153694D01*
X0064917Y0153753D01*
X0064926Y0153812D01*
X0064931Y0153873D01*
X0064933Y0153933D01*
X0064933Y0155433D01*
X0064433Y0155933D01*
X0064433Y0174933D01*
X0064933Y0175433D01*
X0064933Y0176933D01*
X0064931Y0176993D01*
X0064926Y0177054D01*
X0064917Y0177113D01*
X0064904Y0177172D01*
X0064888Y0177231D01*
X0064868Y0177288D01*
X0064845Y0177343D01*
X0064818Y0177398D01*
X0064789Y0177450D01*
X0064756Y0177501D01*
X0064720Y0177550D01*
X0064682Y0177596D01*
X0064640Y0177640D01*
X0064596Y0177682D01*
X0064550Y0177720D01*
X0064501Y0177756D01*
X0064450Y0177789D01*
X0064398Y0177818D01*
X0064343Y0177845D01*
X0064288Y0177868D01*
X0064231Y0177888D01*
X0064172Y0177904D01*
X0064113Y0177917D01*
X0064054Y0177926D01*
X0063993Y0177931D01*
X0063933Y0177933D01*
X0056933Y0177933D01*
X0056873Y0177931D01*
X0056812Y0177926D01*
X0056753Y0177917D01*
X0056694Y0177904D01*
X0056635Y0177888D01*
X0056578Y0177868D01*
X0056523Y0177845D01*
X0056468Y0177818D01*
X0056416Y0177789D01*
X0056365Y0177756D01*
X0056316Y0177720D01*
X0056270Y0177682D01*
X0056226Y0177640D01*
X0056184Y0177596D01*
X0056146Y0177550D01*
X0056110Y0177501D01*
X0056077Y0177450D01*
X0056048Y0177398D01*
X0056021Y0177343D01*
X0055998Y0177288D01*
X0055978Y0177231D01*
X0055962Y0177172D01*
X0055949Y0177113D01*
X0055940Y0177054D01*
X0055935Y0176993D01*
X0055933Y0176933D01*
X0055933Y0175433D01*
X0056433Y0174933D01*
X0056433Y0155933D01*
X0055933Y0155433D01*
X0055933Y0153933D01*
X0055935Y0153873D01*
X0055940Y0153812D01*
X0055949Y0153753D01*
X0055962Y0153694D01*
X0055978Y0153635D01*
X0055998Y0153578D01*
X0056021Y0153523D01*
X0056048Y0153468D01*
X0056077Y0153416D01*
X0056110Y0153365D01*
X0056146Y0153316D01*
X0056184Y0153270D01*
X0056226Y0153226D01*
X0056270Y0153184D01*
X0056316Y0153146D01*
X0056365Y0153110D01*
X0056416Y0153077D01*
X0056468Y0153048D01*
X0056523Y0153021D01*
X0056578Y0152998D01*
X0056635Y0152978D01*
X0056694Y0152962D01*
X0056753Y0152949D01*
X0056812Y0152940D01*
X0056873Y0152935D01*
X0056933Y0152933D01*
X0077933Y0148933D02*
X0077933Y0141933D01*
X0077935Y0141873D01*
X0077940Y0141812D01*
X0077949Y0141753D01*
X0077962Y0141694D01*
X0077978Y0141635D01*
X0077998Y0141578D01*
X0078021Y0141523D01*
X0078048Y0141468D01*
X0078077Y0141416D01*
X0078110Y0141365D01*
X0078146Y0141316D01*
X0078184Y0141270D01*
X0078226Y0141226D01*
X0078270Y0141184D01*
X0078316Y0141146D01*
X0078365Y0141110D01*
X0078416Y0141077D01*
X0078468Y0141048D01*
X0078523Y0141021D01*
X0078578Y0140998D01*
X0078635Y0140978D01*
X0078694Y0140962D01*
X0078753Y0140949D01*
X0078812Y0140940D01*
X0078873Y0140935D01*
X0078933Y0140933D01*
X0080433Y0140933D01*
X0080933Y0141433D01*
X0099933Y0141433D01*
X0100433Y0140933D01*
X0101933Y0140933D01*
X0101993Y0140935D01*
X0102054Y0140940D01*
X0102113Y0140949D01*
X0102172Y0140962D01*
X0102231Y0140978D01*
X0102288Y0140998D01*
X0102343Y0141021D01*
X0102398Y0141048D01*
X0102450Y0141077D01*
X0102501Y0141110D01*
X0102550Y0141146D01*
X0102596Y0141184D01*
X0102640Y0141226D01*
X0102682Y0141270D01*
X0102720Y0141316D01*
X0102756Y0141365D01*
X0102789Y0141416D01*
X0102818Y0141468D01*
X0102845Y0141523D01*
X0102868Y0141578D01*
X0102888Y0141635D01*
X0102904Y0141694D01*
X0102917Y0141753D01*
X0102926Y0141812D01*
X0102931Y0141873D01*
X0102933Y0141933D01*
X0102933Y0148933D01*
X0102931Y0148993D01*
X0102926Y0149054D01*
X0102917Y0149113D01*
X0102904Y0149172D01*
X0102888Y0149231D01*
X0102868Y0149288D01*
X0102845Y0149343D01*
X0102818Y0149398D01*
X0102789Y0149450D01*
X0102756Y0149501D01*
X0102720Y0149550D01*
X0102682Y0149596D01*
X0102640Y0149640D01*
X0102596Y0149682D01*
X0102550Y0149720D01*
X0102501Y0149756D01*
X0102450Y0149789D01*
X0102398Y0149818D01*
X0102343Y0149845D01*
X0102288Y0149868D01*
X0102231Y0149888D01*
X0102172Y0149904D01*
X0102113Y0149917D01*
X0102054Y0149926D01*
X0101993Y0149931D01*
X0101933Y0149933D01*
X0100433Y0149933D01*
X0099933Y0149433D01*
X0080933Y0149433D01*
X0080433Y0149933D01*
X0078933Y0149933D01*
X0078873Y0149931D01*
X0078812Y0149926D01*
X0078753Y0149917D01*
X0078694Y0149904D01*
X0078635Y0149888D01*
X0078578Y0149868D01*
X0078523Y0149845D01*
X0078468Y0149818D01*
X0078416Y0149789D01*
X0078365Y0149756D01*
X0078316Y0149720D01*
X0078270Y0149682D01*
X0078226Y0149640D01*
X0078184Y0149596D01*
X0078146Y0149550D01*
X0078110Y0149501D01*
X0078077Y0149450D01*
X0078048Y0149398D01*
X0078021Y0149343D01*
X0077998Y0149288D01*
X0077978Y0149231D01*
X0077962Y0149172D01*
X0077949Y0149113D01*
X0077940Y0149054D01*
X0077935Y0148993D01*
X0077933Y0148933D01*
X0078933Y0155933D02*
X0080433Y0155933D01*
X0080933Y0156433D01*
X0099933Y0156433D01*
X0100433Y0155933D01*
X0101933Y0155933D01*
X0101993Y0155935D01*
X0102054Y0155940D01*
X0102113Y0155949D01*
X0102172Y0155962D01*
X0102231Y0155978D01*
X0102288Y0155998D01*
X0102343Y0156021D01*
X0102398Y0156048D01*
X0102450Y0156077D01*
X0102501Y0156110D01*
X0102550Y0156146D01*
X0102596Y0156184D01*
X0102640Y0156226D01*
X0102682Y0156270D01*
X0102720Y0156316D01*
X0102756Y0156365D01*
X0102789Y0156416D01*
X0102818Y0156468D01*
X0102845Y0156523D01*
X0102868Y0156578D01*
X0102888Y0156635D01*
X0102904Y0156694D01*
X0102917Y0156753D01*
X0102926Y0156812D01*
X0102931Y0156873D01*
X0102933Y0156933D01*
X0102933Y0163933D01*
X0102931Y0163993D01*
X0102926Y0164054D01*
X0102917Y0164113D01*
X0102904Y0164172D01*
X0102888Y0164231D01*
X0102868Y0164288D01*
X0102845Y0164343D01*
X0102818Y0164398D01*
X0102789Y0164450D01*
X0102756Y0164501D01*
X0102720Y0164550D01*
X0102682Y0164596D01*
X0102640Y0164640D01*
X0102596Y0164682D01*
X0102550Y0164720D01*
X0102501Y0164756D01*
X0102450Y0164789D01*
X0102398Y0164818D01*
X0102343Y0164845D01*
X0102288Y0164868D01*
X0102231Y0164888D01*
X0102172Y0164904D01*
X0102113Y0164917D01*
X0102054Y0164926D01*
X0101993Y0164931D01*
X0101933Y0164933D01*
X0100433Y0164933D01*
X0099933Y0164433D01*
X0080933Y0164433D01*
X0080433Y0164933D01*
X0078933Y0164933D01*
X0078873Y0164931D01*
X0078812Y0164926D01*
X0078753Y0164917D01*
X0078694Y0164904D01*
X0078635Y0164888D01*
X0078578Y0164868D01*
X0078523Y0164845D01*
X0078468Y0164818D01*
X0078416Y0164789D01*
X0078365Y0164756D01*
X0078316Y0164720D01*
X0078270Y0164682D01*
X0078226Y0164640D01*
X0078184Y0164596D01*
X0078146Y0164550D01*
X0078110Y0164501D01*
X0078077Y0164450D01*
X0078048Y0164398D01*
X0078021Y0164343D01*
X0077998Y0164288D01*
X0077978Y0164231D01*
X0077962Y0164172D01*
X0077949Y0164113D01*
X0077940Y0164054D01*
X0077935Y0163993D01*
X0077933Y0163933D01*
X0077933Y0156933D01*
X0077935Y0156873D01*
X0077940Y0156812D01*
X0077949Y0156753D01*
X0077962Y0156694D01*
X0077978Y0156635D01*
X0077998Y0156578D01*
X0078021Y0156523D01*
X0078048Y0156468D01*
X0078077Y0156416D01*
X0078110Y0156365D01*
X0078146Y0156316D01*
X0078184Y0156270D01*
X0078226Y0156226D01*
X0078270Y0156184D01*
X0078316Y0156146D01*
X0078365Y0156110D01*
X0078416Y0156077D01*
X0078468Y0156048D01*
X0078523Y0156021D01*
X0078578Y0155998D01*
X0078635Y0155978D01*
X0078694Y0155962D01*
X0078753Y0155949D01*
X0078812Y0155940D01*
X0078873Y0155935D01*
X0078933Y0155933D01*
X0078933Y0170933D02*
X0080433Y0170933D01*
X0080933Y0171433D01*
X0099933Y0171433D01*
X0100433Y0170933D01*
X0101933Y0170933D01*
X0101993Y0170935D01*
X0102054Y0170940D01*
X0102113Y0170949D01*
X0102172Y0170962D01*
X0102231Y0170978D01*
X0102288Y0170998D01*
X0102343Y0171021D01*
X0102398Y0171048D01*
X0102450Y0171077D01*
X0102501Y0171110D01*
X0102550Y0171146D01*
X0102596Y0171184D01*
X0102640Y0171226D01*
X0102682Y0171270D01*
X0102720Y0171316D01*
X0102756Y0171365D01*
X0102789Y0171416D01*
X0102818Y0171468D01*
X0102845Y0171523D01*
X0102868Y0171578D01*
X0102888Y0171635D01*
X0102904Y0171694D01*
X0102917Y0171753D01*
X0102926Y0171812D01*
X0102931Y0171873D01*
X0102933Y0171933D01*
X0102933Y0178933D01*
X0102931Y0178993D01*
X0102926Y0179054D01*
X0102917Y0179113D01*
X0102904Y0179172D01*
X0102888Y0179231D01*
X0102868Y0179288D01*
X0102845Y0179343D01*
X0102818Y0179398D01*
X0102789Y0179450D01*
X0102756Y0179501D01*
X0102720Y0179550D01*
X0102682Y0179596D01*
X0102640Y0179640D01*
X0102596Y0179682D01*
X0102550Y0179720D01*
X0102501Y0179756D01*
X0102450Y0179789D01*
X0102398Y0179818D01*
X0102343Y0179845D01*
X0102288Y0179868D01*
X0102231Y0179888D01*
X0102172Y0179904D01*
X0102113Y0179917D01*
X0102054Y0179926D01*
X0101993Y0179931D01*
X0101933Y0179933D01*
X0100433Y0179933D01*
X0099933Y0179433D01*
X0080933Y0179433D01*
X0080433Y0179933D01*
X0078933Y0179933D01*
X0078873Y0179931D01*
X0078812Y0179926D01*
X0078753Y0179917D01*
X0078694Y0179904D01*
X0078635Y0179888D01*
X0078578Y0179868D01*
X0078523Y0179845D01*
X0078468Y0179818D01*
X0078416Y0179789D01*
X0078365Y0179756D01*
X0078316Y0179720D01*
X0078270Y0179682D01*
X0078226Y0179640D01*
X0078184Y0179596D01*
X0078146Y0179550D01*
X0078110Y0179501D01*
X0078077Y0179450D01*
X0078048Y0179398D01*
X0078021Y0179343D01*
X0077998Y0179288D01*
X0077978Y0179231D01*
X0077962Y0179172D01*
X0077949Y0179113D01*
X0077940Y0179054D01*
X0077935Y0178993D01*
X0077933Y0178933D01*
X0077933Y0171933D01*
X0077935Y0171873D01*
X0077940Y0171812D01*
X0077949Y0171753D01*
X0077962Y0171694D01*
X0077978Y0171635D01*
X0077998Y0171578D01*
X0078021Y0171523D01*
X0078048Y0171468D01*
X0078077Y0171416D01*
X0078110Y0171365D01*
X0078146Y0171316D01*
X0078184Y0171270D01*
X0078226Y0171226D01*
X0078270Y0171184D01*
X0078316Y0171146D01*
X0078365Y0171110D01*
X0078416Y0171077D01*
X0078468Y0171048D01*
X0078523Y0171021D01*
X0078578Y0170998D01*
X0078635Y0170978D01*
X0078694Y0170962D01*
X0078753Y0170949D01*
X0078812Y0170940D01*
X0078873Y0170935D01*
X0078933Y0170933D01*
X0076433Y0185433D02*
X0084433Y0185433D01*
X0085433Y0186433D01*
X0085433Y0194433D01*
X0084433Y0195433D01*
X0076433Y0195433D01*
X0075433Y0194433D01*
X0074433Y0195433D01*
X0066433Y0195433D01*
X0065433Y0194433D01*
X0065433Y0186433D01*
X0066433Y0185433D01*
X0074433Y0185433D01*
X0075433Y0186433D01*
X0076433Y0185433D01*
X0085433Y0186433D02*
X0085433Y0194433D01*
X0086433Y0195433D01*
X0094433Y0195433D01*
X0095433Y0194433D01*
X0096433Y0195433D01*
X0104433Y0195433D01*
X0105433Y0194433D01*
X0105433Y0186433D01*
X0104433Y0185433D01*
X0096433Y0185433D01*
X0095433Y0186433D01*
X0094433Y0185433D01*
X0086433Y0185433D01*
X0085433Y0186433D01*
X0115433Y0185433D02*
X0115436Y0185678D01*
X0115445Y0185924D01*
X0115460Y0186169D01*
X0115481Y0186413D01*
X0115508Y0186657D01*
X0115541Y0186900D01*
X0115580Y0187143D01*
X0115625Y0187384D01*
X0115676Y0187624D01*
X0115733Y0187863D01*
X0115795Y0188100D01*
X0115864Y0188336D01*
X0115938Y0188570D01*
X0116018Y0188802D01*
X0116103Y0189032D01*
X0116194Y0189260D01*
X0116291Y0189485D01*
X0116393Y0189709D01*
X0116501Y0189929D01*
X0116614Y0190147D01*
X0116732Y0190362D01*
X0116856Y0190574D01*
X0116984Y0190783D01*
X0117118Y0190989D01*
X0117257Y0191191D01*
X0117401Y0191390D01*
X0117550Y0191585D01*
X0117703Y0191777D01*
X0117861Y0191965D01*
X0118023Y0192149D01*
X0118191Y0192328D01*
X0118362Y0192504D01*
X0118538Y0192675D01*
X0118717Y0192843D01*
X0118901Y0193005D01*
X0119089Y0193163D01*
X0119281Y0193316D01*
X0119476Y0193465D01*
X0119675Y0193609D01*
X0119877Y0193748D01*
X0120083Y0193882D01*
X0120292Y0194010D01*
X0120504Y0194134D01*
X0120719Y0194252D01*
X0120937Y0194365D01*
X0121157Y0194473D01*
X0121381Y0194575D01*
X0121606Y0194672D01*
X0121834Y0194763D01*
X0122064Y0194848D01*
X0122296Y0194928D01*
X0122530Y0195002D01*
X0122766Y0195071D01*
X0123003Y0195133D01*
X0123242Y0195190D01*
X0123482Y0195241D01*
X0123723Y0195286D01*
X0123966Y0195325D01*
X0124209Y0195358D01*
X0124453Y0195385D01*
X0124697Y0195406D01*
X0124942Y0195421D01*
X0125188Y0195430D01*
X0125433Y0195433D01*
X0125678Y0195430D01*
X0125924Y0195421D01*
X0126169Y0195406D01*
X0126413Y0195385D01*
X0126657Y0195358D01*
X0126900Y0195325D01*
X0127143Y0195286D01*
X0127384Y0195241D01*
X0127624Y0195190D01*
X0127863Y0195133D01*
X0128100Y0195071D01*
X0128336Y0195002D01*
X0128570Y0194928D01*
X0128802Y0194848D01*
X0129032Y0194763D01*
X0129260Y0194672D01*
X0129485Y0194575D01*
X0129709Y0194473D01*
X0129929Y0194365D01*
X0130147Y0194252D01*
X0130362Y0194134D01*
X0130574Y0194010D01*
X0130783Y0193882D01*
X0130989Y0193748D01*
X0131191Y0193609D01*
X0131390Y0193465D01*
X0131585Y0193316D01*
X0131777Y0193163D01*
X0131965Y0193005D01*
X0132149Y0192843D01*
X0132328Y0192675D01*
X0132504Y0192504D01*
X0132675Y0192328D01*
X0132843Y0192149D01*
X0133005Y0191965D01*
X0133163Y0191777D01*
X0133316Y0191585D01*
X0133465Y0191390D01*
X0133609Y0191191D01*
X0133748Y0190989D01*
X0133882Y0190783D01*
X0134010Y0190574D01*
X0134134Y0190362D01*
X0134252Y0190147D01*
X0134365Y0189929D01*
X0134473Y0189709D01*
X0134575Y0189485D01*
X0134672Y0189260D01*
X0134763Y0189032D01*
X0134848Y0188802D01*
X0134928Y0188570D01*
X0135002Y0188336D01*
X0135071Y0188100D01*
X0135133Y0187863D01*
X0135190Y0187624D01*
X0135241Y0187384D01*
X0135286Y0187143D01*
X0135325Y0186900D01*
X0135358Y0186657D01*
X0135385Y0186413D01*
X0135406Y0186169D01*
X0135421Y0185924D01*
X0135430Y0185678D01*
X0135433Y0185433D01*
X0135430Y0185188D01*
X0135421Y0184942D01*
X0135406Y0184697D01*
X0135385Y0184453D01*
X0135358Y0184209D01*
X0135325Y0183966D01*
X0135286Y0183723D01*
X0135241Y0183482D01*
X0135190Y0183242D01*
X0135133Y0183003D01*
X0135071Y0182766D01*
X0135002Y0182530D01*
X0134928Y0182296D01*
X0134848Y0182064D01*
X0134763Y0181834D01*
X0134672Y0181606D01*
X0134575Y0181381D01*
X0134473Y0181157D01*
X0134365Y0180937D01*
X0134252Y0180719D01*
X0134134Y0180504D01*
X0134010Y0180292D01*
X0133882Y0180083D01*
X0133748Y0179877D01*
X0133609Y0179675D01*
X0133465Y0179476D01*
X0133316Y0179281D01*
X0133163Y0179089D01*
X0133005Y0178901D01*
X0132843Y0178717D01*
X0132675Y0178538D01*
X0132504Y0178362D01*
X0132328Y0178191D01*
X0132149Y0178023D01*
X0131965Y0177861D01*
X0131777Y0177703D01*
X0131585Y0177550D01*
X0131390Y0177401D01*
X0131191Y0177257D01*
X0130989Y0177118D01*
X0130783Y0176984D01*
X0130574Y0176856D01*
X0130362Y0176732D01*
X0130147Y0176614D01*
X0129929Y0176501D01*
X0129709Y0176393D01*
X0129485Y0176291D01*
X0129260Y0176194D01*
X0129032Y0176103D01*
X0128802Y0176018D01*
X0128570Y0175938D01*
X0128336Y0175864D01*
X0128100Y0175795D01*
X0127863Y0175733D01*
X0127624Y0175676D01*
X0127384Y0175625D01*
X0127143Y0175580D01*
X0126900Y0175541D01*
X0126657Y0175508D01*
X0126413Y0175481D01*
X0126169Y0175460D01*
X0125924Y0175445D01*
X0125678Y0175436D01*
X0125433Y0175433D01*
X0125188Y0175436D01*
X0124942Y0175445D01*
X0124697Y0175460D01*
X0124453Y0175481D01*
X0124209Y0175508D01*
X0123966Y0175541D01*
X0123723Y0175580D01*
X0123482Y0175625D01*
X0123242Y0175676D01*
X0123003Y0175733D01*
X0122766Y0175795D01*
X0122530Y0175864D01*
X0122296Y0175938D01*
X0122064Y0176018D01*
X0121834Y0176103D01*
X0121606Y0176194D01*
X0121381Y0176291D01*
X0121157Y0176393D01*
X0120937Y0176501D01*
X0120719Y0176614D01*
X0120504Y0176732D01*
X0120292Y0176856D01*
X0120083Y0176984D01*
X0119877Y0177118D01*
X0119675Y0177257D01*
X0119476Y0177401D01*
X0119281Y0177550D01*
X0119089Y0177703D01*
X0118901Y0177861D01*
X0118717Y0178023D01*
X0118538Y0178191D01*
X0118362Y0178362D01*
X0118191Y0178538D01*
X0118023Y0178717D01*
X0117861Y0178901D01*
X0117703Y0179089D01*
X0117550Y0179281D01*
X0117401Y0179476D01*
X0117257Y0179675D01*
X0117118Y0179877D01*
X0116984Y0180083D01*
X0116856Y0180292D01*
X0116732Y0180504D01*
X0116614Y0180719D01*
X0116501Y0180937D01*
X0116393Y0181157D01*
X0116291Y0181381D01*
X0116194Y0181606D01*
X0116103Y0181834D01*
X0116018Y0182064D01*
X0115938Y0182296D01*
X0115864Y0182530D01*
X0115795Y0182766D01*
X0115733Y0183003D01*
X0115676Y0183242D01*
X0115625Y0183482D01*
X0115580Y0183723D01*
X0115541Y0183966D01*
X0115508Y0184209D01*
X0115481Y0184453D01*
X0115460Y0184697D01*
X0115445Y0184942D01*
X0115436Y0185188D01*
X0115433Y0185433D01*
X0133933Y0164933D02*
X0135433Y0164933D01*
X0135933Y0164433D01*
X0154933Y0164433D01*
X0155433Y0164933D01*
X0156933Y0164933D01*
X0156993Y0164931D01*
X0157054Y0164926D01*
X0157113Y0164917D01*
X0157172Y0164904D01*
X0157231Y0164888D01*
X0157288Y0164868D01*
X0157343Y0164845D01*
X0157398Y0164818D01*
X0157450Y0164789D01*
X0157501Y0164756D01*
X0157550Y0164720D01*
X0157596Y0164682D01*
X0157640Y0164640D01*
X0157682Y0164596D01*
X0157720Y0164550D01*
X0157756Y0164501D01*
X0157789Y0164450D01*
X0157818Y0164398D01*
X0157845Y0164343D01*
X0157868Y0164288D01*
X0157888Y0164231D01*
X0157904Y0164172D01*
X0157917Y0164113D01*
X0157926Y0164054D01*
X0157931Y0163993D01*
X0157933Y0163933D01*
X0157933Y0156933D01*
X0157931Y0156873D01*
X0157926Y0156812D01*
X0157917Y0156753D01*
X0157904Y0156694D01*
X0157888Y0156635D01*
X0157868Y0156578D01*
X0157845Y0156523D01*
X0157818Y0156468D01*
X0157789Y0156416D01*
X0157756Y0156365D01*
X0157720Y0156316D01*
X0157682Y0156270D01*
X0157640Y0156226D01*
X0157596Y0156184D01*
X0157550Y0156146D01*
X0157501Y0156110D01*
X0157450Y0156077D01*
X0157398Y0156048D01*
X0157343Y0156021D01*
X0157288Y0155998D01*
X0157231Y0155978D01*
X0157172Y0155962D01*
X0157113Y0155949D01*
X0157054Y0155940D01*
X0156993Y0155935D01*
X0156933Y0155933D01*
X0155433Y0155933D01*
X0154933Y0156433D01*
X0135933Y0156433D01*
X0135433Y0155933D01*
X0133933Y0155933D01*
X0133873Y0155935D01*
X0133812Y0155940D01*
X0133753Y0155949D01*
X0133694Y0155962D01*
X0133635Y0155978D01*
X0133578Y0155998D01*
X0133523Y0156021D01*
X0133468Y0156048D01*
X0133416Y0156077D01*
X0133365Y0156110D01*
X0133316Y0156146D01*
X0133270Y0156184D01*
X0133226Y0156226D01*
X0133184Y0156270D01*
X0133146Y0156316D01*
X0133110Y0156365D01*
X0133077Y0156416D01*
X0133048Y0156468D01*
X0133021Y0156523D01*
X0132998Y0156578D01*
X0132978Y0156635D01*
X0132962Y0156694D01*
X0132949Y0156753D01*
X0132940Y0156812D01*
X0132935Y0156873D01*
X0132933Y0156933D01*
X0132933Y0163933D01*
X0132935Y0163993D01*
X0132940Y0164054D01*
X0132949Y0164113D01*
X0132962Y0164172D01*
X0132978Y0164231D01*
X0132998Y0164288D01*
X0133021Y0164343D01*
X0133048Y0164398D01*
X0133077Y0164450D01*
X0133110Y0164501D01*
X0133146Y0164550D01*
X0133184Y0164596D01*
X0133226Y0164640D01*
X0133270Y0164682D01*
X0133316Y0164720D01*
X0133365Y0164756D01*
X0133416Y0164789D01*
X0133468Y0164818D01*
X0133523Y0164845D01*
X0133578Y0164868D01*
X0133635Y0164888D01*
X0133694Y0164904D01*
X0133753Y0164917D01*
X0133812Y0164926D01*
X0133873Y0164931D01*
X0133933Y0164933D01*
X0145433Y0185433D02*
X0145436Y0185678D01*
X0145445Y0185924D01*
X0145460Y0186169D01*
X0145481Y0186413D01*
X0145508Y0186657D01*
X0145541Y0186900D01*
X0145580Y0187143D01*
X0145625Y0187384D01*
X0145676Y0187624D01*
X0145733Y0187863D01*
X0145795Y0188100D01*
X0145864Y0188336D01*
X0145938Y0188570D01*
X0146018Y0188802D01*
X0146103Y0189032D01*
X0146194Y0189260D01*
X0146291Y0189485D01*
X0146393Y0189709D01*
X0146501Y0189929D01*
X0146614Y0190147D01*
X0146732Y0190362D01*
X0146856Y0190574D01*
X0146984Y0190783D01*
X0147118Y0190989D01*
X0147257Y0191191D01*
X0147401Y0191390D01*
X0147550Y0191585D01*
X0147703Y0191777D01*
X0147861Y0191965D01*
X0148023Y0192149D01*
X0148191Y0192328D01*
X0148362Y0192504D01*
X0148538Y0192675D01*
X0148717Y0192843D01*
X0148901Y0193005D01*
X0149089Y0193163D01*
X0149281Y0193316D01*
X0149476Y0193465D01*
X0149675Y0193609D01*
X0149877Y0193748D01*
X0150083Y0193882D01*
X0150292Y0194010D01*
X0150504Y0194134D01*
X0150719Y0194252D01*
X0150937Y0194365D01*
X0151157Y0194473D01*
X0151381Y0194575D01*
X0151606Y0194672D01*
X0151834Y0194763D01*
X0152064Y0194848D01*
X0152296Y0194928D01*
X0152530Y0195002D01*
X0152766Y0195071D01*
X0153003Y0195133D01*
X0153242Y0195190D01*
X0153482Y0195241D01*
X0153723Y0195286D01*
X0153966Y0195325D01*
X0154209Y0195358D01*
X0154453Y0195385D01*
X0154697Y0195406D01*
X0154942Y0195421D01*
X0155188Y0195430D01*
X0155433Y0195433D01*
X0155678Y0195430D01*
X0155924Y0195421D01*
X0156169Y0195406D01*
X0156413Y0195385D01*
X0156657Y0195358D01*
X0156900Y0195325D01*
X0157143Y0195286D01*
X0157384Y0195241D01*
X0157624Y0195190D01*
X0157863Y0195133D01*
X0158100Y0195071D01*
X0158336Y0195002D01*
X0158570Y0194928D01*
X0158802Y0194848D01*
X0159032Y0194763D01*
X0159260Y0194672D01*
X0159485Y0194575D01*
X0159709Y0194473D01*
X0159929Y0194365D01*
X0160147Y0194252D01*
X0160362Y0194134D01*
X0160574Y0194010D01*
X0160783Y0193882D01*
X0160989Y0193748D01*
X0161191Y0193609D01*
X0161390Y0193465D01*
X0161585Y0193316D01*
X0161777Y0193163D01*
X0161965Y0193005D01*
X0162149Y0192843D01*
X0162328Y0192675D01*
X0162504Y0192504D01*
X0162675Y0192328D01*
X0162843Y0192149D01*
X0163005Y0191965D01*
X0163163Y0191777D01*
X0163316Y0191585D01*
X0163465Y0191390D01*
X0163609Y0191191D01*
X0163748Y0190989D01*
X0163882Y0190783D01*
X0164010Y0190574D01*
X0164134Y0190362D01*
X0164252Y0190147D01*
X0164365Y0189929D01*
X0164473Y0189709D01*
X0164575Y0189485D01*
X0164672Y0189260D01*
X0164763Y0189032D01*
X0164848Y0188802D01*
X0164928Y0188570D01*
X0165002Y0188336D01*
X0165071Y0188100D01*
X0165133Y0187863D01*
X0165190Y0187624D01*
X0165241Y0187384D01*
X0165286Y0187143D01*
X0165325Y0186900D01*
X0165358Y0186657D01*
X0165385Y0186413D01*
X0165406Y0186169D01*
X0165421Y0185924D01*
X0165430Y0185678D01*
X0165433Y0185433D01*
X0165430Y0185188D01*
X0165421Y0184942D01*
X0165406Y0184697D01*
X0165385Y0184453D01*
X0165358Y0184209D01*
X0165325Y0183966D01*
X0165286Y0183723D01*
X0165241Y0183482D01*
X0165190Y0183242D01*
X0165133Y0183003D01*
X0165071Y0182766D01*
X0165002Y0182530D01*
X0164928Y0182296D01*
X0164848Y0182064D01*
X0164763Y0181834D01*
X0164672Y0181606D01*
X0164575Y0181381D01*
X0164473Y0181157D01*
X0164365Y0180937D01*
X0164252Y0180719D01*
X0164134Y0180504D01*
X0164010Y0180292D01*
X0163882Y0180083D01*
X0163748Y0179877D01*
X0163609Y0179675D01*
X0163465Y0179476D01*
X0163316Y0179281D01*
X0163163Y0179089D01*
X0163005Y0178901D01*
X0162843Y0178717D01*
X0162675Y0178538D01*
X0162504Y0178362D01*
X0162328Y0178191D01*
X0162149Y0178023D01*
X0161965Y0177861D01*
X0161777Y0177703D01*
X0161585Y0177550D01*
X0161390Y0177401D01*
X0161191Y0177257D01*
X0160989Y0177118D01*
X0160783Y0176984D01*
X0160574Y0176856D01*
X0160362Y0176732D01*
X0160147Y0176614D01*
X0159929Y0176501D01*
X0159709Y0176393D01*
X0159485Y0176291D01*
X0159260Y0176194D01*
X0159032Y0176103D01*
X0158802Y0176018D01*
X0158570Y0175938D01*
X0158336Y0175864D01*
X0158100Y0175795D01*
X0157863Y0175733D01*
X0157624Y0175676D01*
X0157384Y0175625D01*
X0157143Y0175580D01*
X0156900Y0175541D01*
X0156657Y0175508D01*
X0156413Y0175481D01*
X0156169Y0175460D01*
X0155924Y0175445D01*
X0155678Y0175436D01*
X0155433Y0175433D01*
X0155188Y0175436D01*
X0154942Y0175445D01*
X0154697Y0175460D01*
X0154453Y0175481D01*
X0154209Y0175508D01*
X0153966Y0175541D01*
X0153723Y0175580D01*
X0153482Y0175625D01*
X0153242Y0175676D01*
X0153003Y0175733D01*
X0152766Y0175795D01*
X0152530Y0175864D01*
X0152296Y0175938D01*
X0152064Y0176018D01*
X0151834Y0176103D01*
X0151606Y0176194D01*
X0151381Y0176291D01*
X0151157Y0176393D01*
X0150937Y0176501D01*
X0150719Y0176614D01*
X0150504Y0176732D01*
X0150292Y0176856D01*
X0150083Y0176984D01*
X0149877Y0177118D01*
X0149675Y0177257D01*
X0149476Y0177401D01*
X0149281Y0177550D01*
X0149089Y0177703D01*
X0148901Y0177861D01*
X0148717Y0178023D01*
X0148538Y0178191D01*
X0148362Y0178362D01*
X0148191Y0178538D01*
X0148023Y0178717D01*
X0147861Y0178901D01*
X0147703Y0179089D01*
X0147550Y0179281D01*
X0147401Y0179476D01*
X0147257Y0179675D01*
X0147118Y0179877D01*
X0146984Y0180083D01*
X0146856Y0180292D01*
X0146732Y0180504D01*
X0146614Y0180719D01*
X0146501Y0180937D01*
X0146393Y0181157D01*
X0146291Y0181381D01*
X0146194Y0181606D01*
X0146103Y0181834D01*
X0146018Y0182064D01*
X0145938Y0182296D01*
X0145864Y0182530D01*
X0145795Y0182766D01*
X0145733Y0183003D01*
X0145676Y0183242D01*
X0145625Y0183482D01*
X0145580Y0183723D01*
X0145541Y0183966D01*
X0145508Y0184209D01*
X0145481Y0184453D01*
X0145460Y0184697D01*
X0145445Y0184942D01*
X0145436Y0185188D01*
X0145433Y0185433D01*
X0170933Y0176933D02*
X0170933Y0175433D01*
X0171433Y0174933D01*
X0171433Y0155933D01*
X0170933Y0155433D01*
X0170933Y0153933D01*
X0170935Y0153873D01*
X0170940Y0153812D01*
X0170949Y0153753D01*
X0170962Y0153694D01*
X0170978Y0153635D01*
X0170998Y0153578D01*
X0171021Y0153523D01*
X0171048Y0153468D01*
X0171077Y0153416D01*
X0171110Y0153365D01*
X0171146Y0153316D01*
X0171184Y0153270D01*
X0171226Y0153226D01*
X0171270Y0153184D01*
X0171316Y0153146D01*
X0171365Y0153110D01*
X0171416Y0153077D01*
X0171468Y0153048D01*
X0171523Y0153021D01*
X0171578Y0152998D01*
X0171635Y0152978D01*
X0171694Y0152962D01*
X0171753Y0152949D01*
X0171812Y0152940D01*
X0171873Y0152935D01*
X0171933Y0152933D01*
X0178933Y0152933D01*
X0178993Y0152935D01*
X0179054Y0152940D01*
X0179113Y0152949D01*
X0179172Y0152962D01*
X0179231Y0152978D01*
X0179288Y0152998D01*
X0179343Y0153021D01*
X0179398Y0153048D01*
X0179450Y0153077D01*
X0179501Y0153110D01*
X0179550Y0153146D01*
X0179596Y0153184D01*
X0179640Y0153226D01*
X0179682Y0153270D01*
X0179720Y0153316D01*
X0179756Y0153365D01*
X0179789Y0153416D01*
X0179818Y0153468D01*
X0179845Y0153523D01*
X0179868Y0153578D01*
X0179888Y0153635D01*
X0179904Y0153694D01*
X0179917Y0153753D01*
X0179926Y0153812D01*
X0179931Y0153873D01*
X0179933Y0153933D01*
X0179933Y0155433D01*
X0179433Y0155933D01*
X0179433Y0174933D01*
X0179933Y0175433D01*
X0179933Y0176933D01*
X0179931Y0176993D01*
X0179926Y0177054D01*
X0179917Y0177113D01*
X0179904Y0177172D01*
X0179888Y0177231D01*
X0179868Y0177288D01*
X0179845Y0177343D01*
X0179818Y0177398D01*
X0179789Y0177450D01*
X0179756Y0177501D01*
X0179720Y0177550D01*
X0179682Y0177596D01*
X0179640Y0177640D01*
X0179596Y0177682D01*
X0179550Y0177720D01*
X0179501Y0177756D01*
X0179450Y0177789D01*
X0179398Y0177818D01*
X0179343Y0177845D01*
X0179288Y0177868D01*
X0179231Y0177888D01*
X0179172Y0177904D01*
X0179113Y0177917D01*
X0179054Y0177926D01*
X0178993Y0177931D01*
X0178933Y0177933D01*
X0171933Y0177933D01*
X0171873Y0177931D01*
X0171812Y0177926D01*
X0171753Y0177917D01*
X0171694Y0177904D01*
X0171635Y0177888D01*
X0171578Y0177868D01*
X0171523Y0177845D01*
X0171468Y0177818D01*
X0171416Y0177789D01*
X0171365Y0177756D01*
X0171316Y0177720D01*
X0171270Y0177682D01*
X0171226Y0177640D01*
X0171184Y0177596D01*
X0171146Y0177550D01*
X0171110Y0177501D01*
X0171077Y0177450D01*
X0171048Y0177398D01*
X0171021Y0177343D01*
X0170998Y0177288D01*
X0170978Y0177231D01*
X0170962Y0177172D01*
X0170949Y0177113D01*
X0170940Y0177054D01*
X0170935Y0176993D01*
X0170933Y0176933D01*
X0178933Y0190933D02*
X0180433Y0190933D01*
X0180933Y0191433D01*
X0199933Y0191433D01*
X0200433Y0190933D01*
X0201933Y0190933D01*
X0201993Y0190935D01*
X0202054Y0190940D01*
X0202113Y0190949D01*
X0202172Y0190962D01*
X0202231Y0190978D01*
X0202288Y0190998D01*
X0202343Y0191021D01*
X0202398Y0191048D01*
X0202450Y0191077D01*
X0202501Y0191110D01*
X0202550Y0191146D01*
X0202596Y0191184D01*
X0202640Y0191226D01*
X0202682Y0191270D01*
X0202720Y0191316D01*
X0202756Y0191365D01*
X0202789Y0191416D01*
X0202818Y0191468D01*
X0202845Y0191523D01*
X0202868Y0191578D01*
X0202888Y0191635D01*
X0202904Y0191694D01*
X0202917Y0191753D01*
X0202926Y0191812D01*
X0202931Y0191873D01*
X0202933Y0191933D01*
X0202933Y0198933D01*
X0202931Y0198993D01*
X0202926Y0199054D01*
X0202917Y0199113D01*
X0202904Y0199172D01*
X0202888Y0199231D01*
X0202868Y0199288D01*
X0202845Y0199343D01*
X0202818Y0199398D01*
X0202789Y0199450D01*
X0202756Y0199501D01*
X0202720Y0199550D01*
X0202682Y0199596D01*
X0202640Y0199640D01*
X0202596Y0199682D01*
X0202550Y0199720D01*
X0202501Y0199756D01*
X0202450Y0199789D01*
X0202398Y0199818D01*
X0202343Y0199845D01*
X0202288Y0199868D01*
X0202231Y0199888D01*
X0202172Y0199904D01*
X0202113Y0199917D01*
X0202054Y0199926D01*
X0201993Y0199931D01*
X0201933Y0199933D01*
X0200433Y0199933D01*
X0199933Y0199433D01*
X0180933Y0199433D01*
X0180433Y0199933D01*
X0178933Y0199933D01*
X0178873Y0199931D01*
X0178812Y0199926D01*
X0178753Y0199917D01*
X0178694Y0199904D01*
X0178635Y0199888D01*
X0178578Y0199868D01*
X0178523Y0199845D01*
X0178468Y0199818D01*
X0178416Y0199789D01*
X0178365Y0199756D01*
X0178316Y0199720D01*
X0178270Y0199682D01*
X0178226Y0199640D01*
X0178184Y0199596D01*
X0178146Y0199550D01*
X0178110Y0199501D01*
X0178077Y0199450D01*
X0178048Y0199398D01*
X0178021Y0199343D01*
X0177998Y0199288D01*
X0177978Y0199231D01*
X0177962Y0199172D01*
X0177949Y0199113D01*
X0177940Y0199054D01*
X0177935Y0198993D01*
X0177933Y0198933D01*
X0177933Y0191933D01*
X0177935Y0191873D01*
X0177940Y0191812D01*
X0177949Y0191753D01*
X0177962Y0191694D01*
X0177978Y0191635D01*
X0177998Y0191578D01*
X0178021Y0191523D01*
X0178048Y0191468D01*
X0178077Y0191416D01*
X0178110Y0191365D01*
X0178146Y0191316D01*
X0178184Y0191270D01*
X0178226Y0191226D01*
X0178270Y0191184D01*
X0178316Y0191146D01*
X0178365Y0191110D01*
X0178416Y0191077D01*
X0178468Y0191048D01*
X0178523Y0191021D01*
X0178578Y0190998D01*
X0178635Y0190978D01*
X0178694Y0190962D01*
X0178753Y0190949D01*
X0178812Y0190940D01*
X0178873Y0190935D01*
X0178933Y0190933D01*
X0185433Y0160433D02*
X0185436Y0160678D01*
X0185445Y0160924D01*
X0185460Y0161169D01*
X0185481Y0161413D01*
X0185508Y0161657D01*
X0185541Y0161900D01*
X0185580Y0162143D01*
X0185625Y0162384D01*
X0185676Y0162624D01*
X0185733Y0162863D01*
X0185795Y0163100D01*
X0185864Y0163336D01*
X0185938Y0163570D01*
X0186018Y0163802D01*
X0186103Y0164032D01*
X0186194Y0164260D01*
X0186291Y0164485D01*
X0186393Y0164709D01*
X0186501Y0164929D01*
X0186614Y0165147D01*
X0186732Y0165362D01*
X0186856Y0165574D01*
X0186984Y0165783D01*
X0187118Y0165989D01*
X0187257Y0166191D01*
X0187401Y0166390D01*
X0187550Y0166585D01*
X0187703Y0166777D01*
X0187861Y0166965D01*
X0188023Y0167149D01*
X0188191Y0167328D01*
X0188362Y0167504D01*
X0188538Y0167675D01*
X0188717Y0167843D01*
X0188901Y0168005D01*
X0189089Y0168163D01*
X0189281Y0168316D01*
X0189476Y0168465D01*
X0189675Y0168609D01*
X0189877Y0168748D01*
X0190083Y0168882D01*
X0190292Y0169010D01*
X0190504Y0169134D01*
X0190719Y0169252D01*
X0190937Y0169365D01*
X0191157Y0169473D01*
X0191381Y0169575D01*
X0191606Y0169672D01*
X0191834Y0169763D01*
X0192064Y0169848D01*
X0192296Y0169928D01*
X0192530Y0170002D01*
X0192766Y0170071D01*
X0193003Y0170133D01*
X0193242Y0170190D01*
X0193482Y0170241D01*
X0193723Y0170286D01*
X0193966Y0170325D01*
X0194209Y0170358D01*
X0194453Y0170385D01*
X0194697Y0170406D01*
X0194942Y0170421D01*
X0195188Y0170430D01*
X0195433Y0170433D01*
X0195678Y0170430D01*
X0195924Y0170421D01*
X0196169Y0170406D01*
X0196413Y0170385D01*
X0196657Y0170358D01*
X0196900Y0170325D01*
X0197143Y0170286D01*
X0197384Y0170241D01*
X0197624Y0170190D01*
X0197863Y0170133D01*
X0198100Y0170071D01*
X0198336Y0170002D01*
X0198570Y0169928D01*
X0198802Y0169848D01*
X0199032Y0169763D01*
X0199260Y0169672D01*
X0199485Y0169575D01*
X0199709Y0169473D01*
X0199929Y0169365D01*
X0200147Y0169252D01*
X0200362Y0169134D01*
X0200574Y0169010D01*
X0200783Y0168882D01*
X0200989Y0168748D01*
X0201191Y0168609D01*
X0201390Y0168465D01*
X0201585Y0168316D01*
X0201777Y0168163D01*
X0201965Y0168005D01*
X0202149Y0167843D01*
X0202328Y0167675D01*
X0202504Y0167504D01*
X0202675Y0167328D01*
X0202843Y0167149D01*
X0203005Y0166965D01*
X0203163Y0166777D01*
X0203316Y0166585D01*
X0203465Y0166390D01*
X0203609Y0166191D01*
X0203748Y0165989D01*
X0203882Y0165783D01*
X0204010Y0165574D01*
X0204134Y0165362D01*
X0204252Y0165147D01*
X0204365Y0164929D01*
X0204473Y0164709D01*
X0204575Y0164485D01*
X0204672Y0164260D01*
X0204763Y0164032D01*
X0204848Y0163802D01*
X0204928Y0163570D01*
X0205002Y0163336D01*
X0205071Y0163100D01*
X0205133Y0162863D01*
X0205190Y0162624D01*
X0205241Y0162384D01*
X0205286Y0162143D01*
X0205325Y0161900D01*
X0205358Y0161657D01*
X0205385Y0161413D01*
X0205406Y0161169D01*
X0205421Y0160924D01*
X0205430Y0160678D01*
X0205433Y0160433D01*
X0205430Y0160188D01*
X0205421Y0159942D01*
X0205406Y0159697D01*
X0205385Y0159453D01*
X0205358Y0159209D01*
X0205325Y0158966D01*
X0205286Y0158723D01*
X0205241Y0158482D01*
X0205190Y0158242D01*
X0205133Y0158003D01*
X0205071Y0157766D01*
X0205002Y0157530D01*
X0204928Y0157296D01*
X0204848Y0157064D01*
X0204763Y0156834D01*
X0204672Y0156606D01*
X0204575Y0156381D01*
X0204473Y0156157D01*
X0204365Y0155937D01*
X0204252Y0155719D01*
X0204134Y0155504D01*
X0204010Y0155292D01*
X0203882Y0155083D01*
X0203748Y0154877D01*
X0203609Y0154675D01*
X0203465Y0154476D01*
X0203316Y0154281D01*
X0203163Y0154089D01*
X0203005Y0153901D01*
X0202843Y0153717D01*
X0202675Y0153538D01*
X0202504Y0153362D01*
X0202328Y0153191D01*
X0202149Y0153023D01*
X0201965Y0152861D01*
X0201777Y0152703D01*
X0201585Y0152550D01*
X0201390Y0152401D01*
X0201191Y0152257D01*
X0200989Y0152118D01*
X0200783Y0151984D01*
X0200574Y0151856D01*
X0200362Y0151732D01*
X0200147Y0151614D01*
X0199929Y0151501D01*
X0199709Y0151393D01*
X0199485Y0151291D01*
X0199260Y0151194D01*
X0199032Y0151103D01*
X0198802Y0151018D01*
X0198570Y0150938D01*
X0198336Y0150864D01*
X0198100Y0150795D01*
X0197863Y0150733D01*
X0197624Y0150676D01*
X0197384Y0150625D01*
X0197143Y0150580D01*
X0196900Y0150541D01*
X0196657Y0150508D01*
X0196413Y0150481D01*
X0196169Y0150460D01*
X0195924Y0150445D01*
X0195678Y0150436D01*
X0195433Y0150433D01*
X0195188Y0150436D01*
X0194942Y0150445D01*
X0194697Y0150460D01*
X0194453Y0150481D01*
X0194209Y0150508D01*
X0193966Y0150541D01*
X0193723Y0150580D01*
X0193482Y0150625D01*
X0193242Y0150676D01*
X0193003Y0150733D01*
X0192766Y0150795D01*
X0192530Y0150864D01*
X0192296Y0150938D01*
X0192064Y0151018D01*
X0191834Y0151103D01*
X0191606Y0151194D01*
X0191381Y0151291D01*
X0191157Y0151393D01*
X0190937Y0151501D01*
X0190719Y0151614D01*
X0190504Y0151732D01*
X0190292Y0151856D01*
X0190083Y0151984D01*
X0189877Y0152118D01*
X0189675Y0152257D01*
X0189476Y0152401D01*
X0189281Y0152550D01*
X0189089Y0152703D01*
X0188901Y0152861D01*
X0188717Y0153023D01*
X0188538Y0153191D01*
X0188362Y0153362D01*
X0188191Y0153538D01*
X0188023Y0153717D01*
X0187861Y0153901D01*
X0187703Y0154089D01*
X0187550Y0154281D01*
X0187401Y0154476D01*
X0187257Y0154675D01*
X0187118Y0154877D01*
X0186984Y0155083D01*
X0186856Y0155292D01*
X0186732Y0155504D01*
X0186614Y0155719D01*
X0186501Y0155937D01*
X0186393Y0156157D01*
X0186291Y0156381D01*
X0186194Y0156606D01*
X0186103Y0156834D01*
X0186018Y0157064D01*
X0185938Y0157296D01*
X0185864Y0157530D01*
X0185795Y0157766D01*
X0185733Y0158003D01*
X0185676Y0158242D01*
X0185625Y0158482D01*
X0185580Y0158723D01*
X0185541Y0158966D01*
X0185508Y0159209D01*
X0185481Y0159453D01*
X0185460Y0159697D01*
X0185445Y0159942D01*
X0185436Y0160188D01*
X0185433Y0160433D01*
X0117933Y0133933D02*
X0117933Y0126933D01*
X0117931Y0126873D01*
X0117926Y0126812D01*
X0117917Y0126753D01*
X0117904Y0126694D01*
X0117888Y0126635D01*
X0117868Y0126578D01*
X0117845Y0126523D01*
X0117818Y0126468D01*
X0117789Y0126416D01*
X0117756Y0126365D01*
X0117720Y0126316D01*
X0117682Y0126270D01*
X0117640Y0126226D01*
X0117596Y0126184D01*
X0117550Y0126146D01*
X0117501Y0126110D01*
X0117450Y0126077D01*
X0117398Y0126048D01*
X0117343Y0126021D01*
X0117288Y0125998D01*
X0117231Y0125978D01*
X0117172Y0125962D01*
X0117113Y0125949D01*
X0117054Y0125940D01*
X0116993Y0125935D01*
X0116933Y0125933D01*
X0115433Y0125933D01*
X0114933Y0126433D01*
X0095933Y0126433D01*
X0095433Y0125933D01*
X0093933Y0125933D01*
X0093873Y0125935D01*
X0093812Y0125940D01*
X0093753Y0125949D01*
X0093694Y0125962D01*
X0093635Y0125978D01*
X0093578Y0125998D01*
X0093523Y0126021D01*
X0093468Y0126048D01*
X0093416Y0126077D01*
X0093365Y0126110D01*
X0093316Y0126146D01*
X0093270Y0126184D01*
X0093226Y0126226D01*
X0093184Y0126270D01*
X0093146Y0126316D01*
X0093110Y0126365D01*
X0093077Y0126416D01*
X0093048Y0126468D01*
X0093021Y0126523D01*
X0092998Y0126578D01*
X0092978Y0126635D01*
X0092962Y0126694D01*
X0092949Y0126753D01*
X0092940Y0126812D01*
X0092935Y0126873D01*
X0092933Y0126933D01*
X0092933Y0133933D01*
X0092935Y0133993D01*
X0092940Y0134054D01*
X0092949Y0134113D01*
X0092962Y0134172D01*
X0092978Y0134231D01*
X0092998Y0134288D01*
X0093021Y0134343D01*
X0093048Y0134398D01*
X0093077Y0134450D01*
X0093110Y0134501D01*
X0093146Y0134550D01*
X0093184Y0134596D01*
X0093226Y0134640D01*
X0093270Y0134682D01*
X0093316Y0134720D01*
X0093365Y0134756D01*
X0093416Y0134789D01*
X0093468Y0134818D01*
X0093523Y0134845D01*
X0093578Y0134868D01*
X0093635Y0134888D01*
X0093694Y0134904D01*
X0093753Y0134917D01*
X0093812Y0134926D01*
X0093873Y0134931D01*
X0093933Y0134933D01*
X0095433Y0134933D01*
X0095933Y0134433D01*
X0114933Y0134433D01*
X0115433Y0134933D01*
X0116933Y0134933D01*
X0116993Y0134931D01*
X0117054Y0134926D01*
X0117113Y0134917D01*
X0117172Y0134904D01*
X0117231Y0134888D01*
X0117288Y0134868D01*
X0117343Y0134845D01*
X0117398Y0134818D01*
X0117450Y0134789D01*
X0117501Y0134756D01*
X0117550Y0134720D01*
X0117596Y0134682D01*
X0117640Y0134640D01*
X0117682Y0134596D01*
X0117720Y0134550D01*
X0117756Y0134501D01*
X0117789Y0134450D01*
X0117818Y0134398D01*
X0117845Y0134343D01*
X0117868Y0134288D01*
X0117888Y0134231D01*
X0117904Y0134172D01*
X0117917Y0134113D01*
X0117926Y0134054D01*
X0117931Y0133993D01*
X0117933Y0133933D01*
X0030433Y0185433D02*
X0030436Y0185678D01*
X0030445Y0185924D01*
X0030460Y0186169D01*
X0030481Y0186413D01*
X0030508Y0186657D01*
X0030541Y0186900D01*
X0030580Y0187143D01*
X0030625Y0187384D01*
X0030676Y0187624D01*
X0030733Y0187863D01*
X0030795Y0188100D01*
X0030864Y0188336D01*
X0030938Y0188570D01*
X0031018Y0188802D01*
X0031103Y0189032D01*
X0031194Y0189260D01*
X0031291Y0189485D01*
X0031393Y0189709D01*
X0031501Y0189929D01*
X0031614Y0190147D01*
X0031732Y0190362D01*
X0031856Y0190574D01*
X0031984Y0190783D01*
X0032118Y0190989D01*
X0032257Y0191191D01*
X0032401Y0191390D01*
X0032550Y0191585D01*
X0032703Y0191777D01*
X0032861Y0191965D01*
X0033023Y0192149D01*
X0033191Y0192328D01*
X0033362Y0192504D01*
X0033538Y0192675D01*
X0033717Y0192843D01*
X0033901Y0193005D01*
X0034089Y0193163D01*
X0034281Y0193316D01*
X0034476Y0193465D01*
X0034675Y0193609D01*
X0034877Y0193748D01*
X0035083Y0193882D01*
X0035292Y0194010D01*
X0035504Y0194134D01*
X0035719Y0194252D01*
X0035937Y0194365D01*
X0036157Y0194473D01*
X0036381Y0194575D01*
X0036606Y0194672D01*
X0036834Y0194763D01*
X0037064Y0194848D01*
X0037296Y0194928D01*
X0037530Y0195002D01*
X0037766Y0195071D01*
X0038003Y0195133D01*
X0038242Y0195190D01*
X0038482Y0195241D01*
X0038723Y0195286D01*
X0038966Y0195325D01*
X0039209Y0195358D01*
X0039453Y0195385D01*
X0039697Y0195406D01*
X0039942Y0195421D01*
X0040188Y0195430D01*
X0040433Y0195433D01*
X0040678Y0195430D01*
X0040924Y0195421D01*
X0041169Y0195406D01*
X0041413Y0195385D01*
X0041657Y0195358D01*
X0041900Y0195325D01*
X0042143Y0195286D01*
X0042384Y0195241D01*
X0042624Y0195190D01*
X0042863Y0195133D01*
X0043100Y0195071D01*
X0043336Y0195002D01*
X0043570Y0194928D01*
X0043802Y0194848D01*
X0044032Y0194763D01*
X0044260Y0194672D01*
X0044485Y0194575D01*
X0044709Y0194473D01*
X0044929Y0194365D01*
X0045147Y0194252D01*
X0045362Y0194134D01*
X0045574Y0194010D01*
X0045783Y0193882D01*
X0045989Y0193748D01*
X0046191Y0193609D01*
X0046390Y0193465D01*
X0046585Y0193316D01*
X0046777Y0193163D01*
X0046965Y0193005D01*
X0047149Y0192843D01*
X0047328Y0192675D01*
X0047504Y0192504D01*
X0047675Y0192328D01*
X0047843Y0192149D01*
X0048005Y0191965D01*
X0048163Y0191777D01*
X0048316Y0191585D01*
X0048465Y0191390D01*
X0048609Y0191191D01*
X0048748Y0190989D01*
X0048882Y0190783D01*
X0049010Y0190574D01*
X0049134Y0190362D01*
X0049252Y0190147D01*
X0049365Y0189929D01*
X0049473Y0189709D01*
X0049575Y0189485D01*
X0049672Y0189260D01*
X0049763Y0189032D01*
X0049848Y0188802D01*
X0049928Y0188570D01*
X0050002Y0188336D01*
X0050071Y0188100D01*
X0050133Y0187863D01*
X0050190Y0187624D01*
X0050241Y0187384D01*
X0050286Y0187143D01*
X0050325Y0186900D01*
X0050358Y0186657D01*
X0050385Y0186413D01*
X0050406Y0186169D01*
X0050421Y0185924D01*
X0050430Y0185678D01*
X0050433Y0185433D01*
X0050430Y0185188D01*
X0050421Y0184942D01*
X0050406Y0184697D01*
X0050385Y0184453D01*
X0050358Y0184209D01*
X0050325Y0183966D01*
X0050286Y0183723D01*
X0050241Y0183482D01*
X0050190Y0183242D01*
X0050133Y0183003D01*
X0050071Y0182766D01*
X0050002Y0182530D01*
X0049928Y0182296D01*
X0049848Y0182064D01*
X0049763Y0181834D01*
X0049672Y0181606D01*
X0049575Y0181381D01*
X0049473Y0181157D01*
X0049365Y0180937D01*
X0049252Y0180719D01*
X0049134Y0180504D01*
X0049010Y0180292D01*
X0048882Y0180083D01*
X0048748Y0179877D01*
X0048609Y0179675D01*
X0048465Y0179476D01*
X0048316Y0179281D01*
X0048163Y0179089D01*
X0048005Y0178901D01*
X0047843Y0178717D01*
X0047675Y0178538D01*
X0047504Y0178362D01*
X0047328Y0178191D01*
X0047149Y0178023D01*
X0046965Y0177861D01*
X0046777Y0177703D01*
X0046585Y0177550D01*
X0046390Y0177401D01*
X0046191Y0177257D01*
X0045989Y0177118D01*
X0045783Y0176984D01*
X0045574Y0176856D01*
X0045362Y0176732D01*
X0045147Y0176614D01*
X0044929Y0176501D01*
X0044709Y0176393D01*
X0044485Y0176291D01*
X0044260Y0176194D01*
X0044032Y0176103D01*
X0043802Y0176018D01*
X0043570Y0175938D01*
X0043336Y0175864D01*
X0043100Y0175795D01*
X0042863Y0175733D01*
X0042624Y0175676D01*
X0042384Y0175625D01*
X0042143Y0175580D01*
X0041900Y0175541D01*
X0041657Y0175508D01*
X0041413Y0175481D01*
X0041169Y0175460D01*
X0040924Y0175445D01*
X0040678Y0175436D01*
X0040433Y0175433D01*
X0040188Y0175436D01*
X0039942Y0175445D01*
X0039697Y0175460D01*
X0039453Y0175481D01*
X0039209Y0175508D01*
X0038966Y0175541D01*
X0038723Y0175580D01*
X0038482Y0175625D01*
X0038242Y0175676D01*
X0038003Y0175733D01*
X0037766Y0175795D01*
X0037530Y0175864D01*
X0037296Y0175938D01*
X0037064Y0176018D01*
X0036834Y0176103D01*
X0036606Y0176194D01*
X0036381Y0176291D01*
X0036157Y0176393D01*
X0035937Y0176501D01*
X0035719Y0176614D01*
X0035504Y0176732D01*
X0035292Y0176856D01*
X0035083Y0176984D01*
X0034877Y0177118D01*
X0034675Y0177257D01*
X0034476Y0177401D01*
X0034281Y0177550D01*
X0034089Y0177703D01*
X0033901Y0177861D01*
X0033717Y0178023D01*
X0033538Y0178191D01*
X0033362Y0178362D01*
X0033191Y0178538D01*
X0033023Y0178717D01*
X0032861Y0178901D01*
X0032703Y0179089D01*
X0032550Y0179281D01*
X0032401Y0179476D01*
X0032257Y0179675D01*
X0032118Y0179877D01*
X0031984Y0180083D01*
X0031856Y0180292D01*
X0031732Y0180504D01*
X0031614Y0180719D01*
X0031501Y0180937D01*
X0031393Y0181157D01*
X0031291Y0181381D01*
X0031194Y0181606D01*
X0031103Y0181834D01*
X0031018Y0182064D01*
X0030938Y0182296D01*
X0030864Y0182530D01*
X0030795Y0182766D01*
X0030733Y0183003D01*
X0030676Y0183242D01*
X0030625Y0183482D01*
X0030580Y0183723D01*
X0030541Y0183966D01*
X0030508Y0184209D01*
X0030481Y0184453D01*
X0030460Y0184697D01*
X0030445Y0184942D01*
X0030436Y0185188D01*
X0030433Y0185433D01*
X0030433Y0040433D02*
X0030436Y0040678D01*
X0030445Y0040924D01*
X0030460Y0041169D01*
X0030481Y0041413D01*
X0030508Y0041657D01*
X0030541Y0041900D01*
X0030580Y0042143D01*
X0030625Y0042384D01*
X0030676Y0042624D01*
X0030733Y0042863D01*
X0030795Y0043100D01*
X0030864Y0043336D01*
X0030938Y0043570D01*
X0031018Y0043802D01*
X0031103Y0044032D01*
X0031194Y0044260D01*
X0031291Y0044485D01*
X0031393Y0044709D01*
X0031501Y0044929D01*
X0031614Y0045147D01*
X0031732Y0045362D01*
X0031856Y0045574D01*
X0031984Y0045783D01*
X0032118Y0045989D01*
X0032257Y0046191D01*
X0032401Y0046390D01*
X0032550Y0046585D01*
X0032703Y0046777D01*
X0032861Y0046965D01*
X0033023Y0047149D01*
X0033191Y0047328D01*
X0033362Y0047504D01*
X0033538Y0047675D01*
X0033717Y0047843D01*
X0033901Y0048005D01*
X0034089Y0048163D01*
X0034281Y0048316D01*
X0034476Y0048465D01*
X0034675Y0048609D01*
X0034877Y0048748D01*
X0035083Y0048882D01*
X0035292Y0049010D01*
X0035504Y0049134D01*
X0035719Y0049252D01*
X0035937Y0049365D01*
X0036157Y0049473D01*
X0036381Y0049575D01*
X0036606Y0049672D01*
X0036834Y0049763D01*
X0037064Y0049848D01*
X0037296Y0049928D01*
X0037530Y0050002D01*
X0037766Y0050071D01*
X0038003Y0050133D01*
X0038242Y0050190D01*
X0038482Y0050241D01*
X0038723Y0050286D01*
X0038966Y0050325D01*
X0039209Y0050358D01*
X0039453Y0050385D01*
X0039697Y0050406D01*
X0039942Y0050421D01*
X0040188Y0050430D01*
X0040433Y0050433D01*
X0040678Y0050430D01*
X0040924Y0050421D01*
X0041169Y0050406D01*
X0041413Y0050385D01*
X0041657Y0050358D01*
X0041900Y0050325D01*
X0042143Y0050286D01*
X0042384Y0050241D01*
X0042624Y0050190D01*
X0042863Y0050133D01*
X0043100Y0050071D01*
X0043336Y0050002D01*
X0043570Y0049928D01*
X0043802Y0049848D01*
X0044032Y0049763D01*
X0044260Y0049672D01*
X0044485Y0049575D01*
X0044709Y0049473D01*
X0044929Y0049365D01*
X0045147Y0049252D01*
X0045362Y0049134D01*
X0045574Y0049010D01*
X0045783Y0048882D01*
X0045989Y0048748D01*
X0046191Y0048609D01*
X0046390Y0048465D01*
X0046585Y0048316D01*
X0046777Y0048163D01*
X0046965Y0048005D01*
X0047149Y0047843D01*
X0047328Y0047675D01*
X0047504Y0047504D01*
X0047675Y0047328D01*
X0047843Y0047149D01*
X0048005Y0046965D01*
X0048163Y0046777D01*
X0048316Y0046585D01*
X0048465Y0046390D01*
X0048609Y0046191D01*
X0048748Y0045989D01*
X0048882Y0045783D01*
X0049010Y0045574D01*
X0049134Y0045362D01*
X0049252Y0045147D01*
X0049365Y0044929D01*
X0049473Y0044709D01*
X0049575Y0044485D01*
X0049672Y0044260D01*
X0049763Y0044032D01*
X0049848Y0043802D01*
X0049928Y0043570D01*
X0050002Y0043336D01*
X0050071Y0043100D01*
X0050133Y0042863D01*
X0050190Y0042624D01*
X0050241Y0042384D01*
X0050286Y0042143D01*
X0050325Y0041900D01*
X0050358Y0041657D01*
X0050385Y0041413D01*
X0050406Y0041169D01*
X0050421Y0040924D01*
X0050430Y0040678D01*
X0050433Y0040433D01*
X0050430Y0040188D01*
X0050421Y0039942D01*
X0050406Y0039697D01*
X0050385Y0039453D01*
X0050358Y0039209D01*
X0050325Y0038966D01*
X0050286Y0038723D01*
X0050241Y0038482D01*
X0050190Y0038242D01*
X0050133Y0038003D01*
X0050071Y0037766D01*
X0050002Y0037530D01*
X0049928Y0037296D01*
X0049848Y0037064D01*
X0049763Y0036834D01*
X0049672Y0036606D01*
X0049575Y0036381D01*
X0049473Y0036157D01*
X0049365Y0035937D01*
X0049252Y0035719D01*
X0049134Y0035504D01*
X0049010Y0035292D01*
X0048882Y0035083D01*
X0048748Y0034877D01*
X0048609Y0034675D01*
X0048465Y0034476D01*
X0048316Y0034281D01*
X0048163Y0034089D01*
X0048005Y0033901D01*
X0047843Y0033717D01*
X0047675Y0033538D01*
X0047504Y0033362D01*
X0047328Y0033191D01*
X0047149Y0033023D01*
X0046965Y0032861D01*
X0046777Y0032703D01*
X0046585Y0032550D01*
X0046390Y0032401D01*
X0046191Y0032257D01*
X0045989Y0032118D01*
X0045783Y0031984D01*
X0045574Y0031856D01*
X0045362Y0031732D01*
X0045147Y0031614D01*
X0044929Y0031501D01*
X0044709Y0031393D01*
X0044485Y0031291D01*
X0044260Y0031194D01*
X0044032Y0031103D01*
X0043802Y0031018D01*
X0043570Y0030938D01*
X0043336Y0030864D01*
X0043100Y0030795D01*
X0042863Y0030733D01*
X0042624Y0030676D01*
X0042384Y0030625D01*
X0042143Y0030580D01*
X0041900Y0030541D01*
X0041657Y0030508D01*
X0041413Y0030481D01*
X0041169Y0030460D01*
X0040924Y0030445D01*
X0040678Y0030436D01*
X0040433Y0030433D01*
X0040188Y0030436D01*
X0039942Y0030445D01*
X0039697Y0030460D01*
X0039453Y0030481D01*
X0039209Y0030508D01*
X0038966Y0030541D01*
X0038723Y0030580D01*
X0038482Y0030625D01*
X0038242Y0030676D01*
X0038003Y0030733D01*
X0037766Y0030795D01*
X0037530Y0030864D01*
X0037296Y0030938D01*
X0037064Y0031018D01*
X0036834Y0031103D01*
X0036606Y0031194D01*
X0036381Y0031291D01*
X0036157Y0031393D01*
X0035937Y0031501D01*
X0035719Y0031614D01*
X0035504Y0031732D01*
X0035292Y0031856D01*
X0035083Y0031984D01*
X0034877Y0032118D01*
X0034675Y0032257D01*
X0034476Y0032401D01*
X0034281Y0032550D01*
X0034089Y0032703D01*
X0033901Y0032861D01*
X0033717Y0033023D01*
X0033538Y0033191D01*
X0033362Y0033362D01*
X0033191Y0033538D01*
X0033023Y0033717D01*
X0032861Y0033901D01*
X0032703Y0034089D01*
X0032550Y0034281D01*
X0032401Y0034476D01*
X0032257Y0034675D01*
X0032118Y0034877D01*
X0031984Y0035083D01*
X0031856Y0035292D01*
X0031732Y0035504D01*
X0031614Y0035719D01*
X0031501Y0035937D01*
X0031393Y0036157D01*
X0031291Y0036381D01*
X0031194Y0036606D01*
X0031103Y0036834D01*
X0031018Y0037064D01*
X0030938Y0037296D01*
X0030864Y0037530D01*
X0030795Y0037766D01*
X0030733Y0038003D01*
X0030676Y0038242D01*
X0030625Y0038482D01*
X0030580Y0038723D01*
X0030541Y0038966D01*
X0030508Y0039209D01*
X0030481Y0039453D01*
X0030460Y0039697D01*
X0030445Y0039942D01*
X0030436Y0040188D01*
X0030433Y0040433D01*
X0100433Y0035433D02*
X0100436Y0035678D01*
X0100445Y0035924D01*
X0100460Y0036169D01*
X0100481Y0036413D01*
X0100508Y0036657D01*
X0100541Y0036900D01*
X0100580Y0037143D01*
X0100625Y0037384D01*
X0100676Y0037624D01*
X0100733Y0037863D01*
X0100795Y0038100D01*
X0100864Y0038336D01*
X0100938Y0038570D01*
X0101018Y0038802D01*
X0101103Y0039032D01*
X0101194Y0039260D01*
X0101291Y0039485D01*
X0101393Y0039709D01*
X0101501Y0039929D01*
X0101614Y0040147D01*
X0101732Y0040362D01*
X0101856Y0040574D01*
X0101984Y0040783D01*
X0102118Y0040989D01*
X0102257Y0041191D01*
X0102401Y0041390D01*
X0102550Y0041585D01*
X0102703Y0041777D01*
X0102861Y0041965D01*
X0103023Y0042149D01*
X0103191Y0042328D01*
X0103362Y0042504D01*
X0103538Y0042675D01*
X0103717Y0042843D01*
X0103901Y0043005D01*
X0104089Y0043163D01*
X0104281Y0043316D01*
X0104476Y0043465D01*
X0104675Y0043609D01*
X0104877Y0043748D01*
X0105083Y0043882D01*
X0105292Y0044010D01*
X0105504Y0044134D01*
X0105719Y0044252D01*
X0105937Y0044365D01*
X0106157Y0044473D01*
X0106381Y0044575D01*
X0106606Y0044672D01*
X0106834Y0044763D01*
X0107064Y0044848D01*
X0107296Y0044928D01*
X0107530Y0045002D01*
X0107766Y0045071D01*
X0108003Y0045133D01*
X0108242Y0045190D01*
X0108482Y0045241D01*
X0108723Y0045286D01*
X0108966Y0045325D01*
X0109209Y0045358D01*
X0109453Y0045385D01*
X0109697Y0045406D01*
X0109942Y0045421D01*
X0110188Y0045430D01*
X0110433Y0045433D01*
X0110678Y0045430D01*
X0110924Y0045421D01*
X0111169Y0045406D01*
X0111413Y0045385D01*
X0111657Y0045358D01*
X0111900Y0045325D01*
X0112143Y0045286D01*
X0112384Y0045241D01*
X0112624Y0045190D01*
X0112863Y0045133D01*
X0113100Y0045071D01*
X0113336Y0045002D01*
X0113570Y0044928D01*
X0113802Y0044848D01*
X0114032Y0044763D01*
X0114260Y0044672D01*
X0114485Y0044575D01*
X0114709Y0044473D01*
X0114929Y0044365D01*
X0115147Y0044252D01*
X0115362Y0044134D01*
X0115574Y0044010D01*
X0115783Y0043882D01*
X0115989Y0043748D01*
X0116191Y0043609D01*
X0116390Y0043465D01*
X0116585Y0043316D01*
X0116777Y0043163D01*
X0116965Y0043005D01*
X0117149Y0042843D01*
X0117328Y0042675D01*
X0117504Y0042504D01*
X0117675Y0042328D01*
X0117843Y0042149D01*
X0118005Y0041965D01*
X0118163Y0041777D01*
X0118316Y0041585D01*
X0118465Y0041390D01*
X0118609Y0041191D01*
X0118748Y0040989D01*
X0118882Y0040783D01*
X0119010Y0040574D01*
X0119134Y0040362D01*
X0119252Y0040147D01*
X0119365Y0039929D01*
X0119473Y0039709D01*
X0119575Y0039485D01*
X0119672Y0039260D01*
X0119763Y0039032D01*
X0119848Y0038802D01*
X0119928Y0038570D01*
X0120002Y0038336D01*
X0120071Y0038100D01*
X0120133Y0037863D01*
X0120190Y0037624D01*
X0120241Y0037384D01*
X0120286Y0037143D01*
X0120325Y0036900D01*
X0120358Y0036657D01*
X0120385Y0036413D01*
X0120406Y0036169D01*
X0120421Y0035924D01*
X0120430Y0035678D01*
X0120433Y0035433D01*
X0120430Y0035188D01*
X0120421Y0034942D01*
X0120406Y0034697D01*
X0120385Y0034453D01*
X0120358Y0034209D01*
X0120325Y0033966D01*
X0120286Y0033723D01*
X0120241Y0033482D01*
X0120190Y0033242D01*
X0120133Y0033003D01*
X0120071Y0032766D01*
X0120002Y0032530D01*
X0119928Y0032296D01*
X0119848Y0032064D01*
X0119763Y0031834D01*
X0119672Y0031606D01*
X0119575Y0031381D01*
X0119473Y0031157D01*
X0119365Y0030937D01*
X0119252Y0030719D01*
X0119134Y0030504D01*
X0119010Y0030292D01*
X0118882Y0030083D01*
X0118748Y0029877D01*
X0118609Y0029675D01*
X0118465Y0029476D01*
X0118316Y0029281D01*
X0118163Y0029089D01*
X0118005Y0028901D01*
X0117843Y0028717D01*
X0117675Y0028538D01*
X0117504Y0028362D01*
X0117328Y0028191D01*
X0117149Y0028023D01*
X0116965Y0027861D01*
X0116777Y0027703D01*
X0116585Y0027550D01*
X0116390Y0027401D01*
X0116191Y0027257D01*
X0115989Y0027118D01*
X0115783Y0026984D01*
X0115574Y0026856D01*
X0115362Y0026732D01*
X0115147Y0026614D01*
X0114929Y0026501D01*
X0114709Y0026393D01*
X0114485Y0026291D01*
X0114260Y0026194D01*
X0114032Y0026103D01*
X0113802Y0026018D01*
X0113570Y0025938D01*
X0113336Y0025864D01*
X0113100Y0025795D01*
X0112863Y0025733D01*
X0112624Y0025676D01*
X0112384Y0025625D01*
X0112143Y0025580D01*
X0111900Y0025541D01*
X0111657Y0025508D01*
X0111413Y0025481D01*
X0111169Y0025460D01*
X0110924Y0025445D01*
X0110678Y0025436D01*
X0110433Y0025433D01*
X0110188Y0025436D01*
X0109942Y0025445D01*
X0109697Y0025460D01*
X0109453Y0025481D01*
X0109209Y0025508D01*
X0108966Y0025541D01*
X0108723Y0025580D01*
X0108482Y0025625D01*
X0108242Y0025676D01*
X0108003Y0025733D01*
X0107766Y0025795D01*
X0107530Y0025864D01*
X0107296Y0025938D01*
X0107064Y0026018D01*
X0106834Y0026103D01*
X0106606Y0026194D01*
X0106381Y0026291D01*
X0106157Y0026393D01*
X0105937Y0026501D01*
X0105719Y0026614D01*
X0105504Y0026732D01*
X0105292Y0026856D01*
X0105083Y0026984D01*
X0104877Y0027118D01*
X0104675Y0027257D01*
X0104476Y0027401D01*
X0104281Y0027550D01*
X0104089Y0027703D01*
X0103901Y0027861D01*
X0103717Y0028023D01*
X0103538Y0028191D01*
X0103362Y0028362D01*
X0103191Y0028538D01*
X0103023Y0028717D01*
X0102861Y0028901D01*
X0102703Y0029089D01*
X0102550Y0029281D01*
X0102401Y0029476D01*
X0102257Y0029675D01*
X0102118Y0029877D01*
X0101984Y0030083D01*
X0101856Y0030292D01*
X0101732Y0030504D01*
X0101614Y0030719D01*
X0101501Y0030937D01*
X0101393Y0031157D01*
X0101291Y0031381D01*
X0101194Y0031606D01*
X0101103Y0031834D01*
X0101018Y0032064D01*
X0100938Y0032296D01*
X0100864Y0032530D01*
X0100795Y0032766D01*
X0100733Y0033003D01*
X0100676Y0033242D01*
X0100625Y0033482D01*
X0100580Y0033723D01*
X0100541Y0033966D01*
X0100508Y0034209D01*
X0100481Y0034453D01*
X0100460Y0034697D01*
X0100445Y0034942D01*
X0100436Y0035188D01*
X0100433Y0035433D01*
D13*
X0090433Y0036233D03*
X0090433Y0064633D03*
X0060433Y0091233D03*
X0060433Y0119633D03*
X0060433Y0151233D03*
X0060433Y0179633D03*
X0175433Y0179633D03*
X0175433Y0151233D03*
D14*
X0159633Y0160433D03*
X0131233Y0160433D03*
X0104633Y0160433D03*
X0104633Y0145433D03*
X0091233Y0130433D03*
X0076233Y0145433D03*
X0076233Y0160433D03*
X0076233Y0175433D03*
X0104633Y0175433D03*
X0119633Y0130433D03*
X0074633Y0075433D03*
X0074633Y0060433D03*
X0046233Y0060433D03*
X0046233Y0075433D03*
X0106233Y0070433D03*
X0106233Y0055433D03*
X0134633Y0055433D03*
X0134633Y0070433D03*
X0136233Y0040433D03*
X0136233Y0030433D03*
X0164633Y0030433D03*
X0164633Y0040433D03*
X0176233Y0195433D03*
X0204633Y0195433D03*
D15*
X0192337Y0190466D02*
X0192093Y0190388D01*
X0191851Y0190303D01*
X0191612Y0190213D01*
X0191374Y0190117D01*
X0191139Y0190015D01*
X0190906Y0189907D01*
X0190676Y0189794D01*
X0190449Y0189675D01*
X0190225Y0189551D01*
X0190004Y0189421D01*
X0189787Y0189286D01*
X0189572Y0189145D01*
X0189361Y0188999D01*
X0189154Y0188849D01*
X0188951Y0188693D01*
X0188751Y0188532D01*
X0188555Y0188367D01*
X0188364Y0188197D01*
X0188176Y0188022D01*
X0187993Y0187842D01*
X0187815Y0187659D01*
X0187640Y0187470D01*
X0187471Y0187278D01*
X0187306Y0187082D01*
X0187146Y0186881D01*
X0186992Y0186677D01*
X0186842Y0186469D01*
X0186697Y0186258D01*
X0186557Y0186043D01*
X0186423Y0185825D01*
X0186294Y0185603D01*
X0186171Y0185379D01*
X0186053Y0185151D01*
X0185940Y0184921D01*
X0185834Y0184688D01*
X0185733Y0184452D01*
X0185637Y0184214D01*
X0185548Y0183974D01*
X0185465Y0183732D01*
X0185387Y0183487D01*
X0185316Y0183241D01*
X0185250Y0182993D01*
X0185191Y0182744D01*
X0185137Y0182494D01*
X0185090Y0182242D01*
X0185049Y0181989D01*
X0185014Y0181735D01*
X0184985Y0181480D01*
X0184963Y0181225D01*
X0184947Y0180969D01*
X0184937Y0180713D01*
X0184933Y0180457D01*
X0184936Y0180200D01*
X0184944Y0179944D01*
X0184959Y0179688D01*
X0184981Y0179433D01*
X0186560Y0179433D01*
X0187187Y0173933D02*
X0203679Y0173933D01*
X0204306Y0179433D02*
X0205886Y0179433D01*
X0196560Y0179433D02*
X0194306Y0179433D01*
X0187187Y0173933D02*
X0187034Y0174132D01*
X0186886Y0174334D01*
X0186743Y0174539D01*
X0186605Y0174748D01*
X0186472Y0174960D01*
X0186344Y0175175D01*
X0186222Y0175393D01*
X0186104Y0175614D01*
X0185992Y0175838D01*
X0185885Y0176064D01*
X0185784Y0176293D01*
X0185688Y0176524D01*
X0185597Y0176758D01*
X0185512Y0176993D01*
X0185433Y0177231D01*
X0185360Y0177470D01*
X0185292Y0177711D01*
X0185230Y0177953D01*
X0185174Y0178197D01*
X0185123Y0178443D01*
X0185079Y0178689D01*
X0185040Y0178936D01*
X0185008Y0179184D01*
X0184981Y0179433D01*
X0198529Y0190466D02*
X0198771Y0190388D01*
X0199011Y0190304D01*
X0199249Y0190215D01*
X0199485Y0190120D01*
X0199719Y0190018D01*
X0199950Y0189912D01*
X0200178Y0189799D01*
X0200404Y0189682D01*
X0200627Y0189559D01*
X0200846Y0189430D01*
X0201063Y0189296D01*
X0201276Y0189157D01*
X0201486Y0189013D01*
X0201692Y0188864D01*
X0201894Y0188710D01*
X0202093Y0188551D01*
X0202288Y0188387D01*
X0202479Y0188218D01*
X0202665Y0188045D01*
X0202848Y0187868D01*
X0203026Y0187686D01*
X0203199Y0187500D01*
X0203368Y0187309D01*
X0203532Y0187115D01*
X0203692Y0186917D01*
X0203847Y0186715D01*
X0203996Y0186509D01*
X0204141Y0186300D01*
X0204281Y0186087D01*
X0204415Y0185871D01*
X0204544Y0185651D01*
X0204668Y0185429D01*
X0204787Y0185204D01*
X0204899Y0184976D01*
X0205007Y0184745D01*
X0205108Y0184512D01*
X0205204Y0184276D01*
X0205295Y0184038D01*
X0205379Y0183798D01*
X0205458Y0183556D01*
X0205531Y0183312D01*
X0205597Y0183066D01*
X0205658Y0182819D01*
X0205713Y0182571D01*
X0205762Y0182321D01*
X0205805Y0182070D01*
X0205841Y0181818D01*
X0205872Y0181566D01*
X0205896Y0181312D01*
X0205914Y0181059D01*
X0205926Y0180804D01*
X0205932Y0180550D01*
X0205932Y0180295D01*
X0205926Y0180041D01*
X0205913Y0179787D01*
X0205894Y0179533D01*
X0205869Y0179280D01*
X0205838Y0179027D01*
X0205801Y0178775D01*
X0205758Y0178525D01*
X0205709Y0178275D01*
X0205653Y0178026D01*
X0205592Y0177779D01*
X0205525Y0177534D01*
X0205452Y0177290D01*
X0205373Y0177048D01*
X0205288Y0176809D01*
X0205197Y0176571D01*
X0205100Y0176335D01*
X0204998Y0176102D01*
X0204890Y0175872D01*
X0204777Y0175644D01*
X0204658Y0175419D01*
X0204534Y0175197D01*
X0204404Y0174978D01*
X0204270Y0174762D01*
X0204130Y0174549D01*
X0203984Y0174340D01*
X0203834Y0174135D01*
X0203679Y0173933D01*
X0154433Y0075886D02*
X0154433Y0074306D01*
X0148933Y0073679D02*
X0148933Y0057187D01*
X0154433Y0056560D02*
X0154433Y0054981D01*
X0154433Y0064306D02*
X0154433Y0066560D01*
X0148933Y0073679D02*
X0149132Y0073832D01*
X0149334Y0073980D01*
X0149539Y0074123D01*
X0149748Y0074261D01*
X0149960Y0074394D01*
X0150175Y0074522D01*
X0150393Y0074644D01*
X0150614Y0074762D01*
X0150838Y0074874D01*
X0151064Y0074981D01*
X0151293Y0075082D01*
X0151524Y0075178D01*
X0151758Y0075269D01*
X0151993Y0075354D01*
X0152231Y0075433D01*
X0152470Y0075506D01*
X0152711Y0075574D01*
X0152953Y0075636D01*
X0153197Y0075692D01*
X0153443Y0075743D01*
X0153689Y0075787D01*
X0153936Y0075826D01*
X0154184Y0075858D01*
X0154433Y0075885D01*
X0154688Y0075907D01*
X0154944Y0075922D01*
X0155200Y0075930D01*
X0155457Y0075933D01*
X0155713Y0075929D01*
X0155969Y0075919D01*
X0156225Y0075903D01*
X0156480Y0075881D01*
X0156735Y0075852D01*
X0156989Y0075817D01*
X0157242Y0075776D01*
X0157494Y0075729D01*
X0157744Y0075675D01*
X0157993Y0075616D01*
X0158241Y0075550D01*
X0158487Y0075479D01*
X0158732Y0075401D01*
X0158974Y0075318D01*
X0159214Y0075229D01*
X0159452Y0075133D01*
X0159688Y0075032D01*
X0159921Y0074926D01*
X0160151Y0074813D01*
X0160379Y0074695D01*
X0160603Y0074572D01*
X0160825Y0074443D01*
X0161043Y0074309D01*
X0161258Y0074169D01*
X0161469Y0074024D01*
X0161677Y0073874D01*
X0161881Y0073720D01*
X0162082Y0073560D01*
X0162278Y0073395D01*
X0162470Y0073226D01*
X0162659Y0073051D01*
X0162842Y0072873D01*
X0163022Y0072690D01*
X0163197Y0072502D01*
X0163367Y0072311D01*
X0163532Y0072115D01*
X0163693Y0071915D01*
X0163849Y0071712D01*
X0163999Y0071505D01*
X0164145Y0071294D01*
X0164286Y0071079D01*
X0164421Y0070862D01*
X0164551Y0070641D01*
X0164675Y0070417D01*
X0164794Y0070190D01*
X0164907Y0069960D01*
X0165015Y0069727D01*
X0165117Y0069492D01*
X0165213Y0069254D01*
X0165303Y0069015D01*
X0165388Y0068773D01*
X0165466Y0068529D01*
X0168933Y0063679D02*
X0168933Y0047187D01*
X0174433Y0046560D02*
X0174433Y0044981D01*
X0174433Y0054306D02*
X0174433Y0056560D01*
X0168933Y0063679D02*
X0169132Y0063832D01*
X0169334Y0063980D01*
X0169539Y0064123D01*
X0169748Y0064261D01*
X0169960Y0064394D01*
X0170175Y0064522D01*
X0170393Y0064644D01*
X0170614Y0064762D01*
X0170838Y0064874D01*
X0171064Y0064981D01*
X0171293Y0065082D01*
X0171524Y0065178D01*
X0171758Y0065269D01*
X0171993Y0065354D01*
X0172231Y0065433D01*
X0172470Y0065506D01*
X0172711Y0065574D01*
X0172953Y0065636D01*
X0173197Y0065692D01*
X0173443Y0065743D01*
X0173689Y0065787D01*
X0173936Y0065826D01*
X0174184Y0065858D01*
X0174433Y0065885D01*
X0174433Y0065886D02*
X0174433Y0064306D01*
X0174433Y0065885D02*
X0174688Y0065907D01*
X0174944Y0065922D01*
X0175200Y0065930D01*
X0175457Y0065933D01*
X0175713Y0065929D01*
X0175969Y0065919D01*
X0176225Y0065903D01*
X0176480Y0065881D01*
X0176735Y0065852D01*
X0176989Y0065817D01*
X0177242Y0065776D01*
X0177494Y0065729D01*
X0177744Y0065675D01*
X0177993Y0065616D01*
X0178241Y0065550D01*
X0178487Y0065479D01*
X0178732Y0065401D01*
X0178974Y0065318D01*
X0179214Y0065229D01*
X0179452Y0065133D01*
X0179688Y0065032D01*
X0179921Y0064926D01*
X0180151Y0064813D01*
X0180379Y0064695D01*
X0180603Y0064572D01*
X0180825Y0064443D01*
X0181043Y0064309D01*
X0181258Y0064169D01*
X0181469Y0064024D01*
X0181677Y0063874D01*
X0181881Y0063720D01*
X0182082Y0063560D01*
X0182278Y0063395D01*
X0182470Y0063226D01*
X0182659Y0063051D01*
X0182842Y0062873D01*
X0183022Y0062690D01*
X0183197Y0062502D01*
X0183367Y0062311D01*
X0183532Y0062115D01*
X0183693Y0061915D01*
X0183849Y0061712D01*
X0183999Y0061505D01*
X0184145Y0061294D01*
X0184286Y0061079D01*
X0184421Y0060862D01*
X0184551Y0060641D01*
X0184675Y0060417D01*
X0184794Y0060190D01*
X0184907Y0059960D01*
X0185015Y0059727D01*
X0185117Y0059492D01*
X0185213Y0059254D01*
X0185303Y0059015D01*
X0185388Y0058773D01*
X0185466Y0058529D01*
X0185466Y0052337D02*
X0185388Y0052095D01*
X0185304Y0051855D01*
X0185215Y0051617D01*
X0185120Y0051381D01*
X0185018Y0051147D01*
X0184912Y0050916D01*
X0184799Y0050688D01*
X0184682Y0050462D01*
X0184559Y0050239D01*
X0184430Y0050020D01*
X0184296Y0049803D01*
X0184157Y0049590D01*
X0184013Y0049380D01*
X0183864Y0049174D01*
X0183710Y0048972D01*
X0183551Y0048773D01*
X0183387Y0048578D01*
X0183218Y0048387D01*
X0183045Y0048201D01*
X0182868Y0048018D01*
X0182686Y0047840D01*
X0182500Y0047667D01*
X0182309Y0047498D01*
X0182115Y0047334D01*
X0181917Y0047174D01*
X0181715Y0047019D01*
X0181509Y0046870D01*
X0181300Y0046725D01*
X0181087Y0046585D01*
X0180871Y0046451D01*
X0180651Y0046322D01*
X0180429Y0046198D01*
X0180204Y0046079D01*
X0179976Y0045967D01*
X0179745Y0045859D01*
X0179512Y0045758D01*
X0179276Y0045662D01*
X0179038Y0045571D01*
X0178798Y0045487D01*
X0178556Y0045408D01*
X0178312Y0045335D01*
X0178066Y0045269D01*
X0177819Y0045208D01*
X0177571Y0045153D01*
X0177321Y0045104D01*
X0177070Y0045061D01*
X0176818Y0045025D01*
X0176566Y0044994D01*
X0176312Y0044970D01*
X0176059Y0044952D01*
X0175804Y0044940D01*
X0175550Y0044934D01*
X0175295Y0044934D01*
X0175041Y0044940D01*
X0174787Y0044953D01*
X0174533Y0044972D01*
X0174280Y0044997D01*
X0174027Y0045028D01*
X0173775Y0045065D01*
X0173525Y0045108D01*
X0173275Y0045157D01*
X0173026Y0045213D01*
X0172779Y0045274D01*
X0172534Y0045341D01*
X0172290Y0045414D01*
X0172048Y0045493D01*
X0171809Y0045578D01*
X0171571Y0045669D01*
X0171335Y0045766D01*
X0171102Y0045868D01*
X0170872Y0045976D01*
X0170644Y0046089D01*
X0170419Y0046208D01*
X0170197Y0046332D01*
X0169978Y0046462D01*
X0169762Y0046596D01*
X0169549Y0046736D01*
X0169340Y0046882D01*
X0169135Y0047032D01*
X0168933Y0047187D01*
X0165466Y0062337D02*
X0165388Y0062095D01*
X0165304Y0061855D01*
X0165215Y0061617D01*
X0165120Y0061381D01*
X0165018Y0061147D01*
X0164912Y0060916D01*
X0164799Y0060688D01*
X0164682Y0060462D01*
X0164559Y0060239D01*
X0164430Y0060020D01*
X0164296Y0059803D01*
X0164157Y0059590D01*
X0164013Y0059380D01*
X0163864Y0059174D01*
X0163710Y0058972D01*
X0163551Y0058773D01*
X0163387Y0058578D01*
X0163218Y0058387D01*
X0163045Y0058201D01*
X0162868Y0058018D01*
X0162686Y0057840D01*
X0162500Y0057667D01*
X0162309Y0057498D01*
X0162115Y0057334D01*
X0161917Y0057174D01*
X0161715Y0057019D01*
X0161509Y0056870D01*
X0161300Y0056725D01*
X0161087Y0056585D01*
X0160871Y0056451D01*
X0160651Y0056322D01*
X0160429Y0056198D01*
X0160204Y0056079D01*
X0159976Y0055967D01*
X0159745Y0055859D01*
X0159512Y0055758D01*
X0159276Y0055662D01*
X0159038Y0055571D01*
X0158798Y0055487D01*
X0158556Y0055408D01*
X0158312Y0055335D01*
X0158066Y0055269D01*
X0157819Y0055208D01*
X0157571Y0055153D01*
X0157321Y0055104D01*
X0157070Y0055061D01*
X0156818Y0055025D01*
X0156566Y0054994D01*
X0156312Y0054970D01*
X0156059Y0054952D01*
X0155804Y0054940D01*
X0155550Y0054934D01*
X0155295Y0054934D01*
X0155041Y0054940D01*
X0154787Y0054953D01*
X0154533Y0054972D01*
X0154280Y0054997D01*
X0154027Y0055028D01*
X0153775Y0055065D01*
X0153525Y0055108D01*
X0153275Y0055157D01*
X0153026Y0055213D01*
X0152779Y0055274D01*
X0152534Y0055341D01*
X0152290Y0055414D01*
X0152048Y0055493D01*
X0151809Y0055578D01*
X0151571Y0055669D01*
X0151335Y0055766D01*
X0151102Y0055868D01*
X0150872Y0055976D01*
X0150644Y0056089D01*
X0150419Y0056208D01*
X0150197Y0056332D01*
X0149978Y0056462D01*
X0149762Y0056596D01*
X0149549Y0056736D01*
X0149340Y0056882D01*
X0149135Y0057032D01*
X0148933Y0057187D01*
X0059433Y0050886D02*
X0059433Y0049306D01*
X0053933Y0048679D02*
X0053933Y0032187D01*
X0059433Y0031560D02*
X0059433Y0029981D01*
X0059433Y0039306D02*
X0059433Y0041560D01*
X0053933Y0048679D02*
X0054132Y0048832D01*
X0054334Y0048980D01*
X0054539Y0049123D01*
X0054748Y0049261D01*
X0054960Y0049394D01*
X0055175Y0049522D01*
X0055393Y0049644D01*
X0055614Y0049762D01*
X0055838Y0049874D01*
X0056064Y0049981D01*
X0056293Y0050082D01*
X0056524Y0050178D01*
X0056758Y0050269D01*
X0056993Y0050354D01*
X0057231Y0050433D01*
X0057470Y0050506D01*
X0057711Y0050574D01*
X0057953Y0050636D01*
X0058197Y0050692D01*
X0058443Y0050743D01*
X0058689Y0050787D01*
X0058936Y0050826D01*
X0059184Y0050858D01*
X0059433Y0050885D01*
X0059688Y0050907D01*
X0059944Y0050922D01*
X0060200Y0050930D01*
X0060457Y0050933D01*
X0060713Y0050929D01*
X0060969Y0050919D01*
X0061225Y0050903D01*
X0061480Y0050881D01*
X0061735Y0050852D01*
X0061989Y0050817D01*
X0062242Y0050776D01*
X0062494Y0050729D01*
X0062744Y0050675D01*
X0062993Y0050616D01*
X0063241Y0050550D01*
X0063487Y0050479D01*
X0063732Y0050401D01*
X0063974Y0050318D01*
X0064214Y0050229D01*
X0064452Y0050133D01*
X0064688Y0050032D01*
X0064921Y0049926D01*
X0065151Y0049813D01*
X0065379Y0049695D01*
X0065603Y0049572D01*
X0065825Y0049443D01*
X0066043Y0049309D01*
X0066258Y0049169D01*
X0066469Y0049024D01*
X0066677Y0048874D01*
X0066881Y0048720D01*
X0067082Y0048560D01*
X0067278Y0048395D01*
X0067470Y0048226D01*
X0067659Y0048051D01*
X0067842Y0047873D01*
X0068022Y0047690D01*
X0068197Y0047502D01*
X0068367Y0047311D01*
X0068532Y0047115D01*
X0068693Y0046915D01*
X0068849Y0046712D01*
X0068999Y0046505D01*
X0069145Y0046294D01*
X0069286Y0046079D01*
X0069421Y0045862D01*
X0069551Y0045641D01*
X0069675Y0045417D01*
X0069794Y0045190D01*
X0069907Y0044960D01*
X0070015Y0044727D01*
X0070117Y0044492D01*
X0070213Y0044254D01*
X0070303Y0044015D01*
X0070388Y0043773D01*
X0070466Y0043529D01*
X0070466Y0037337D02*
X0070388Y0037095D01*
X0070304Y0036855D01*
X0070215Y0036617D01*
X0070120Y0036381D01*
X0070018Y0036147D01*
X0069912Y0035916D01*
X0069799Y0035688D01*
X0069682Y0035462D01*
X0069559Y0035239D01*
X0069430Y0035020D01*
X0069296Y0034803D01*
X0069157Y0034590D01*
X0069013Y0034380D01*
X0068864Y0034174D01*
X0068710Y0033972D01*
X0068551Y0033773D01*
X0068387Y0033578D01*
X0068218Y0033387D01*
X0068045Y0033201D01*
X0067868Y0033018D01*
X0067686Y0032840D01*
X0067500Y0032667D01*
X0067309Y0032498D01*
X0067115Y0032334D01*
X0066917Y0032174D01*
X0066715Y0032019D01*
X0066509Y0031870D01*
X0066300Y0031725D01*
X0066087Y0031585D01*
X0065871Y0031451D01*
X0065651Y0031322D01*
X0065429Y0031198D01*
X0065204Y0031079D01*
X0064976Y0030967D01*
X0064745Y0030859D01*
X0064512Y0030758D01*
X0064276Y0030662D01*
X0064038Y0030571D01*
X0063798Y0030487D01*
X0063556Y0030408D01*
X0063312Y0030335D01*
X0063066Y0030269D01*
X0062819Y0030208D01*
X0062571Y0030153D01*
X0062321Y0030104D01*
X0062070Y0030061D01*
X0061818Y0030025D01*
X0061566Y0029994D01*
X0061312Y0029970D01*
X0061059Y0029952D01*
X0060804Y0029940D01*
X0060550Y0029934D01*
X0060295Y0029934D01*
X0060041Y0029940D01*
X0059787Y0029953D01*
X0059533Y0029972D01*
X0059280Y0029997D01*
X0059027Y0030028D01*
X0058775Y0030065D01*
X0058525Y0030108D01*
X0058275Y0030157D01*
X0058026Y0030213D01*
X0057779Y0030274D01*
X0057534Y0030341D01*
X0057290Y0030414D01*
X0057048Y0030493D01*
X0056809Y0030578D01*
X0056571Y0030669D01*
X0056335Y0030766D01*
X0056102Y0030868D01*
X0055872Y0030976D01*
X0055644Y0031089D01*
X0055419Y0031208D01*
X0055197Y0031332D01*
X0054978Y0031462D01*
X0054762Y0031596D01*
X0054549Y0031736D01*
X0054340Y0031882D01*
X0054135Y0032032D01*
X0053933Y0032187D01*
X0043529Y0085400D02*
X0043773Y0085478D01*
X0044015Y0085563D01*
X0044254Y0085653D01*
X0044492Y0085749D01*
X0044727Y0085851D01*
X0044960Y0085959D01*
X0045190Y0086072D01*
X0045417Y0086191D01*
X0045641Y0086315D01*
X0045862Y0086445D01*
X0046079Y0086580D01*
X0046294Y0086721D01*
X0046505Y0086867D01*
X0046712Y0087017D01*
X0046915Y0087173D01*
X0047115Y0087334D01*
X0047311Y0087499D01*
X0047502Y0087669D01*
X0047690Y0087844D01*
X0047873Y0088024D01*
X0048051Y0088207D01*
X0048226Y0088396D01*
X0048395Y0088588D01*
X0048560Y0088784D01*
X0048720Y0088985D01*
X0048874Y0089189D01*
X0049024Y0089397D01*
X0049169Y0089608D01*
X0049309Y0089823D01*
X0049443Y0090041D01*
X0049572Y0090263D01*
X0049695Y0090487D01*
X0049813Y0090715D01*
X0049926Y0090945D01*
X0050032Y0091178D01*
X0050133Y0091414D01*
X0050229Y0091652D01*
X0050318Y0091892D01*
X0050401Y0092134D01*
X0050479Y0092379D01*
X0050550Y0092625D01*
X0050616Y0092873D01*
X0050675Y0093122D01*
X0050729Y0093372D01*
X0050776Y0093624D01*
X0050817Y0093877D01*
X0050852Y0094131D01*
X0050881Y0094386D01*
X0050903Y0094641D01*
X0050919Y0094897D01*
X0050929Y0095153D01*
X0050933Y0095409D01*
X0050930Y0095666D01*
X0050922Y0095922D01*
X0050907Y0096178D01*
X0050885Y0096433D01*
X0050886Y0096433D02*
X0049306Y0096433D01*
X0048679Y0101933D02*
X0032187Y0101933D01*
X0031560Y0096433D02*
X0029981Y0096433D01*
X0039306Y0096433D02*
X0041560Y0096433D01*
X0048679Y0101933D02*
X0048832Y0101734D01*
X0048980Y0101532D01*
X0049123Y0101327D01*
X0049261Y0101118D01*
X0049394Y0100906D01*
X0049522Y0100691D01*
X0049644Y0100473D01*
X0049762Y0100252D01*
X0049874Y0100028D01*
X0049981Y0099802D01*
X0050082Y0099573D01*
X0050178Y0099342D01*
X0050269Y0099108D01*
X0050354Y0098873D01*
X0050433Y0098635D01*
X0050506Y0098396D01*
X0050574Y0098155D01*
X0050636Y0097913D01*
X0050692Y0097669D01*
X0050743Y0097423D01*
X0050787Y0097177D01*
X0050826Y0096930D01*
X0050858Y0096682D01*
X0050885Y0096433D01*
X0037337Y0085400D02*
X0037095Y0085478D01*
X0036855Y0085562D01*
X0036617Y0085651D01*
X0036381Y0085746D01*
X0036147Y0085848D01*
X0035916Y0085954D01*
X0035688Y0086067D01*
X0035462Y0086184D01*
X0035239Y0086307D01*
X0035020Y0086436D01*
X0034803Y0086570D01*
X0034590Y0086709D01*
X0034380Y0086853D01*
X0034174Y0087002D01*
X0033972Y0087156D01*
X0033773Y0087315D01*
X0033578Y0087479D01*
X0033387Y0087648D01*
X0033201Y0087821D01*
X0033018Y0087998D01*
X0032840Y0088180D01*
X0032667Y0088366D01*
X0032498Y0088557D01*
X0032334Y0088751D01*
X0032174Y0088949D01*
X0032019Y0089151D01*
X0031870Y0089357D01*
X0031725Y0089566D01*
X0031585Y0089779D01*
X0031451Y0089995D01*
X0031322Y0090215D01*
X0031198Y0090437D01*
X0031079Y0090662D01*
X0030967Y0090890D01*
X0030859Y0091121D01*
X0030758Y0091354D01*
X0030662Y0091590D01*
X0030571Y0091828D01*
X0030487Y0092068D01*
X0030408Y0092310D01*
X0030335Y0092554D01*
X0030269Y0092800D01*
X0030208Y0093047D01*
X0030153Y0093295D01*
X0030104Y0093545D01*
X0030061Y0093796D01*
X0030025Y0094048D01*
X0029994Y0094300D01*
X0029970Y0094554D01*
X0029952Y0094807D01*
X0029940Y0095062D01*
X0029934Y0095316D01*
X0029934Y0095571D01*
X0029940Y0095825D01*
X0029953Y0096079D01*
X0029972Y0096333D01*
X0029997Y0096586D01*
X0030028Y0096839D01*
X0030065Y0097091D01*
X0030108Y0097341D01*
X0030157Y0097591D01*
X0030213Y0097840D01*
X0030274Y0098087D01*
X0030341Y0098332D01*
X0030414Y0098576D01*
X0030493Y0098818D01*
X0030578Y0099057D01*
X0030669Y0099295D01*
X0030766Y0099531D01*
X0030868Y0099764D01*
X0030976Y0099994D01*
X0031089Y0100222D01*
X0031208Y0100447D01*
X0031332Y0100669D01*
X0031462Y0100888D01*
X0031596Y0101104D01*
X0031736Y0101317D01*
X0031882Y0101526D01*
X0032032Y0101731D01*
X0032187Y0101933D01*
X0041433Y0139981D02*
X0041433Y0141560D01*
X0046933Y0142187D02*
X0046933Y0158679D01*
X0041433Y0159306D02*
X0041433Y0160886D01*
X0041433Y0151560D02*
X0041433Y0149306D01*
X0046933Y0142187D02*
X0046734Y0142034D01*
X0046532Y0141886D01*
X0046327Y0141743D01*
X0046118Y0141605D01*
X0045906Y0141472D01*
X0045691Y0141344D01*
X0045473Y0141222D01*
X0045252Y0141104D01*
X0045028Y0140992D01*
X0044802Y0140885D01*
X0044573Y0140784D01*
X0044342Y0140688D01*
X0044108Y0140597D01*
X0043873Y0140512D01*
X0043635Y0140433D01*
X0043396Y0140360D01*
X0043155Y0140292D01*
X0042913Y0140230D01*
X0042669Y0140174D01*
X0042423Y0140123D01*
X0042177Y0140079D01*
X0041930Y0140040D01*
X0041682Y0140008D01*
X0041433Y0139981D01*
X0041178Y0139959D01*
X0040922Y0139944D01*
X0040666Y0139936D01*
X0040409Y0139933D01*
X0040153Y0139937D01*
X0039897Y0139947D01*
X0039641Y0139963D01*
X0039386Y0139985D01*
X0039131Y0140014D01*
X0038877Y0140049D01*
X0038624Y0140090D01*
X0038372Y0140137D01*
X0038122Y0140191D01*
X0037873Y0140250D01*
X0037625Y0140316D01*
X0037379Y0140387D01*
X0037134Y0140465D01*
X0036892Y0140548D01*
X0036652Y0140637D01*
X0036414Y0140733D01*
X0036178Y0140834D01*
X0035945Y0140940D01*
X0035715Y0141053D01*
X0035487Y0141171D01*
X0035263Y0141294D01*
X0035041Y0141423D01*
X0034823Y0141557D01*
X0034608Y0141697D01*
X0034397Y0141842D01*
X0034189Y0141992D01*
X0033985Y0142146D01*
X0033784Y0142306D01*
X0033588Y0142471D01*
X0033396Y0142640D01*
X0033207Y0142815D01*
X0033024Y0142993D01*
X0032844Y0143176D01*
X0032669Y0143364D01*
X0032499Y0143555D01*
X0032334Y0143751D01*
X0032173Y0143951D01*
X0032017Y0144154D01*
X0031867Y0144361D01*
X0031721Y0144572D01*
X0031580Y0144787D01*
X0031445Y0145004D01*
X0031315Y0145225D01*
X0031191Y0145449D01*
X0031072Y0145676D01*
X0030959Y0145906D01*
X0030851Y0146139D01*
X0030749Y0146374D01*
X0030653Y0146612D01*
X0030563Y0146851D01*
X0030478Y0147093D01*
X0030400Y0147337D01*
X0030400Y0153529D02*
X0030478Y0153771D01*
X0030562Y0154011D01*
X0030651Y0154249D01*
X0030746Y0154485D01*
X0030848Y0154719D01*
X0030954Y0154950D01*
X0031067Y0155178D01*
X0031184Y0155404D01*
X0031307Y0155627D01*
X0031436Y0155846D01*
X0031570Y0156063D01*
X0031709Y0156276D01*
X0031853Y0156486D01*
X0032002Y0156692D01*
X0032156Y0156894D01*
X0032315Y0157093D01*
X0032479Y0157288D01*
X0032648Y0157479D01*
X0032821Y0157665D01*
X0032998Y0157848D01*
X0033180Y0158026D01*
X0033366Y0158199D01*
X0033557Y0158368D01*
X0033751Y0158532D01*
X0033949Y0158692D01*
X0034151Y0158847D01*
X0034357Y0158996D01*
X0034566Y0159141D01*
X0034779Y0159281D01*
X0034995Y0159415D01*
X0035215Y0159544D01*
X0035437Y0159668D01*
X0035662Y0159787D01*
X0035890Y0159899D01*
X0036121Y0160007D01*
X0036354Y0160108D01*
X0036590Y0160204D01*
X0036828Y0160295D01*
X0037068Y0160379D01*
X0037310Y0160458D01*
X0037554Y0160531D01*
X0037800Y0160597D01*
X0038047Y0160658D01*
X0038295Y0160713D01*
X0038545Y0160762D01*
X0038796Y0160805D01*
X0039048Y0160841D01*
X0039300Y0160872D01*
X0039554Y0160896D01*
X0039807Y0160914D01*
X0040062Y0160926D01*
X0040316Y0160932D01*
X0040571Y0160932D01*
X0040825Y0160926D01*
X0041079Y0160913D01*
X0041333Y0160894D01*
X0041586Y0160869D01*
X0041839Y0160838D01*
X0042091Y0160801D01*
X0042341Y0160758D01*
X0042591Y0160709D01*
X0042840Y0160653D01*
X0043087Y0160592D01*
X0043332Y0160525D01*
X0043576Y0160452D01*
X0043818Y0160373D01*
X0044057Y0160288D01*
X0044295Y0160197D01*
X0044531Y0160100D01*
X0044764Y0159998D01*
X0044994Y0159890D01*
X0045222Y0159777D01*
X0045447Y0159658D01*
X0045669Y0159534D01*
X0045888Y0159404D01*
X0046104Y0159270D01*
X0046317Y0159130D01*
X0046526Y0158984D01*
X0046731Y0158834D01*
X0046933Y0158679D01*
M02*
