G75*
%MOIN*%
%OFA0B0*%
%FSLAX25Y25*%
%IPPOS*%
%LPD*%
%AMOC8*
5,1,8,0,0,1.08239X$1,22.5*
%
%ADD10C,0.01000*%
%ADD11C,0.05600*%
%ADD12OC8,0.06600*%
%ADD13C,0.06000*%
%ADD14OC8,0.05200*%
%ADD15C,0.01600*%
%ADD16C,0.04362*%
%ADD17C,0.03200*%
D10*
X0001800Y0021879D02*
X0001800Y0211800D01*
X0007843Y0211918D01*
X0118946Y0211918D01*
X0128946Y0201918D01*
X0128946Y0161918D01*
X0138946Y0151918D01*
X0138946Y0016918D01*
X0123946Y0001918D01*
X0022410Y0001918D01*
X0022410Y0021879D01*
X0001800Y0021879D01*
D11*
X0028946Y0013598D02*
X0028946Y0010238D01*
X0038946Y0010238D02*
X0038946Y0013598D01*
X0048946Y0013598D02*
X0048946Y0010238D01*
X0058946Y0010238D02*
X0058946Y0013598D01*
X0068946Y0013598D02*
X0068946Y0010238D01*
X0078946Y0010238D02*
X0078946Y0013598D01*
X0088946Y0013598D02*
X0088946Y0010238D01*
X0098946Y0010238D02*
X0098946Y0013598D01*
X0078946Y0200238D02*
X0078946Y0203598D01*
X0068946Y0203598D02*
X0068946Y0200238D01*
X0058946Y0200238D02*
X0058946Y0203598D01*
X0048946Y0203598D02*
X0048946Y0200238D01*
X0038946Y0200238D02*
X0038946Y0203598D01*
X0028946Y0203598D02*
X0028946Y0200238D01*
X0018946Y0200238D02*
X0018946Y0203598D01*
X0008946Y0203598D02*
X0008946Y0200238D01*
D12*
X0108946Y0201918D03*
X0108946Y0191918D03*
X0108946Y0181918D03*
X0108946Y0171918D03*
X0108946Y0161918D03*
X0108946Y0151918D03*
X0108946Y0141918D03*
X0108946Y0131918D03*
X0108946Y0121918D03*
X0108946Y0111918D03*
X0108946Y0101918D03*
X0108946Y0091918D03*
X0108946Y0081918D03*
X0108946Y0071918D03*
X0108946Y0061918D03*
X0108946Y0051918D03*
X0108946Y0041918D03*
X0108946Y0031918D03*
X0118946Y0031918D03*
X0118946Y0041918D03*
X0118946Y0051918D03*
X0118946Y0061918D03*
X0118946Y0071918D03*
X0118946Y0081918D03*
X0118946Y0091918D03*
X0118946Y0101918D03*
X0118946Y0111918D03*
X0118946Y0121918D03*
X0118946Y0131918D03*
X0118946Y0141918D03*
X0118946Y0151918D03*
X0118946Y0161918D03*
X0118946Y0171918D03*
X0118946Y0181918D03*
X0118946Y0191918D03*
X0118946Y0201918D03*
D13*
X0086100Y0186800D02*
X0082500Y0186800D01*
X0082500Y0176800D02*
X0086100Y0176800D01*
X0086100Y0166800D02*
X0082500Y0166800D01*
X0082500Y0156800D02*
X0086100Y0156800D01*
X0086100Y0141800D02*
X0082500Y0141800D01*
X0082500Y0131800D02*
X0086100Y0131800D01*
X0086100Y0116800D02*
X0082500Y0116800D01*
X0082500Y0106800D02*
X0086100Y0106800D01*
X0086100Y0096800D02*
X0082500Y0096800D01*
X0082500Y0081800D02*
X0086100Y0081800D01*
X0086100Y0071800D02*
X0082500Y0071800D01*
X0082500Y0061800D02*
X0086100Y0061800D01*
X0086100Y0051800D02*
X0082500Y0051800D01*
X0016100Y0056800D02*
X0012500Y0056800D01*
X0012500Y0066800D02*
X0016100Y0066800D01*
X0016100Y0081800D02*
X0012500Y0081800D01*
X0012500Y0091800D02*
X0016100Y0091800D01*
X0016100Y0101800D02*
X0012500Y0101800D01*
X0012500Y0111800D02*
X0016100Y0111800D01*
X0016100Y0121800D02*
X0012500Y0121800D01*
X0012500Y0131800D02*
X0016100Y0131800D01*
X0016100Y0146800D02*
X0012500Y0146800D01*
X0012500Y0156800D02*
X0016100Y0156800D01*
X0016100Y0166800D02*
X0012500Y0166800D01*
X0012500Y0176800D02*
X0016100Y0176800D01*
X0016100Y0186800D02*
X0012500Y0186800D01*
D14*
X0024300Y0041800D03*
X0011072Y0030658D03*
X0051072Y0030658D03*
X0059300Y0026800D03*
X0064300Y0041800D03*
X0099300Y0026800D03*
D15*
X0102640Y0024200D02*
X0103500Y0025060D01*
X0103500Y0028540D01*
X0101040Y0031000D01*
X0097560Y0031000D01*
X0095100Y0028540D01*
X0095100Y0025060D01*
X0095960Y0024200D01*
X0092794Y0024200D01*
X0091700Y0025294D01*
X0091700Y0029777D01*
X0091335Y0030659D01*
X0090659Y0031335D01*
X0085659Y0036335D01*
X0084777Y0036700D01*
X0084747Y0036700D01*
X0083942Y0037505D01*
X0082627Y0038050D01*
X0083942Y0038595D01*
X0085005Y0039658D01*
X0085581Y0041048D01*
X0085581Y0042552D01*
X0085005Y0043942D01*
X0083942Y0045005D01*
X0082552Y0045581D01*
X0081413Y0045581D01*
X0075581Y0051413D01*
X0075581Y0052552D01*
X0075005Y0053942D01*
X0073942Y0055005D01*
X0072552Y0055581D01*
X0071048Y0055581D01*
X0069658Y0055005D01*
X0068595Y0053942D01*
X0068050Y0052627D01*
X0067505Y0053942D01*
X0066442Y0055005D01*
X0065052Y0055581D01*
X0063548Y0055581D01*
X0062158Y0055005D01*
X0061095Y0053942D01*
X0060550Y0052627D01*
X0060005Y0053942D01*
X0058942Y0055005D01*
X0057552Y0055581D01*
X0056048Y0055581D01*
X0054658Y0055005D01*
X0053595Y0053942D01*
X0053019Y0052552D01*
X0053019Y0051048D01*
X0053595Y0049658D01*
X0054400Y0048853D01*
X0054400Y0036323D01*
X0054765Y0035441D01*
X0059206Y0031000D01*
X0057560Y0031000D01*
X0055100Y0028540D01*
X0055100Y0025060D01*
X0057560Y0022600D01*
X0061040Y0022600D01*
X0063500Y0025060D01*
X0063500Y0028540D01*
X0062640Y0029400D01*
X0063306Y0029400D01*
X0067265Y0025441D01*
X0067941Y0024765D01*
X0068823Y0024400D01*
X0071353Y0024400D01*
X0072158Y0023595D01*
X0073548Y0023019D01*
X0075052Y0023019D01*
X0076442Y0023595D01*
X0076900Y0024053D01*
X0076900Y0017513D01*
X0076453Y0017328D01*
X0075216Y0016091D01*
X0074546Y0014473D01*
X0074546Y0009363D01*
X0075216Y0007746D01*
X0076453Y0006508D01*
X0077877Y0005918D01*
X0070014Y0005918D01*
X0071438Y0006508D01*
X0072676Y0007746D01*
X0073346Y0009363D01*
X0073346Y0014473D01*
X0072676Y0016091D01*
X0071438Y0017328D01*
X0069821Y0017998D01*
X0068070Y0017998D01*
X0066453Y0017328D01*
X0065216Y0016091D01*
X0064546Y0014473D01*
X0064546Y0009363D01*
X0065216Y0007746D01*
X0066453Y0006508D01*
X0067877Y0005918D01*
X0060014Y0005918D01*
X0061438Y0006508D01*
X0062676Y0007746D01*
X0063346Y0009363D01*
X0063346Y0014473D01*
X0062676Y0016091D01*
X0061438Y0017328D01*
X0059821Y0017998D01*
X0058070Y0017998D01*
X0056453Y0017328D01*
X0055216Y0016091D01*
X0054546Y0014473D01*
X0054546Y0009363D01*
X0055216Y0007746D01*
X0056453Y0006508D01*
X0057877Y0005918D01*
X0050014Y0005918D01*
X0051438Y0006508D01*
X0052676Y0007746D01*
X0053346Y0009363D01*
X0053346Y0014473D01*
X0052676Y0016091D01*
X0051438Y0017328D01*
X0049821Y0017998D01*
X0048070Y0017998D01*
X0046453Y0017328D01*
X0045216Y0016091D01*
X0044546Y0014473D01*
X0044546Y0009363D01*
X0045216Y0007746D01*
X0046453Y0006508D01*
X0047877Y0005918D01*
X0040014Y0005918D01*
X0041438Y0006508D01*
X0042676Y0007746D01*
X0043346Y0009363D01*
X0043346Y0014473D01*
X0042676Y0016091D01*
X0041438Y0017328D01*
X0039821Y0017998D01*
X0038070Y0017998D01*
X0036453Y0017328D01*
X0035216Y0016091D01*
X0034546Y0014473D01*
X0034546Y0009363D01*
X0035216Y0007746D01*
X0036453Y0006508D01*
X0037877Y0005918D01*
X0030014Y0005918D01*
X0031438Y0006508D01*
X0032676Y0007746D01*
X0033346Y0009363D01*
X0033346Y0014473D01*
X0032676Y0016091D01*
X0031438Y0017328D01*
X0029821Y0017998D01*
X0028070Y0017998D01*
X0026453Y0017328D01*
X0026410Y0017285D01*
X0026410Y0022674D01*
X0025801Y0024145D01*
X0024676Y0025270D01*
X0023206Y0025879D01*
X0005800Y0025879D01*
X0005800Y0091906D01*
X0007265Y0090441D01*
X0007941Y0089765D01*
X0008451Y0089554D01*
X0008600Y0089194D01*
X0009894Y0087900D01*
X0011585Y0087200D01*
X0017015Y0087200D01*
X0018706Y0087900D01*
X0020000Y0089194D01*
X0020700Y0090885D01*
X0020700Y0092715D01*
X0020000Y0094406D01*
X0018706Y0095700D01*
X0017015Y0096400D01*
X0011585Y0096400D01*
X0009894Y0095700D01*
X0009344Y0095150D01*
X0009200Y0095294D01*
X0009200Y0098595D01*
X0009894Y0097900D01*
X0011585Y0097200D01*
X0017015Y0097200D01*
X0018706Y0097900D01*
X0020000Y0099194D01*
X0020085Y0099400D01*
X0023306Y0099400D01*
X0024400Y0098306D01*
X0024400Y0077794D01*
X0017716Y0071110D01*
X0017015Y0071400D01*
X0011585Y0071400D01*
X0009894Y0070700D01*
X0008600Y0069406D01*
X0007900Y0067715D01*
X0007900Y0065885D01*
X0008600Y0064194D01*
X0009894Y0062900D01*
X0011585Y0062200D01*
X0017015Y0062200D01*
X0018706Y0062900D01*
X0019405Y0063600D01*
X0072975Y0063600D01*
X0076587Y0059987D01*
X0077487Y0059087D01*
X0078663Y0058600D01*
X0079195Y0058600D01*
X0079894Y0057900D01*
X0081585Y0057200D01*
X0087015Y0057200D01*
X0088706Y0057900D01*
X0090000Y0059194D01*
X0090700Y0060885D01*
X0090700Y0062715D01*
X0090000Y0064406D01*
X0088706Y0065700D01*
X0087015Y0066400D01*
X0081585Y0066400D01*
X0079917Y0065709D01*
X0076113Y0069513D01*
X0074937Y0070000D01*
X0023394Y0070000D01*
X0028159Y0074765D01*
X0028835Y0075441D01*
X0029200Y0076323D01*
X0029200Y0099777D01*
X0028835Y0100659D01*
X0027694Y0101800D01*
X0028835Y0102941D01*
X0029200Y0103823D01*
X0029200Y0119777D01*
X0028835Y0120659D01*
X0027694Y0121800D01*
X0028835Y0122941D01*
X0029200Y0123823D01*
X0029200Y0179400D01*
X0035806Y0179400D01*
X0040441Y0174765D01*
X0041323Y0174400D01*
X0078515Y0174400D01*
X0078600Y0174194D01*
X0079894Y0172900D01*
X0081585Y0172200D01*
X0087015Y0172200D01*
X0088706Y0172900D01*
X0090000Y0174194D01*
X0090700Y0175885D01*
X0090700Y0177715D01*
X0090000Y0179406D01*
X0088706Y0180700D01*
X0087015Y0181400D01*
X0081585Y0181400D01*
X0079894Y0180700D01*
X0078600Y0179406D01*
X0078515Y0179200D01*
X0042794Y0179200D01*
X0038835Y0183159D01*
X0038159Y0183835D01*
X0037277Y0184200D01*
X0027794Y0184200D01*
X0023159Y0188835D01*
X0022277Y0189200D01*
X0020085Y0189200D01*
X0020002Y0189400D01*
X0023306Y0189400D01*
X0025441Y0187265D01*
X0026323Y0186900D01*
X0035806Y0186900D01*
X0042941Y0179765D01*
X0043823Y0179400D01*
X0069777Y0179400D01*
X0070659Y0179765D01*
X0071335Y0180441D01*
X0075294Y0184400D01*
X0078515Y0184400D01*
X0078600Y0184194D01*
X0079894Y0182900D01*
X0081585Y0182200D01*
X0087015Y0182200D01*
X0088683Y0182891D01*
X0091100Y0180475D01*
X0091100Y0100625D01*
X0090475Y0100000D01*
X0089405Y0100000D01*
X0088706Y0100700D01*
X0087015Y0101400D01*
X0081585Y0101400D01*
X0079894Y0100700D01*
X0078600Y0099406D01*
X0077900Y0097715D01*
X0077900Y0095885D01*
X0078600Y0094194D01*
X0079894Y0092900D01*
X0081585Y0092200D01*
X0087015Y0092200D01*
X0088706Y0092900D01*
X0089405Y0093600D01*
X0092437Y0093600D01*
X0093613Y0094087D01*
X0094513Y0094987D01*
X0097013Y0097487D01*
X0097500Y0098663D01*
X0097500Y0182437D01*
X0097013Y0183613D01*
X0096113Y0184513D01*
X0091113Y0189513D01*
X0089937Y0190000D01*
X0089405Y0190000D01*
X0088706Y0190700D01*
X0087015Y0191400D01*
X0081585Y0191400D01*
X0079894Y0190700D01*
X0078600Y0189406D01*
X0078515Y0189200D01*
X0073823Y0189200D01*
X0072941Y0188835D01*
X0068306Y0184200D01*
X0045294Y0184200D01*
X0038835Y0190659D01*
X0038159Y0191335D01*
X0037277Y0191700D01*
X0027794Y0191700D01*
X0026335Y0193159D01*
X0025659Y0193835D01*
X0024777Y0194200D01*
X0008823Y0194200D01*
X0007941Y0193835D01*
X0005800Y0191694D01*
X0005800Y0197161D01*
X0006453Y0196508D01*
X0008070Y0195838D01*
X0009821Y0195838D01*
X0011438Y0196508D01*
X0012676Y0197746D01*
X0013346Y0199363D01*
X0013346Y0204473D01*
X0012676Y0206091D01*
X0011438Y0207328D01*
X0010014Y0207918D01*
X0017877Y0207918D01*
X0016453Y0207328D01*
X0015216Y0206091D01*
X0014546Y0204473D01*
X0014546Y0199363D01*
X0015216Y0197746D01*
X0016453Y0196508D01*
X0018070Y0195838D01*
X0019821Y0195838D01*
X0021438Y0196508D01*
X0022676Y0197746D01*
X0023346Y0199363D01*
X0023346Y0204473D01*
X0022676Y0206091D01*
X0021438Y0207328D01*
X0020014Y0207918D01*
X0027877Y0207918D01*
X0026453Y0207328D01*
X0025216Y0206091D01*
X0024546Y0204473D01*
X0024546Y0199363D01*
X0025216Y0197746D01*
X0026453Y0196508D01*
X0028070Y0195838D01*
X0029821Y0195838D01*
X0031438Y0196508D01*
X0032676Y0197746D01*
X0033346Y0199363D01*
X0033346Y0204473D01*
X0032676Y0206091D01*
X0031438Y0207328D01*
X0030014Y0207918D01*
X0037877Y0207918D01*
X0036453Y0207328D01*
X0035216Y0206091D01*
X0034546Y0204473D01*
X0034546Y0199363D01*
X0035216Y0197746D01*
X0036453Y0196508D01*
X0038070Y0195838D01*
X0039821Y0195838D01*
X0041438Y0196508D01*
X0042676Y0197746D01*
X0043346Y0199363D01*
X0043346Y0204473D01*
X0042676Y0206091D01*
X0041438Y0207328D01*
X0040014Y0207918D01*
X0047877Y0207918D01*
X0046453Y0207328D01*
X0045216Y0206091D01*
X0044546Y0204473D01*
X0044546Y0199363D01*
X0045216Y0197746D01*
X0046453Y0196508D01*
X0048070Y0195838D01*
X0049821Y0195838D01*
X0051438Y0196508D01*
X0052676Y0197746D01*
X0053346Y0199363D01*
X0053346Y0204473D01*
X0052676Y0206091D01*
X0051438Y0207328D01*
X0050014Y0207918D01*
X0057877Y0207918D01*
X0056453Y0207328D01*
X0055216Y0206091D01*
X0054546Y0204473D01*
X0054546Y0199363D01*
X0055216Y0197746D01*
X0056453Y0196508D01*
X0058070Y0195838D01*
X0059821Y0195838D01*
X0061438Y0196508D01*
X0062676Y0197746D01*
X0063346Y0199363D01*
X0063346Y0204473D01*
X0062676Y0206091D01*
X0061438Y0207328D01*
X0060014Y0207918D01*
X0067877Y0207918D01*
X0066453Y0207328D01*
X0065216Y0206091D01*
X0064546Y0204473D01*
X0064546Y0199363D01*
X0065216Y0197746D01*
X0066453Y0196508D01*
X0068070Y0195838D01*
X0069821Y0195838D01*
X0071438Y0196508D01*
X0072676Y0197746D01*
X0073346Y0199363D01*
X0073346Y0204473D01*
X0072676Y0206091D01*
X0071438Y0207328D01*
X0070014Y0207918D01*
X0077877Y0207918D01*
X0076453Y0207328D01*
X0075216Y0206091D01*
X0074546Y0204473D01*
X0074546Y0199363D01*
X0075216Y0197746D01*
X0076453Y0196508D01*
X0078070Y0195838D01*
X0079821Y0195838D01*
X0081438Y0196508D01*
X0082676Y0197746D01*
X0083346Y0199363D01*
X0083346Y0204473D01*
X0082676Y0206091D01*
X0081438Y0207328D01*
X0080014Y0207918D01*
X0117289Y0207918D01*
X0118389Y0206818D01*
X0116916Y0206818D01*
X0114046Y0203948D01*
X0114046Y0199888D01*
X0116916Y0197018D01*
X0120975Y0197018D01*
X0123846Y0199888D01*
X0123846Y0201361D01*
X0124946Y0200261D01*
X0124946Y0161122D01*
X0125555Y0159652D01*
X0126680Y0158527D01*
X0134946Y0150261D01*
X0134946Y0018575D01*
X0122289Y0005918D01*
X0100014Y0005918D01*
X0101438Y0006508D01*
X0102676Y0007746D01*
X0103346Y0009363D01*
X0103346Y0014473D01*
X0102676Y0016091D01*
X0101700Y0017066D01*
X0101700Y0017277D01*
X0101335Y0018159D01*
X0100094Y0019400D01*
X0107277Y0019400D01*
X0108159Y0019765D01*
X0110294Y0021900D01*
X0122277Y0021900D01*
X0123159Y0022265D01*
X0128159Y0027265D01*
X0128835Y0027941D01*
X0129200Y0028823D01*
X0129200Y0037277D01*
X0128835Y0038159D01*
X0123846Y0043148D01*
X0123846Y0043948D01*
X0120975Y0046818D01*
X0116916Y0046818D01*
X0114046Y0043948D01*
X0114046Y0039888D01*
X0116916Y0037018D01*
X0120975Y0037018D01*
X0122082Y0038124D01*
X0124400Y0035806D01*
X0124400Y0030294D01*
X0120806Y0026700D01*
X0108823Y0026700D01*
X0107941Y0026335D01*
X0107265Y0025659D01*
X0105806Y0024200D01*
X0102640Y0024200D01*
X0103500Y0025778D02*
X0107384Y0025778D01*
X0106916Y0027018D02*
X0110975Y0027018D01*
X0113846Y0029888D01*
X0113846Y0033948D01*
X0110975Y0036818D01*
X0106916Y0036818D01*
X0104046Y0033948D01*
X0104046Y0029888D01*
X0106916Y0027018D01*
X0106558Y0027376D02*
X0103500Y0027376D01*
X0103065Y0028975D02*
X0104959Y0028975D01*
X0104046Y0030573D02*
X0101466Y0030573D01*
X0104046Y0032172D02*
X0089822Y0032172D01*
X0091370Y0030573D02*
X0097134Y0030573D01*
X0095535Y0028975D02*
X0091700Y0028975D01*
X0091700Y0027376D02*
X0095100Y0027376D01*
X0095100Y0025778D02*
X0091700Y0025778D01*
X0089300Y0024300D02*
X0091800Y0021800D01*
X0106800Y0021800D01*
X0109300Y0024300D01*
X0121800Y0024300D01*
X0126800Y0029300D01*
X0126800Y0036800D01*
X0121800Y0041800D01*
X0119064Y0041800D01*
X0118946Y0041918D01*
X0121235Y0046558D02*
X0134946Y0046558D01*
X0134946Y0044960D02*
X0122834Y0044960D01*
X0123846Y0043361D02*
X0134946Y0043361D01*
X0134946Y0041763D02*
X0125231Y0041763D01*
X0126830Y0040164D02*
X0134946Y0040164D01*
X0134946Y0038566D02*
X0128428Y0038566D01*
X0129200Y0036967D02*
X0134946Y0036967D01*
X0134946Y0035369D02*
X0129200Y0035369D01*
X0129200Y0033770D02*
X0134946Y0033770D01*
X0134946Y0032172D02*
X0129200Y0032172D01*
X0129200Y0030573D02*
X0134946Y0030573D01*
X0134946Y0028975D02*
X0129200Y0028975D01*
X0128270Y0027376D02*
X0134946Y0027376D01*
X0134946Y0025778D02*
X0126672Y0025778D01*
X0125073Y0024179D02*
X0134946Y0024179D01*
X0134946Y0022581D02*
X0123475Y0022581D01*
X0120975Y0027018D02*
X0123846Y0029888D01*
X0123846Y0033948D01*
X0120975Y0036818D01*
X0116916Y0036818D01*
X0114046Y0033948D01*
X0114046Y0029888D01*
X0116916Y0027018D01*
X0120975Y0027018D01*
X0121333Y0027376D02*
X0121482Y0027376D01*
X0122932Y0028975D02*
X0123081Y0028975D01*
X0123846Y0030573D02*
X0124400Y0030573D01*
X0124400Y0032172D02*
X0123846Y0032172D01*
X0123846Y0033770D02*
X0124400Y0033770D01*
X0124400Y0035369D02*
X0122425Y0035369D01*
X0123239Y0036967D02*
X0084480Y0036967D01*
X0083872Y0038566D02*
X0105368Y0038566D01*
X0104046Y0039888D02*
X0106916Y0037018D01*
X0110975Y0037018D01*
X0113846Y0039888D01*
X0113846Y0043948D01*
X0110975Y0046818D01*
X0106916Y0046818D01*
X0104046Y0043948D01*
X0104046Y0039888D01*
X0104046Y0040164D02*
X0085215Y0040164D01*
X0085581Y0041763D02*
X0104046Y0041763D01*
X0104046Y0043361D02*
X0085246Y0043361D01*
X0083987Y0044960D02*
X0105058Y0044960D01*
X0106656Y0046558D02*
X0080436Y0046558D01*
X0081585Y0047200D02*
X0079894Y0047900D01*
X0078600Y0049194D01*
X0077900Y0050885D01*
X0077900Y0052715D01*
X0078600Y0054406D01*
X0079894Y0055700D01*
X0081585Y0056400D01*
X0087015Y0056400D01*
X0088706Y0055700D01*
X0090000Y0054406D01*
X0090700Y0052715D01*
X0090700Y0050885D01*
X0090000Y0049194D01*
X0088706Y0047900D01*
X0087015Y0047200D01*
X0081585Y0047200D01*
X0079638Y0048157D02*
X0078837Y0048157D01*
X0078368Y0049755D02*
X0077239Y0049755D01*
X0077900Y0051354D02*
X0075640Y0051354D01*
X0075415Y0052952D02*
X0077998Y0052952D01*
X0078745Y0054551D02*
X0074396Y0054551D01*
X0071800Y0051800D02*
X0081800Y0041800D01*
X0080973Y0038050D02*
X0079658Y0038595D01*
X0078595Y0039658D01*
X0078019Y0041048D01*
X0078019Y0042187D01*
X0072187Y0048019D01*
X0071475Y0048019D01*
X0073159Y0046335D01*
X0073835Y0045659D01*
X0074200Y0044777D01*
X0074200Y0035294D01*
X0075294Y0034200D01*
X0077277Y0034200D01*
X0078019Y0033893D01*
X0078019Y0035052D01*
X0078595Y0036442D01*
X0079658Y0037505D01*
X0080973Y0038050D01*
X0079728Y0038566D02*
X0074200Y0038566D01*
X0074200Y0040164D02*
X0078385Y0040164D01*
X0078019Y0041763D02*
X0074200Y0041763D01*
X0074200Y0043361D02*
X0076845Y0043361D01*
X0075246Y0044960D02*
X0074124Y0044960D01*
X0073648Y0046558D02*
X0072936Y0046558D01*
X0071800Y0044300D02*
X0071800Y0034300D01*
X0074300Y0031800D01*
X0076800Y0031800D01*
X0079300Y0029300D01*
X0079300Y0012272D01*
X0078946Y0011918D01*
X0075030Y0008194D02*
X0072862Y0008194D01*
X0073346Y0009793D02*
X0074546Y0009793D01*
X0074546Y0011391D02*
X0073346Y0011391D01*
X0073346Y0012990D02*
X0074546Y0012990D01*
X0074593Y0014588D02*
X0073298Y0014588D01*
X0072580Y0016187D02*
X0075312Y0016187D01*
X0076900Y0017785D02*
X0070335Y0017785D01*
X0067556Y0017785D02*
X0060335Y0017785D01*
X0062580Y0016187D02*
X0065312Y0016187D01*
X0064593Y0014588D02*
X0063298Y0014588D01*
X0063346Y0012990D02*
X0064546Y0012990D01*
X0064546Y0011391D02*
X0063346Y0011391D01*
X0063346Y0009793D02*
X0064546Y0009793D01*
X0065030Y0008194D02*
X0062862Y0008194D01*
X0061526Y0006596D02*
X0066366Y0006596D01*
X0071526Y0006596D02*
X0076366Y0006596D01*
X0080014Y0005918D02*
X0081438Y0006508D01*
X0082676Y0007746D01*
X0083346Y0009363D01*
X0083346Y0014473D01*
X0082676Y0016091D01*
X0081700Y0017066D01*
X0081700Y0024053D01*
X0081900Y0023853D01*
X0081900Y0023823D01*
X0082265Y0022941D01*
X0087265Y0017941D01*
X0087460Y0017745D01*
X0086453Y0017328D01*
X0085216Y0016091D01*
X0084546Y0014473D01*
X0084546Y0009363D01*
X0085216Y0007746D01*
X0086453Y0006508D01*
X0087877Y0005918D01*
X0080014Y0005918D01*
X0081526Y0006596D02*
X0086366Y0006596D01*
X0085030Y0008194D02*
X0082862Y0008194D01*
X0083346Y0009793D02*
X0084546Y0009793D01*
X0084546Y0011391D02*
X0083346Y0011391D01*
X0083346Y0012990D02*
X0084546Y0012990D01*
X0084593Y0014588D02*
X0083298Y0014588D01*
X0082580Y0016187D02*
X0085312Y0016187D01*
X0087421Y0017785D02*
X0081700Y0017785D01*
X0081700Y0019384D02*
X0085822Y0019384D01*
X0084224Y0020982D02*
X0081700Y0020982D01*
X0081700Y0022581D02*
X0082625Y0022581D01*
X0084300Y0024300D02*
X0089300Y0019300D01*
X0096800Y0019300D01*
X0099300Y0016800D01*
X0099300Y0012272D01*
X0098946Y0011918D01*
X0102862Y0008194D02*
X0124565Y0008194D01*
X0126163Y0009793D02*
X0103346Y0009793D01*
X0103346Y0011391D02*
X0127762Y0011391D01*
X0129360Y0012990D02*
X0103346Y0012990D01*
X0103298Y0014588D02*
X0130959Y0014588D01*
X0132557Y0016187D02*
X0102580Y0016187D01*
X0101490Y0017785D02*
X0134156Y0017785D01*
X0134946Y0019384D02*
X0100110Y0019384D01*
X0095915Y0016790D02*
X0095216Y0016091D01*
X0094546Y0014473D01*
X0094546Y0009363D01*
X0095216Y0007746D01*
X0096453Y0006508D01*
X0097877Y0005918D01*
X0090014Y0005918D01*
X0091438Y0006508D01*
X0092676Y0007746D01*
X0093346Y0009363D01*
X0093346Y0014473D01*
X0092676Y0016091D01*
X0091866Y0016900D01*
X0095806Y0016900D01*
X0095915Y0016790D01*
X0095312Y0016187D02*
X0092580Y0016187D01*
X0093298Y0014588D02*
X0094593Y0014588D01*
X0094546Y0012990D02*
X0093346Y0012990D01*
X0093346Y0011391D02*
X0094546Y0011391D01*
X0094546Y0009793D02*
X0093346Y0009793D01*
X0092862Y0008194D02*
X0095030Y0008194D01*
X0096366Y0006596D02*
X0091526Y0006596D01*
X0101526Y0006596D02*
X0122966Y0006596D01*
X0134946Y0020982D02*
X0109376Y0020982D01*
X0111333Y0027376D02*
X0116558Y0027376D01*
X0114959Y0028975D02*
X0112932Y0028975D01*
X0113846Y0030573D02*
X0114046Y0030573D01*
X0114046Y0032172D02*
X0113846Y0032172D01*
X0113846Y0033770D02*
X0114046Y0033770D01*
X0115467Y0035369D02*
X0112425Y0035369D01*
X0112523Y0038566D02*
X0115368Y0038566D01*
X0114046Y0040164D02*
X0113846Y0040164D01*
X0113846Y0041763D02*
X0114046Y0041763D01*
X0114046Y0043361D02*
X0113846Y0043361D01*
X0112834Y0044960D02*
X0115058Y0044960D01*
X0116656Y0046558D02*
X0111235Y0046558D01*
X0110975Y0047018D02*
X0113846Y0049888D01*
X0113846Y0053948D01*
X0110975Y0056818D01*
X0106916Y0056818D01*
X0104046Y0053948D01*
X0104046Y0049888D01*
X0106916Y0047018D01*
X0110975Y0047018D01*
X0112114Y0048157D02*
X0115777Y0048157D01*
X0116916Y0047018D02*
X0120975Y0047018D01*
X0123846Y0049888D01*
X0123846Y0053948D01*
X0120975Y0056818D01*
X0116916Y0056818D01*
X0114046Y0053948D01*
X0114046Y0049888D01*
X0116916Y0047018D01*
X0114179Y0049755D02*
X0113713Y0049755D01*
X0113846Y0051354D02*
X0114046Y0051354D01*
X0114046Y0052952D02*
X0113846Y0052952D01*
X0113243Y0054551D02*
X0114649Y0054551D01*
X0116247Y0056149D02*
X0111644Y0056149D01*
X0110975Y0057018D02*
X0113846Y0059888D01*
X0113846Y0063948D01*
X0110975Y0066818D01*
X0106916Y0066818D01*
X0104046Y0063948D01*
X0104046Y0059888D01*
X0106916Y0057018D01*
X0110975Y0057018D01*
X0111705Y0057748D02*
X0116186Y0057748D01*
X0116916Y0057018D02*
X0120975Y0057018D01*
X0123846Y0059888D01*
X0123846Y0063948D01*
X0120975Y0066818D01*
X0116916Y0066818D01*
X0114046Y0063948D01*
X0114046Y0059888D01*
X0116916Y0057018D01*
X0114588Y0059346D02*
X0113304Y0059346D01*
X0113846Y0060945D02*
X0114046Y0060945D01*
X0114046Y0062543D02*
X0113846Y0062543D01*
X0113651Y0064142D02*
X0114240Y0064142D01*
X0115838Y0065740D02*
X0112053Y0065740D01*
X0110975Y0067018D02*
X0113846Y0069888D01*
X0113846Y0073948D01*
X0110975Y0076818D01*
X0106916Y0076818D01*
X0104046Y0073948D01*
X0104046Y0069888D01*
X0106916Y0067018D01*
X0110975Y0067018D01*
X0111296Y0067339D02*
X0116595Y0067339D01*
X0116916Y0067018D02*
X0120975Y0067018D01*
X0123846Y0069888D01*
X0123846Y0073948D01*
X0120975Y0076818D01*
X0116916Y0076818D01*
X0114046Y0073948D01*
X0114046Y0069888D01*
X0116916Y0067018D01*
X0114997Y0068937D02*
X0112895Y0068937D01*
X0113846Y0070536D02*
X0114046Y0070536D01*
X0114046Y0072134D02*
X0113846Y0072134D01*
X0113846Y0073733D02*
X0114046Y0073733D01*
X0115429Y0075332D02*
X0112462Y0075332D01*
X0110975Y0077018D02*
X0113846Y0079888D01*
X0113846Y0083948D01*
X0110975Y0086818D01*
X0106916Y0086818D01*
X0104046Y0083948D01*
X0104046Y0079888D01*
X0106916Y0077018D01*
X0110975Y0077018D01*
X0112486Y0078529D02*
X0115406Y0078529D01*
X0114046Y0079888D02*
X0116916Y0077018D01*
X0120975Y0077018D01*
X0123846Y0079888D01*
X0123846Y0083948D01*
X0120975Y0086818D01*
X0116916Y0086818D01*
X0114046Y0083948D01*
X0114046Y0079888D01*
X0114046Y0080127D02*
X0113846Y0080127D01*
X0113846Y0081726D02*
X0114046Y0081726D01*
X0114046Y0083324D02*
X0113846Y0083324D01*
X0112871Y0084923D02*
X0115021Y0084923D01*
X0116619Y0086521D02*
X0111272Y0086521D01*
X0110975Y0087018D02*
X0113846Y0089888D01*
X0113846Y0093948D01*
X0110975Y0096818D01*
X0106916Y0096818D01*
X0104046Y0093948D01*
X0104046Y0089888D01*
X0106916Y0087018D01*
X0110975Y0087018D01*
X0112077Y0088120D02*
X0115815Y0088120D01*
X0116916Y0087018D02*
X0120975Y0087018D01*
X0123846Y0089888D01*
X0123846Y0093948D01*
X0120975Y0096818D01*
X0116916Y0096818D01*
X0114046Y0093948D01*
X0114046Y0089888D01*
X0116916Y0087018D01*
X0114216Y0089718D02*
X0113675Y0089718D01*
X0113846Y0091317D02*
X0114046Y0091317D01*
X0114046Y0092915D02*
X0113846Y0092915D01*
X0113280Y0094514D02*
X0114612Y0094514D01*
X0116210Y0096112D02*
X0111681Y0096112D01*
X0110975Y0097018D02*
X0113846Y0099888D01*
X0113846Y0103948D01*
X0110975Y0106818D01*
X0106916Y0106818D01*
X0104046Y0103948D01*
X0104046Y0099888D01*
X0106916Y0097018D01*
X0110975Y0097018D01*
X0111668Y0097711D02*
X0116223Y0097711D01*
X0116916Y0097018D02*
X0120975Y0097018D01*
X0123846Y0099888D01*
X0123846Y0103948D01*
X0120975Y0106818D01*
X0116916Y0106818D01*
X0114046Y0103948D01*
X0114046Y0099888D01*
X0116916Y0097018D01*
X0114625Y0099309D02*
X0113266Y0099309D01*
X0113846Y0100908D02*
X0114046Y0100908D01*
X0114046Y0102506D02*
X0113846Y0102506D01*
X0113689Y0104105D02*
X0114203Y0104105D01*
X0115801Y0105703D02*
X0112090Y0105703D01*
X0110975Y0107018D02*
X0113846Y0109888D01*
X0113846Y0113948D01*
X0110975Y0116818D01*
X0106916Y0116818D01*
X0104046Y0113948D01*
X0104046Y0109888D01*
X0106916Y0107018D01*
X0110975Y0107018D01*
X0111259Y0107302D02*
X0116632Y0107302D01*
X0116916Y0107018D02*
X0120975Y0107018D01*
X0123846Y0109888D01*
X0123846Y0113948D01*
X0120975Y0116818D01*
X0116916Y0116818D01*
X0114046Y0113948D01*
X0114046Y0109888D01*
X0116916Y0107018D01*
X0115034Y0108900D02*
X0112857Y0108900D01*
X0113846Y0110499D02*
X0114046Y0110499D01*
X0114046Y0112097D02*
X0113846Y0112097D01*
X0113846Y0113696D02*
X0114046Y0113696D01*
X0115392Y0115294D02*
X0112499Y0115294D01*
X0110975Y0117018D02*
X0113846Y0119888D01*
X0113846Y0123948D01*
X0110975Y0126818D01*
X0106916Y0126818D01*
X0104046Y0123948D01*
X0104046Y0119888D01*
X0106916Y0117018D01*
X0110975Y0117018D01*
X0112449Y0118491D02*
X0115443Y0118491D01*
X0114046Y0119888D02*
X0116916Y0117018D01*
X0120975Y0117018D01*
X0123846Y0119888D01*
X0123846Y0123948D01*
X0120975Y0126818D01*
X0116916Y0126818D01*
X0114046Y0123948D01*
X0114046Y0119888D01*
X0114046Y0120090D02*
X0113846Y0120090D01*
X0113846Y0121688D02*
X0114046Y0121688D01*
X0114046Y0123287D02*
X0113846Y0123287D01*
X0112908Y0124885D02*
X0114983Y0124885D01*
X0116582Y0126484D02*
X0111310Y0126484D01*
X0110975Y0127018D02*
X0113846Y0129888D01*
X0113846Y0133948D01*
X0110975Y0136818D01*
X0106916Y0136818D01*
X0104046Y0133948D01*
X0104046Y0129888D01*
X0106916Y0127018D01*
X0110975Y0127018D01*
X0112040Y0128082D02*
X0115852Y0128082D01*
X0116916Y0127018D02*
X0120975Y0127018D01*
X0123846Y0129888D01*
X0123846Y0133948D01*
X0120975Y0136818D01*
X0116916Y0136818D01*
X0114046Y0133948D01*
X0114046Y0129888D01*
X0116916Y0127018D01*
X0114253Y0129681D02*
X0113638Y0129681D01*
X0113846Y0131279D02*
X0114046Y0131279D01*
X0114046Y0132878D02*
X0113846Y0132878D01*
X0113317Y0134476D02*
X0114574Y0134476D01*
X0116173Y0136075D02*
X0111718Y0136075D01*
X0110975Y0137018D02*
X0113846Y0139888D01*
X0113846Y0143948D01*
X0110975Y0146818D01*
X0106916Y0146818D01*
X0104046Y0143948D01*
X0104046Y0139888D01*
X0106916Y0137018D01*
X0110975Y0137018D01*
X0111631Y0137673D02*
X0116261Y0137673D01*
X0116916Y0137018D02*
X0120975Y0137018D01*
X0123846Y0139888D01*
X0123846Y0143948D01*
X0120975Y0146818D01*
X0116916Y0146818D01*
X0114046Y0143948D01*
X0114046Y0139888D01*
X0116916Y0137018D01*
X0114662Y0139272D02*
X0113229Y0139272D01*
X0113846Y0140870D02*
X0114046Y0140870D01*
X0114046Y0142469D02*
X0113846Y0142469D01*
X0113726Y0144068D02*
X0114165Y0144068D01*
X0115764Y0145666D02*
X0112127Y0145666D01*
X0110975Y0147018D02*
X0113846Y0149888D01*
X0113846Y0153948D01*
X0110975Y0156818D01*
X0106916Y0156818D01*
X0104046Y0153948D01*
X0104046Y0149888D01*
X0106916Y0147018D01*
X0110975Y0147018D01*
X0111222Y0147265D02*
X0116670Y0147265D01*
X0116916Y0147018D02*
X0120975Y0147018D01*
X0123846Y0149888D01*
X0123846Y0153948D01*
X0120975Y0156818D01*
X0116916Y0156818D01*
X0114046Y0153948D01*
X0114046Y0149888D01*
X0116916Y0147018D01*
X0115071Y0148863D02*
X0112820Y0148863D01*
X0113846Y0150462D02*
X0114046Y0150462D01*
X0114046Y0152060D02*
X0113846Y0152060D01*
X0113846Y0153659D02*
X0114046Y0153659D01*
X0115355Y0155257D02*
X0112536Y0155257D01*
X0110975Y0157018D02*
X0113846Y0159888D01*
X0113846Y0163948D01*
X0110975Y0166818D01*
X0106916Y0166818D01*
X0104046Y0163948D01*
X0104046Y0159888D01*
X0106916Y0157018D01*
X0110975Y0157018D01*
X0112411Y0158454D02*
X0115480Y0158454D01*
X0114046Y0159888D02*
X0116916Y0157018D01*
X0120975Y0157018D01*
X0123846Y0159888D01*
X0123846Y0163948D01*
X0120975Y0166818D01*
X0116916Y0166818D01*
X0114046Y0163948D01*
X0114046Y0159888D01*
X0114046Y0160053D02*
X0113846Y0160053D01*
X0113846Y0161651D02*
X0114046Y0161651D01*
X0114046Y0163250D02*
X0113846Y0163250D01*
X0112945Y0164848D02*
X0114946Y0164848D01*
X0116545Y0166447D02*
X0111347Y0166447D01*
X0110975Y0167018D02*
X0113846Y0169888D01*
X0113846Y0173948D01*
X0110975Y0176818D01*
X0106916Y0176818D01*
X0104046Y0173948D01*
X0104046Y0169888D01*
X0106916Y0167018D01*
X0110975Y0167018D01*
X0112002Y0168045D02*
X0115889Y0168045D01*
X0116916Y0167018D02*
X0120975Y0167018D01*
X0123846Y0169888D01*
X0123846Y0173948D01*
X0120975Y0176818D01*
X0116916Y0176818D01*
X0114046Y0173948D01*
X0114046Y0169888D01*
X0116916Y0167018D01*
X0114290Y0169644D02*
X0113601Y0169644D01*
X0113846Y0171242D02*
X0114046Y0171242D01*
X0114046Y0172841D02*
X0113846Y0172841D01*
X0113354Y0174439D02*
X0114537Y0174439D01*
X0116136Y0176038D02*
X0111756Y0176038D01*
X0110975Y0177018D02*
X0113846Y0179888D01*
X0113846Y0183948D01*
X0110975Y0186818D01*
X0106916Y0186818D01*
X0104046Y0183948D01*
X0104046Y0179888D01*
X0106916Y0177018D01*
X0110975Y0177018D01*
X0111593Y0177636D02*
X0116298Y0177636D01*
X0116916Y0177018D02*
X0120975Y0177018D01*
X0123846Y0179888D01*
X0123846Y0183948D01*
X0120975Y0186818D01*
X0116916Y0186818D01*
X0114046Y0183948D01*
X0114046Y0179888D01*
X0116916Y0177018D01*
X0114699Y0179235D02*
X0113192Y0179235D01*
X0113846Y0180833D02*
X0114046Y0180833D01*
X0114046Y0182432D02*
X0113846Y0182432D01*
X0113763Y0184030D02*
X0114128Y0184030D01*
X0115727Y0185629D02*
X0112165Y0185629D01*
X0110975Y0187018D02*
X0113846Y0189888D01*
X0113846Y0193948D01*
X0110975Y0196818D01*
X0106916Y0196818D01*
X0104046Y0193948D01*
X0104046Y0189888D01*
X0106916Y0187018D01*
X0110975Y0187018D01*
X0111185Y0187227D02*
X0116707Y0187227D01*
X0116916Y0187018D02*
X0120975Y0187018D01*
X0123846Y0189888D01*
X0123846Y0193948D01*
X0120975Y0196818D01*
X0116916Y0196818D01*
X0114046Y0193948D01*
X0114046Y0189888D01*
X0116916Y0187018D01*
X0115108Y0188826D02*
X0112783Y0188826D01*
X0113846Y0190424D02*
X0114046Y0190424D01*
X0114046Y0192023D02*
X0113846Y0192023D01*
X0113846Y0193621D02*
X0114046Y0193621D01*
X0115318Y0195220D02*
X0112574Y0195220D01*
X0110975Y0197018D02*
X0113846Y0199888D01*
X0113846Y0203948D01*
X0110975Y0206818D01*
X0106916Y0206818D01*
X0104046Y0203948D01*
X0104046Y0199888D01*
X0106916Y0197018D01*
X0110975Y0197018D01*
X0112374Y0198417D02*
X0115517Y0198417D01*
X0114046Y0200015D02*
X0113846Y0200015D01*
X0113846Y0201614D02*
X0114046Y0201614D01*
X0114046Y0203212D02*
X0113846Y0203212D01*
X0112982Y0204811D02*
X0114909Y0204811D01*
X0116507Y0206409D02*
X0111384Y0206409D01*
X0106507Y0206409D02*
X0082357Y0206409D01*
X0083206Y0204811D02*
X0104909Y0204811D01*
X0104046Y0203212D02*
X0083346Y0203212D01*
X0083346Y0201614D02*
X0104046Y0201614D01*
X0104046Y0200015D02*
X0083346Y0200015D01*
X0082954Y0198417D02*
X0105517Y0198417D01*
X0105318Y0195220D02*
X0005800Y0195220D01*
X0005800Y0196818D02*
X0006143Y0196818D01*
X0005800Y0193621D02*
X0007727Y0193621D01*
X0006129Y0192023D02*
X0005800Y0192023D01*
X0006800Y0189300D02*
X0006800Y0149300D01*
X0009300Y0146800D01*
X0006800Y0144300D01*
X0006800Y0094300D01*
X0009300Y0091800D01*
X0014300Y0091800D01*
X0017710Y0096112D02*
X0024400Y0096112D01*
X0024400Y0094514D02*
X0019892Y0094514D01*
X0020617Y0092915D02*
X0024400Y0092915D01*
X0024400Y0091317D02*
X0020700Y0091317D01*
X0020217Y0089718D02*
X0024400Y0089718D01*
X0024400Y0088120D02*
X0018925Y0088120D01*
X0018706Y0085700D02*
X0017015Y0086400D01*
X0011585Y0086400D01*
X0009894Y0085700D01*
X0008600Y0084406D01*
X0007900Y0082715D01*
X0007900Y0080885D01*
X0008600Y0079194D01*
X0009894Y0077900D01*
X0011585Y0077200D01*
X0017015Y0077200D01*
X0018706Y0077900D01*
X0020000Y0079194D01*
X0020700Y0080885D01*
X0020700Y0082715D01*
X0020000Y0084406D01*
X0018706Y0085700D01*
X0019483Y0084923D02*
X0024400Y0084923D01*
X0024400Y0086521D02*
X0005800Y0086521D01*
X0005800Y0084923D02*
X0009117Y0084923D01*
X0008152Y0083324D02*
X0005800Y0083324D01*
X0005800Y0081726D02*
X0007900Y0081726D01*
X0008214Y0080127D02*
X0005800Y0080127D01*
X0005800Y0078529D02*
X0009266Y0078529D01*
X0005800Y0076930D02*
X0023536Y0076930D01*
X0024400Y0078529D02*
X0019334Y0078529D01*
X0020386Y0080127D02*
X0024400Y0080127D01*
X0024400Y0081726D02*
X0020700Y0081726D01*
X0020448Y0083324D02*
X0024400Y0083324D01*
X0029200Y0083324D02*
X0078152Y0083324D01*
X0077900Y0082715D02*
X0078600Y0084406D01*
X0079894Y0085700D01*
X0081585Y0086400D01*
X0087015Y0086400D01*
X0088706Y0085700D01*
X0090000Y0084406D01*
X0090700Y0082715D01*
X0090700Y0080885D01*
X0090000Y0079194D01*
X0088706Y0077900D01*
X0087015Y0077200D01*
X0081585Y0077200D01*
X0079894Y0077900D01*
X0078600Y0079194D01*
X0077900Y0080885D01*
X0077900Y0082715D01*
X0077900Y0081726D02*
X0029200Y0081726D01*
X0029200Y0080127D02*
X0078214Y0080127D01*
X0079266Y0078529D02*
X0029200Y0078529D01*
X0029200Y0076930D02*
X0134946Y0076930D01*
X0134946Y0075332D02*
X0122462Y0075332D01*
X0123846Y0073733D02*
X0134946Y0073733D01*
X0134946Y0072134D02*
X0123846Y0072134D01*
X0123846Y0070536D02*
X0134946Y0070536D01*
X0134946Y0068937D02*
X0122895Y0068937D01*
X0121296Y0067339D02*
X0134946Y0067339D01*
X0134946Y0065740D02*
X0122053Y0065740D01*
X0123651Y0064142D02*
X0134946Y0064142D01*
X0134946Y0062543D02*
X0123846Y0062543D01*
X0123846Y0060945D02*
X0134946Y0060945D01*
X0134946Y0059346D02*
X0123304Y0059346D01*
X0121705Y0057748D02*
X0134946Y0057748D01*
X0134946Y0056149D02*
X0121644Y0056149D01*
X0123243Y0054551D02*
X0134946Y0054551D01*
X0134946Y0052952D02*
X0123846Y0052952D01*
X0123846Y0051354D02*
X0134946Y0051354D01*
X0134946Y0049755D02*
X0123713Y0049755D01*
X0122114Y0048157D02*
X0134946Y0048157D01*
X0134946Y0078529D02*
X0122486Y0078529D01*
X0123846Y0080127D02*
X0134946Y0080127D01*
X0134946Y0081726D02*
X0123846Y0081726D01*
X0123846Y0083324D02*
X0134946Y0083324D01*
X0134946Y0084923D02*
X0122871Y0084923D01*
X0121272Y0086521D02*
X0134946Y0086521D01*
X0134946Y0088120D02*
X0122077Y0088120D01*
X0123675Y0089718D02*
X0134946Y0089718D01*
X0134946Y0091317D02*
X0123846Y0091317D01*
X0123846Y0092915D02*
X0134946Y0092915D01*
X0134946Y0094514D02*
X0123280Y0094514D01*
X0121681Y0096112D02*
X0134946Y0096112D01*
X0134946Y0097711D02*
X0121668Y0097711D01*
X0123266Y0099309D02*
X0134946Y0099309D01*
X0134946Y0100908D02*
X0123846Y0100908D01*
X0123846Y0102506D02*
X0134946Y0102506D01*
X0134946Y0104105D02*
X0123689Y0104105D01*
X0122090Y0105703D02*
X0134946Y0105703D01*
X0134946Y0107302D02*
X0121259Y0107302D01*
X0122857Y0108900D02*
X0134946Y0108900D01*
X0134946Y0110499D02*
X0123846Y0110499D01*
X0123846Y0112097D02*
X0134946Y0112097D01*
X0134946Y0113696D02*
X0123846Y0113696D01*
X0122499Y0115294D02*
X0134946Y0115294D01*
X0134946Y0116893D02*
X0097500Y0116893D01*
X0097500Y0118491D02*
X0105443Y0118491D01*
X0104046Y0120090D02*
X0097500Y0120090D01*
X0097500Y0121688D02*
X0104046Y0121688D01*
X0104046Y0123287D02*
X0097500Y0123287D01*
X0097500Y0124885D02*
X0104983Y0124885D01*
X0106582Y0126484D02*
X0097500Y0126484D01*
X0097500Y0128082D02*
X0105852Y0128082D01*
X0104253Y0129681D02*
X0097500Y0129681D01*
X0097500Y0131279D02*
X0104046Y0131279D01*
X0104046Y0132878D02*
X0097500Y0132878D01*
X0097500Y0134476D02*
X0104574Y0134476D01*
X0106173Y0136075D02*
X0097500Y0136075D01*
X0097500Y0137673D02*
X0106261Y0137673D01*
X0104662Y0139272D02*
X0097500Y0139272D01*
X0097500Y0140870D02*
X0104046Y0140870D01*
X0104046Y0142469D02*
X0097500Y0142469D01*
X0097500Y0144068D02*
X0104165Y0144068D01*
X0105764Y0145666D02*
X0097500Y0145666D01*
X0097500Y0147265D02*
X0106670Y0147265D01*
X0105071Y0148863D02*
X0097500Y0148863D01*
X0097500Y0150462D02*
X0104046Y0150462D01*
X0104046Y0152060D02*
X0097500Y0152060D01*
X0097500Y0153659D02*
X0104046Y0153659D01*
X0105355Y0155257D02*
X0097500Y0155257D01*
X0097500Y0156856D02*
X0128351Y0156856D01*
X0126753Y0158454D02*
X0122411Y0158454D01*
X0123846Y0160053D02*
X0125389Y0160053D01*
X0124946Y0161651D02*
X0123846Y0161651D01*
X0123846Y0163250D02*
X0124946Y0163250D01*
X0124946Y0164848D02*
X0122945Y0164848D01*
X0121347Y0166447D02*
X0124946Y0166447D01*
X0124946Y0168045D02*
X0122002Y0168045D01*
X0123601Y0169644D02*
X0124946Y0169644D01*
X0124946Y0171242D02*
X0123846Y0171242D01*
X0123846Y0172841D02*
X0124946Y0172841D01*
X0124946Y0174439D02*
X0123354Y0174439D01*
X0124946Y0176038D02*
X0121756Y0176038D01*
X0121593Y0177636D02*
X0124946Y0177636D01*
X0124946Y0179235D02*
X0123192Y0179235D01*
X0123846Y0180833D02*
X0124946Y0180833D01*
X0124946Y0182432D02*
X0123846Y0182432D01*
X0123763Y0184030D02*
X0124946Y0184030D01*
X0124946Y0185629D02*
X0122165Y0185629D01*
X0121185Y0187227D02*
X0124946Y0187227D01*
X0124946Y0188826D02*
X0122783Y0188826D01*
X0123846Y0190424D02*
X0124946Y0190424D01*
X0124946Y0192023D02*
X0123846Y0192023D01*
X0123846Y0193621D02*
X0124946Y0193621D01*
X0124946Y0195220D02*
X0122574Y0195220D01*
X0122374Y0198417D02*
X0124946Y0198417D01*
X0124946Y0200015D02*
X0123846Y0200015D01*
X0124946Y0196818D02*
X0081748Y0196818D01*
X0079619Y0190424D02*
X0039070Y0190424D01*
X0040668Y0188826D02*
X0072932Y0188826D01*
X0071333Y0187227D02*
X0042267Y0187227D01*
X0043865Y0185629D02*
X0069735Y0185629D01*
X0069300Y0181800D02*
X0044300Y0181800D01*
X0036800Y0189300D01*
X0026800Y0189300D01*
X0024300Y0191800D01*
X0009300Y0191800D01*
X0006800Y0189300D01*
X0009200Y0183595D02*
X0009894Y0182900D01*
X0011585Y0182200D01*
X0017015Y0182200D01*
X0018706Y0182900D01*
X0020000Y0184194D01*
X0020085Y0184400D01*
X0020806Y0184400D01*
X0024400Y0180806D01*
X0024400Y0125294D01*
X0023306Y0124200D01*
X0020085Y0124200D01*
X0020000Y0124406D01*
X0018706Y0125700D01*
X0017015Y0126400D01*
X0011585Y0126400D01*
X0009894Y0125700D01*
X0009200Y0125005D01*
X0009200Y0128595D01*
X0009894Y0127900D01*
X0011585Y0127200D01*
X0017015Y0127200D01*
X0018706Y0127900D01*
X0020000Y0129194D01*
X0020700Y0130885D01*
X0020700Y0132715D01*
X0020000Y0134406D01*
X0018706Y0135700D01*
X0017015Y0136400D01*
X0011585Y0136400D01*
X0009894Y0135700D01*
X0009200Y0135005D01*
X0009200Y0143306D01*
X0009344Y0143450D01*
X0009894Y0142900D01*
X0011585Y0142200D01*
X0017015Y0142200D01*
X0018706Y0142900D01*
X0020000Y0144194D01*
X0020700Y0145885D01*
X0020700Y0147715D01*
X0020000Y0149406D01*
X0018706Y0150700D01*
X0017015Y0151400D01*
X0011585Y0151400D01*
X0009894Y0150700D01*
X0009344Y0150150D01*
X0009200Y0150294D01*
X0009200Y0153595D01*
X0009894Y0152900D01*
X0011585Y0152200D01*
X0017015Y0152200D01*
X0018706Y0152900D01*
X0020000Y0154194D01*
X0020700Y0155885D01*
X0020700Y0157715D01*
X0020000Y0159406D01*
X0018706Y0160700D01*
X0017015Y0161400D01*
X0011585Y0161400D01*
X0009894Y0160700D01*
X0009200Y0160005D01*
X0009200Y0163595D01*
X0009894Y0162900D01*
X0011585Y0162200D01*
X0017015Y0162200D01*
X0018706Y0162900D01*
X0020000Y0164194D01*
X0020700Y0165885D01*
X0020700Y0167715D01*
X0020000Y0169406D01*
X0018706Y0170700D01*
X0017015Y0171400D01*
X0011585Y0171400D01*
X0009894Y0170700D01*
X0009200Y0170005D01*
X0009200Y0173595D01*
X0009894Y0172900D01*
X0011585Y0172200D01*
X0017015Y0172200D01*
X0018706Y0172900D01*
X0020000Y0174194D01*
X0020700Y0175885D01*
X0020700Y0177715D01*
X0020000Y0179406D01*
X0018706Y0180700D01*
X0017015Y0181400D01*
X0011585Y0181400D01*
X0009894Y0180700D01*
X0009200Y0180005D01*
X0009200Y0183595D01*
X0009200Y0182432D02*
X0011025Y0182432D01*
X0010217Y0180833D02*
X0009200Y0180833D01*
X0014300Y0186800D02*
X0021800Y0186800D01*
X0026800Y0181800D01*
X0036800Y0181800D01*
X0041800Y0176800D01*
X0084300Y0176800D01*
X0087015Y0171400D02*
X0081585Y0171400D01*
X0079894Y0170700D01*
X0078600Y0169406D01*
X0078515Y0169200D01*
X0074747Y0169200D01*
X0073942Y0170005D01*
X0072552Y0170581D01*
X0071048Y0170581D01*
X0069658Y0170005D01*
X0068595Y0168942D01*
X0068019Y0167552D01*
X0068019Y0166048D01*
X0068595Y0164658D01*
X0069658Y0163595D01*
X0071048Y0163019D01*
X0072552Y0163019D01*
X0073942Y0163595D01*
X0074747Y0164400D01*
X0078515Y0164400D01*
X0078600Y0164194D01*
X0079894Y0162900D01*
X0081585Y0162200D01*
X0087015Y0162200D01*
X0088706Y0162900D01*
X0090000Y0164194D01*
X0090700Y0165885D01*
X0090700Y0167715D01*
X0090000Y0169406D01*
X0088706Y0170700D01*
X0087015Y0171400D01*
X0087396Y0171242D02*
X0091100Y0171242D01*
X0091100Y0169644D02*
X0089762Y0169644D01*
X0090563Y0168045D02*
X0091100Y0168045D01*
X0091100Y0166447D02*
X0090700Y0166447D01*
X0091100Y0164848D02*
X0090271Y0164848D01*
X0091100Y0163250D02*
X0089055Y0163250D01*
X0088706Y0160700D02*
X0087015Y0161400D01*
X0081585Y0161400D01*
X0079894Y0160700D01*
X0078600Y0159406D01*
X0077900Y0157715D01*
X0077900Y0155885D01*
X0078600Y0154194D01*
X0079894Y0152900D01*
X0081585Y0152200D01*
X0087015Y0152200D01*
X0088706Y0152900D01*
X0090000Y0154194D01*
X0090700Y0155885D01*
X0090700Y0157715D01*
X0090000Y0159406D01*
X0088706Y0160700D01*
X0089353Y0160053D02*
X0091100Y0160053D01*
X0091100Y0161651D02*
X0029200Y0161651D01*
X0029200Y0160053D02*
X0079247Y0160053D01*
X0078206Y0158454D02*
X0029200Y0158454D01*
X0029200Y0156856D02*
X0077900Y0156856D01*
X0078160Y0155257D02*
X0029200Y0155257D01*
X0029200Y0153659D02*
X0079136Y0153659D01*
X0081585Y0146400D02*
X0079894Y0145700D01*
X0078600Y0144406D01*
X0077900Y0142715D01*
X0077900Y0140885D01*
X0078600Y0139194D01*
X0079894Y0137900D01*
X0081585Y0137200D01*
X0087015Y0137200D01*
X0088706Y0137900D01*
X0090000Y0139194D01*
X0090700Y0140885D01*
X0090700Y0142715D01*
X0090000Y0144406D01*
X0088706Y0145700D01*
X0087015Y0146400D01*
X0081585Y0146400D01*
X0079861Y0145666D02*
X0029200Y0145666D01*
X0029200Y0144068D02*
X0078460Y0144068D01*
X0077900Y0142469D02*
X0029200Y0142469D01*
X0029200Y0140870D02*
X0077906Y0140870D01*
X0078568Y0139272D02*
X0029200Y0139272D01*
X0029200Y0137673D02*
X0080442Y0137673D01*
X0080800Y0136075D02*
X0029200Y0136075D01*
X0029200Y0134476D02*
X0078671Y0134476D01*
X0078600Y0134406D02*
X0077900Y0132715D01*
X0077900Y0130885D01*
X0078600Y0129194D01*
X0079894Y0127900D01*
X0081585Y0127200D01*
X0087015Y0127200D01*
X0088706Y0127900D01*
X0090000Y0129194D01*
X0090700Y0130885D01*
X0090700Y0132715D01*
X0090000Y0134406D01*
X0088706Y0135700D01*
X0087015Y0136400D01*
X0081585Y0136400D01*
X0079894Y0135700D01*
X0078600Y0134406D01*
X0077967Y0132878D02*
X0029200Y0132878D01*
X0029200Y0131279D02*
X0077900Y0131279D01*
X0078399Y0129681D02*
X0029200Y0129681D01*
X0029200Y0128082D02*
X0079712Y0128082D01*
X0081585Y0121400D02*
X0079894Y0120700D01*
X0078600Y0119406D01*
X0077900Y0117715D01*
X0077900Y0115885D01*
X0078600Y0114194D01*
X0079894Y0112900D01*
X0081585Y0112200D01*
X0087015Y0112200D01*
X0088706Y0112900D01*
X0090000Y0114194D01*
X0090700Y0115885D01*
X0090700Y0117715D01*
X0090000Y0119406D01*
X0088706Y0120700D01*
X0087015Y0121400D01*
X0081585Y0121400D01*
X0079284Y0120090D02*
X0029071Y0120090D01*
X0029200Y0118491D02*
X0078222Y0118491D01*
X0077900Y0116893D02*
X0029200Y0116893D01*
X0029200Y0115294D02*
X0078145Y0115294D01*
X0079099Y0113696D02*
X0029200Y0113696D01*
X0029200Y0112097D02*
X0091100Y0112097D01*
X0091100Y0110499D02*
X0088907Y0110499D01*
X0088706Y0110700D02*
X0090000Y0109406D01*
X0090700Y0107715D01*
X0090700Y0105885D01*
X0090000Y0104194D01*
X0088706Y0102900D01*
X0087015Y0102200D01*
X0081585Y0102200D01*
X0079894Y0102900D01*
X0078600Y0104194D01*
X0077900Y0105885D01*
X0077900Y0107715D01*
X0078600Y0109406D01*
X0079894Y0110700D01*
X0081585Y0111400D01*
X0087015Y0111400D01*
X0088706Y0110700D01*
X0090209Y0108900D02*
X0091100Y0108900D01*
X0091100Y0107302D02*
X0090700Y0107302D01*
X0090625Y0105703D02*
X0091100Y0105703D01*
X0091100Y0104105D02*
X0089910Y0104105D01*
X0091100Y0102506D02*
X0087754Y0102506D01*
X0088203Y0100908D02*
X0091100Y0100908D01*
X0095638Y0096112D02*
X0106210Y0096112D01*
X0106223Y0097711D02*
X0097105Y0097711D01*
X0097500Y0099309D02*
X0104625Y0099309D01*
X0104046Y0100908D02*
X0097500Y0100908D01*
X0097500Y0102506D02*
X0104046Y0102506D01*
X0104203Y0104105D02*
X0097500Y0104105D01*
X0097500Y0105703D02*
X0105801Y0105703D01*
X0106632Y0107302D02*
X0097500Y0107302D01*
X0097500Y0108900D02*
X0105034Y0108900D01*
X0104046Y0110499D02*
X0097500Y0110499D01*
X0097500Y0112097D02*
X0104046Y0112097D01*
X0104046Y0113696D02*
X0097500Y0113696D01*
X0097500Y0115294D02*
X0105392Y0115294D01*
X0104612Y0094514D02*
X0094039Y0094514D01*
X0088721Y0092915D02*
X0104046Y0092915D01*
X0104046Y0091317D02*
X0029200Y0091317D01*
X0029200Y0092915D02*
X0079879Y0092915D01*
X0078468Y0094514D02*
X0029200Y0094514D01*
X0029200Y0096112D02*
X0077900Y0096112D01*
X0077900Y0097711D02*
X0029200Y0097711D01*
X0029200Y0099309D02*
X0078560Y0099309D01*
X0080397Y0100908D02*
X0028586Y0100908D01*
X0028400Y0102506D02*
X0080846Y0102506D01*
X0078690Y0104105D02*
X0029200Y0104105D01*
X0029200Y0105703D02*
X0077975Y0105703D01*
X0077900Y0107302D02*
X0029200Y0107302D01*
X0029200Y0108900D02*
X0078391Y0108900D01*
X0079693Y0110499D02*
X0029200Y0110499D01*
X0024400Y0110499D02*
X0020540Y0110499D01*
X0020700Y0110885D02*
X0020700Y0112715D01*
X0020000Y0114406D01*
X0018706Y0115700D01*
X0017015Y0116400D01*
X0011585Y0116400D01*
X0009894Y0115700D01*
X0009200Y0115005D01*
X0009200Y0118595D01*
X0009894Y0117900D01*
X0011585Y0117200D01*
X0017015Y0117200D01*
X0018706Y0117900D01*
X0020000Y0119194D01*
X0020085Y0119400D01*
X0023306Y0119400D01*
X0024400Y0118306D01*
X0024400Y0105294D01*
X0023306Y0104200D01*
X0020085Y0104200D01*
X0020000Y0104406D01*
X0018706Y0105700D01*
X0017015Y0106400D01*
X0011585Y0106400D01*
X0009894Y0105700D01*
X0009200Y0105005D01*
X0009200Y0108595D01*
X0009894Y0107900D01*
X0011585Y0107200D01*
X0017015Y0107200D01*
X0018706Y0107900D01*
X0020000Y0109194D01*
X0020700Y0110885D01*
X0020700Y0112097D02*
X0024400Y0112097D01*
X0024400Y0113696D02*
X0020294Y0113696D01*
X0019111Y0115294D02*
X0024400Y0115294D01*
X0024400Y0116893D02*
X0009200Y0116893D01*
X0009200Y0118491D02*
X0009303Y0118491D01*
X0009200Y0115294D02*
X0009489Y0115294D01*
X0009200Y0107302D02*
X0011339Y0107302D01*
X0009903Y0105703D02*
X0009200Y0105703D01*
X0014300Y0101800D02*
X0024300Y0101800D01*
X0026800Y0099300D01*
X0026800Y0076800D01*
X0016800Y0066800D01*
X0014300Y0066800D01*
X0017844Y0062543D02*
X0074031Y0062543D01*
X0075630Y0060945D02*
X0018114Y0060945D01*
X0018706Y0060700D02*
X0017015Y0061400D01*
X0011585Y0061400D01*
X0009894Y0060700D01*
X0008600Y0059406D01*
X0007900Y0057715D01*
X0007900Y0055885D01*
X0008600Y0054194D01*
X0009894Y0052900D01*
X0011585Y0052200D01*
X0017015Y0052200D01*
X0018706Y0052900D01*
X0020000Y0054194D01*
X0020700Y0055885D01*
X0020700Y0057715D01*
X0020000Y0059406D01*
X0018706Y0060700D01*
X0020024Y0059346D02*
X0077228Y0059346D01*
X0080262Y0057748D02*
X0020686Y0057748D01*
X0020700Y0056149D02*
X0080980Y0056149D01*
X0079993Y0065740D02*
X0079885Y0065740D01*
X0081249Y0067339D02*
X0078287Y0067339D01*
X0078857Y0068937D02*
X0076688Y0068937D01*
X0078600Y0069194D02*
X0077900Y0070885D01*
X0077900Y0072715D01*
X0078600Y0074406D01*
X0079894Y0075700D01*
X0081585Y0076400D01*
X0087015Y0076400D01*
X0088706Y0075700D01*
X0090000Y0074406D01*
X0090700Y0072715D01*
X0090700Y0070885D01*
X0090000Y0069194D01*
X0088706Y0067900D01*
X0087015Y0067200D01*
X0081585Y0067200D01*
X0079894Y0067900D01*
X0078600Y0069194D01*
X0078045Y0070536D02*
X0023930Y0070536D01*
X0025529Y0072134D02*
X0077900Y0072134D01*
X0078322Y0073733D02*
X0027127Y0073733D01*
X0028726Y0075332D02*
X0079526Y0075332D01*
X0079117Y0084923D02*
X0029200Y0084923D01*
X0029200Y0086521D02*
X0106619Y0086521D01*
X0105815Y0088120D02*
X0029200Y0088120D01*
X0029200Y0089718D02*
X0104216Y0089718D01*
X0105021Y0084923D02*
X0089483Y0084923D01*
X0090448Y0083324D02*
X0104046Y0083324D01*
X0104046Y0081726D02*
X0090700Y0081726D01*
X0090386Y0080127D02*
X0104046Y0080127D01*
X0105406Y0078529D02*
X0089334Y0078529D01*
X0089074Y0075332D02*
X0105429Y0075332D01*
X0104046Y0073733D02*
X0090278Y0073733D01*
X0090700Y0072134D02*
X0104046Y0072134D01*
X0104046Y0070536D02*
X0090555Y0070536D01*
X0089743Y0068937D02*
X0104997Y0068937D01*
X0106595Y0067339D02*
X0087350Y0067339D01*
X0088607Y0065740D02*
X0105838Y0065740D01*
X0104240Y0064142D02*
X0090109Y0064142D01*
X0090700Y0062543D02*
X0104046Y0062543D01*
X0104046Y0060945D02*
X0090700Y0060945D01*
X0090063Y0059346D02*
X0104588Y0059346D01*
X0106186Y0057748D02*
X0088338Y0057748D01*
X0087620Y0056149D02*
X0106247Y0056149D01*
X0104649Y0054551D02*
X0089854Y0054551D01*
X0090602Y0052952D02*
X0104046Y0052952D01*
X0104046Y0051354D02*
X0090700Y0051354D01*
X0090232Y0049755D02*
X0104179Y0049755D01*
X0105777Y0048157D02*
X0088962Y0048157D01*
X0086625Y0035369D02*
X0105467Y0035369D01*
X0104046Y0033770D02*
X0088224Y0033770D01*
X0084300Y0034300D02*
X0089300Y0029300D01*
X0089300Y0024300D01*
X0084300Y0024300D02*
X0084300Y0026800D01*
X0081700Y0029547D02*
X0082158Y0030005D01*
X0083548Y0030581D01*
X0084625Y0030581D01*
X0084027Y0031179D01*
X0083942Y0031095D01*
X0082552Y0030519D01*
X0081393Y0030519D01*
X0081700Y0029777D01*
X0081700Y0029547D01*
X0082683Y0030573D02*
X0083529Y0030573D01*
X0084300Y0034300D02*
X0081800Y0034300D01*
X0079120Y0036967D02*
X0074200Y0036967D01*
X0074200Y0035369D02*
X0078150Y0035369D01*
X0072542Y0030164D02*
X0072158Y0030005D01*
X0071353Y0029200D01*
X0070294Y0029200D01*
X0065659Y0033835D01*
X0064777Y0034200D01*
X0063823Y0034200D01*
X0062794Y0034200D01*
X0059200Y0037794D01*
X0059200Y0048853D01*
X0060005Y0049658D01*
X0060550Y0050973D01*
X0061095Y0049658D01*
X0062158Y0048595D01*
X0063548Y0048019D01*
X0064687Y0048019D01*
X0069400Y0043306D01*
X0069400Y0033823D01*
X0069765Y0032941D01*
X0072265Y0030441D01*
X0072542Y0030164D01*
X0072133Y0030573D02*
X0068921Y0030573D01*
X0067322Y0032172D02*
X0070534Y0032172D01*
X0069422Y0033770D02*
X0065724Y0033770D01*
X0064300Y0031800D02*
X0069300Y0026800D01*
X0074300Y0026800D01*
X0071574Y0024179D02*
X0062619Y0024179D01*
X0063500Y0025778D02*
X0066928Y0025778D01*
X0065330Y0027376D02*
X0063500Y0027376D01*
X0063731Y0028975D02*
X0063065Y0028975D01*
X0064300Y0031800D02*
X0061800Y0031800D01*
X0056800Y0036800D01*
X0056800Y0051800D01*
X0054204Y0054551D02*
X0020147Y0054551D01*
X0018758Y0052952D02*
X0053185Y0052952D01*
X0053019Y0051354D02*
X0005800Y0051354D01*
X0005800Y0052952D02*
X0009842Y0052952D01*
X0008453Y0054551D02*
X0005800Y0054551D01*
X0005800Y0056149D02*
X0007900Y0056149D01*
X0007914Y0057748D02*
X0005800Y0057748D01*
X0005800Y0059346D02*
X0008576Y0059346D01*
X0010486Y0060945D02*
X0005800Y0060945D01*
X0005800Y0062543D02*
X0010756Y0062543D01*
X0008653Y0064142D02*
X0005800Y0064142D01*
X0005800Y0065740D02*
X0007960Y0065740D01*
X0007900Y0067339D02*
X0005800Y0067339D01*
X0005800Y0068937D02*
X0008406Y0068937D01*
X0009731Y0070536D02*
X0005800Y0070536D01*
X0005800Y0072134D02*
X0018740Y0072134D01*
X0020339Y0073733D02*
X0005800Y0073733D01*
X0005800Y0075332D02*
X0021937Y0075332D01*
X0009675Y0088120D02*
X0005800Y0088120D01*
X0005800Y0089718D02*
X0008055Y0089718D01*
X0006389Y0091317D02*
X0005800Y0091317D01*
X0009200Y0096112D02*
X0010890Y0096112D01*
X0010352Y0097711D02*
X0009200Y0097711D01*
X0018248Y0097711D02*
X0024400Y0097711D01*
X0023397Y0099309D02*
X0020047Y0099309D01*
X0024300Y0101800D02*
X0026800Y0104300D01*
X0026800Y0119300D01*
X0024300Y0121800D01*
X0014300Y0121800D01*
X0019297Y0118491D02*
X0024215Y0118491D01*
X0024300Y0121800D02*
X0026800Y0124300D01*
X0026800Y0181800D01*
X0024373Y0180833D02*
X0018383Y0180833D01*
X0017575Y0182432D02*
X0022774Y0182432D01*
X0021176Y0184030D02*
X0019836Y0184030D01*
X0023168Y0188826D02*
X0023880Y0188826D01*
X0024767Y0187227D02*
X0025532Y0187227D01*
X0026365Y0185629D02*
X0037077Y0185629D01*
X0037687Y0184030D02*
X0038676Y0184030D01*
X0039562Y0182432D02*
X0040274Y0182432D01*
X0041161Y0180833D02*
X0041873Y0180833D01*
X0042759Y0179235D02*
X0078530Y0179235D01*
X0080217Y0180833D02*
X0071727Y0180833D01*
X0073326Y0182432D02*
X0081025Y0182432D01*
X0078764Y0184030D02*
X0074924Y0184030D01*
X0074300Y0186800D02*
X0069300Y0181800D01*
X0074300Y0186800D02*
X0084300Y0186800D01*
X0087575Y0182432D02*
X0089143Y0182432D01*
X0088383Y0180833D02*
X0090741Y0180833D01*
X0091100Y0179235D02*
X0090070Y0179235D01*
X0090700Y0177636D02*
X0091100Y0177636D01*
X0091100Y0176038D02*
X0090700Y0176038D01*
X0091100Y0174439D02*
X0090101Y0174439D01*
X0091100Y0172841D02*
X0088562Y0172841D01*
X0084300Y0166800D02*
X0071800Y0166800D01*
X0069296Y0169644D02*
X0029200Y0169644D01*
X0029200Y0171242D02*
X0081204Y0171242D01*
X0080038Y0172841D02*
X0029200Y0172841D01*
X0029200Y0174439D02*
X0041228Y0174439D01*
X0039168Y0176038D02*
X0029200Y0176038D01*
X0029200Y0177636D02*
X0037570Y0177636D01*
X0035971Y0179235D02*
X0029200Y0179235D01*
X0024400Y0179235D02*
X0020070Y0179235D01*
X0020700Y0177636D02*
X0024400Y0177636D01*
X0024400Y0176038D02*
X0020700Y0176038D01*
X0020101Y0174439D02*
X0024400Y0174439D01*
X0024400Y0172841D02*
X0018562Y0172841D01*
X0017396Y0171242D02*
X0024400Y0171242D01*
X0024400Y0169644D02*
X0019762Y0169644D01*
X0020563Y0168045D02*
X0024400Y0168045D01*
X0024400Y0166447D02*
X0020700Y0166447D01*
X0020271Y0164848D02*
X0024400Y0164848D01*
X0024400Y0163250D02*
X0019055Y0163250D01*
X0019353Y0160053D02*
X0024400Y0160053D01*
X0024400Y0161651D02*
X0009200Y0161651D01*
X0009200Y0160053D02*
X0009247Y0160053D01*
X0009200Y0163250D02*
X0009545Y0163250D01*
X0009200Y0171242D02*
X0011204Y0171242D01*
X0010038Y0172841D02*
X0009200Y0172841D01*
X0020394Y0158454D02*
X0024400Y0158454D01*
X0024400Y0156856D02*
X0020700Y0156856D01*
X0020440Y0155257D02*
X0024400Y0155257D01*
X0024400Y0153659D02*
X0019464Y0153659D01*
X0018944Y0150462D02*
X0024400Y0150462D01*
X0024400Y0152060D02*
X0009200Y0152060D01*
X0009200Y0150462D02*
X0009656Y0150462D01*
X0009300Y0146800D02*
X0014300Y0146800D01*
X0017664Y0142469D02*
X0024400Y0142469D01*
X0024400Y0140870D02*
X0009200Y0140870D01*
X0009200Y0139272D02*
X0024400Y0139272D01*
X0024400Y0137673D02*
X0009200Y0137673D01*
X0009200Y0136075D02*
X0010800Y0136075D01*
X0010936Y0142469D02*
X0009200Y0142469D01*
X0005800Y0146694D02*
X0005800Y0146906D01*
X0005906Y0146800D01*
X0005800Y0146694D01*
X0017800Y0136075D02*
X0024400Y0136075D01*
X0024400Y0134476D02*
X0019929Y0134476D01*
X0020633Y0132878D02*
X0024400Y0132878D01*
X0024400Y0131279D02*
X0020700Y0131279D01*
X0020201Y0129681D02*
X0024400Y0129681D01*
X0024400Y0128082D02*
X0018888Y0128082D01*
X0019520Y0124885D02*
X0023991Y0124885D01*
X0024400Y0126484D02*
X0009200Y0126484D01*
X0009200Y0128082D02*
X0009712Y0128082D01*
X0019873Y0144068D02*
X0024400Y0144068D01*
X0024400Y0145666D02*
X0020609Y0145666D01*
X0020700Y0147265D02*
X0024400Y0147265D01*
X0024400Y0148863D02*
X0020224Y0148863D01*
X0029200Y0148863D02*
X0091100Y0148863D01*
X0091100Y0147265D02*
X0029200Y0147265D01*
X0029200Y0150462D02*
X0091100Y0150462D01*
X0091100Y0152060D02*
X0029200Y0152060D01*
X0029200Y0163250D02*
X0070491Y0163250D01*
X0068516Y0164848D02*
X0029200Y0164848D01*
X0029200Y0166447D02*
X0068019Y0166447D01*
X0068223Y0168045D02*
X0029200Y0168045D01*
X0027471Y0192023D02*
X0104046Y0192023D01*
X0104046Y0193621D02*
X0025873Y0193621D01*
X0026143Y0196818D02*
X0021748Y0196818D01*
X0022954Y0198417D02*
X0024938Y0198417D01*
X0024546Y0200015D02*
X0023346Y0200015D01*
X0023346Y0201614D02*
X0024546Y0201614D01*
X0024546Y0203212D02*
X0023346Y0203212D01*
X0023206Y0204811D02*
X0024686Y0204811D01*
X0025534Y0206409D02*
X0022357Y0206409D01*
X0015534Y0206409D02*
X0012357Y0206409D01*
X0013206Y0204811D02*
X0014686Y0204811D01*
X0014546Y0203212D02*
X0013346Y0203212D01*
X0013346Y0201614D02*
X0014546Y0201614D01*
X0014546Y0200015D02*
X0013346Y0200015D01*
X0012954Y0198417D02*
X0014938Y0198417D01*
X0016143Y0196818D02*
X0011748Y0196818D01*
X0005800Y0206675D02*
X0005800Y0207877D01*
X0007877Y0207918D01*
X0006453Y0207328D01*
X0005800Y0206675D01*
X0032357Y0206409D02*
X0035534Y0206409D01*
X0034686Y0204811D02*
X0033206Y0204811D01*
X0033346Y0203212D02*
X0034546Y0203212D01*
X0034546Y0201614D02*
X0033346Y0201614D01*
X0033346Y0200015D02*
X0034546Y0200015D01*
X0034938Y0198417D02*
X0032954Y0198417D01*
X0031748Y0196818D02*
X0036143Y0196818D01*
X0041748Y0196818D02*
X0046143Y0196818D01*
X0044938Y0198417D02*
X0042954Y0198417D01*
X0043346Y0200015D02*
X0044546Y0200015D01*
X0044546Y0201614D02*
X0043346Y0201614D01*
X0043346Y0203212D02*
X0044546Y0203212D01*
X0044686Y0204811D02*
X0043206Y0204811D01*
X0042357Y0206409D02*
X0045534Y0206409D01*
X0051748Y0196818D02*
X0056143Y0196818D01*
X0054938Y0198417D02*
X0052954Y0198417D01*
X0053346Y0200015D02*
X0054546Y0200015D01*
X0054546Y0201614D02*
X0053346Y0201614D01*
X0053346Y0203212D02*
X0054546Y0203212D01*
X0054686Y0204811D02*
X0053206Y0204811D01*
X0052357Y0206409D02*
X0055534Y0206409D01*
X0061748Y0196818D02*
X0066143Y0196818D01*
X0064938Y0198417D02*
X0062954Y0198417D01*
X0063346Y0200015D02*
X0064546Y0200015D01*
X0064546Y0201614D02*
X0063346Y0201614D01*
X0063346Y0203212D02*
X0064546Y0203212D01*
X0064686Y0204811D02*
X0063206Y0204811D01*
X0062357Y0206409D02*
X0065534Y0206409D01*
X0071748Y0196818D02*
X0076143Y0196818D01*
X0074938Y0198417D02*
X0072954Y0198417D01*
X0073346Y0200015D02*
X0074546Y0200015D01*
X0074546Y0201614D02*
X0073346Y0201614D01*
X0073346Y0203212D02*
X0074546Y0203212D01*
X0074686Y0204811D02*
X0073206Y0204811D01*
X0072357Y0206409D02*
X0075534Y0206409D01*
X0088981Y0190424D02*
X0104046Y0190424D01*
X0105108Y0188826D02*
X0091800Y0188826D01*
X0093398Y0187227D02*
X0106707Y0187227D01*
X0105727Y0185629D02*
X0094997Y0185629D01*
X0096595Y0184030D02*
X0104128Y0184030D01*
X0104046Y0182432D02*
X0097500Y0182432D01*
X0097500Y0180833D02*
X0104046Y0180833D01*
X0104699Y0179235D02*
X0097500Y0179235D01*
X0097500Y0177636D02*
X0106298Y0177636D01*
X0106136Y0176038D02*
X0097500Y0176038D01*
X0097500Y0174439D02*
X0104537Y0174439D01*
X0104046Y0172841D02*
X0097500Y0172841D01*
X0097500Y0171242D02*
X0104046Y0171242D01*
X0104290Y0169644D02*
X0097500Y0169644D01*
X0097500Y0168045D02*
X0105889Y0168045D01*
X0106545Y0166447D02*
X0097500Y0166447D01*
X0097500Y0164848D02*
X0104946Y0164848D01*
X0104046Y0163250D02*
X0097500Y0163250D01*
X0097500Y0161651D02*
X0104046Y0161651D01*
X0104046Y0160053D02*
X0097500Y0160053D01*
X0097500Y0158454D02*
X0105480Y0158454D01*
X0091100Y0158454D02*
X0090394Y0158454D01*
X0090700Y0156856D02*
X0091100Y0156856D01*
X0091100Y0155257D02*
X0090440Y0155257D01*
X0091100Y0153659D02*
X0089464Y0153659D01*
X0088739Y0145666D02*
X0091100Y0145666D01*
X0091100Y0144068D02*
X0090140Y0144068D01*
X0090700Y0142469D02*
X0091100Y0142469D01*
X0091100Y0140870D02*
X0090694Y0140870D01*
X0091100Y0139272D02*
X0090032Y0139272D01*
X0091100Y0137673D02*
X0088158Y0137673D01*
X0087800Y0136075D02*
X0091100Y0136075D01*
X0091100Y0134476D02*
X0089929Y0134476D01*
X0090633Y0132878D02*
X0091100Y0132878D01*
X0091100Y0131279D02*
X0090700Y0131279D01*
X0091100Y0129681D02*
X0090201Y0129681D01*
X0091100Y0128082D02*
X0088888Y0128082D01*
X0091100Y0126484D02*
X0029200Y0126484D01*
X0029200Y0124885D02*
X0091100Y0124885D01*
X0091100Y0123287D02*
X0028978Y0123287D01*
X0027806Y0121688D02*
X0091100Y0121688D01*
X0091100Y0120090D02*
X0089316Y0120090D01*
X0090378Y0118491D02*
X0091100Y0118491D01*
X0091100Y0116893D02*
X0090700Y0116893D01*
X0090455Y0115294D02*
X0091100Y0115294D01*
X0091100Y0113696D02*
X0089501Y0113696D01*
X0121310Y0126484D02*
X0134946Y0126484D01*
X0134946Y0128082D02*
X0122040Y0128082D01*
X0123638Y0129681D02*
X0134946Y0129681D01*
X0134946Y0131279D02*
X0123846Y0131279D01*
X0123846Y0132878D02*
X0134946Y0132878D01*
X0134946Y0134476D02*
X0123317Y0134476D01*
X0121718Y0136075D02*
X0134946Y0136075D01*
X0134946Y0137673D02*
X0121631Y0137673D01*
X0123229Y0139272D02*
X0134946Y0139272D01*
X0134946Y0140870D02*
X0123846Y0140870D01*
X0123846Y0142469D02*
X0134946Y0142469D01*
X0134946Y0144068D02*
X0123726Y0144068D01*
X0122127Y0145666D02*
X0134946Y0145666D01*
X0134946Y0147265D02*
X0121222Y0147265D01*
X0122820Y0148863D02*
X0134946Y0148863D01*
X0134745Y0150462D02*
X0123846Y0150462D01*
X0123846Y0152060D02*
X0133147Y0152060D01*
X0131548Y0153659D02*
X0123846Y0153659D01*
X0122536Y0155257D02*
X0129950Y0155257D01*
X0126680Y0158527D02*
X0126680Y0158527D01*
X0122908Y0124885D02*
X0134946Y0124885D01*
X0134946Y0123287D02*
X0123846Y0123287D01*
X0123846Y0121688D02*
X0134946Y0121688D01*
X0134946Y0120090D02*
X0123846Y0120090D01*
X0122449Y0118491D02*
X0134946Y0118491D01*
X0079545Y0163250D02*
X0073109Y0163250D01*
X0074304Y0169644D02*
X0078838Y0169644D01*
X0024400Y0108900D02*
X0019706Y0108900D01*
X0017261Y0107302D02*
X0024400Y0107302D01*
X0024400Y0105703D02*
X0018697Y0105703D01*
X0005800Y0049755D02*
X0053554Y0049755D01*
X0054400Y0048157D02*
X0005800Y0048157D01*
X0005800Y0046558D02*
X0054400Y0046558D01*
X0054400Y0044960D02*
X0027080Y0044960D01*
X0026040Y0046000D02*
X0028500Y0043540D01*
X0028500Y0040060D01*
X0026040Y0037600D01*
X0022560Y0037600D01*
X0020100Y0040060D01*
X0020100Y0043540D01*
X0022560Y0046000D01*
X0026040Y0046000D01*
X0028500Y0043361D02*
X0054400Y0043361D01*
X0054400Y0041763D02*
X0028500Y0041763D01*
X0028500Y0040164D02*
X0054400Y0040164D01*
X0054400Y0038566D02*
X0027005Y0038566D01*
X0021595Y0038566D02*
X0005800Y0038566D01*
X0005800Y0040164D02*
X0020100Y0040164D01*
X0020100Y0041763D02*
X0005800Y0041763D01*
X0005800Y0043361D02*
X0020100Y0043361D01*
X0021520Y0044960D02*
X0005800Y0044960D01*
X0005800Y0036967D02*
X0054400Y0036967D01*
X0054837Y0035369D02*
X0005800Y0035369D01*
X0005800Y0033770D02*
X0008244Y0033770D01*
X0009332Y0034858D02*
X0006872Y0032398D01*
X0006872Y0028919D01*
X0009332Y0026458D01*
X0012811Y0026458D01*
X0015272Y0028919D01*
X0015272Y0032398D01*
X0012811Y0034858D01*
X0009332Y0034858D01*
X0006872Y0032172D02*
X0005800Y0032172D01*
X0005800Y0030573D02*
X0006872Y0030573D01*
X0006872Y0028975D02*
X0005800Y0028975D01*
X0005800Y0027376D02*
X0008414Y0027376D01*
X0013729Y0027376D02*
X0048414Y0027376D01*
X0049332Y0026458D02*
X0052811Y0026458D01*
X0055272Y0028919D01*
X0055272Y0032398D01*
X0052811Y0034858D01*
X0049332Y0034858D01*
X0046872Y0032398D01*
X0046872Y0028919D01*
X0049332Y0026458D01*
X0046872Y0028975D02*
X0015272Y0028975D01*
X0015272Y0030573D02*
X0046872Y0030573D01*
X0046872Y0032172D02*
X0015272Y0032172D01*
X0013899Y0033770D02*
X0048244Y0033770D01*
X0053899Y0033770D02*
X0056436Y0033770D01*
X0055272Y0032172D02*
X0058034Y0032172D01*
X0057134Y0030573D02*
X0055272Y0030573D01*
X0055272Y0028975D02*
X0055535Y0028975D01*
X0055100Y0027376D02*
X0053729Y0027376D01*
X0055100Y0025778D02*
X0023450Y0025778D01*
X0025767Y0024179D02*
X0055981Y0024179D01*
X0057556Y0017785D02*
X0050335Y0017785D01*
X0052580Y0016187D02*
X0055312Y0016187D01*
X0054593Y0014588D02*
X0053298Y0014588D01*
X0053346Y0012990D02*
X0054546Y0012990D01*
X0054546Y0011391D02*
X0053346Y0011391D01*
X0053346Y0009793D02*
X0054546Y0009793D01*
X0055030Y0008194D02*
X0052862Y0008194D01*
X0051526Y0006596D02*
X0056366Y0006596D01*
X0047556Y0017785D02*
X0040335Y0017785D01*
X0042580Y0016187D02*
X0045312Y0016187D01*
X0044593Y0014588D02*
X0043298Y0014588D01*
X0043346Y0012990D02*
X0044546Y0012990D01*
X0044546Y0011391D02*
X0043346Y0011391D01*
X0043346Y0009793D02*
X0044546Y0009793D01*
X0045030Y0008194D02*
X0042862Y0008194D01*
X0041526Y0006596D02*
X0046366Y0006596D01*
X0037556Y0017785D02*
X0030335Y0017785D01*
X0032580Y0016187D02*
X0035312Y0016187D01*
X0034593Y0014588D02*
X0033298Y0014588D01*
X0033346Y0012990D02*
X0034546Y0012990D01*
X0034546Y0011391D02*
X0033346Y0011391D01*
X0033346Y0009793D02*
X0034546Y0009793D01*
X0035030Y0008194D02*
X0032862Y0008194D01*
X0031526Y0006596D02*
X0036366Y0006596D01*
X0027877Y0005918D02*
X0026410Y0005918D01*
X0026410Y0006551D01*
X0026453Y0006508D01*
X0027877Y0005918D01*
X0027556Y0017785D02*
X0026410Y0017785D01*
X0026410Y0019384D02*
X0076900Y0019384D01*
X0076900Y0020982D02*
X0026410Y0020982D01*
X0026410Y0022581D02*
X0076900Y0022581D01*
X0069400Y0035369D02*
X0061625Y0035369D01*
X0060027Y0036967D02*
X0069400Y0036967D01*
X0069400Y0038566D02*
X0067005Y0038566D01*
X0066040Y0037600D02*
X0068500Y0040060D01*
X0068500Y0043540D01*
X0066040Y0046000D01*
X0062560Y0046000D01*
X0060100Y0043540D01*
X0060100Y0040060D01*
X0062560Y0037600D01*
X0066040Y0037600D01*
X0068500Y0040164D02*
X0069400Y0040164D01*
X0069400Y0041763D02*
X0068500Y0041763D01*
X0068500Y0043361D02*
X0069345Y0043361D01*
X0067746Y0044960D02*
X0067080Y0044960D01*
X0066148Y0046558D02*
X0059200Y0046558D01*
X0059200Y0044960D02*
X0061520Y0044960D01*
X0060100Y0043361D02*
X0059200Y0043361D01*
X0059200Y0041763D02*
X0060100Y0041763D01*
X0060100Y0040164D02*
X0059200Y0040164D01*
X0059200Y0038566D02*
X0061595Y0038566D01*
X0063215Y0048157D02*
X0059200Y0048157D01*
X0060046Y0049755D02*
X0061054Y0049755D01*
X0060685Y0052952D02*
X0060415Y0052952D01*
X0059396Y0054551D02*
X0061704Y0054551D01*
X0064300Y0051800D02*
X0071800Y0044300D01*
X0068185Y0052952D02*
X0067915Y0052952D01*
X0066896Y0054551D02*
X0069204Y0054551D01*
D16*
X0071800Y0051800D03*
X0064300Y0051800D03*
X0056800Y0051800D03*
X0074300Y0026800D03*
X0081800Y0034300D03*
X0081800Y0041800D03*
X0084300Y0026800D03*
X0071800Y0166800D03*
D17*
X0084300Y0186800D02*
X0089300Y0186800D01*
X0094300Y0181800D01*
X0094300Y0099300D01*
X0091800Y0096800D01*
X0084300Y0096800D01*
X0074300Y0066800D02*
X0079300Y0061800D01*
X0084300Y0061800D01*
X0074300Y0066800D02*
X0014300Y0066800D01*
M02*
