%
M48
M72
T01C0.02362
T02C0.03200
T03C0.03346
T04C0.03740
T05C0.04000
%
T01
X56800Y51800
X64300Y51800
X71800Y51800
X81800Y41800
X81800Y34300
X84300Y26800
X74300Y26800
X71800Y166800
T02
X11072Y30658
X24300Y41800
X51072Y30658
X59300Y26800
X64300Y41800
X99300Y26800
T03
X98946Y11918
X88946Y11918
X78946Y11918
X68946Y11918
X58946Y11918
X48946Y11918
X38946Y11918
X28946Y11918
X28946Y201918
X38946Y201918
X48946Y201918
X58946Y201918
X68946Y201918
X78946Y201918
X18946Y201918
X8946Y201918
T04
X108946Y201918
X108946Y191918
X108946Y181918
X108946Y171918
X108946Y161918
X108946Y151918
X108946Y141918
X108946Y131918
X108946Y121918
X108946Y111918
X108946Y101918
X108946Y91918
X108946Y81918
X108946Y71918
X108946Y61918
X108946Y51918
X108946Y41918
X108946Y31918
X118946Y31918
X118946Y41918
X118946Y51918
X118946Y61918
X118946Y71918
X118946Y81918
X118946Y91918
X118946Y101918
X118946Y111918
X118946Y121918
X118946Y131918
X118946Y141918
X118946Y151918
X118946Y161918
X118946Y171918
X118946Y181918
X118946Y191918
X118946Y201918
T05
X84300Y186800
X84300Y176800
X84300Y166800
X84300Y156800
X84300Y141800
X84300Y131800
X84300Y116800
X84300Y106800
X84300Y96800
X84300Y81800
X84300Y71800
X84300Y61800
X84300Y51800
X14300Y56800
X14300Y66800
X14300Y81800
X14300Y91800
X14300Y101800
X14300Y111800
X14300Y121800
X14300Y131800
X14300Y146800
X14300Y156800
X14300Y166800
X14300Y176800
X14300Y186800
M30
