G75*
%MOIN*%
%OFA0B0*%
%FSLAX25Y25*%
%IPPOS*%
%LPD*%
%AMOC8*
5,1,8,0,0,1.08239X$1,22.5*
%
%ADD10C,0.06000*%
%ADD11OC8,0.06000*%
%ADD12C,0.05000*%
%ADD13C,0.02400*%
%ADD14C,0.04000*%
D10*
X0010500Y0011867D02*
X0010500Y0017867D01*
X0020500Y0017867D02*
X0020500Y0011867D01*
X0030500Y0011867D02*
X0030500Y0017867D01*
X0068000Y0017867D02*
X0068000Y0011867D01*
X0078000Y0011867D02*
X0078000Y0017867D01*
X0088000Y0017867D02*
X0088000Y0011867D01*
X0148000Y0011867D02*
X0148000Y0017867D01*
X0158000Y0017867D02*
X0158000Y0011867D01*
X0168000Y0011867D02*
X0168000Y0017867D01*
X0205500Y0017867D02*
X0205500Y0011867D01*
X0215500Y0011867D02*
X0215500Y0017867D01*
X0225500Y0017867D02*
X0225500Y0011867D01*
X0213000Y0154367D02*
X0213000Y0160367D01*
X0203000Y0160367D02*
X0203000Y0154367D01*
X0193000Y0154367D02*
X0193000Y0160367D01*
X0183000Y0160367D02*
X0183000Y0154367D01*
X0173000Y0154367D02*
X0173000Y0160367D01*
X0168000Y0299367D02*
X0168000Y0305367D01*
X0178000Y0305367D02*
X0178000Y0299367D01*
X0188000Y0299367D02*
X0188000Y0305367D01*
X0198000Y0305367D02*
X0198000Y0299367D01*
X0208000Y0299367D02*
X0208000Y0305367D01*
X0143000Y0305367D02*
X0143000Y0299367D01*
X0133000Y0299367D02*
X0133000Y0305367D01*
X0123000Y0305367D02*
X0123000Y0299367D01*
X0113000Y0299367D02*
X0113000Y0305367D01*
X0103000Y0305367D02*
X0103000Y0299367D01*
X0093000Y0299367D02*
X0093000Y0305367D01*
X0068000Y0305367D02*
X0068000Y0299367D01*
X0058000Y0299367D02*
X0058000Y0305367D01*
X0048000Y0305367D02*
X0048000Y0299367D01*
X0038000Y0299367D02*
X0038000Y0305367D01*
X0028000Y0305367D02*
X0028000Y0299367D01*
X0023000Y0160367D02*
X0023000Y0154367D01*
X0033000Y0154367D02*
X0033000Y0160367D01*
X0043000Y0160367D02*
X0043000Y0154367D01*
X0053000Y0154367D02*
X0053000Y0160367D01*
X0063000Y0160367D02*
X0063000Y0154367D01*
D11*
X0103000Y0157367D03*
X0103000Y0167367D03*
X0103000Y0177367D03*
X0103000Y0187367D03*
X0103000Y0197367D03*
X0103000Y0207367D03*
X0113000Y0207367D03*
X0113000Y0197367D03*
X0113000Y0187367D03*
X0113000Y0177367D03*
X0113000Y0167367D03*
X0113000Y0157367D03*
X0123000Y0157367D03*
X0123000Y0167367D03*
X0123000Y0177367D03*
X0123000Y0187367D03*
X0123000Y0197367D03*
X0123000Y0207367D03*
X0133000Y0207367D03*
X0133000Y0197367D03*
X0133000Y0187367D03*
X0133000Y0177367D03*
X0133000Y0167367D03*
X0133000Y0157367D03*
X0133000Y0062367D03*
X0133000Y0052367D03*
X0133000Y0042367D03*
X0133000Y0032367D03*
X0123000Y0032367D03*
X0123000Y0042367D03*
X0123000Y0052367D03*
X0123000Y0062367D03*
X0113000Y0062367D03*
X0113000Y0052367D03*
X0113000Y0042367D03*
X0113000Y0032367D03*
X0103000Y0032367D03*
X0103000Y0042367D03*
X0103000Y0052367D03*
X0103000Y0062367D03*
X0103000Y0022367D03*
X0103000Y0012367D03*
X0113000Y0012367D03*
X0113000Y0022367D03*
X0123000Y0022367D03*
X0123000Y0012367D03*
X0133000Y0012367D03*
X0133000Y0022367D03*
D12*
X0173000Y0157367D02*
X0173000Y0237367D01*
X0168000Y0242367D01*
X0168000Y0302367D01*
X0143000Y0302367D02*
X0143000Y0312367D01*
X0203000Y0312367D01*
X0208000Y0307367D01*
X0208000Y0302367D01*
X0208000Y0244867D01*
X0213000Y0239867D01*
X0213000Y0157367D01*
X0143000Y0312367D02*
X0073000Y0312367D01*
X0068000Y0307367D01*
X0068000Y0302367D01*
X0068000Y0242367D01*
X0063000Y0237367D01*
X0063000Y0157367D01*
X0023000Y0157367D02*
X0023000Y0237367D01*
X0028000Y0242367D01*
X0028000Y0302367D01*
D13*
X0098000Y0217367D02*
X0093000Y0212367D01*
X0093000Y0019867D01*
X0100500Y0012367D01*
X0103000Y0012367D01*
X0113000Y0012367D01*
X0113000Y0022367D02*
X0103000Y0022367D01*
X0103000Y0032367D02*
X0113000Y0032367D01*
X0113000Y0042367D02*
X0103000Y0042367D01*
X0103000Y0052367D02*
X0113000Y0052367D01*
X0113000Y0062367D02*
X0103000Y0062367D01*
X0123000Y0062367D02*
X0133000Y0062367D01*
X0133000Y0052367D02*
X0123000Y0052367D01*
X0123000Y0042367D02*
X0133000Y0042367D01*
X0133000Y0032367D02*
X0123000Y0032367D01*
X0123000Y0022367D02*
X0133000Y0022367D01*
X0133000Y0012367D02*
X0123000Y0012367D01*
X0133000Y0012367D02*
X0135500Y0012367D01*
X0143000Y0019867D01*
X0143000Y0212367D01*
X0138000Y0217367D01*
X0128000Y0217367D01*
X0123000Y0222367D01*
X0123000Y0302367D01*
X0113000Y0302367D02*
X0113000Y0222367D01*
X0108000Y0217367D01*
X0098000Y0217367D01*
X0103000Y0207367D02*
X0113000Y0207367D01*
X0113000Y0197367D02*
X0103000Y0197367D01*
X0103000Y0187367D02*
X0113000Y0187367D01*
X0113000Y0177367D02*
X0103000Y0177367D01*
X0103000Y0167367D02*
X0113000Y0167367D01*
X0113000Y0157367D02*
X0103000Y0157367D01*
X0123000Y0157367D02*
X0133000Y0157367D01*
X0133000Y0167367D02*
X0123000Y0167367D01*
X0123000Y0177367D02*
X0133000Y0177367D01*
X0133000Y0187367D02*
X0123000Y0187367D01*
X0123000Y0197367D02*
X0133000Y0197367D01*
X0133000Y0207367D02*
X0123000Y0207367D01*
D14*
X0127202Y0211367D02*
X0125402Y0213167D01*
X0120598Y0213167D01*
X0118000Y0210569D01*
X0115402Y0213167D01*
X0110598Y0213167D01*
X0108798Y0211367D01*
X0107202Y0211367D01*
X0105402Y0213167D01*
X0100598Y0213167D01*
X0097200Y0209769D01*
X0097200Y0204964D01*
X0099798Y0202367D01*
X0097200Y0199769D01*
X0097200Y0194964D01*
X0099798Y0192367D01*
X0097200Y0189769D01*
X0097200Y0184964D01*
X0099798Y0182367D01*
X0097200Y0179769D01*
X0097200Y0174964D01*
X0099798Y0172367D01*
X0097200Y0169769D01*
X0097200Y0164964D01*
X0099798Y0162367D01*
X0097200Y0159769D01*
X0097200Y0154964D01*
X0100598Y0151567D01*
X0105402Y0151567D01*
X0107202Y0153367D01*
X0108798Y0153367D01*
X0110598Y0151567D01*
X0115402Y0151567D01*
X0118000Y0154164D01*
X0120598Y0151567D01*
X0125402Y0151567D01*
X0127202Y0153367D01*
X0128798Y0153367D01*
X0130598Y0151567D01*
X0135402Y0151567D01*
X0138800Y0154964D01*
X0138800Y0159769D01*
X0136202Y0162367D01*
X0138800Y0164964D01*
X0138800Y0169769D01*
X0136202Y0172367D01*
X0138800Y0174964D01*
X0138800Y0179769D01*
X0136202Y0182367D01*
X0138800Y0184964D01*
X0138800Y0189769D01*
X0136202Y0192367D01*
X0138800Y0194964D01*
X0138800Y0199769D01*
X0136202Y0202367D01*
X0138800Y0204964D01*
X0138800Y0209769D01*
X0135402Y0213167D01*
X0130598Y0213167D01*
X0128798Y0211367D01*
X0127202Y0211367D01*
X0127204Y0213367D02*
X0136343Y0213367D01*
X0139000Y0210710D01*
X0139000Y0021524D01*
X0138800Y0021323D01*
X0138800Y0024769D01*
X0136202Y0027367D01*
X0138800Y0029964D01*
X0138800Y0034769D01*
X0136202Y0037367D01*
X0138800Y0039964D01*
X0138800Y0044769D01*
X0136202Y0047367D01*
X0138800Y0049964D01*
X0138800Y0054769D01*
X0136202Y0057367D01*
X0138800Y0059964D01*
X0138800Y0064769D01*
X0135402Y0068167D01*
X0130598Y0068167D01*
X0128798Y0066367D01*
X0127202Y0066367D01*
X0125402Y0068167D01*
X0120598Y0068167D01*
X0118000Y0065569D01*
X0115402Y0068167D01*
X0110598Y0068167D01*
X0108798Y0066367D01*
X0107202Y0066367D01*
X0105402Y0068167D01*
X0100598Y0068167D01*
X0097200Y0064769D01*
X0097200Y0059964D01*
X0099798Y0057367D01*
X0097200Y0054769D01*
X0097200Y0049964D01*
X0099798Y0047367D01*
X0097200Y0044769D01*
X0097200Y0039964D01*
X0099798Y0037367D01*
X0097200Y0034769D01*
X0097200Y0029964D01*
X0099798Y0027367D01*
X0097200Y0024769D01*
X0097200Y0021323D01*
X0097000Y0021524D01*
X0097000Y0210710D01*
X0099657Y0213367D01*
X0108796Y0213367D01*
X0110266Y0213976D01*
X0111391Y0215101D01*
X0116391Y0220101D01*
X0117000Y0221571D01*
X0117000Y0295164D01*
X0117917Y0296081D01*
X0118000Y0296282D01*
X0118083Y0296081D01*
X0119000Y0295164D01*
X0119000Y0221571D01*
X0119609Y0220101D01*
X0124609Y0215101D01*
X0125734Y0213976D01*
X0127204Y0213367D01*
X0124421Y0215289D02*
X0111579Y0215289D01*
X0115578Y0219288D02*
X0120422Y0219288D01*
X0119000Y0223286D02*
X0117000Y0223286D01*
X0117000Y0227285D02*
X0119000Y0227285D01*
X0119000Y0231283D02*
X0117000Y0231283D01*
X0117000Y0235282D02*
X0119000Y0235282D01*
X0119000Y0239280D02*
X0117000Y0239280D01*
X0117000Y0243279D02*
X0119000Y0243279D01*
X0119000Y0247277D02*
X0117000Y0247277D01*
X0117000Y0251276D02*
X0119000Y0251276D01*
X0119000Y0255274D02*
X0117000Y0255274D01*
X0117000Y0259273D02*
X0119000Y0259273D01*
X0119000Y0263271D02*
X0117000Y0263271D01*
X0117000Y0267270D02*
X0119000Y0267270D01*
X0119000Y0271268D02*
X0117000Y0271268D01*
X0117000Y0275267D02*
X0119000Y0275267D01*
X0119000Y0279265D02*
X0117000Y0279265D01*
X0117000Y0283264D02*
X0119000Y0283264D01*
X0119000Y0287262D02*
X0117000Y0287262D01*
X0117000Y0291261D02*
X0119000Y0291261D01*
X0118905Y0295259D02*
X0117095Y0295259D01*
X0109000Y0295164D02*
X0109000Y0224024D01*
X0106343Y0221367D01*
X0097204Y0221367D01*
X0095734Y0220758D01*
X0094609Y0219632D01*
X0090734Y0215758D01*
X0089609Y0214632D01*
X0089000Y0213162D01*
X0089000Y0023667D01*
X0086846Y0023667D01*
X0084715Y0022784D01*
X0083083Y0021152D01*
X0083000Y0020952D01*
X0082917Y0021152D01*
X0081285Y0022784D01*
X0079154Y0023667D01*
X0076846Y0023667D01*
X0074715Y0022784D01*
X0073083Y0021152D01*
X0073000Y0020952D01*
X0072917Y0021152D01*
X0071285Y0022784D01*
X0069154Y0023667D01*
X0066846Y0023667D01*
X0064715Y0022784D01*
X0063083Y0021152D01*
X0062200Y0019020D01*
X0062200Y0010867D01*
X0058846Y0010867D01*
X0059512Y0013351D01*
X0059512Y0016382D01*
X0058727Y0019310D01*
X0057212Y0021935D01*
X0055068Y0024078D01*
X0052443Y0025594D01*
X0049516Y0026378D01*
X0046484Y0026378D01*
X0043557Y0025594D01*
X0040932Y0024078D01*
X0038788Y0021935D01*
X0037273Y0019310D01*
X0036488Y0016382D01*
X0036488Y0013351D01*
X0037154Y0010867D01*
X0036300Y0010867D01*
X0036300Y0019020D01*
X0035417Y0021152D01*
X0033785Y0022784D01*
X0031654Y0023667D01*
X0029346Y0023667D01*
X0027215Y0022784D01*
X0025583Y0021152D01*
X0025500Y0020952D01*
X0025417Y0021152D01*
X0023785Y0022784D01*
X0021654Y0023667D01*
X0019346Y0023667D01*
X0017215Y0022784D01*
X0015583Y0021152D01*
X0015500Y0020952D01*
X0015417Y0021152D01*
X0013785Y0022784D01*
X0011654Y0023667D01*
X0009346Y0023667D01*
X0009000Y0023523D01*
X0009000Y0299021D01*
X0011484Y0298355D01*
X0014516Y0298355D01*
X0017443Y0299139D01*
X0020068Y0300655D01*
X0022200Y0302787D01*
X0022200Y0298213D01*
X0022700Y0297006D01*
X0022700Y0244562D01*
X0018507Y0240369D01*
X0017700Y0238421D01*
X0017700Y0162727D01*
X0017200Y0161520D01*
X0017200Y0153213D01*
X0018083Y0151081D01*
X0019715Y0149450D01*
X0021846Y0148567D01*
X0024154Y0148567D01*
X0026285Y0149450D01*
X0027917Y0151081D01*
X0028000Y0151282D01*
X0028083Y0151081D01*
X0029715Y0149450D01*
X0031846Y0148567D01*
X0034154Y0148567D01*
X0036285Y0149450D01*
X0037917Y0151081D01*
X0038000Y0151282D01*
X0038083Y0151081D01*
X0039715Y0149450D01*
X0041846Y0148567D01*
X0044154Y0148567D01*
X0046285Y0149450D01*
X0047917Y0151081D01*
X0048000Y0151282D01*
X0048083Y0151081D01*
X0049715Y0149450D01*
X0051846Y0148567D01*
X0054154Y0148567D01*
X0056285Y0149450D01*
X0057917Y0151081D01*
X0058000Y0151282D01*
X0058083Y0151081D01*
X0059715Y0149450D01*
X0061846Y0148567D01*
X0064154Y0148567D01*
X0066285Y0149450D01*
X0067917Y0151081D01*
X0068800Y0153213D01*
X0068800Y0161520D01*
X0068300Y0162727D01*
X0068300Y0235171D01*
X0071002Y0237874D01*
X0072493Y0239364D01*
X0073300Y0241312D01*
X0073300Y0297006D01*
X0073800Y0298213D01*
X0073800Y0305671D01*
X0075195Y0307067D01*
X0087426Y0307067D01*
X0087200Y0306520D01*
X0087200Y0298213D01*
X0088083Y0296081D01*
X0089715Y0294450D01*
X0091846Y0293567D01*
X0094154Y0293567D01*
X0096285Y0294450D01*
X0097917Y0296081D01*
X0098000Y0296282D01*
X0098083Y0296081D01*
X0099715Y0294450D01*
X0101846Y0293567D01*
X0104154Y0293567D01*
X0106285Y0294450D01*
X0107917Y0296081D01*
X0108000Y0296282D01*
X0108083Y0296081D01*
X0109000Y0295164D01*
X0108905Y0295259D02*
X0107095Y0295259D01*
X0109000Y0291261D02*
X0073300Y0291261D01*
X0073300Y0295259D02*
X0088905Y0295259D01*
X0087200Y0299258D02*
X0073800Y0299258D01*
X0073800Y0303256D02*
X0087200Y0303256D01*
X0097095Y0295259D02*
X0098905Y0295259D01*
X0109000Y0287262D02*
X0073300Y0287262D01*
X0073300Y0283264D02*
X0109000Y0283264D01*
X0109000Y0279265D02*
X0073300Y0279265D01*
X0073300Y0275267D02*
X0109000Y0275267D01*
X0109000Y0271268D02*
X0073300Y0271268D01*
X0073300Y0267270D02*
X0109000Y0267270D01*
X0109000Y0263271D02*
X0073300Y0263271D01*
X0073300Y0259273D02*
X0109000Y0259273D01*
X0109000Y0255274D02*
X0073300Y0255274D01*
X0073300Y0251276D02*
X0109000Y0251276D01*
X0109000Y0247277D02*
X0073300Y0247277D01*
X0073300Y0243279D02*
X0109000Y0243279D01*
X0109000Y0239280D02*
X0072409Y0239280D01*
X0068410Y0235282D02*
X0109000Y0235282D01*
X0109000Y0231283D02*
X0068300Y0231283D01*
X0068300Y0227285D02*
X0109000Y0227285D01*
X0108263Y0223286D02*
X0068300Y0223286D01*
X0068300Y0219288D02*
X0094264Y0219288D01*
X0094609Y0219632D02*
X0094609Y0219632D01*
X0090266Y0215289D02*
X0068300Y0215289D01*
X0068300Y0211291D02*
X0089000Y0211291D01*
X0089000Y0207292D02*
X0068300Y0207292D01*
X0068300Y0203294D02*
X0089000Y0203294D01*
X0089000Y0199295D02*
X0068300Y0199295D01*
X0068300Y0195297D02*
X0089000Y0195297D01*
X0089000Y0191298D02*
X0068300Y0191298D01*
X0068300Y0187300D02*
X0089000Y0187300D01*
X0089000Y0183301D02*
X0068300Y0183301D01*
X0068300Y0179303D02*
X0089000Y0179303D01*
X0089000Y0175304D02*
X0068300Y0175304D01*
X0068300Y0171306D02*
X0089000Y0171306D01*
X0089000Y0167307D02*
X0068300Y0167307D01*
X0068300Y0163309D02*
X0089000Y0163309D01*
X0089000Y0159310D02*
X0068800Y0159310D01*
X0068800Y0155312D02*
X0089000Y0155312D01*
X0089000Y0151313D02*
X0068013Y0151313D01*
X0057700Y0163869D02*
X0056285Y0165284D01*
X0054154Y0166167D01*
X0051846Y0166167D01*
X0049715Y0165284D01*
X0048083Y0163652D01*
X0048000Y0163452D01*
X0047917Y0163652D01*
X0046285Y0165284D01*
X0044154Y0166167D01*
X0041846Y0166167D01*
X0039715Y0165284D01*
X0038083Y0163652D01*
X0038000Y0163452D01*
X0037917Y0163652D01*
X0036285Y0165284D01*
X0034154Y0166167D01*
X0031846Y0166167D01*
X0029715Y0165284D01*
X0028300Y0163869D01*
X0028300Y0235171D01*
X0032493Y0239364D01*
X0033300Y0241312D01*
X0033300Y0295864D01*
X0034715Y0294450D01*
X0036846Y0293567D01*
X0039154Y0293567D01*
X0041285Y0294450D01*
X0042917Y0296081D01*
X0043000Y0296282D01*
X0043083Y0296081D01*
X0044715Y0294450D01*
X0046846Y0293567D01*
X0049154Y0293567D01*
X0051285Y0294450D01*
X0052917Y0296081D01*
X0053000Y0296282D01*
X0053083Y0296081D01*
X0054715Y0294450D01*
X0056846Y0293567D01*
X0059154Y0293567D01*
X0061285Y0294450D01*
X0062700Y0295864D01*
X0062700Y0244562D01*
X0058507Y0240369D01*
X0057700Y0238421D01*
X0057700Y0163869D01*
X0057700Y0167307D02*
X0028300Y0167307D01*
X0028300Y0171306D02*
X0057700Y0171306D01*
X0057700Y0175304D02*
X0028300Y0175304D01*
X0028300Y0179303D02*
X0057700Y0179303D01*
X0057700Y0183301D02*
X0028300Y0183301D01*
X0028300Y0187300D02*
X0057700Y0187300D01*
X0057700Y0191298D02*
X0028300Y0191298D01*
X0028300Y0195297D02*
X0057700Y0195297D01*
X0057700Y0199295D02*
X0028300Y0199295D01*
X0028300Y0203294D02*
X0057700Y0203294D01*
X0057700Y0207292D02*
X0028300Y0207292D01*
X0028300Y0211291D02*
X0057700Y0211291D01*
X0057700Y0215289D02*
X0028300Y0215289D01*
X0028300Y0219288D02*
X0057700Y0219288D01*
X0057700Y0223286D02*
X0028300Y0223286D01*
X0028300Y0227285D02*
X0057700Y0227285D01*
X0057700Y0231283D02*
X0028300Y0231283D01*
X0028410Y0235282D02*
X0057700Y0235282D01*
X0058056Y0239280D02*
X0032409Y0239280D01*
X0033300Y0243279D02*
X0061417Y0243279D01*
X0062700Y0247277D02*
X0033300Y0247277D01*
X0033300Y0251276D02*
X0062700Y0251276D01*
X0062700Y0255274D02*
X0033300Y0255274D01*
X0033300Y0259273D02*
X0062700Y0259273D01*
X0062700Y0263271D02*
X0033300Y0263271D01*
X0033300Y0267270D02*
X0062700Y0267270D01*
X0062700Y0271268D02*
X0033300Y0271268D01*
X0033300Y0275267D02*
X0062700Y0275267D01*
X0062700Y0279265D02*
X0033300Y0279265D01*
X0033300Y0283264D02*
X0062700Y0283264D01*
X0062700Y0287262D02*
X0033300Y0287262D01*
X0033300Y0291261D02*
X0062700Y0291261D01*
X0062700Y0295259D02*
X0062095Y0295259D01*
X0053905Y0295259D02*
X0052095Y0295259D01*
X0043905Y0295259D02*
X0042095Y0295259D01*
X0033905Y0295259D02*
X0033300Y0295259D01*
X0033000Y0308452D02*
X0032917Y0308652D01*
X0031285Y0310284D01*
X0029154Y0311167D01*
X0026846Y0311167D01*
X0024715Y0310284D01*
X0024512Y0310081D01*
X0024512Y0311382D01*
X0023857Y0313827D01*
X0066965Y0313827D01*
X0063507Y0310369D01*
X0062831Y0308738D01*
X0061285Y0310284D01*
X0059154Y0311167D01*
X0056846Y0311167D01*
X0054715Y0310284D01*
X0053083Y0308652D01*
X0053000Y0308452D01*
X0052917Y0308652D01*
X0051285Y0310284D01*
X0049154Y0311167D01*
X0046846Y0311167D01*
X0044715Y0310284D01*
X0043083Y0308652D01*
X0043000Y0308452D01*
X0042917Y0308652D01*
X0041285Y0310284D01*
X0039154Y0311167D01*
X0036846Y0311167D01*
X0034715Y0310284D01*
X0033083Y0308652D01*
X0033000Y0308452D01*
X0024512Y0311254D02*
X0064392Y0311254D01*
X0022200Y0299258D02*
X0017649Y0299258D01*
X0022700Y0295259D02*
X0009000Y0295259D01*
X0009000Y0291261D02*
X0022700Y0291261D01*
X0022700Y0287262D02*
X0009000Y0287262D01*
X0009000Y0283264D02*
X0022700Y0283264D01*
X0022700Y0279265D02*
X0009000Y0279265D01*
X0009000Y0275267D02*
X0022700Y0275267D01*
X0022700Y0271268D02*
X0009000Y0271268D01*
X0009000Y0267270D02*
X0022700Y0267270D01*
X0022700Y0263271D02*
X0009000Y0263271D01*
X0009000Y0259273D02*
X0022700Y0259273D01*
X0022700Y0255274D02*
X0009000Y0255274D01*
X0009000Y0251276D02*
X0022700Y0251276D01*
X0022700Y0247277D02*
X0009000Y0247277D01*
X0009000Y0243279D02*
X0021417Y0243279D01*
X0018056Y0239280D02*
X0009000Y0239280D01*
X0009000Y0235282D02*
X0017700Y0235282D01*
X0017700Y0231283D02*
X0009000Y0231283D01*
X0009000Y0227285D02*
X0017700Y0227285D01*
X0017700Y0223286D02*
X0009000Y0223286D01*
X0009000Y0219288D02*
X0017700Y0219288D01*
X0017700Y0215289D02*
X0009000Y0215289D01*
X0009000Y0211291D02*
X0017700Y0211291D01*
X0017700Y0207292D02*
X0009000Y0207292D01*
X0009000Y0203294D02*
X0017700Y0203294D01*
X0017700Y0199295D02*
X0009000Y0199295D01*
X0009000Y0195297D02*
X0017700Y0195297D01*
X0017700Y0191298D02*
X0009000Y0191298D01*
X0009000Y0187300D02*
X0017700Y0187300D01*
X0017700Y0183301D02*
X0009000Y0183301D01*
X0009000Y0179303D02*
X0017700Y0179303D01*
X0017700Y0175304D02*
X0009000Y0175304D01*
X0009000Y0171306D02*
X0017700Y0171306D01*
X0017700Y0167307D02*
X0009000Y0167307D01*
X0009000Y0163309D02*
X0017700Y0163309D01*
X0017200Y0159310D02*
X0009000Y0159310D01*
X0009000Y0155312D02*
X0017200Y0155312D01*
X0017987Y0151313D02*
X0009000Y0151313D01*
X0009000Y0147315D02*
X0089000Y0147315D01*
X0089000Y0143316D02*
X0009000Y0143316D01*
X0009000Y0139318D02*
X0089000Y0139318D01*
X0089000Y0135319D02*
X0009000Y0135319D01*
X0009000Y0131321D02*
X0089000Y0131321D01*
X0089000Y0127322D02*
X0009000Y0127322D01*
X0009000Y0123323D02*
X0089000Y0123323D01*
X0089000Y0119325D02*
X0009000Y0119325D01*
X0009000Y0115326D02*
X0089000Y0115326D01*
X0089000Y0111328D02*
X0009000Y0111328D01*
X0009000Y0107329D02*
X0089000Y0107329D01*
X0089000Y0103331D02*
X0009000Y0103331D01*
X0009000Y0099332D02*
X0089000Y0099332D01*
X0089000Y0095334D02*
X0009000Y0095334D01*
X0009000Y0091335D02*
X0089000Y0091335D01*
X0089000Y0087337D02*
X0009000Y0087337D01*
X0009000Y0083338D02*
X0089000Y0083338D01*
X0089000Y0079340D02*
X0009000Y0079340D01*
X0009000Y0075341D02*
X0089000Y0075341D01*
X0089000Y0071343D02*
X0009000Y0071343D01*
X0009000Y0067344D02*
X0089000Y0067344D01*
X0089000Y0063346D02*
X0009000Y0063346D01*
X0009000Y0059347D02*
X0089000Y0059347D01*
X0089000Y0055349D02*
X0009000Y0055349D01*
X0009000Y0051350D02*
X0089000Y0051350D01*
X0089000Y0047352D02*
X0009000Y0047352D01*
X0009000Y0043353D02*
X0089000Y0043353D01*
X0089000Y0039355D02*
X0009000Y0039355D01*
X0009000Y0035356D02*
X0089000Y0035356D01*
X0089000Y0031358D02*
X0009000Y0031358D01*
X0009000Y0027359D02*
X0089000Y0027359D01*
X0086108Y0023361D02*
X0079892Y0023361D01*
X0076108Y0023361D02*
X0069892Y0023361D01*
X0066108Y0023361D02*
X0055786Y0023361D01*
X0058697Y0019362D02*
X0062342Y0019362D01*
X0062200Y0015364D02*
X0059512Y0015364D01*
X0058980Y0011365D02*
X0062200Y0011365D01*
X0040214Y0023361D02*
X0032392Y0023361D01*
X0028608Y0023361D02*
X0022392Y0023361D01*
X0018608Y0023361D02*
X0012392Y0023361D01*
X0036158Y0019362D02*
X0037303Y0019362D01*
X0036488Y0015364D02*
X0036300Y0015364D01*
X0036300Y0011365D02*
X0037020Y0011365D01*
X0093800Y0011365D02*
X0095845Y0011365D01*
X0096343Y0010867D02*
X0093800Y0010867D01*
X0093800Y0013410D01*
X0096343Y0010867D01*
X0097000Y0023361D02*
X0097200Y0023361D01*
X0097000Y0027359D02*
X0099790Y0027359D01*
X0097200Y0031358D02*
X0097000Y0031358D01*
X0097000Y0035356D02*
X0097787Y0035356D01*
X0097809Y0039355D02*
X0097000Y0039355D01*
X0097000Y0043353D02*
X0097200Y0043353D01*
X0097000Y0047352D02*
X0099783Y0047352D01*
X0097200Y0051350D02*
X0097000Y0051350D01*
X0097000Y0055349D02*
X0097780Y0055349D01*
X0097817Y0059347D02*
X0097000Y0059347D01*
X0097000Y0063346D02*
X0097200Y0063346D01*
X0097000Y0067344D02*
X0099775Y0067344D01*
X0097000Y0071343D02*
X0139000Y0071343D01*
X0139000Y0075341D02*
X0097000Y0075341D01*
X0097000Y0079340D02*
X0139000Y0079340D01*
X0139000Y0083338D02*
X0097000Y0083338D01*
X0097000Y0087337D02*
X0139000Y0087337D01*
X0139000Y0091335D02*
X0097000Y0091335D01*
X0097000Y0095334D02*
X0139000Y0095334D01*
X0139000Y0099332D02*
X0097000Y0099332D01*
X0097000Y0103331D02*
X0139000Y0103331D01*
X0139000Y0107329D02*
X0097000Y0107329D01*
X0097000Y0111328D02*
X0139000Y0111328D01*
X0139000Y0115326D02*
X0097000Y0115326D01*
X0097000Y0119325D02*
X0139000Y0119325D01*
X0139000Y0123323D02*
X0097000Y0123323D01*
X0097000Y0127322D02*
X0139000Y0127322D01*
X0139000Y0131321D02*
X0097000Y0131321D01*
X0097000Y0135319D02*
X0139000Y0135319D01*
X0139000Y0139318D02*
X0097000Y0139318D01*
X0097000Y0143316D02*
X0139000Y0143316D01*
X0139000Y0147315D02*
X0097000Y0147315D01*
X0097000Y0151313D02*
X0139000Y0151313D01*
X0139000Y0155312D02*
X0138800Y0155312D01*
X0138800Y0159310D02*
X0139000Y0159310D01*
X0139000Y0163309D02*
X0137144Y0163309D01*
X0138800Y0167307D02*
X0139000Y0167307D01*
X0139000Y0171306D02*
X0137263Y0171306D01*
X0138800Y0175304D02*
X0139000Y0175304D01*
X0139000Y0179303D02*
X0138800Y0179303D01*
X0139000Y0183301D02*
X0137137Y0183301D01*
X0138800Y0187300D02*
X0139000Y0187300D01*
X0139000Y0191298D02*
X0137271Y0191298D01*
X0138800Y0195297D02*
X0139000Y0195297D01*
X0139000Y0199295D02*
X0138800Y0199295D01*
X0139000Y0203294D02*
X0137129Y0203294D01*
X0138800Y0207292D02*
X0139000Y0207292D01*
X0138419Y0211291D02*
X0137278Y0211291D01*
X0141736Y0219288D02*
X0167700Y0219288D01*
X0167700Y0215289D02*
X0145734Y0215289D01*
X0146391Y0214632D02*
X0140266Y0220758D01*
X0138796Y0221367D01*
X0129657Y0221367D01*
X0127000Y0224024D01*
X0127000Y0295164D01*
X0127917Y0296081D01*
X0128000Y0296282D01*
X0128083Y0296081D01*
X0129715Y0294450D01*
X0131846Y0293567D01*
X0134154Y0293567D01*
X0136285Y0294450D01*
X0137917Y0296081D01*
X0138000Y0296282D01*
X0138083Y0296081D01*
X0139715Y0294450D01*
X0141846Y0293567D01*
X0144154Y0293567D01*
X0146285Y0294450D01*
X0147917Y0296081D01*
X0148800Y0298213D01*
X0148800Y0306520D01*
X0148574Y0307067D01*
X0162426Y0307067D01*
X0162200Y0306520D01*
X0162200Y0298213D01*
X0162700Y0297006D01*
X0162700Y0241312D01*
X0163507Y0239364D01*
X0167700Y0235171D01*
X0167700Y0162727D01*
X0167200Y0161520D01*
X0167200Y0153213D01*
X0168083Y0151081D01*
X0169715Y0149450D01*
X0171846Y0148567D01*
X0174154Y0148567D01*
X0176285Y0149450D01*
X0177917Y0151081D01*
X0178000Y0151282D01*
X0178083Y0151081D01*
X0179715Y0149450D01*
X0181846Y0148567D01*
X0184154Y0148567D01*
X0186285Y0149450D01*
X0187917Y0151081D01*
X0188000Y0151282D01*
X0188083Y0151081D01*
X0189715Y0149450D01*
X0191846Y0148567D01*
X0194154Y0148567D01*
X0196285Y0149450D01*
X0197917Y0151081D01*
X0198000Y0151282D01*
X0198083Y0151081D01*
X0199715Y0149450D01*
X0201846Y0148567D01*
X0204154Y0148567D01*
X0206285Y0149450D01*
X0207917Y0151081D01*
X0208000Y0151282D01*
X0208083Y0151081D01*
X0209715Y0149450D01*
X0211846Y0148567D01*
X0214154Y0148567D01*
X0216285Y0149450D01*
X0217917Y0151081D01*
X0218800Y0153213D01*
X0218800Y0161520D01*
X0218300Y0162727D01*
X0218300Y0240921D01*
X0217493Y0242869D01*
X0213300Y0247062D01*
X0213300Y0297006D01*
X0213800Y0298213D01*
X0213800Y0302787D01*
X0215932Y0300655D01*
X0218557Y0299139D01*
X0221484Y0298355D01*
X0224516Y0298355D01*
X0226951Y0299007D01*
X0226951Y0023544D01*
X0226654Y0023667D01*
X0224346Y0023667D01*
X0222215Y0022784D01*
X0220583Y0021152D01*
X0220500Y0020952D01*
X0220417Y0021152D01*
X0218785Y0022784D01*
X0216654Y0023667D01*
X0214346Y0023667D01*
X0212215Y0022784D01*
X0210583Y0021152D01*
X0210500Y0020952D01*
X0210417Y0021152D01*
X0208785Y0022784D01*
X0206654Y0023667D01*
X0204346Y0023667D01*
X0202215Y0022784D01*
X0200583Y0021152D01*
X0199700Y0019020D01*
X0199700Y0010867D01*
X0198846Y0010867D01*
X0199512Y0013351D01*
X0199512Y0016382D01*
X0198727Y0019310D01*
X0197212Y0021935D01*
X0195068Y0024078D01*
X0192443Y0025594D01*
X0189516Y0026378D01*
X0186484Y0026378D01*
X0183557Y0025594D01*
X0180932Y0024078D01*
X0178788Y0021935D01*
X0177273Y0019310D01*
X0176488Y0016382D01*
X0176488Y0013351D01*
X0177154Y0010867D01*
X0173800Y0010867D01*
X0173800Y0019020D01*
X0172917Y0021152D01*
X0171285Y0022784D01*
X0169154Y0023667D01*
X0166846Y0023667D01*
X0164715Y0022784D01*
X0163083Y0021152D01*
X0163000Y0020952D01*
X0162917Y0021152D01*
X0161285Y0022784D01*
X0159154Y0023667D01*
X0156846Y0023667D01*
X0154715Y0022784D01*
X0153083Y0021152D01*
X0153000Y0020952D01*
X0152917Y0021152D01*
X0151285Y0022784D01*
X0149154Y0023667D01*
X0147000Y0023667D01*
X0147000Y0213162D01*
X0146391Y0214632D01*
X0147000Y0211291D02*
X0167700Y0211291D01*
X0167700Y0207292D02*
X0147000Y0207292D01*
X0147000Y0203294D02*
X0167700Y0203294D01*
X0167700Y0199295D02*
X0147000Y0199295D01*
X0147000Y0195297D02*
X0167700Y0195297D01*
X0167700Y0191298D02*
X0147000Y0191298D01*
X0147000Y0187300D02*
X0167700Y0187300D01*
X0167700Y0183301D02*
X0147000Y0183301D01*
X0147000Y0179303D02*
X0167700Y0179303D01*
X0167700Y0175304D02*
X0147000Y0175304D01*
X0147000Y0171306D02*
X0167700Y0171306D01*
X0167700Y0167307D02*
X0147000Y0167307D01*
X0147000Y0163309D02*
X0167700Y0163309D01*
X0167200Y0159310D02*
X0147000Y0159310D01*
X0147000Y0155312D02*
X0167200Y0155312D01*
X0167987Y0151313D02*
X0147000Y0151313D01*
X0147000Y0147315D02*
X0226951Y0147315D01*
X0226951Y0151313D02*
X0218013Y0151313D01*
X0218800Y0155312D02*
X0226951Y0155312D01*
X0226951Y0159310D02*
X0218800Y0159310D01*
X0218300Y0163309D02*
X0226951Y0163309D01*
X0226951Y0167307D02*
X0218300Y0167307D01*
X0218300Y0171306D02*
X0226951Y0171306D01*
X0226951Y0175304D02*
X0218300Y0175304D01*
X0218300Y0179303D02*
X0226951Y0179303D01*
X0226951Y0183301D02*
X0218300Y0183301D01*
X0218300Y0187300D02*
X0226951Y0187300D01*
X0226951Y0191298D02*
X0218300Y0191298D01*
X0218300Y0195297D02*
X0226951Y0195297D01*
X0226951Y0199295D02*
X0218300Y0199295D01*
X0218300Y0203294D02*
X0226951Y0203294D01*
X0226951Y0207292D02*
X0218300Y0207292D01*
X0218300Y0211291D02*
X0226951Y0211291D01*
X0226951Y0215289D02*
X0218300Y0215289D01*
X0218300Y0219288D02*
X0226951Y0219288D01*
X0226951Y0223286D02*
X0218300Y0223286D01*
X0218300Y0227285D02*
X0226951Y0227285D01*
X0226951Y0231283D02*
X0218300Y0231283D01*
X0218300Y0235282D02*
X0226951Y0235282D01*
X0226951Y0239280D02*
X0218300Y0239280D01*
X0217083Y0243279D02*
X0226951Y0243279D01*
X0226951Y0247277D02*
X0213300Y0247277D01*
X0213300Y0251276D02*
X0226951Y0251276D01*
X0226951Y0255274D02*
X0213300Y0255274D01*
X0213300Y0259273D02*
X0226951Y0259273D01*
X0226951Y0263271D02*
X0213300Y0263271D01*
X0213300Y0267270D02*
X0226951Y0267270D01*
X0226951Y0271268D02*
X0213300Y0271268D01*
X0213300Y0275267D02*
X0226951Y0275267D01*
X0226951Y0279265D02*
X0213300Y0279265D01*
X0213300Y0283264D02*
X0226951Y0283264D01*
X0226951Y0287262D02*
X0213300Y0287262D01*
X0213300Y0291261D02*
X0226951Y0291261D01*
X0226951Y0295259D02*
X0213300Y0295259D01*
X0213800Y0299258D02*
X0218351Y0299258D01*
X0211488Y0311374D02*
X0211002Y0311860D01*
X0209035Y0313827D01*
X0212143Y0313827D01*
X0211488Y0311382D01*
X0211488Y0311374D01*
X0202700Y0295864D02*
X0202700Y0243812D01*
X0203507Y0241864D01*
X0207700Y0237671D01*
X0207700Y0163869D01*
X0206285Y0165284D01*
X0204154Y0166167D01*
X0201846Y0166167D01*
X0199715Y0165284D01*
X0198083Y0163652D01*
X0198000Y0163452D01*
X0197917Y0163652D01*
X0196285Y0165284D01*
X0194154Y0166167D01*
X0191846Y0166167D01*
X0189715Y0165284D01*
X0188083Y0163652D01*
X0188000Y0163452D01*
X0187917Y0163652D01*
X0186285Y0165284D01*
X0184154Y0166167D01*
X0181846Y0166167D01*
X0179715Y0165284D01*
X0178300Y0163869D01*
X0178300Y0238421D01*
X0177493Y0240369D01*
X0176002Y0241860D01*
X0173300Y0244562D01*
X0173300Y0295864D01*
X0174715Y0294450D01*
X0176846Y0293567D01*
X0179154Y0293567D01*
X0181285Y0294450D01*
X0182917Y0296081D01*
X0183000Y0296282D01*
X0183083Y0296081D01*
X0184715Y0294450D01*
X0186846Y0293567D01*
X0189154Y0293567D01*
X0191285Y0294450D01*
X0192917Y0296081D01*
X0193000Y0296282D01*
X0193083Y0296081D01*
X0194715Y0294450D01*
X0196846Y0293567D01*
X0199154Y0293567D01*
X0201285Y0294450D01*
X0202700Y0295864D01*
X0202700Y0295259D02*
X0202095Y0295259D01*
X0202700Y0291261D02*
X0173300Y0291261D01*
X0173300Y0295259D02*
X0173905Y0295259D01*
X0173300Y0287262D02*
X0202700Y0287262D01*
X0202700Y0283264D02*
X0173300Y0283264D01*
X0173300Y0279265D02*
X0202700Y0279265D01*
X0202700Y0275267D02*
X0173300Y0275267D01*
X0173300Y0271268D02*
X0202700Y0271268D01*
X0202700Y0267270D02*
X0173300Y0267270D01*
X0173300Y0263271D02*
X0202700Y0263271D01*
X0202700Y0259273D02*
X0173300Y0259273D01*
X0173300Y0255274D02*
X0202700Y0255274D01*
X0202700Y0251276D02*
X0173300Y0251276D01*
X0173300Y0247277D02*
X0202700Y0247277D01*
X0202921Y0243279D02*
X0174583Y0243279D01*
X0176002Y0241860D02*
X0176002Y0241860D01*
X0177944Y0239280D02*
X0206091Y0239280D01*
X0207700Y0235282D02*
X0178300Y0235282D01*
X0178300Y0231283D02*
X0207700Y0231283D01*
X0207700Y0227285D02*
X0178300Y0227285D01*
X0178300Y0223286D02*
X0207700Y0223286D01*
X0207700Y0219288D02*
X0178300Y0219288D01*
X0178300Y0215289D02*
X0207700Y0215289D01*
X0207700Y0211291D02*
X0178300Y0211291D01*
X0178300Y0207292D02*
X0207700Y0207292D01*
X0207700Y0203294D02*
X0178300Y0203294D01*
X0178300Y0199295D02*
X0207700Y0199295D01*
X0207700Y0195297D02*
X0178300Y0195297D01*
X0178300Y0191298D02*
X0207700Y0191298D01*
X0207700Y0187300D02*
X0178300Y0187300D01*
X0178300Y0183301D02*
X0207700Y0183301D01*
X0207700Y0179303D02*
X0178300Y0179303D01*
X0178300Y0175304D02*
X0207700Y0175304D01*
X0207700Y0171306D02*
X0178300Y0171306D01*
X0178300Y0167307D02*
X0207700Y0167307D01*
X0226951Y0143316D02*
X0147000Y0143316D01*
X0147000Y0139318D02*
X0226951Y0139318D01*
X0226951Y0135319D02*
X0147000Y0135319D01*
X0147000Y0131321D02*
X0226951Y0131321D01*
X0226951Y0127322D02*
X0147000Y0127322D01*
X0147000Y0123323D02*
X0226951Y0123323D01*
X0226951Y0119325D02*
X0147000Y0119325D01*
X0147000Y0115326D02*
X0226951Y0115326D01*
X0226951Y0111328D02*
X0147000Y0111328D01*
X0147000Y0107329D02*
X0226951Y0107329D01*
X0226951Y0103331D02*
X0147000Y0103331D01*
X0147000Y0099332D02*
X0226951Y0099332D01*
X0226951Y0095334D02*
X0147000Y0095334D01*
X0147000Y0091335D02*
X0226951Y0091335D01*
X0226951Y0087337D02*
X0147000Y0087337D01*
X0147000Y0083338D02*
X0226951Y0083338D01*
X0226951Y0079340D02*
X0147000Y0079340D01*
X0147000Y0075341D02*
X0226951Y0075341D01*
X0226951Y0071343D02*
X0147000Y0071343D01*
X0147000Y0067344D02*
X0226951Y0067344D01*
X0226951Y0063346D02*
X0147000Y0063346D01*
X0147000Y0059347D02*
X0226951Y0059347D01*
X0226951Y0055349D02*
X0147000Y0055349D01*
X0147000Y0051350D02*
X0226951Y0051350D01*
X0226951Y0047352D02*
X0147000Y0047352D01*
X0147000Y0043353D02*
X0226951Y0043353D01*
X0226951Y0039355D02*
X0147000Y0039355D01*
X0147000Y0035356D02*
X0226951Y0035356D01*
X0226951Y0031358D02*
X0147000Y0031358D01*
X0147000Y0027359D02*
X0226951Y0027359D01*
X0223608Y0023361D02*
X0217392Y0023361D01*
X0213608Y0023361D02*
X0207392Y0023361D01*
X0203608Y0023361D02*
X0195786Y0023361D01*
X0198697Y0019362D02*
X0199842Y0019362D01*
X0199700Y0015364D02*
X0199512Y0015364D01*
X0199700Y0011365D02*
X0198980Y0011365D01*
X0180214Y0023361D02*
X0169892Y0023361D01*
X0166108Y0023361D02*
X0159892Y0023361D01*
X0156108Y0023361D02*
X0149892Y0023361D01*
X0142200Y0013410D02*
X0142200Y0010867D01*
X0139657Y0010867D01*
X0142200Y0013410D01*
X0142200Y0011365D02*
X0140155Y0011365D01*
X0139000Y0023361D02*
X0138800Y0023361D01*
X0139000Y0027359D02*
X0136210Y0027359D01*
X0138800Y0031358D02*
X0139000Y0031358D01*
X0139000Y0035356D02*
X0138213Y0035356D01*
X0138191Y0039355D02*
X0139000Y0039355D01*
X0139000Y0043353D02*
X0138800Y0043353D01*
X0139000Y0047352D02*
X0136217Y0047352D01*
X0138800Y0051350D02*
X0139000Y0051350D01*
X0139000Y0055349D02*
X0138220Y0055349D01*
X0138183Y0059347D02*
X0139000Y0059347D01*
X0139000Y0063346D02*
X0138800Y0063346D01*
X0139000Y0067344D02*
X0136225Y0067344D01*
X0129775Y0067344D02*
X0126225Y0067344D01*
X0127202Y0058367D02*
X0128798Y0058367D01*
X0129798Y0057367D01*
X0128798Y0056367D01*
X0127202Y0056367D01*
X0126202Y0057367D01*
X0127202Y0058367D01*
X0119798Y0057367D02*
X0118000Y0055569D01*
X0116202Y0057367D01*
X0118000Y0059164D01*
X0119798Y0057367D01*
X0118000Y0049164D02*
X0119798Y0047367D01*
X0118000Y0045569D01*
X0116202Y0047367D01*
X0118000Y0049164D01*
X0116217Y0047352D02*
X0119783Y0047352D01*
X0118000Y0039164D02*
X0119798Y0037367D01*
X0118000Y0035569D01*
X0116202Y0037367D01*
X0118000Y0039164D01*
X0126202Y0037367D02*
X0127202Y0036367D01*
X0128798Y0036367D01*
X0129798Y0037367D01*
X0128798Y0038367D01*
X0127202Y0038367D01*
X0126202Y0037367D01*
X0127202Y0046367D02*
X0126202Y0047367D01*
X0127202Y0048367D01*
X0128798Y0048367D01*
X0129798Y0047367D01*
X0128798Y0046367D01*
X0127202Y0046367D01*
X0126217Y0047352D02*
X0129783Y0047352D01*
X0118000Y0029164D02*
X0119798Y0027367D01*
X0118000Y0025569D01*
X0116202Y0027367D01*
X0118000Y0029164D01*
X0116210Y0027359D02*
X0119790Y0027359D01*
X0126202Y0027367D02*
X0127202Y0026367D01*
X0128798Y0026367D01*
X0129798Y0027367D01*
X0128798Y0028367D01*
X0127202Y0028367D01*
X0126202Y0027367D01*
X0126210Y0027359D02*
X0129790Y0027359D01*
X0128798Y0018367D02*
X0127202Y0018367D01*
X0126202Y0017367D01*
X0127202Y0016367D01*
X0128798Y0016367D01*
X0129798Y0017367D01*
X0128798Y0018367D01*
X0119798Y0017367D02*
X0118000Y0015569D01*
X0116202Y0017367D01*
X0118000Y0019164D01*
X0119798Y0017367D01*
X0109798Y0017367D02*
X0108798Y0016367D01*
X0107202Y0016367D01*
X0106202Y0017367D01*
X0107202Y0018367D01*
X0108798Y0018367D01*
X0109798Y0017367D01*
X0108798Y0026367D02*
X0107202Y0026367D01*
X0106202Y0027367D01*
X0107202Y0028367D01*
X0108798Y0028367D01*
X0109798Y0027367D01*
X0108798Y0026367D01*
X0109790Y0027359D02*
X0106210Y0027359D01*
X0107202Y0036367D02*
X0106202Y0037367D01*
X0107202Y0038367D01*
X0108798Y0038367D01*
X0109798Y0037367D01*
X0108798Y0036367D01*
X0107202Y0036367D01*
X0107202Y0046367D02*
X0106202Y0047367D01*
X0107202Y0048367D01*
X0108798Y0048367D01*
X0109798Y0047367D01*
X0108798Y0046367D01*
X0107202Y0046367D01*
X0106217Y0047352D02*
X0109783Y0047352D01*
X0108798Y0056367D02*
X0107202Y0056367D01*
X0106202Y0057367D01*
X0107202Y0058367D01*
X0108798Y0058367D01*
X0109798Y0057367D01*
X0108798Y0056367D01*
X0109775Y0067344D02*
X0106225Y0067344D01*
X0116225Y0067344D02*
X0119775Y0067344D01*
X0173658Y0019362D02*
X0177303Y0019362D01*
X0176488Y0015364D02*
X0173800Y0015364D01*
X0173800Y0011365D02*
X0177020Y0011365D01*
X0097200Y0155312D02*
X0097000Y0155312D01*
X0097000Y0159310D02*
X0097200Y0159310D01*
X0097000Y0163309D02*
X0098856Y0163309D01*
X0097200Y0167307D02*
X0097000Y0167307D01*
X0097000Y0171306D02*
X0098737Y0171306D01*
X0097200Y0175304D02*
X0097000Y0175304D01*
X0097000Y0179303D02*
X0097200Y0179303D01*
X0097000Y0183301D02*
X0098863Y0183301D01*
X0097200Y0187300D02*
X0097000Y0187300D01*
X0097000Y0191298D02*
X0098729Y0191298D01*
X0097200Y0195297D02*
X0097000Y0195297D01*
X0097000Y0199295D02*
X0097200Y0199295D01*
X0097000Y0203294D02*
X0098871Y0203294D01*
X0097200Y0207292D02*
X0097000Y0207292D01*
X0097581Y0211291D02*
X0098722Y0211291D01*
X0107129Y0203294D02*
X0108871Y0203294D01*
X0108798Y0203367D02*
X0109798Y0202367D01*
X0108798Y0201367D01*
X0107202Y0201367D01*
X0106202Y0202367D01*
X0107202Y0203367D01*
X0108798Y0203367D01*
X0116202Y0202367D02*
X0118000Y0200569D01*
X0119798Y0202367D01*
X0118000Y0204164D01*
X0116202Y0202367D01*
X0117129Y0203294D02*
X0118871Y0203294D01*
X0118000Y0194164D02*
X0119798Y0192367D01*
X0118000Y0190569D01*
X0116202Y0192367D01*
X0118000Y0194164D01*
X0117271Y0191298D02*
X0118729Y0191298D01*
X0118000Y0184164D02*
X0119798Y0182367D01*
X0118000Y0180569D01*
X0116202Y0182367D01*
X0118000Y0184164D01*
X0117137Y0183301D02*
X0118863Y0183301D01*
X0126202Y0182367D02*
X0127202Y0181367D01*
X0128798Y0181367D01*
X0129798Y0182367D01*
X0128798Y0183367D01*
X0127202Y0183367D01*
X0126202Y0182367D01*
X0127137Y0183301D02*
X0128863Y0183301D01*
X0128798Y0191367D02*
X0127202Y0191367D01*
X0126202Y0192367D01*
X0127202Y0193367D01*
X0128798Y0193367D01*
X0129798Y0192367D01*
X0128798Y0191367D01*
X0128798Y0201367D02*
X0127202Y0201367D01*
X0126202Y0202367D01*
X0127202Y0203367D01*
X0128798Y0203367D01*
X0129798Y0202367D01*
X0128798Y0201367D01*
X0128871Y0203294D02*
X0127129Y0203294D01*
X0118722Y0211291D02*
X0117278Y0211291D01*
X0127737Y0223286D02*
X0167700Y0223286D01*
X0167700Y0227285D02*
X0127000Y0227285D01*
X0127000Y0231283D02*
X0167700Y0231283D01*
X0167590Y0235282D02*
X0127000Y0235282D01*
X0127000Y0239280D02*
X0163591Y0239280D01*
X0162700Y0243279D02*
X0127000Y0243279D01*
X0127000Y0247277D02*
X0162700Y0247277D01*
X0162700Y0251276D02*
X0127000Y0251276D01*
X0127000Y0255274D02*
X0162700Y0255274D01*
X0162700Y0259273D02*
X0127000Y0259273D01*
X0127000Y0263271D02*
X0162700Y0263271D01*
X0162700Y0267270D02*
X0127000Y0267270D01*
X0127000Y0271268D02*
X0162700Y0271268D01*
X0162700Y0275267D02*
X0127000Y0275267D01*
X0127000Y0279265D02*
X0162700Y0279265D01*
X0162700Y0283264D02*
X0127000Y0283264D01*
X0127000Y0287262D02*
X0162700Y0287262D01*
X0162700Y0291261D02*
X0127000Y0291261D01*
X0127095Y0295259D02*
X0128905Y0295259D01*
X0137095Y0295259D02*
X0138905Y0295259D01*
X0147095Y0295259D02*
X0162700Y0295259D01*
X0162200Y0299258D02*
X0148800Y0299258D01*
X0148800Y0303256D02*
X0162200Y0303256D01*
X0182095Y0295259D02*
X0183905Y0295259D01*
X0192095Y0295259D02*
X0193905Y0295259D01*
X0108798Y0193367D02*
X0109798Y0192367D01*
X0108798Y0191367D01*
X0107202Y0191367D01*
X0106202Y0192367D01*
X0107202Y0193367D01*
X0108798Y0193367D01*
X0108798Y0183367D02*
X0107202Y0183367D01*
X0106202Y0182367D01*
X0107202Y0181367D01*
X0108798Y0181367D01*
X0109798Y0182367D01*
X0108798Y0183367D01*
X0108863Y0183301D02*
X0107137Y0183301D01*
X0107202Y0173367D02*
X0108798Y0173367D01*
X0109798Y0172367D01*
X0108798Y0171367D01*
X0107202Y0171367D01*
X0106202Y0172367D01*
X0107202Y0173367D01*
X0107202Y0163367D02*
X0108798Y0163367D01*
X0109798Y0162367D01*
X0108798Y0161367D01*
X0107202Y0161367D01*
X0106202Y0162367D01*
X0107202Y0163367D01*
X0107144Y0163309D02*
X0108856Y0163309D01*
X0116202Y0162367D02*
X0118000Y0160569D01*
X0119798Y0162367D01*
X0118000Y0164164D01*
X0116202Y0162367D01*
X0117144Y0163309D02*
X0118856Y0163309D01*
X0118000Y0170569D02*
X0116202Y0172367D01*
X0118000Y0174164D01*
X0119798Y0172367D01*
X0118000Y0170569D01*
X0117263Y0171306D02*
X0118737Y0171306D01*
X0126202Y0172367D02*
X0127202Y0171367D01*
X0128798Y0171367D01*
X0129798Y0172367D01*
X0128798Y0173367D01*
X0127202Y0173367D01*
X0126202Y0172367D01*
X0127202Y0163367D02*
X0128798Y0163367D01*
X0129798Y0162367D01*
X0128798Y0161367D01*
X0127202Y0161367D01*
X0126202Y0162367D01*
X0127202Y0163367D01*
X0127144Y0163309D02*
X0128856Y0163309D01*
M02*
