%
M48
M72
T01C0.04000
T02C0.11024
%
T01
X10500Y14867
X20500Y14867
X30500Y14867
X68000Y14867
X78000Y14867
X88000Y14867
X103000Y12367
X103000Y22367
X103000Y32367
X103000Y42367
X103000Y52367
X103000Y62367
X113000Y62367
X113000Y52367
X113000Y42367
X113000Y32367
X113000Y22367
X113000Y12367
X123000Y12367
X123000Y22367
X123000Y32367
X123000Y42367
X123000Y52367
X123000Y62367
X133000Y62367
X133000Y52367
X133000Y42367
X133000Y32367
X133000Y22367
X133000Y12367
X148000Y14867
X158000Y14867
X168000Y14867
X205500Y14867
X215500Y14867
X225500Y14867
X213000Y157367
X203000Y157367
X193000Y157367
X183000Y157367
X173000Y157367
X133000Y157367
X133000Y167367
X133000Y177367
X133000Y187367
X133000Y197367
X133000Y207367
X123000Y207367
X123000Y197367
X123000Y187367
X123000Y177367
X123000Y167367
X123000Y157367
X113000Y157367
X113000Y167367
X113000Y177367
X113000Y187367
X113000Y197367
X113000Y207367
X103000Y207367
X103000Y197367
X103000Y187367
X103000Y177367
X103000Y167367
X103000Y157367
X63000Y157367
X53000Y157367
X43000Y157367
X33000Y157367
X23000Y157367
X28000Y302367
X38000Y302367
X48000Y302367
X58000Y302367
X68000Y302367
X93000Y302367
X103000Y302367
X113000Y302367
X123000Y302367
X133000Y302367
X143000Y302367
X168000Y302367
X178000Y302367
X188000Y302367
X198000Y302367
X208000Y302367
T02
X223000Y309867
X13000Y309867
X48000Y14867
X188000Y14867
M30
