G75*
%MOIN*%
%OFA0B0*%
%FSLAX25Y25*%
%IPPOS*%
%LPD*%
%AMOC8*
5,1,8,0,0,1.08239X$1,22.5*
%
%ADD10C,0.00000*%
%ADD11C,0.06000*%
%ADD12OC8,0.06000*%
%ADD13C,0.04000*%
%ADD14C,0.05000*%
%ADD15C,0.02400*%
D10*
X0003000Y0004867D02*
X0003000Y0319827D01*
X0232951Y0319827D01*
X0232951Y0004867D01*
X0003000Y0004867D01*
X0042488Y0014867D02*
X0042490Y0015015D01*
X0042496Y0015163D01*
X0042506Y0015311D01*
X0042520Y0015458D01*
X0042538Y0015605D01*
X0042559Y0015751D01*
X0042585Y0015897D01*
X0042615Y0016042D01*
X0042648Y0016186D01*
X0042686Y0016329D01*
X0042727Y0016471D01*
X0042772Y0016612D01*
X0042820Y0016752D01*
X0042873Y0016891D01*
X0042929Y0017028D01*
X0042989Y0017163D01*
X0043052Y0017297D01*
X0043119Y0017429D01*
X0043190Y0017559D01*
X0043264Y0017687D01*
X0043341Y0017813D01*
X0043422Y0017937D01*
X0043506Y0018059D01*
X0043593Y0018178D01*
X0043684Y0018295D01*
X0043778Y0018410D01*
X0043874Y0018522D01*
X0043974Y0018632D01*
X0044076Y0018738D01*
X0044182Y0018842D01*
X0044290Y0018943D01*
X0044401Y0019041D01*
X0044514Y0019137D01*
X0044630Y0019229D01*
X0044748Y0019318D01*
X0044869Y0019403D01*
X0044992Y0019486D01*
X0045117Y0019565D01*
X0045244Y0019641D01*
X0045373Y0019713D01*
X0045504Y0019782D01*
X0045637Y0019847D01*
X0045772Y0019908D01*
X0045908Y0019966D01*
X0046045Y0020021D01*
X0046184Y0020071D01*
X0046325Y0020118D01*
X0046466Y0020161D01*
X0046609Y0020201D01*
X0046753Y0020236D01*
X0046897Y0020268D01*
X0047043Y0020295D01*
X0047189Y0020319D01*
X0047336Y0020339D01*
X0047483Y0020355D01*
X0047630Y0020367D01*
X0047778Y0020375D01*
X0047926Y0020379D01*
X0048074Y0020379D01*
X0048222Y0020375D01*
X0048370Y0020367D01*
X0048517Y0020355D01*
X0048664Y0020339D01*
X0048811Y0020319D01*
X0048957Y0020295D01*
X0049103Y0020268D01*
X0049247Y0020236D01*
X0049391Y0020201D01*
X0049534Y0020161D01*
X0049675Y0020118D01*
X0049816Y0020071D01*
X0049955Y0020021D01*
X0050092Y0019966D01*
X0050228Y0019908D01*
X0050363Y0019847D01*
X0050496Y0019782D01*
X0050627Y0019713D01*
X0050756Y0019641D01*
X0050883Y0019565D01*
X0051008Y0019486D01*
X0051131Y0019403D01*
X0051252Y0019318D01*
X0051370Y0019229D01*
X0051486Y0019137D01*
X0051599Y0019041D01*
X0051710Y0018943D01*
X0051818Y0018842D01*
X0051924Y0018738D01*
X0052026Y0018632D01*
X0052126Y0018522D01*
X0052222Y0018410D01*
X0052316Y0018295D01*
X0052407Y0018178D01*
X0052494Y0018059D01*
X0052578Y0017937D01*
X0052659Y0017813D01*
X0052736Y0017687D01*
X0052810Y0017559D01*
X0052881Y0017429D01*
X0052948Y0017297D01*
X0053011Y0017163D01*
X0053071Y0017028D01*
X0053127Y0016891D01*
X0053180Y0016752D01*
X0053228Y0016612D01*
X0053273Y0016471D01*
X0053314Y0016329D01*
X0053352Y0016186D01*
X0053385Y0016042D01*
X0053415Y0015897D01*
X0053441Y0015751D01*
X0053462Y0015605D01*
X0053480Y0015458D01*
X0053494Y0015311D01*
X0053504Y0015163D01*
X0053510Y0015015D01*
X0053512Y0014867D01*
X0053510Y0014719D01*
X0053504Y0014571D01*
X0053494Y0014423D01*
X0053480Y0014276D01*
X0053462Y0014129D01*
X0053441Y0013983D01*
X0053415Y0013837D01*
X0053385Y0013692D01*
X0053352Y0013548D01*
X0053314Y0013405D01*
X0053273Y0013263D01*
X0053228Y0013122D01*
X0053180Y0012982D01*
X0053127Y0012843D01*
X0053071Y0012706D01*
X0053011Y0012571D01*
X0052948Y0012437D01*
X0052881Y0012305D01*
X0052810Y0012175D01*
X0052736Y0012047D01*
X0052659Y0011921D01*
X0052578Y0011797D01*
X0052494Y0011675D01*
X0052407Y0011556D01*
X0052316Y0011439D01*
X0052222Y0011324D01*
X0052126Y0011212D01*
X0052026Y0011102D01*
X0051924Y0010996D01*
X0051818Y0010892D01*
X0051710Y0010791D01*
X0051599Y0010693D01*
X0051486Y0010597D01*
X0051370Y0010505D01*
X0051252Y0010416D01*
X0051131Y0010331D01*
X0051008Y0010248D01*
X0050883Y0010169D01*
X0050756Y0010093D01*
X0050627Y0010021D01*
X0050496Y0009952D01*
X0050363Y0009887D01*
X0050228Y0009826D01*
X0050092Y0009768D01*
X0049955Y0009713D01*
X0049816Y0009663D01*
X0049675Y0009616D01*
X0049534Y0009573D01*
X0049391Y0009533D01*
X0049247Y0009498D01*
X0049103Y0009466D01*
X0048957Y0009439D01*
X0048811Y0009415D01*
X0048664Y0009395D01*
X0048517Y0009379D01*
X0048370Y0009367D01*
X0048222Y0009359D01*
X0048074Y0009355D01*
X0047926Y0009355D01*
X0047778Y0009359D01*
X0047630Y0009367D01*
X0047483Y0009379D01*
X0047336Y0009395D01*
X0047189Y0009415D01*
X0047043Y0009439D01*
X0046897Y0009466D01*
X0046753Y0009498D01*
X0046609Y0009533D01*
X0046466Y0009573D01*
X0046325Y0009616D01*
X0046184Y0009663D01*
X0046045Y0009713D01*
X0045908Y0009768D01*
X0045772Y0009826D01*
X0045637Y0009887D01*
X0045504Y0009952D01*
X0045373Y0010021D01*
X0045244Y0010093D01*
X0045117Y0010169D01*
X0044992Y0010248D01*
X0044869Y0010331D01*
X0044748Y0010416D01*
X0044630Y0010505D01*
X0044514Y0010597D01*
X0044401Y0010693D01*
X0044290Y0010791D01*
X0044182Y0010892D01*
X0044076Y0010996D01*
X0043974Y0011102D01*
X0043874Y0011212D01*
X0043778Y0011324D01*
X0043684Y0011439D01*
X0043593Y0011556D01*
X0043506Y0011675D01*
X0043422Y0011797D01*
X0043341Y0011921D01*
X0043264Y0012047D01*
X0043190Y0012175D01*
X0043119Y0012305D01*
X0043052Y0012437D01*
X0042989Y0012571D01*
X0042929Y0012706D01*
X0042873Y0012843D01*
X0042820Y0012982D01*
X0042772Y0013122D01*
X0042727Y0013263D01*
X0042686Y0013405D01*
X0042648Y0013548D01*
X0042615Y0013692D01*
X0042585Y0013837D01*
X0042559Y0013983D01*
X0042538Y0014129D01*
X0042520Y0014276D01*
X0042506Y0014423D01*
X0042496Y0014571D01*
X0042490Y0014719D01*
X0042488Y0014867D01*
X0182488Y0014867D02*
X0182490Y0015015D01*
X0182496Y0015163D01*
X0182506Y0015311D01*
X0182520Y0015458D01*
X0182538Y0015605D01*
X0182559Y0015751D01*
X0182585Y0015897D01*
X0182615Y0016042D01*
X0182648Y0016186D01*
X0182686Y0016329D01*
X0182727Y0016471D01*
X0182772Y0016612D01*
X0182820Y0016752D01*
X0182873Y0016891D01*
X0182929Y0017028D01*
X0182989Y0017163D01*
X0183052Y0017297D01*
X0183119Y0017429D01*
X0183190Y0017559D01*
X0183264Y0017687D01*
X0183341Y0017813D01*
X0183422Y0017937D01*
X0183506Y0018059D01*
X0183593Y0018178D01*
X0183684Y0018295D01*
X0183778Y0018410D01*
X0183874Y0018522D01*
X0183974Y0018632D01*
X0184076Y0018738D01*
X0184182Y0018842D01*
X0184290Y0018943D01*
X0184401Y0019041D01*
X0184514Y0019137D01*
X0184630Y0019229D01*
X0184748Y0019318D01*
X0184869Y0019403D01*
X0184992Y0019486D01*
X0185117Y0019565D01*
X0185244Y0019641D01*
X0185373Y0019713D01*
X0185504Y0019782D01*
X0185637Y0019847D01*
X0185772Y0019908D01*
X0185908Y0019966D01*
X0186045Y0020021D01*
X0186184Y0020071D01*
X0186325Y0020118D01*
X0186466Y0020161D01*
X0186609Y0020201D01*
X0186753Y0020236D01*
X0186897Y0020268D01*
X0187043Y0020295D01*
X0187189Y0020319D01*
X0187336Y0020339D01*
X0187483Y0020355D01*
X0187630Y0020367D01*
X0187778Y0020375D01*
X0187926Y0020379D01*
X0188074Y0020379D01*
X0188222Y0020375D01*
X0188370Y0020367D01*
X0188517Y0020355D01*
X0188664Y0020339D01*
X0188811Y0020319D01*
X0188957Y0020295D01*
X0189103Y0020268D01*
X0189247Y0020236D01*
X0189391Y0020201D01*
X0189534Y0020161D01*
X0189675Y0020118D01*
X0189816Y0020071D01*
X0189955Y0020021D01*
X0190092Y0019966D01*
X0190228Y0019908D01*
X0190363Y0019847D01*
X0190496Y0019782D01*
X0190627Y0019713D01*
X0190756Y0019641D01*
X0190883Y0019565D01*
X0191008Y0019486D01*
X0191131Y0019403D01*
X0191252Y0019318D01*
X0191370Y0019229D01*
X0191486Y0019137D01*
X0191599Y0019041D01*
X0191710Y0018943D01*
X0191818Y0018842D01*
X0191924Y0018738D01*
X0192026Y0018632D01*
X0192126Y0018522D01*
X0192222Y0018410D01*
X0192316Y0018295D01*
X0192407Y0018178D01*
X0192494Y0018059D01*
X0192578Y0017937D01*
X0192659Y0017813D01*
X0192736Y0017687D01*
X0192810Y0017559D01*
X0192881Y0017429D01*
X0192948Y0017297D01*
X0193011Y0017163D01*
X0193071Y0017028D01*
X0193127Y0016891D01*
X0193180Y0016752D01*
X0193228Y0016612D01*
X0193273Y0016471D01*
X0193314Y0016329D01*
X0193352Y0016186D01*
X0193385Y0016042D01*
X0193415Y0015897D01*
X0193441Y0015751D01*
X0193462Y0015605D01*
X0193480Y0015458D01*
X0193494Y0015311D01*
X0193504Y0015163D01*
X0193510Y0015015D01*
X0193512Y0014867D01*
X0193510Y0014719D01*
X0193504Y0014571D01*
X0193494Y0014423D01*
X0193480Y0014276D01*
X0193462Y0014129D01*
X0193441Y0013983D01*
X0193415Y0013837D01*
X0193385Y0013692D01*
X0193352Y0013548D01*
X0193314Y0013405D01*
X0193273Y0013263D01*
X0193228Y0013122D01*
X0193180Y0012982D01*
X0193127Y0012843D01*
X0193071Y0012706D01*
X0193011Y0012571D01*
X0192948Y0012437D01*
X0192881Y0012305D01*
X0192810Y0012175D01*
X0192736Y0012047D01*
X0192659Y0011921D01*
X0192578Y0011797D01*
X0192494Y0011675D01*
X0192407Y0011556D01*
X0192316Y0011439D01*
X0192222Y0011324D01*
X0192126Y0011212D01*
X0192026Y0011102D01*
X0191924Y0010996D01*
X0191818Y0010892D01*
X0191710Y0010791D01*
X0191599Y0010693D01*
X0191486Y0010597D01*
X0191370Y0010505D01*
X0191252Y0010416D01*
X0191131Y0010331D01*
X0191008Y0010248D01*
X0190883Y0010169D01*
X0190756Y0010093D01*
X0190627Y0010021D01*
X0190496Y0009952D01*
X0190363Y0009887D01*
X0190228Y0009826D01*
X0190092Y0009768D01*
X0189955Y0009713D01*
X0189816Y0009663D01*
X0189675Y0009616D01*
X0189534Y0009573D01*
X0189391Y0009533D01*
X0189247Y0009498D01*
X0189103Y0009466D01*
X0188957Y0009439D01*
X0188811Y0009415D01*
X0188664Y0009395D01*
X0188517Y0009379D01*
X0188370Y0009367D01*
X0188222Y0009359D01*
X0188074Y0009355D01*
X0187926Y0009355D01*
X0187778Y0009359D01*
X0187630Y0009367D01*
X0187483Y0009379D01*
X0187336Y0009395D01*
X0187189Y0009415D01*
X0187043Y0009439D01*
X0186897Y0009466D01*
X0186753Y0009498D01*
X0186609Y0009533D01*
X0186466Y0009573D01*
X0186325Y0009616D01*
X0186184Y0009663D01*
X0186045Y0009713D01*
X0185908Y0009768D01*
X0185772Y0009826D01*
X0185637Y0009887D01*
X0185504Y0009952D01*
X0185373Y0010021D01*
X0185244Y0010093D01*
X0185117Y0010169D01*
X0184992Y0010248D01*
X0184869Y0010331D01*
X0184748Y0010416D01*
X0184630Y0010505D01*
X0184514Y0010597D01*
X0184401Y0010693D01*
X0184290Y0010791D01*
X0184182Y0010892D01*
X0184076Y0010996D01*
X0183974Y0011102D01*
X0183874Y0011212D01*
X0183778Y0011324D01*
X0183684Y0011439D01*
X0183593Y0011556D01*
X0183506Y0011675D01*
X0183422Y0011797D01*
X0183341Y0011921D01*
X0183264Y0012047D01*
X0183190Y0012175D01*
X0183119Y0012305D01*
X0183052Y0012437D01*
X0182989Y0012571D01*
X0182929Y0012706D01*
X0182873Y0012843D01*
X0182820Y0012982D01*
X0182772Y0013122D01*
X0182727Y0013263D01*
X0182686Y0013405D01*
X0182648Y0013548D01*
X0182615Y0013692D01*
X0182585Y0013837D01*
X0182559Y0013983D01*
X0182538Y0014129D01*
X0182520Y0014276D01*
X0182506Y0014423D01*
X0182496Y0014571D01*
X0182490Y0014719D01*
X0182488Y0014867D01*
X0217488Y0309867D02*
X0217490Y0310015D01*
X0217496Y0310163D01*
X0217506Y0310311D01*
X0217520Y0310458D01*
X0217538Y0310605D01*
X0217559Y0310751D01*
X0217585Y0310897D01*
X0217615Y0311042D01*
X0217648Y0311186D01*
X0217686Y0311329D01*
X0217727Y0311471D01*
X0217772Y0311612D01*
X0217820Y0311752D01*
X0217873Y0311891D01*
X0217929Y0312028D01*
X0217989Y0312163D01*
X0218052Y0312297D01*
X0218119Y0312429D01*
X0218190Y0312559D01*
X0218264Y0312687D01*
X0218341Y0312813D01*
X0218422Y0312937D01*
X0218506Y0313059D01*
X0218593Y0313178D01*
X0218684Y0313295D01*
X0218778Y0313410D01*
X0218874Y0313522D01*
X0218974Y0313632D01*
X0219076Y0313738D01*
X0219182Y0313842D01*
X0219290Y0313943D01*
X0219401Y0314041D01*
X0219514Y0314137D01*
X0219630Y0314229D01*
X0219748Y0314318D01*
X0219869Y0314403D01*
X0219992Y0314486D01*
X0220117Y0314565D01*
X0220244Y0314641D01*
X0220373Y0314713D01*
X0220504Y0314782D01*
X0220637Y0314847D01*
X0220772Y0314908D01*
X0220908Y0314966D01*
X0221045Y0315021D01*
X0221184Y0315071D01*
X0221325Y0315118D01*
X0221466Y0315161D01*
X0221609Y0315201D01*
X0221753Y0315236D01*
X0221897Y0315268D01*
X0222043Y0315295D01*
X0222189Y0315319D01*
X0222336Y0315339D01*
X0222483Y0315355D01*
X0222630Y0315367D01*
X0222778Y0315375D01*
X0222926Y0315379D01*
X0223074Y0315379D01*
X0223222Y0315375D01*
X0223370Y0315367D01*
X0223517Y0315355D01*
X0223664Y0315339D01*
X0223811Y0315319D01*
X0223957Y0315295D01*
X0224103Y0315268D01*
X0224247Y0315236D01*
X0224391Y0315201D01*
X0224534Y0315161D01*
X0224675Y0315118D01*
X0224816Y0315071D01*
X0224955Y0315021D01*
X0225092Y0314966D01*
X0225228Y0314908D01*
X0225363Y0314847D01*
X0225496Y0314782D01*
X0225627Y0314713D01*
X0225756Y0314641D01*
X0225883Y0314565D01*
X0226008Y0314486D01*
X0226131Y0314403D01*
X0226252Y0314318D01*
X0226370Y0314229D01*
X0226486Y0314137D01*
X0226599Y0314041D01*
X0226710Y0313943D01*
X0226818Y0313842D01*
X0226924Y0313738D01*
X0227026Y0313632D01*
X0227126Y0313522D01*
X0227222Y0313410D01*
X0227316Y0313295D01*
X0227407Y0313178D01*
X0227494Y0313059D01*
X0227578Y0312937D01*
X0227659Y0312813D01*
X0227736Y0312687D01*
X0227810Y0312559D01*
X0227881Y0312429D01*
X0227948Y0312297D01*
X0228011Y0312163D01*
X0228071Y0312028D01*
X0228127Y0311891D01*
X0228180Y0311752D01*
X0228228Y0311612D01*
X0228273Y0311471D01*
X0228314Y0311329D01*
X0228352Y0311186D01*
X0228385Y0311042D01*
X0228415Y0310897D01*
X0228441Y0310751D01*
X0228462Y0310605D01*
X0228480Y0310458D01*
X0228494Y0310311D01*
X0228504Y0310163D01*
X0228510Y0310015D01*
X0228512Y0309867D01*
X0228510Y0309719D01*
X0228504Y0309571D01*
X0228494Y0309423D01*
X0228480Y0309276D01*
X0228462Y0309129D01*
X0228441Y0308983D01*
X0228415Y0308837D01*
X0228385Y0308692D01*
X0228352Y0308548D01*
X0228314Y0308405D01*
X0228273Y0308263D01*
X0228228Y0308122D01*
X0228180Y0307982D01*
X0228127Y0307843D01*
X0228071Y0307706D01*
X0228011Y0307571D01*
X0227948Y0307437D01*
X0227881Y0307305D01*
X0227810Y0307175D01*
X0227736Y0307047D01*
X0227659Y0306921D01*
X0227578Y0306797D01*
X0227494Y0306675D01*
X0227407Y0306556D01*
X0227316Y0306439D01*
X0227222Y0306324D01*
X0227126Y0306212D01*
X0227026Y0306102D01*
X0226924Y0305996D01*
X0226818Y0305892D01*
X0226710Y0305791D01*
X0226599Y0305693D01*
X0226486Y0305597D01*
X0226370Y0305505D01*
X0226252Y0305416D01*
X0226131Y0305331D01*
X0226008Y0305248D01*
X0225883Y0305169D01*
X0225756Y0305093D01*
X0225627Y0305021D01*
X0225496Y0304952D01*
X0225363Y0304887D01*
X0225228Y0304826D01*
X0225092Y0304768D01*
X0224955Y0304713D01*
X0224816Y0304663D01*
X0224675Y0304616D01*
X0224534Y0304573D01*
X0224391Y0304533D01*
X0224247Y0304498D01*
X0224103Y0304466D01*
X0223957Y0304439D01*
X0223811Y0304415D01*
X0223664Y0304395D01*
X0223517Y0304379D01*
X0223370Y0304367D01*
X0223222Y0304359D01*
X0223074Y0304355D01*
X0222926Y0304355D01*
X0222778Y0304359D01*
X0222630Y0304367D01*
X0222483Y0304379D01*
X0222336Y0304395D01*
X0222189Y0304415D01*
X0222043Y0304439D01*
X0221897Y0304466D01*
X0221753Y0304498D01*
X0221609Y0304533D01*
X0221466Y0304573D01*
X0221325Y0304616D01*
X0221184Y0304663D01*
X0221045Y0304713D01*
X0220908Y0304768D01*
X0220772Y0304826D01*
X0220637Y0304887D01*
X0220504Y0304952D01*
X0220373Y0305021D01*
X0220244Y0305093D01*
X0220117Y0305169D01*
X0219992Y0305248D01*
X0219869Y0305331D01*
X0219748Y0305416D01*
X0219630Y0305505D01*
X0219514Y0305597D01*
X0219401Y0305693D01*
X0219290Y0305791D01*
X0219182Y0305892D01*
X0219076Y0305996D01*
X0218974Y0306102D01*
X0218874Y0306212D01*
X0218778Y0306324D01*
X0218684Y0306439D01*
X0218593Y0306556D01*
X0218506Y0306675D01*
X0218422Y0306797D01*
X0218341Y0306921D01*
X0218264Y0307047D01*
X0218190Y0307175D01*
X0218119Y0307305D01*
X0218052Y0307437D01*
X0217989Y0307571D01*
X0217929Y0307706D01*
X0217873Y0307843D01*
X0217820Y0307982D01*
X0217772Y0308122D01*
X0217727Y0308263D01*
X0217686Y0308405D01*
X0217648Y0308548D01*
X0217615Y0308692D01*
X0217585Y0308837D01*
X0217559Y0308983D01*
X0217538Y0309129D01*
X0217520Y0309276D01*
X0217506Y0309423D01*
X0217496Y0309571D01*
X0217490Y0309719D01*
X0217488Y0309867D01*
X0007488Y0309867D02*
X0007490Y0310015D01*
X0007496Y0310163D01*
X0007506Y0310311D01*
X0007520Y0310458D01*
X0007538Y0310605D01*
X0007559Y0310751D01*
X0007585Y0310897D01*
X0007615Y0311042D01*
X0007648Y0311186D01*
X0007686Y0311329D01*
X0007727Y0311471D01*
X0007772Y0311612D01*
X0007820Y0311752D01*
X0007873Y0311891D01*
X0007929Y0312028D01*
X0007989Y0312163D01*
X0008052Y0312297D01*
X0008119Y0312429D01*
X0008190Y0312559D01*
X0008264Y0312687D01*
X0008341Y0312813D01*
X0008422Y0312937D01*
X0008506Y0313059D01*
X0008593Y0313178D01*
X0008684Y0313295D01*
X0008778Y0313410D01*
X0008874Y0313522D01*
X0008974Y0313632D01*
X0009076Y0313738D01*
X0009182Y0313842D01*
X0009290Y0313943D01*
X0009401Y0314041D01*
X0009514Y0314137D01*
X0009630Y0314229D01*
X0009748Y0314318D01*
X0009869Y0314403D01*
X0009992Y0314486D01*
X0010117Y0314565D01*
X0010244Y0314641D01*
X0010373Y0314713D01*
X0010504Y0314782D01*
X0010637Y0314847D01*
X0010772Y0314908D01*
X0010908Y0314966D01*
X0011045Y0315021D01*
X0011184Y0315071D01*
X0011325Y0315118D01*
X0011466Y0315161D01*
X0011609Y0315201D01*
X0011753Y0315236D01*
X0011897Y0315268D01*
X0012043Y0315295D01*
X0012189Y0315319D01*
X0012336Y0315339D01*
X0012483Y0315355D01*
X0012630Y0315367D01*
X0012778Y0315375D01*
X0012926Y0315379D01*
X0013074Y0315379D01*
X0013222Y0315375D01*
X0013370Y0315367D01*
X0013517Y0315355D01*
X0013664Y0315339D01*
X0013811Y0315319D01*
X0013957Y0315295D01*
X0014103Y0315268D01*
X0014247Y0315236D01*
X0014391Y0315201D01*
X0014534Y0315161D01*
X0014675Y0315118D01*
X0014816Y0315071D01*
X0014955Y0315021D01*
X0015092Y0314966D01*
X0015228Y0314908D01*
X0015363Y0314847D01*
X0015496Y0314782D01*
X0015627Y0314713D01*
X0015756Y0314641D01*
X0015883Y0314565D01*
X0016008Y0314486D01*
X0016131Y0314403D01*
X0016252Y0314318D01*
X0016370Y0314229D01*
X0016486Y0314137D01*
X0016599Y0314041D01*
X0016710Y0313943D01*
X0016818Y0313842D01*
X0016924Y0313738D01*
X0017026Y0313632D01*
X0017126Y0313522D01*
X0017222Y0313410D01*
X0017316Y0313295D01*
X0017407Y0313178D01*
X0017494Y0313059D01*
X0017578Y0312937D01*
X0017659Y0312813D01*
X0017736Y0312687D01*
X0017810Y0312559D01*
X0017881Y0312429D01*
X0017948Y0312297D01*
X0018011Y0312163D01*
X0018071Y0312028D01*
X0018127Y0311891D01*
X0018180Y0311752D01*
X0018228Y0311612D01*
X0018273Y0311471D01*
X0018314Y0311329D01*
X0018352Y0311186D01*
X0018385Y0311042D01*
X0018415Y0310897D01*
X0018441Y0310751D01*
X0018462Y0310605D01*
X0018480Y0310458D01*
X0018494Y0310311D01*
X0018504Y0310163D01*
X0018510Y0310015D01*
X0018512Y0309867D01*
X0018510Y0309719D01*
X0018504Y0309571D01*
X0018494Y0309423D01*
X0018480Y0309276D01*
X0018462Y0309129D01*
X0018441Y0308983D01*
X0018415Y0308837D01*
X0018385Y0308692D01*
X0018352Y0308548D01*
X0018314Y0308405D01*
X0018273Y0308263D01*
X0018228Y0308122D01*
X0018180Y0307982D01*
X0018127Y0307843D01*
X0018071Y0307706D01*
X0018011Y0307571D01*
X0017948Y0307437D01*
X0017881Y0307305D01*
X0017810Y0307175D01*
X0017736Y0307047D01*
X0017659Y0306921D01*
X0017578Y0306797D01*
X0017494Y0306675D01*
X0017407Y0306556D01*
X0017316Y0306439D01*
X0017222Y0306324D01*
X0017126Y0306212D01*
X0017026Y0306102D01*
X0016924Y0305996D01*
X0016818Y0305892D01*
X0016710Y0305791D01*
X0016599Y0305693D01*
X0016486Y0305597D01*
X0016370Y0305505D01*
X0016252Y0305416D01*
X0016131Y0305331D01*
X0016008Y0305248D01*
X0015883Y0305169D01*
X0015756Y0305093D01*
X0015627Y0305021D01*
X0015496Y0304952D01*
X0015363Y0304887D01*
X0015228Y0304826D01*
X0015092Y0304768D01*
X0014955Y0304713D01*
X0014816Y0304663D01*
X0014675Y0304616D01*
X0014534Y0304573D01*
X0014391Y0304533D01*
X0014247Y0304498D01*
X0014103Y0304466D01*
X0013957Y0304439D01*
X0013811Y0304415D01*
X0013664Y0304395D01*
X0013517Y0304379D01*
X0013370Y0304367D01*
X0013222Y0304359D01*
X0013074Y0304355D01*
X0012926Y0304355D01*
X0012778Y0304359D01*
X0012630Y0304367D01*
X0012483Y0304379D01*
X0012336Y0304395D01*
X0012189Y0304415D01*
X0012043Y0304439D01*
X0011897Y0304466D01*
X0011753Y0304498D01*
X0011609Y0304533D01*
X0011466Y0304573D01*
X0011325Y0304616D01*
X0011184Y0304663D01*
X0011045Y0304713D01*
X0010908Y0304768D01*
X0010772Y0304826D01*
X0010637Y0304887D01*
X0010504Y0304952D01*
X0010373Y0305021D01*
X0010244Y0305093D01*
X0010117Y0305169D01*
X0009992Y0305248D01*
X0009869Y0305331D01*
X0009748Y0305416D01*
X0009630Y0305505D01*
X0009514Y0305597D01*
X0009401Y0305693D01*
X0009290Y0305791D01*
X0009182Y0305892D01*
X0009076Y0305996D01*
X0008974Y0306102D01*
X0008874Y0306212D01*
X0008778Y0306324D01*
X0008684Y0306439D01*
X0008593Y0306556D01*
X0008506Y0306675D01*
X0008422Y0306797D01*
X0008341Y0306921D01*
X0008264Y0307047D01*
X0008190Y0307175D01*
X0008119Y0307305D01*
X0008052Y0307437D01*
X0007989Y0307571D01*
X0007929Y0307706D01*
X0007873Y0307843D01*
X0007820Y0307982D01*
X0007772Y0308122D01*
X0007727Y0308263D01*
X0007686Y0308405D01*
X0007648Y0308548D01*
X0007615Y0308692D01*
X0007585Y0308837D01*
X0007559Y0308983D01*
X0007538Y0309129D01*
X0007520Y0309276D01*
X0007506Y0309423D01*
X0007496Y0309571D01*
X0007490Y0309719D01*
X0007488Y0309867D01*
D11*
X0028000Y0305367D02*
X0028000Y0299367D01*
X0038000Y0299367D02*
X0038000Y0305367D01*
X0048000Y0305367D02*
X0048000Y0299367D01*
X0058000Y0299367D02*
X0058000Y0305367D01*
X0068000Y0305367D02*
X0068000Y0299367D01*
X0093000Y0299367D02*
X0093000Y0305367D01*
X0103000Y0305367D02*
X0103000Y0299367D01*
X0113000Y0299367D02*
X0113000Y0305367D01*
X0123000Y0305367D02*
X0123000Y0299367D01*
X0133000Y0299367D02*
X0133000Y0305367D01*
X0143000Y0305367D02*
X0143000Y0299367D01*
X0168000Y0299367D02*
X0168000Y0305367D01*
X0178000Y0305367D02*
X0178000Y0299367D01*
X0188000Y0299367D02*
X0188000Y0305367D01*
X0198000Y0305367D02*
X0198000Y0299367D01*
X0208000Y0299367D02*
X0208000Y0305367D01*
X0203000Y0160367D02*
X0203000Y0154367D01*
X0213000Y0154367D02*
X0213000Y0160367D01*
X0193000Y0160367D02*
X0193000Y0154367D01*
X0183000Y0154367D02*
X0183000Y0160367D01*
X0173000Y0160367D02*
X0173000Y0154367D01*
X0168000Y0017867D02*
X0168000Y0011867D01*
X0158000Y0011867D02*
X0158000Y0017867D01*
X0148000Y0017867D02*
X0148000Y0011867D01*
X0205500Y0011867D02*
X0205500Y0017867D01*
X0215500Y0017867D02*
X0215500Y0011867D01*
X0225500Y0011867D02*
X0225500Y0017867D01*
X0088000Y0017867D02*
X0088000Y0011867D01*
X0078000Y0011867D02*
X0078000Y0017867D01*
X0068000Y0017867D02*
X0068000Y0011867D01*
X0030500Y0011867D02*
X0030500Y0017867D01*
X0020500Y0017867D02*
X0020500Y0011867D01*
X0010500Y0011867D02*
X0010500Y0017867D01*
X0023000Y0154367D02*
X0023000Y0160367D01*
X0033000Y0160367D02*
X0033000Y0154367D01*
X0043000Y0154367D02*
X0043000Y0160367D01*
X0053000Y0160367D02*
X0053000Y0154367D01*
X0063000Y0154367D02*
X0063000Y0160367D01*
D12*
X0103000Y0157367D03*
X0103000Y0167367D03*
X0103000Y0177367D03*
X0103000Y0187367D03*
X0103000Y0197367D03*
X0103000Y0207367D03*
X0113000Y0207367D03*
X0113000Y0197367D03*
X0113000Y0187367D03*
X0113000Y0177367D03*
X0113000Y0167367D03*
X0113000Y0157367D03*
X0123000Y0157367D03*
X0123000Y0167367D03*
X0123000Y0177367D03*
X0123000Y0187367D03*
X0123000Y0197367D03*
X0123000Y0207367D03*
X0133000Y0207367D03*
X0133000Y0197367D03*
X0133000Y0187367D03*
X0133000Y0177367D03*
X0133000Y0167367D03*
X0133000Y0157367D03*
X0133000Y0062367D03*
X0133000Y0052367D03*
X0133000Y0042367D03*
X0133000Y0032367D03*
X0123000Y0032367D03*
X0123000Y0042367D03*
X0123000Y0052367D03*
X0123000Y0062367D03*
X0113000Y0062367D03*
X0113000Y0052367D03*
X0113000Y0042367D03*
X0113000Y0032367D03*
X0103000Y0032367D03*
X0103000Y0042367D03*
X0103000Y0052367D03*
X0103000Y0062367D03*
X0103000Y0022367D03*
X0103000Y0012367D03*
X0113000Y0012367D03*
X0113000Y0022367D03*
X0123000Y0022367D03*
X0123000Y0012367D03*
X0133000Y0012367D03*
X0133000Y0022367D03*
D13*
X0136202Y0017367D02*
X0138800Y0019964D01*
X0138800Y0024769D01*
X0136202Y0027367D01*
X0138800Y0029964D01*
X0138800Y0034769D01*
X0136202Y0037367D01*
X0138800Y0039964D01*
X0138800Y0044769D01*
X0136202Y0047367D01*
X0138800Y0049964D01*
X0138800Y0054769D01*
X0136202Y0057367D01*
X0138800Y0059964D01*
X0138800Y0064769D01*
X0135402Y0068167D01*
X0130598Y0068167D01*
X0128000Y0065569D01*
X0125402Y0068167D01*
X0120598Y0068167D01*
X0118000Y0065569D01*
X0115402Y0068167D01*
X0110598Y0068167D01*
X0108000Y0065569D01*
X0105402Y0068167D01*
X0100598Y0068167D01*
X0097200Y0064769D01*
X0097200Y0059964D01*
X0099798Y0057367D01*
X0097200Y0054769D01*
X0097200Y0049964D01*
X0099798Y0047367D01*
X0097200Y0044769D01*
X0097200Y0039964D01*
X0099798Y0037367D01*
X0097200Y0034769D01*
X0097200Y0029964D01*
X0099798Y0027367D01*
X0097200Y0024769D01*
X0097200Y0019964D01*
X0099798Y0017367D01*
X0097200Y0014769D01*
X0097200Y0010867D01*
X0093800Y0010867D01*
X0093800Y0019020D01*
X0092917Y0021152D01*
X0092800Y0021269D01*
X0092800Y0154410D01*
X0093234Y0153976D01*
X0094704Y0153367D01*
X0098798Y0153367D01*
X0100598Y0151567D01*
X0105402Y0151567D01*
X0108000Y0154164D01*
X0110598Y0151567D01*
X0115402Y0151567D01*
X0118000Y0154164D01*
X0120598Y0151567D01*
X0125402Y0151567D01*
X0128000Y0154164D01*
X0130598Y0151567D01*
X0135402Y0151567D01*
X0137202Y0153367D01*
X0141296Y0153367D01*
X0142766Y0153976D01*
X0143200Y0154410D01*
X0143200Y0021269D01*
X0143083Y0021152D01*
X0142200Y0019020D01*
X0142200Y0010867D01*
X0138800Y0010867D01*
X0138800Y0014769D01*
X0136202Y0017367D01*
X0138198Y0019362D02*
X0142342Y0019362D01*
X0142200Y0015364D02*
X0138205Y0015364D01*
X0138800Y0011365D02*
X0142200Y0011365D01*
X0148000Y0014867D02*
X0148000Y0164867D01*
X0178000Y0194867D01*
X0178000Y0302367D01*
X0183000Y0308452D02*
X0182917Y0308652D01*
X0181285Y0310284D01*
X0179154Y0311167D01*
X0176846Y0311167D01*
X0174715Y0310284D01*
X0173169Y0308738D01*
X0172493Y0310369D01*
X0169035Y0313827D01*
X0212143Y0313827D01*
X0211488Y0311382D01*
X0211488Y0310081D01*
X0211285Y0310284D01*
X0209154Y0311167D01*
X0206846Y0311167D01*
X0204715Y0310284D01*
X0203083Y0308652D01*
X0203000Y0308452D01*
X0202917Y0308652D01*
X0201285Y0310284D01*
X0199154Y0311167D01*
X0196846Y0311167D01*
X0194715Y0310284D01*
X0193083Y0308652D01*
X0193000Y0308452D01*
X0192917Y0308652D01*
X0191285Y0310284D01*
X0189154Y0311167D01*
X0186846Y0311167D01*
X0184715Y0310284D01*
X0183083Y0308652D01*
X0183000Y0308452D01*
X0188000Y0302367D02*
X0188000Y0194867D01*
X0158000Y0164867D01*
X0158000Y0014867D01*
X0153000Y0020952D02*
X0152917Y0021152D01*
X0152800Y0021269D01*
X0152800Y0162878D01*
X0153200Y0163278D01*
X0153200Y0021269D01*
X0153083Y0021152D01*
X0153000Y0020952D01*
X0152800Y0023361D02*
X0153200Y0023361D01*
X0153200Y0027359D02*
X0152800Y0027359D01*
X0152800Y0031358D02*
X0153200Y0031358D01*
X0153200Y0035356D02*
X0152800Y0035356D01*
X0152800Y0039355D02*
X0153200Y0039355D01*
X0153200Y0043353D02*
X0152800Y0043353D01*
X0152800Y0047352D02*
X0153200Y0047352D01*
X0153200Y0051350D02*
X0152800Y0051350D01*
X0152800Y0055349D02*
X0153200Y0055349D01*
X0153200Y0059347D02*
X0152800Y0059347D01*
X0152800Y0063346D02*
X0153200Y0063346D01*
X0153200Y0067344D02*
X0152800Y0067344D01*
X0152800Y0071343D02*
X0153200Y0071343D01*
X0153200Y0075341D02*
X0152800Y0075341D01*
X0152800Y0079340D02*
X0153200Y0079340D01*
X0153200Y0083338D02*
X0152800Y0083338D01*
X0152800Y0087337D02*
X0153200Y0087337D01*
X0153200Y0091335D02*
X0152800Y0091335D01*
X0152800Y0095334D02*
X0153200Y0095334D01*
X0153200Y0099332D02*
X0152800Y0099332D01*
X0152800Y0103331D02*
X0153200Y0103331D01*
X0153200Y0107329D02*
X0152800Y0107329D01*
X0152800Y0111328D02*
X0153200Y0111328D01*
X0153200Y0115326D02*
X0152800Y0115326D01*
X0152800Y0119325D02*
X0153200Y0119325D01*
X0153200Y0123323D02*
X0152800Y0123323D01*
X0152800Y0127322D02*
X0153200Y0127322D01*
X0153200Y0131321D02*
X0152800Y0131321D01*
X0152800Y0135319D02*
X0153200Y0135319D01*
X0153200Y0139318D02*
X0152800Y0139318D01*
X0152800Y0143316D02*
X0153200Y0143316D01*
X0153200Y0147315D02*
X0152800Y0147315D01*
X0152800Y0151313D02*
X0153200Y0151313D01*
X0153200Y0155312D02*
X0152800Y0155312D01*
X0152800Y0159310D02*
X0153200Y0159310D01*
X0147000Y0170655D02*
X0147000Y0213162D01*
X0146391Y0214632D01*
X0145266Y0215758D01*
X0140266Y0220758D01*
X0138796Y0221367D01*
X0109657Y0221367D01*
X0107000Y0224024D01*
X0107000Y0295164D01*
X0107917Y0296081D01*
X0108000Y0296282D01*
X0108083Y0296081D01*
X0109715Y0294450D01*
X0111846Y0293567D01*
X0114154Y0293567D01*
X0116285Y0294450D01*
X0117917Y0296081D01*
X0118000Y0296282D01*
X0118083Y0296081D01*
X0119715Y0294450D01*
X0121846Y0293567D01*
X0124154Y0293567D01*
X0126285Y0294450D01*
X0127917Y0296081D01*
X0128000Y0296282D01*
X0128083Y0296081D01*
X0129715Y0294450D01*
X0131846Y0293567D01*
X0134154Y0293567D01*
X0136285Y0294450D01*
X0137917Y0296081D01*
X0138000Y0296282D01*
X0138083Y0296081D01*
X0139715Y0294450D01*
X0141846Y0293567D01*
X0144154Y0293567D01*
X0146285Y0294450D01*
X0147917Y0296081D01*
X0148800Y0298213D01*
X0148800Y0306520D01*
X0148574Y0307067D01*
X0160805Y0307067D01*
X0162200Y0305671D01*
X0162200Y0298213D01*
X0163083Y0296081D01*
X0164715Y0294450D01*
X0166846Y0293567D01*
X0169154Y0293567D01*
X0171285Y0294450D01*
X0172917Y0296081D01*
X0173000Y0296282D01*
X0173083Y0296081D01*
X0173200Y0295964D01*
X0173200Y0196855D01*
X0147000Y0170655D01*
X0147000Y0171306D02*
X0147651Y0171306D01*
X0147000Y0175304D02*
X0151649Y0175304D01*
X0155648Y0179303D02*
X0147000Y0179303D01*
X0147000Y0183301D02*
X0159646Y0183301D01*
X0163645Y0187300D02*
X0147000Y0187300D01*
X0147000Y0191298D02*
X0167643Y0191298D01*
X0171642Y0195297D02*
X0147000Y0195297D01*
X0147000Y0199295D02*
X0173200Y0199295D01*
X0173200Y0203294D02*
X0147000Y0203294D01*
X0147000Y0207292D02*
X0173200Y0207292D01*
X0173200Y0211291D02*
X0147000Y0211291D01*
X0145734Y0215289D02*
X0173200Y0215289D01*
X0173200Y0219288D02*
X0141736Y0219288D01*
X0136343Y0213367D02*
X0139000Y0210710D01*
X0139000Y0161524D01*
X0138843Y0161367D01*
X0137202Y0161367D01*
X0136202Y0162367D01*
X0138800Y0164964D01*
X0138800Y0169769D01*
X0136202Y0172367D01*
X0138800Y0174964D01*
X0138800Y0179769D01*
X0136202Y0182367D01*
X0138800Y0184964D01*
X0138800Y0189769D01*
X0136202Y0192367D01*
X0138800Y0194964D01*
X0138800Y0199769D01*
X0136202Y0202367D01*
X0138800Y0204964D01*
X0138800Y0209769D01*
X0135402Y0213167D01*
X0130598Y0213167D01*
X0128000Y0210569D01*
X0125402Y0213167D01*
X0120598Y0213167D01*
X0118000Y0210569D01*
X0115402Y0213167D01*
X0110598Y0213167D01*
X0108000Y0210569D01*
X0105402Y0213167D01*
X0100598Y0213167D01*
X0097200Y0209769D01*
X0097200Y0204964D01*
X0099798Y0202367D01*
X0097200Y0199769D01*
X0097200Y0194964D01*
X0099798Y0192367D01*
X0097200Y0189769D01*
X0097200Y0184964D01*
X0099798Y0182367D01*
X0097200Y0179769D01*
X0097200Y0174964D01*
X0099798Y0172367D01*
X0097200Y0169769D01*
X0097200Y0164964D01*
X0099798Y0162367D01*
X0098798Y0161367D01*
X0097157Y0161367D01*
X0097000Y0161524D01*
X0097000Y0295164D01*
X0097917Y0296081D01*
X0098000Y0296282D01*
X0098083Y0296081D01*
X0099000Y0295164D01*
X0099000Y0221571D01*
X0099609Y0220101D01*
X0105734Y0213976D01*
X0107204Y0213367D01*
X0108796Y0213367D01*
X0136343Y0213367D01*
X0137278Y0211291D02*
X0138419Y0211291D01*
X0138800Y0207292D02*
X0139000Y0207292D01*
X0139000Y0203294D02*
X0137129Y0203294D01*
X0138800Y0199295D02*
X0139000Y0199295D01*
X0139000Y0195297D02*
X0138800Y0195297D01*
X0139000Y0191298D02*
X0137271Y0191298D01*
X0138800Y0187300D02*
X0139000Y0187300D01*
X0139000Y0183301D02*
X0137137Y0183301D01*
X0138800Y0179303D02*
X0139000Y0179303D01*
X0139000Y0175304D02*
X0138800Y0175304D01*
X0139000Y0171306D02*
X0137263Y0171306D01*
X0138800Y0167307D02*
X0139000Y0167307D01*
X0139000Y0163309D02*
X0137144Y0163309D01*
X0129798Y0162367D02*
X0128000Y0160569D01*
X0126202Y0162367D01*
X0128000Y0164164D01*
X0129798Y0162367D01*
X0128856Y0163309D02*
X0127144Y0163309D01*
X0128000Y0170569D02*
X0126202Y0172367D01*
X0128000Y0174164D01*
X0129798Y0172367D01*
X0128000Y0170569D01*
X0127263Y0171306D02*
X0128737Y0171306D01*
X0128000Y0180569D02*
X0126202Y0182367D01*
X0128000Y0184164D01*
X0129798Y0182367D01*
X0128000Y0180569D01*
X0127137Y0183301D02*
X0128863Y0183301D01*
X0128000Y0190569D02*
X0126202Y0192367D01*
X0128000Y0194164D01*
X0129798Y0192367D01*
X0128000Y0190569D01*
X0127271Y0191298D02*
X0128729Y0191298D01*
X0128000Y0200569D02*
X0126202Y0202367D01*
X0128000Y0204164D01*
X0129798Y0202367D01*
X0128000Y0200569D01*
X0127129Y0203294D02*
X0128871Y0203294D01*
X0128722Y0211291D02*
X0127278Y0211291D01*
X0118722Y0211291D02*
X0117278Y0211291D01*
X0118000Y0204164D02*
X0119798Y0202367D01*
X0118000Y0200569D01*
X0116202Y0202367D01*
X0118000Y0204164D01*
X0117129Y0203294D02*
X0118871Y0203294D01*
X0118000Y0194164D02*
X0119798Y0192367D01*
X0118000Y0190569D01*
X0116202Y0192367D01*
X0118000Y0194164D01*
X0117271Y0191298D02*
X0118729Y0191298D01*
X0118000Y0184164D02*
X0119798Y0182367D01*
X0118000Y0180569D01*
X0116202Y0182367D01*
X0118000Y0184164D01*
X0117137Y0183301D02*
X0118863Y0183301D01*
X0118000Y0174164D02*
X0116202Y0172367D01*
X0118000Y0170569D01*
X0119798Y0172367D01*
X0118000Y0174164D01*
X0117263Y0171306D02*
X0118737Y0171306D01*
X0118000Y0164164D02*
X0116202Y0162367D01*
X0118000Y0160569D01*
X0119798Y0162367D01*
X0118000Y0164164D01*
X0117144Y0163309D02*
X0118856Y0163309D01*
X0109798Y0162367D02*
X0108000Y0160569D01*
X0106202Y0162367D01*
X0108000Y0164164D01*
X0109798Y0162367D01*
X0108856Y0163309D02*
X0107144Y0163309D01*
X0108000Y0170569D02*
X0106202Y0172367D01*
X0108000Y0174164D01*
X0109798Y0172367D01*
X0108000Y0170569D01*
X0107263Y0171306D02*
X0108737Y0171306D01*
X0108000Y0180569D02*
X0106202Y0182367D01*
X0108000Y0184164D01*
X0109798Y0182367D01*
X0108000Y0180569D01*
X0107137Y0183301D02*
X0108863Y0183301D01*
X0108000Y0190569D02*
X0106202Y0192367D01*
X0108000Y0194164D01*
X0109798Y0192367D01*
X0108000Y0190569D01*
X0107271Y0191298D02*
X0108729Y0191298D01*
X0108000Y0200569D02*
X0106202Y0202367D01*
X0108000Y0204164D01*
X0109798Y0202367D01*
X0108000Y0200569D01*
X0107129Y0203294D02*
X0108871Y0203294D01*
X0108722Y0211291D02*
X0107278Y0211291D01*
X0104421Y0215289D02*
X0097000Y0215289D01*
X0097000Y0211291D02*
X0098722Y0211291D01*
X0097200Y0207292D02*
X0097000Y0207292D01*
X0097000Y0203294D02*
X0098871Y0203294D01*
X0097200Y0199295D02*
X0097000Y0199295D01*
X0097000Y0195297D02*
X0097200Y0195297D01*
X0097000Y0191298D02*
X0098729Y0191298D01*
X0097200Y0187300D02*
X0097000Y0187300D01*
X0097000Y0183301D02*
X0098863Y0183301D01*
X0097200Y0179303D02*
X0097000Y0179303D01*
X0097000Y0175304D02*
X0097200Y0175304D01*
X0097000Y0171306D02*
X0098737Y0171306D01*
X0097200Y0167307D02*
X0097000Y0167307D01*
X0097000Y0163309D02*
X0098856Y0163309D01*
X0088000Y0164867D02*
X0088000Y0014867D01*
X0093800Y0015364D02*
X0097795Y0015364D01*
X0097802Y0019362D02*
X0093658Y0019362D01*
X0092800Y0023361D02*
X0097200Y0023361D01*
X0099790Y0027359D02*
X0092800Y0027359D01*
X0092800Y0031358D02*
X0097200Y0031358D01*
X0097787Y0035356D02*
X0092800Y0035356D01*
X0092800Y0039355D02*
X0097809Y0039355D01*
X0097200Y0043353D02*
X0092800Y0043353D01*
X0092800Y0047352D02*
X0099783Y0047352D01*
X0097200Y0051350D02*
X0092800Y0051350D01*
X0092800Y0055349D02*
X0097780Y0055349D01*
X0097817Y0059347D02*
X0092800Y0059347D01*
X0092800Y0063346D02*
X0097200Y0063346D01*
X0099775Y0067344D02*
X0092800Y0067344D01*
X0092800Y0071343D02*
X0143200Y0071343D01*
X0143200Y0075341D02*
X0092800Y0075341D01*
X0092800Y0079340D02*
X0143200Y0079340D01*
X0143200Y0083338D02*
X0092800Y0083338D01*
X0092800Y0087337D02*
X0143200Y0087337D01*
X0143200Y0091335D02*
X0092800Y0091335D01*
X0092800Y0095334D02*
X0143200Y0095334D01*
X0143200Y0099332D02*
X0092800Y0099332D01*
X0092800Y0103331D02*
X0143200Y0103331D01*
X0143200Y0107329D02*
X0092800Y0107329D01*
X0092800Y0111328D02*
X0143200Y0111328D01*
X0143200Y0115326D02*
X0092800Y0115326D01*
X0092800Y0119325D02*
X0143200Y0119325D01*
X0143200Y0123323D02*
X0092800Y0123323D01*
X0092800Y0127322D02*
X0143200Y0127322D01*
X0143200Y0131321D02*
X0092800Y0131321D01*
X0092800Y0135319D02*
X0143200Y0135319D01*
X0143200Y0139318D02*
X0092800Y0139318D01*
X0092800Y0143316D02*
X0143200Y0143316D01*
X0143200Y0147315D02*
X0092800Y0147315D01*
X0092800Y0151313D02*
X0143200Y0151313D01*
X0162800Y0148278D02*
X0163200Y0147878D01*
X0163200Y0021269D01*
X0163083Y0021152D01*
X0163000Y0020952D01*
X0162917Y0021152D01*
X0162800Y0021269D01*
X0162800Y0148278D01*
X0162800Y0147315D02*
X0163200Y0147315D01*
X0163200Y0143316D02*
X0162800Y0143316D01*
X0162800Y0139318D02*
X0163200Y0139318D01*
X0163200Y0135319D02*
X0162800Y0135319D01*
X0162800Y0131321D02*
X0163200Y0131321D01*
X0163200Y0127322D02*
X0162800Y0127322D01*
X0162800Y0123323D02*
X0163200Y0123323D01*
X0163200Y0119325D02*
X0162800Y0119325D01*
X0162800Y0115326D02*
X0163200Y0115326D01*
X0163200Y0111328D02*
X0162800Y0111328D01*
X0162800Y0107329D02*
X0163200Y0107329D01*
X0163200Y0103331D02*
X0162800Y0103331D01*
X0162800Y0099332D02*
X0163200Y0099332D01*
X0163200Y0095334D02*
X0162800Y0095334D01*
X0162800Y0091335D02*
X0163200Y0091335D01*
X0163200Y0087337D02*
X0162800Y0087337D01*
X0162800Y0083338D02*
X0163200Y0083338D01*
X0163200Y0079340D02*
X0162800Y0079340D01*
X0162800Y0075341D02*
X0163200Y0075341D01*
X0163200Y0071343D02*
X0162800Y0071343D01*
X0162800Y0067344D02*
X0163200Y0067344D01*
X0163200Y0063346D02*
X0162800Y0063346D01*
X0162800Y0059347D02*
X0163200Y0059347D01*
X0163200Y0055349D02*
X0162800Y0055349D01*
X0162800Y0051350D02*
X0163200Y0051350D01*
X0163200Y0047352D02*
X0162800Y0047352D01*
X0162800Y0043353D02*
X0163200Y0043353D01*
X0163200Y0039355D02*
X0162800Y0039355D01*
X0162800Y0035356D02*
X0163200Y0035356D01*
X0163200Y0031358D02*
X0162800Y0031358D01*
X0162800Y0027359D02*
X0163200Y0027359D01*
X0163200Y0023361D02*
X0162800Y0023361D01*
X0168000Y0014867D02*
X0168000Y0149867D01*
X0165500Y0152367D01*
X0165500Y0162367D01*
X0198000Y0194867D01*
X0198000Y0302367D01*
X0203000Y0296282D02*
X0202917Y0296081D01*
X0202800Y0295964D01*
X0202800Y0193912D01*
X0202069Y0192148D01*
X0175522Y0165600D01*
X0176285Y0165284D01*
X0177917Y0163652D01*
X0178000Y0163452D01*
X0178083Y0163652D01*
X0179715Y0165284D01*
X0181846Y0166167D01*
X0184154Y0166167D01*
X0186285Y0165284D01*
X0187917Y0163652D01*
X0188000Y0163452D01*
X0188083Y0163652D01*
X0189715Y0165284D01*
X0191846Y0166167D01*
X0194154Y0166167D01*
X0196285Y0165284D01*
X0197917Y0163652D01*
X0198000Y0163452D01*
X0198083Y0163652D01*
X0199715Y0165284D01*
X0201846Y0166167D01*
X0204154Y0166167D01*
X0206285Y0165284D01*
X0207917Y0163652D01*
X0208000Y0163452D01*
X0208083Y0163652D01*
X0209715Y0165284D01*
X0211846Y0166167D01*
X0214154Y0166167D01*
X0216285Y0165284D01*
X0217917Y0163652D01*
X0218800Y0161520D01*
X0218800Y0153213D01*
X0217917Y0151081D01*
X0216285Y0149450D01*
X0214154Y0148567D01*
X0211846Y0148567D01*
X0209715Y0149450D01*
X0208083Y0151081D01*
X0208000Y0151282D01*
X0207917Y0151081D01*
X0207800Y0150964D01*
X0207800Y0116855D01*
X0226951Y0097704D01*
X0226951Y0299007D01*
X0224516Y0298355D01*
X0221484Y0298355D01*
X0218557Y0299139D01*
X0215932Y0300655D01*
X0213800Y0302787D01*
X0213800Y0298213D01*
X0212917Y0296081D01*
X0211285Y0294450D01*
X0209154Y0293567D01*
X0206846Y0293567D01*
X0204715Y0294450D01*
X0203083Y0296081D01*
X0203000Y0296282D01*
X0202800Y0295259D02*
X0203905Y0295259D01*
X0202800Y0291261D02*
X0226951Y0291261D01*
X0226951Y0295259D02*
X0212095Y0295259D01*
X0213800Y0299258D02*
X0218351Y0299258D01*
X0211488Y0311254D02*
X0171608Y0311254D01*
X0162200Y0303256D02*
X0148800Y0303256D01*
X0148800Y0299258D02*
X0162200Y0299258D01*
X0163905Y0295259D02*
X0147095Y0295259D01*
X0138905Y0295259D02*
X0137095Y0295259D01*
X0128905Y0295259D02*
X0127095Y0295259D01*
X0118905Y0295259D02*
X0117095Y0295259D01*
X0108905Y0295259D02*
X0107095Y0295259D01*
X0107000Y0291261D02*
X0173200Y0291261D01*
X0173200Y0295259D02*
X0172095Y0295259D01*
X0173200Y0287262D02*
X0107000Y0287262D01*
X0107000Y0283264D02*
X0173200Y0283264D01*
X0173200Y0279265D02*
X0107000Y0279265D01*
X0107000Y0275267D02*
X0173200Y0275267D01*
X0173200Y0271268D02*
X0107000Y0271268D01*
X0107000Y0267270D02*
X0173200Y0267270D01*
X0173200Y0263271D02*
X0107000Y0263271D01*
X0107000Y0259273D02*
X0173200Y0259273D01*
X0173200Y0255274D02*
X0107000Y0255274D01*
X0107000Y0251276D02*
X0173200Y0251276D01*
X0173200Y0247277D02*
X0107000Y0247277D01*
X0107000Y0243279D02*
X0173200Y0243279D01*
X0173200Y0239280D02*
X0107000Y0239280D01*
X0107000Y0235282D02*
X0173200Y0235282D01*
X0173200Y0231283D02*
X0107000Y0231283D01*
X0107000Y0227285D02*
X0173200Y0227285D01*
X0173200Y0223286D02*
X0107737Y0223286D01*
X0100422Y0219288D02*
X0097000Y0219288D01*
X0097000Y0223286D02*
X0099000Y0223286D01*
X0099000Y0227285D02*
X0097000Y0227285D01*
X0097000Y0231283D02*
X0099000Y0231283D01*
X0099000Y0235282D02*
X0097000Y0235282D01*
X0097000Y0239280D02*
X0099000Y0239280D01*
X0099000Y0243279D02*
X0097000Y0243279D01*
X0097000Y0247277D02*
X0099000Y0247277D01*
X0099000Y0251276D02*
X0097000Y0251276D01*
X0097000Y0255274D02*
X0099000Y0255274D01*
X0099000Y0259273D02*
X0097000Y0259273D01*
X0097000Y0263271D02*
X0099000Y0263271D01*
X0099000Y0267270D02*
X0097000Y0267270D01*
X0097000Y0271268D02*
X0099000Y0271268D01*
X0099000Y0275267D02*
X0097000Y0275267D01*
X0097000Y0279265D02*
X0099000Y0279265D01*
X0099000Y0283264D02*
X0097000Y0283264D01*
X0097000Y0287262D02*
X0099000Y0287262D01*
X0099000Y0291261D02*
X0097000Y0291261D01*
X0097095Y0295259D02*
X0098905Y0295259D01*
X0089000Y0295164D02*
X0089000Y0170655D01*
X0062800Y0196855D01*
X0062800Y0295964D01*
X0062917Y0296081D01*
X0063000Y0296282D01*
X0063083Y0296081D01*
X0064715Y0294450D01*
X0066846Y0293567D01*
X0069154Y0293567D01*
X0071285Y0294450D01*
X0072917Y0296081D01*
X0073800Y0298213D01*
X0073800Y0306520D01*
X0073574Y0307067D01*
X0087426Y0307067D01*
X0087200Y0306520D01*
X0087200Y0298213D01*
X0088083Y0296081D01*
X0089000Y0295164D01*
X0088905Y0295259D02*
X0072095Y0295259D01*
X0073800Y0299258D02*
X0087200Y0299258D01*
X0087200Y0303256D02*
X0073800Y0303256D01*
X0063905Y0295259D02*
X0062800Y0295259D01*
X0062800Y0291261D02*
X0089000Y0291261D01*
X0089000Y0287262D02*
X0062800Y0287262D01*
X0062800Y0283264D02*
X0089000Y0283264D01*
X0089000Y0279265D02*
X0062800Y0279265D01*
X0062800Y0275267D02*
X0089000Y0275267D01*
X0089000Y0271268D02*
X0062800Y0271268D01*
X0062800Y0267270D02*
X0089000Y0267270D01*
X0089000Y0263271D02*
X0062800Y0263271D01*
X0062800Y0259273D02*
X0089000Y0259273D01*
X0089000Y0255274D02*
X0062800Y0255274D01*
X0062800Y0251276D02*
X0089000Y0251276D01*
X0089000Y0247277D02*
X0062800Y0247277D01*
X0062800Y0243279D02*
X0089000Y0243279D01*
X0089000Y0239280D02*
X0062800Y0239280D01*
X0062800Y0235282D02*
X0089000Y0235282D01*
X0089000Y0231283D02*
X0062800Y0231283D01*
X0062800Y0227285D02*
X0089000Y0227285D01*
X0089000Y0223286D02*
X0062800Y0223286D01*
X0062800Y0219288D02*
X0089000Y0219288D01*
X0089000Y0215289D02*
X0062800Y0215289D01*
X0062800Y0211291D02*
X0089000Y0211291D01*
X0089000Y0207292D02*
X0062800Y0207292D01*
X0062800Y0203294D02*
X0089000Y0203294D01*
X0089000Y0199295D02*
X0062800Y0199295D01*
X0064358Y0195297D02*
X0089000Y0195297D01*
X0089000Y0191298D02*
X0068357Y0191298D01*
X0072355Y0187300D02*
X0089000Y0187300D01*
X0089000Y0183301D02*
X0076354Y0183301D01*
X0080352Y0179303D02*
X0089000Y0179303D01*
X0089000Y0175304D02*
X0084351Y0175304D01*
X0088349Y0171306D02*
X0089000Y0171306D01*
X0088000Y0164867D02*
X0058000Y0194867D01*
X0058000Y0302367D01*
X0053000Y0296282D02*
X0053083Y0296081D01*
X0053200Y0295964D01*
X0053200Y0196455D01*
X0052800Y0196855D01*
X0052800Y0295964D01*
X0052917Y0296081D01*
X0053000Y0296282D01*
X0052800Y0295259D02*
X0053200Y0295259D01*
X0053200Y0291261D02*
X0052800Y0291261D01*
X0052800Y0287262D02*
X0053200Y0287262D01*
X0053200Y0283264D02*
X0052800Y0283264D01*
X0052800Y0279265D02*
X0053200Y0279265D01*
X0053200Y0275267D02*
X0052800Y0275267D01*
X0052800Y0271268D02*
X0053200Y0271268D01*
X0053200Y0267270D02*
X0052800Y0267270D01*
X0052800Y0263271D02*
X0053200Y0263271D01*
X0053200Y0259273D02*
X0052800Y0259273D01*
X0052800Y0255274D02*
X0053200Y0255274D01*
X0053200Y0251276D02*
X0052800Y0251276D01*
X0052800Y0247277D02*
X0053200Y0247277D01*
X0053200Y0243279D02*
X0052800Y0243279D01*
X0052800Y0239280D02*
X0053200Y0239280D01*
X0053200Y0235282D02*
X0052800Y0235282D01*
X0052800Y0231283D02*
X0053200Y0231283D01*
X0053200Y0227285D02*
X0052800Y0227285D01*
X0052800Y0223286D02*
X0053200Y0223286D01*
X0053200Y0219288D02*
X0052800Y0219288D01*
X0052800Y0215289D02*
X0053200Y0215289D01*
X0053200Y0211291D02*
X0052800Y0211291D01*
X0052800Y0207292D02*
X0053200Y0207292D01*
X0053200Y0203294D02*
X0052800Y0203294D01*
X0052800Y0199295D02*
X0053200Y0199295D01*
X0048000Y0194867D02*
X0048000Y0302367D01*
X0043000Y0296282D02*
X0043083Y0296081D01*
X0043200Y0295964D01*
X0043200Y0196455D01*
X0042800Y0196855D01*
X0042800Y0295964D01*
X0042917Y0296081D01*
X0043000Y0296282D01*
X0042800Y0295259D02*
X0043200Y0295259D01*
X0043200Y0291261D02*
X0042800Y0291261D01*
X0042800Y0287262D02*
X0043200Y0287262D01*
X0043200Y0283264D02*
X0042800Y0283264D01*
X0042800Y0279265D02*
X0043200Y0279265D01*
X0043200Y0275267D02*
X0042800Y0275267D01*
X0042800Y0271268D02*
X0043200Y0271268D01*
X0043200Y0267270D02*
X0042800Y0267270D01*
X0042800Y0263271D02*
X0043200Y0263271D01*
X0043200Y0259273D02*
X0042800Y0259273D01*
X0042800Y0255274D02*
X0043200Y0255274D01*
X0043200Y0251276D02*
X0042800Y0251276D01*
X0042800Y0247277D02*
X0043200Y0247277D01*
X0043200Y0243279D02*
X0042800Y0243279D01*
X0042800Y0239280D02*
X0043200Y0239280D01*
X0043200Y0235282D02*
X0042800Y0235282D01*
X0042800Y0231283D02*
X0043200Y0231283D01*
X0043200Y0227285D02*
X0042800Y0227285D01*
X0042800Y0223286D02*
X0043200Y0223286D01*
X0043200Y0219288D02*
X0042800Y0219288D01*
X0042800Y0215289D02*
X0043200Y0215289D01*
X0043200Y0211291D02*
X0042800Y0211291D01*
X0042800Y0207292D02*
X0043200Y0207292D01*
X0043200Y0203294D02*
X0042800Y0203294D01*
X0042800Y0199295D02*
X0043200Y0199295D01*
X0048000Y0194867D02*
X0078000Y0164867D01*
X0078000Y0014867D01*
X0083000Y0020952D02*
X0082917Y0021152D01*
X0082800Y0021269D01*
X0082800Y0163278D01*
X0083200Y0162878D01*
X0083200Y0021269D01*
X0083083Y0021152D01*
X0083000Y0020952D01*
X0082800Y0023361D02*
X0083200Y0023361D01*
X0083200Y0027359D02*
X0082800Y0027359D01*
X0082800Y0031358D02*
X0083200Y0031358D01*
X0083200Y0035356D02*
X0082800Y0035356D01*
X0082800Y0039355D02*
X0083200Y0039355D01*
X0083200Y0043353D02*
X0082800Y0043353D01*
X0082800Y0047352D02*
X0083200Y0047352D01*
X0083200Y0051350D02*
X0082800Y0051350D01*
X0082800Y0055349D02*
X0083200Y0055349D01*
X0083200Y0059347D02*
X0082800Y0059347D01*
X0082800Y0063346D02*
X0083200Y0063346D01*
X0083200Y0067344D02*
X0082800Y0067344D01*
X0082800Y0071343D02*
X0083200Y0071343D01*
X0083200Y0075341D02*
X0082800Y0075341D01*
X0082800Y0079340D02*
X0083200Y0079340D01*
X0083200Y0083338D02*
X0082800Y0083338D01*
X0082800Y0087337D02*
X0083200Y0087337D01*
X0083200Y0091335D02*
X0082800Y0091335D01*
X0082800Y0095334D02*
X0083200Y0095334D01*
X0083200Y0099332D02*
X0082800Y0099332D01*
X0082800Y0103331D02*
X0083200Y0103331D01*
X0083200Y0107329D02*
X0082800Y0107329D01*
X0082800Y0111328D02*
X0083200Y0111328D01*
X0083200Y0115326D02*
X0082800Y0115326D01*
X0082800Y0119325D02*
X0083200Y0119325D01*
X0083200Y0123323D02*
X0082800Y0123323D01*
X0082800Y0127322D02*
X0083200Y0127322D01*
X0083200Y0131321D02*
X0082800Y0131321D01*
X0082800Y0135319D02*
X0083200Y0135319D01*
X0083200Y0139318D02*
X0082800Y0139318D01*
X0082800Y0143316D02*
X0083200Y0143316D01*
X0083200Y0147315D02*
X0082800Y0147315D01*
X0082800Y0151313D02*
X0083200Y0151313D01*
X0083200Y0155312D02*
X0082800Y0155312D01*
X0082800Y0159310D02*
X0083200Y0159310D01*
X0073200Y0148278D02*
X0072800Y0147878D01*
X0072800Y0021269D01*
X0072917Y0021152D01*
X0073000Y0020952D01*
X0073083Y0021152D01*
X0073200Y0021269D01*
X0073200Y0148278D01*
X0073200Y0147315D02*
X0072800Y0147315D01*
X0072800Y0143316D02*
X0073200Y0143316D01*
X0073200Y0139318D02*
X0072800Y0139318D01*
X0072800Y0135319D02*
X0073200Y0135319D01*
X0073200Y0131321D02*
X0072800Y0131321D01*
X0072800Y0127322D02*
X0073200Y0127322D01*
X0073200Y0123323D02*
X0072800Y0123323D01*
X0072800Y0119325D02*
X0073200Y0119325D01*
X0073200Y0115326D02*
X0072800Y0115326D01*
X0072800Y0111328D02*
X0073200Y0111328D01*
X0073200Y0107329D02*
X0072800Y0107329D01*
X0072800Y0103331D02*
X0073200Y0103331D01*
X0073200Y0099332D02*
X0072800Y0099332D01*
X0072800Y0095334D02*
X0073200Y0095334D01*
X0073200Y0091335D02*
X0072800Y0091335D01*
X0072800Y0087337D02*
X0073200Y0087337D01*
X0073200Y0083338D02*
X0072800Y0083338D01*
X0072800Y0079340D02*
X0073200Y0079340D01*
X0073200Y0075341D02*
X0072800Y0075341D01*
X0072800Y0071343D02*
X0073200Y0071343D01*
X0073200Y0067344D02*
X0072800Y0067344D01*
X0072800Y0063346D02*
X0073200Y0063346D01*
X0073200Y0059347D02*
X0072800Y0059347D01*
X0072800Y0055349D02*
X0073200Y0055349D01*
X0073200Y0051350D02*
X0072800Y0051350D01*
X0072800Y0047352D02*
X0073200Y0047352D01*
X0073200Y0043353D02*
X0072800Y0043353D01*
X0072800Y0039355D02*
X0073200Y0039355D01*
X0073200Y0035356D02*
X0072800Y0035356D01*
X0072800Y0031358D02*
X0073200Y0031358D01*
X0073200Y0027359D02*
X0072800Y0027359D01*
X0072800Y0023361D02*
X0073200Y0023361D01*
X0068000Y0029867D02*
X0068000Y0014867D01*
X0062200Y0015364D02*
X0059512Y0015364D01*
X0059512Y0016382D02*
X0059512Y0013351D01*
X0058846Y0010867D01*
X0062200Y0010867D01*
X0062200Y0019020D01*
X0063083Y0021152D01*
X0063200Y0021269D01*
X0063200Y0148567D01*
X0061846Y0148567D01*
X0059715Y0149450D01*
X0058083Y0151081D01*
X0058000Y0151282D01*
X0057917Y0151081D01*
X0057800Y0150964D01*
X0057800Y0108912D01*
X0057069Y0107148D01*
X0035300Y0085378D01*
X0035300Y0021269D01*
X0035417Y0021152D01*
X0036300Y0019020D01*
X0036300Y0010867D01*
X0037154Y0010867D01*
X0036488Y0013351D01*
X0036488Y0016382D01*
X0037273Y0019310D01*
X0038788Y0021935D01*
X0040932Y0024078D01*
X0043557Y0025594D01*
X0046484Y0026378D01*
X0049516Y0026378D01*
X0052443Y0025594D01*
X0055068Y0024078D01*
X0057212Y0021935D01*
X0058727Y0019310D01*
X0059512Y0016382D01*
X0058697Y0019362D02*
X0062342Y0019362D01*
X0063200Y0023361D02*
X0055786Y0023361D01*
X0063200Y0027359D02*
X0035300Y0027359D01*
X0035300Y0023361D02*
X0040214Y0023361D01*
X0037303Y0019362D02*
X0036158Y0019362D01*
X0036300Y0015364D02*
X0036488Y0015364D01*
X0036300Y0011365D02*
X0037020Y0011365D01*
X0030500Y0014867D02*
X0030500Y0087367D01*
X0053000Y0109867D01*
X0053000Y0157367D01*
X0058000Y0163452D02*
X0057917Y0163652D01*
X0056285Y0165284D01*
X0054154Y0166167D01*
X0051846Y0166167D01*
X0049715Y0165284D01*
X0048083Y0163652D01*
X0048000Y0163452D01*
X0047917Y0163652D01*
X0046285Y0165284D01*
X0044154Y0166167D01*
X0041846Y0166167D01*
X0039715Y0165284D01*
X0038083Y0163652D01*
X0038000Y0163452D01*
X0037917Y0163652D01*
X0036285Y0165284D01*
X0034154Y0166167D01*
X0031846Y0166167D01*
X0029715Y0165284D01*
X0028083Y0163652D01*
X0028000Y0163452D01*
X0027917Y0163652D01*
X0026285Y0165284D01*
X0024154Y0166167D01*
X0021846Y0166167D01*
X0019715Y0165284D01*
X0018083Y0163652D01*
X0017200Y0161520D01*
X0017200Y0153213D01*
X0018083Y0151081D01*
X0019715Y0149450D01*
X0021846Y0148567D01*
X0024154Y0148567D01*
X0026285Y0149450D01*
X0027917Y0151081D01*
X0028000Y0151282D01*
X0028083Y0151081D01*
X0028200Y0150964D01*
X0028200Y0116855D01*
X0009000Y0097655D01*
X0009000Y0299021D01*
X0011484Y0298355D01*
X0014516Y0298355D01*
X0017443Y0299139D01*
X0020068Y0300655D01*
X0022200Y0302787D01*
X0022200Y0298213D01*
X0023083Y0296081D01*
X0024715Y0294450D01*
X0026846Y0293567D01*
X0029154Y0293567D01*
X0031285Y0294450D01*
X0032917Y0296081D01*
X0033000Y0296282D01*
X0033083Y0296081D01*
X0033200Y0295964D01*
X0033200Y0193912D01*
X0033931Y0192148D01*
X0035281Y0190797D01*
X0060478Y0165600D01*
X0059715Y0165284D01*
X0058083Y0163652D01*
X0058000Y0163452D01*
X0058771Y0167307D02*
X0009000Y0167307D01*
X0009000Y0163309D02*
X0017941Y0163309D01*
X0017200Y0159310D02*
X0009000Y0159310D01*
X0009000Y0155312D02*
X0017200Y0155312D01*
X0017987Y0151313D02*
X0009000Y0151313D01*
X0009000Y0147315D02*
X0028200Y0147315D01*
X0028200Y0143316D02*
X0009000Y0143316D01*
X0009000Y0139318D02*
X0028200Y0139318D01*
X0028200Y0135319D02*
X0009000Y0135319D01*
X0009000Y0131321D02*
X0028200Y0131321D01*
X0028200Y0127322D02*
X0009000Y0127322D01*
X0009000Y0123323D02*
X0028200Y0123323D01*
X0028200Y0119325D02*
X0009000Y0119325D01*
X0009000Y0115326D02*
X0026672Y0115326D01*
X0022673Y0111328D02*
X0009000Y0111328D01*
X0009000Y0107329D02*
X0018675Y0107329D01*
X0014676Y0103331D02*
X0009000Y0103331D01*
X0009000Y0099332D02*
X0010678Y0099332D01*
X0010500Y0092367D02*
X0010500Y0014867D01*
X0015500Y0020952D02*
X0015417Y0021152D01*
X0015300Y0021269D01*
X0015300Y0090378D01*
X0015700Y0090778D01*
X0015700Y0021269D01*
X0015583Y0021152D01*
X0015500Y0020952D01*
X0015300Y0023361D02*
X0015700Y0023361D01*
X0015700Y0027359D02*
X0015300Y0027359D01*
X0015300Y0031358D02*
X0015700Y0031358D01*
X0015700Y0035356D02*
X0015300Y0035356D01*
X0015300Y0039355D02*
X0015700Y0039355D01*
X0015700Y0043353D02*
X0015300Y0043353D01*
X0015300Y0047352D02*
X0015700Y0047352D01*
X0015700Y0051350D02*
X0015300Y0051350D01*
X0015300Y0055349D02*
X0015700Y0055349D01*
X0015700Y0059347D02*
X0015300Y0059347D01*
X0015300Y0063346D02*
X0015700Y0063346D01*
X0015700Y0067344D02*
X0015300Y0067344D01*
X0015300Y0071343D02*
X0015700Y0071343D01*
X0015700Y0075341D02*
X0015300Y0075341D01*
X0015300Y0079340D02*
X0015700Y0079340D01*
X0015700Y0083338D02*
X0015300Y0083338D01*
X0015300Y0087337D02*
X0015700Y0087337D01*
X0020500Y0089867D02*
X0020500Y0014867D01*
X0020500Y0012367D01*
X0025500Y0020952D02*
X0025417Y0021152D01*
X0025300Y0021269D01*
X0025300Y0087878D01*
X0025700Y0088278D01*
X0025700Y0021269D01*
X0025583Y0021152D01*
X0025500Y0020952D01*
X0025300Y0023361D02*
X0025700Y0023361D01*
X0025700Y0027359D02*
X0025300Y0027359D01*
X0025300Y0031358D02*
X0025700Y0031358D01*
X0025700Y0035356D02*
X0025300Y0035356D01*
X0025300Y0039355D02*
X0025700Y0039355D01*
X0025700Y0043353D02*
X0025300Y0043353D01*
X0025300Y0047352D02*
X0025700Y0047352D01*
X0025700Y0051350D02*
X0025300Y0051350D01*
X0025300Y0055349D02*
X0025700Y0055349D01*
X0025700Y0059347D02*
X0025300Y0059347D01*
X0025300Y0063346D02*
X0025700Y0063346D01*
X0025700Y0067344D02*
X0025300Y0067344D01*
X0025300Y0071343D02*
X0025700Y0071343D01*
X0025700Y0075341D02*
X0025300Y0075341D01*
X0025300Y0079340D02*
X0025700Y0079340D01*
X0025700Y0083338D02*
X0025300Y0083338D01*
X0025300Y0087337D02*
X0025700Y0087337D01*
X0020500Y0089867D02*
X0043000Y0112367D01*
X0043000Y0157367D01*
X0048000Y0151282D02*
X0048083Y0151081D01*
X0048200Y0150964D01*
X0048200Y0111855D01*
X0047800Y0111455D01*
X0047800Y0150964D01*
X0047917Y0151081D01*
X0048000Y0151282D01*
X0047800Y0147315D02*
X0048200Y0147315D01*
X0048200Y0143316D02*
X0047800Y0143316D01*
X0047800Y0139318D02*
X0048200Y0139318D01*
X0048200Y0135319D02*
X0047800Y0135319D01*
X0047800Y0131321D02*
X0048200Y0131321D01*
X0048200Y0127322D02*
X0047800Y0127322D01*
X0047800Y0123323D02*
X0048200Y0123323D01*
X0048200Y0119325D02*
X0047800Y0119325D01*
X0047800Y0115326D02*
X0048200Y0115326D01*
X0053252Y0103331D02*
X0063200Y0103331D01*
X0063200Y0107329D02*
X0057145Y0107329D01*
X0057800Y0111328D02*
X0063200Y0111328D01*
X0063200Y0115326D02*
X0057800Y0115326D01*
X0057800Y0119325D02*
X0063200Y0119325D01*
X0063200Y0123323D02*
X0057800Y0123323D01*
X0057800Y0127322D02*
X0063200Y0127322D01*
X0063200Y0131321D02*
X0057800Y0131321D01*
X0057800Y0135319D02*
X0063200Y0135319D01*
X0063200Y0139318D02*
X0057800Y0139318D01*
X0057800Y0143316D02*
X0063200Y0143316D01*
X0063200Y0147315D02*
X0057800Y0147315D01*
X0068000Y0149867D02*
X0068000Y0032367D01*
X0068000Y0029867D01*
X0063200Y0031358D02*
X0035300Y0031358D01*
X0035300Y0035356D02*
X0063200Y0035356D01*
X0063200Y0039355D02*
X0035300Y0039355D01*
X0035300Y0043353D02*
X0063200Y0043353D01*
X0063200Y0047352D02*
X0035300Y0047352D01*
X0035300Y0051350D02*
X0063200Y0051350D01*
X0063200Y0055349D02*
X0035300Y0055349D01*
X0035300Y0059347D02*
X0063200Y0059347D01*
X0063200Y0063346D02*
X0035300Y0063346D01*
X0035300Y0067344D02*
X0063200Y0067344D01*
X0063200Y0071343D02*
X0035300Y0071343D01*
X0035300Y0075341D02*
X0063200Y0075341D01*
X0063200Y0079340D02*
X0035300Y0079340D01*
X0035300Y0083338D02*
X0063200Y0083338D01*
X0063200Y0087337D02*
X0037258Y0087337D01*
X0041257Y0091335D02*
X0063200Y0091335D01*
X0063200Y0095334D02*
X0045255Y0095334D01*
X0049254Y0099332D02*
X0063200Y0099332D01*
X0038200Y0114355D02*
X0037800Y0113955D01*
X0037800Y0150964D01*
X0037917Y0151081D01*
X0038000Y0151282D01*
X0038083Y0151081D01*
X0038200Y0150964D01*
X0038200Y0114355D01*
X0038200Y0115326D02*
X0037800Y0115326D01*
X0037800Y0119325D02*
X0038200Y0119325D01*
X0038200Y0123323D02*
X0037800Y0123323D01*
X0037800Y0127322D02*
X0038200Y0127322D01*
X0038200Y0131321D02*
X0037800Y0131321D01*
X0037800Y0135319D02*
X0038200Y0135319D01*
X0038200Y0139318D02*
X0037800Y0139318D01*
X0037800Y0143316D02*
X0038200Y0143316D01*
X0038200Y0147315D02*
X0037800Y0147315D01*
X0033000Y0157367D02*
X0033000Y0114867D01*
X0010500Y0092367D01*
X0068000Y0149867D02*
X0070500Y0152367D01*
X0070500Y0162367D01*
X0038000Y0194867D01*
X0038000Y0302367D01*
X0033200Y0295259D02*
X0032095Y0295259D01*
X0033200Y0291261D02*
X0009000Y0291261D01*
X0009000Y0295259D02*
X0023905Y0295259D01*
X0022200Y0299258D02*
X0017649Y0299258D01*
X0024512Y0311374D02*
X0024512Y0311382D01*
X0023857Y0313827D01*
X0026965Y0313827D01*
X0024512Y0311374D01*
X0033200Y0287262D02*
X0009000Y0287262D01*
X0009000Y0283264D02*
X0033200Y0283264D01*
X0033200Y0279265D02*
X0009000Y0279265D01*
X0009000Y0275267D02*
X0033200Y0275267D01*
X0033200Y0271268D02*
X0009000Y0271268D01*
X0009000Y0267270D02*
X0033200Y0267270D01*
X0033200Y0263271D02*
X0009000Y0263271D01*
X0009000Y0259273D02*
X0033200Y0259273D01*
X0033200Y0255274D02*
X0009000Y0255274D01*
X0009000Y0251276D02*
X0033200Y0251276D01*
X0033200Y0247277D02*
X0009000Y0247277D01*
X0009000Y0243279D02*
X0033200Y0243279D01*
X0033200Y0239280D02*
X0009000Y0239280D01*
X0009000Y0235282D02*
X0033200Y0235282D01*
X0033200Y0231283D02*
X0009000Y0231283D01*
X0009000Y0227285D02*
X0033200Y0227285D01*
X0033200Y0223286D02*
X0009000Y0223286D01*
X0009000Y0219288D02*
X0033200Y0219288D01*
X0033200Y0215289D02*
X0009000Y0215289D01*
X0009000Y0211291D02*
X0033200Y0211291D01*
X0033200Y0207292D02*
X0009000Y0207292D01*
X0009000Y0203294D02*
X0033200Y0203294D01*
X0033200Y0199295D02*
X0009000Y0199295D01*
X0009000Y0195297D02*
X0033200Y0195297D01*
X0034780Y0191298D02*
X0009000Y0191298D01*
X0009000Y0187300D02*
X0038779Y0187300D01*
X0042777Y0183301D02*
X0009000Y0183301D01*
X0009000Y0179303D02*
X0046776Y0179303D01*
X0050774Y0175304D02*
X0009000Y0175304D01*
X0009000Y0171306D02*
X0054773Y0171306D01*
X0106225Y0067344D02*
X0109775Y0067344D01*
X0108000Y0059164D02*
X0109798Y0057367D01*
X0108000Y0055569D01*
X0106202Y0057367D01*
X0108000Y0059164D01*
X0108000Y0049164D02*
X0109798Y0047367D01*
X0108000Y0045569D01*
X0106202Y0047367D01*
X0108000Y0049164D01*
X0106217Y0047352D02*
X0109783Y0047352D01*
X0108000Y0039164D02*
X0109798Y0037367D01*
X0108000Y0035569D01*
X0106202Y0037367D01*
X0108000Y0039164D01*
X0108000Y0029164D02*
X0109798Y0027367D01*
X0108000Y0025569D01*
X0106202Y0027367D01*
X0108000Y0029164D01*
X0106210Y0027359D02*
X0109790Y0027359D01*
X0116202Y0027367D02*
X0118000Y0025569D01*
X0119798Y0027367D01*
X0118000Y0029164D01*
X0116202Y0027367D01*
X0116210Y0027359D02*
X0119790Y0027359D01*
X0126202Y0027367D02*
X0128000Y0025569D01*
X0129798Y0027367D01*
X0128000Y0029164D01*
X0126202Y0027367D01*
X0126210Y0027359D02*
X0129790Y0027359D01*
X0136210Y0027359D02*
X0143200Y0027359D01*
X0143200Y0023361D02*
X0138800Y0023361D01*
X0138800Y0031358D02*
X0143200Y0031358D01*
X0143200Y0035356D02*
X0138213Y0035356D01*
X0138191Y0039355D02*
X0143200Y0039355D01*
X0143200Y0043353D02*
X0138800Y0043353D01*
X0136217Y0047352D02*
X0143200Y0047352D01*
X0143200Y0051350D02*
X0138800Y0051350D01*
X0138220Y0055349D02*
X0143200Y0055349D01*
X0143200Y0059347D02*
X0138183Y0059347D01*
X0138800Y0063346D02*
X0143200Y0063346D01*
X0143200Y0067344D02*
X0136225Y0067344D01*
X0129775Y0067344D02*
X0126225Y0067344D01*
X0128000Y0059164D02*
X0129798Y0057367D01*
X0128000Y0055569D01*
X0126202Y0057367D01*
X0128000Y0059164D01*
X0128000Y0049164D02*
X0129798Y0047367D01*
X0128000Y0045569D01*
X0126202Y0047367D01*
X0128000Y0049164D01*
X0126217Y0047352D02*
X0129783Y0047352D01*
X0128000Y0039164D02*
X0129798Y0037367D01*
X0128000Y0035569D01*
X0126202Y0037367D01*
X0128000Y0039164D01*
X0119798Y0037367D02*
X0118000Y0035569D01*
X0116202Y0037367D01*
X0118000Y0039164D01*
X0119798Y0037367D01*
X0118000Y0045569D02*
X0116202Y0047367D01*
X0118000Y0049164D01*
X0119798Y0047367D01*
X0118000Y0045569D01*
X0116217Y0047352D02*
X0119783Y0047352D01*
X0118000Y0055569D02*
X0116202Y0057367D01*
X0118000Y0059164D01*
X0119798Y0057367D01*
X0118000Y0055569D01*
X0116225Y0067344D02*
X0119775Y0067344D01*
X0118000Y0019164D02*
X0116202Y0017367D01*
X0118000Y0015569D01*
X0119798Y0017367D01*
X0118000Y0019164D01*
X0126202Y0017367D02*
X0128000Y0015569D01*
X0129798Y0017367D01*
X0128000Y0019164D01*
X0126202Y0017367D01*
X0109798Y0017367D02*
X0108000Y0015569D01*
X0106202Y0017367D01*
X0108000Y0019164D01*
X0109798Y0017367D01*
X0097200Y0011365D02*
X0093800Y0011365D01*
X0062200Y0011365D02*
X0058980Y0011365D01*
X0172800Y0021269D02*
X0172800Y0148567D01*
X0174154Y0148567D01*
X0176285Y0149450D01*
X0177917Y0151081D01*
X0178000Y0151282D01*
X0178083Y0151081D01*
X0178200Y0150964D01*
X0178200Y0108912D01*
X0178931Y0107148D01*
X0200700Y0085378D01*
X0200700Y0021269D01*
X0200583Y0021152D01*
X0199700Y0019020D01*
X0199700Y0010867D01*
X0198846Y0010867D01*
X0199512Y0013351D01*
X0199512Y0016382D01*
X0198727Y0019310D01*
X0197212Y0021935D01*
X0195068Y0024078D01*
X0192443Y0025594D01*
X0189516Y0026378D01*
X0186484Y0026378D01*
X0183557Y0025594D01*
X0180932Y0024078D01*
X0178788Y0021935D01*
X0177273Y0019310D01*
X0176488Y0016382D01*
X0176488Y0013351D01*
X0177154Y0010867D01*
X0173800Y0010867D01*
X0173800Y0019020D01*
X0172917Y0021152D01*
X0172800Y0021269D01*
X0173658Y0019362D02*
X0177303Y0019362D01*
X0176488Y0015364D02*
X0173800Y0015364D01*
X0173800Y0011365D02*
X0177020Y0011365D01*
X0180214Y0023361D02*
X0172800Y0023361D01*
X0172800Y0027359D02*
X0200700Y0027359D01*
X0200700Y0023361D02*
X0195786Y0023361D01*
X0198697Y0019362D02*
X0199842Y0019362D01*
X0199700Y0015364D02*
X0199512Y0015364D01*
X0199700Y0011365D02*
X0198980Y0011365D01*
X0205500Y0014867D02*
X0205500Y0087367D01*
X0183000Y0109867D01*
X0183000Y0157367D01*
X0188000Y0151282D02*
X0188083Y0151081D01*
X0188200Y0150964D01*
X0188200Y0111455D01*
X0187800Y0111855D01*
X0187800Y0150964D01*
X0187917Y0151081D01*
X0188000Y0151282D01*
X0187800Y0147315D02*
X0188200Y0147315D01*
X0188200Y0143316D02*
X0187800Y0143316D01*
X0187800Y0139318D02*
X0188200Y0139318D01*
X0188200Y0135319D02*
X0187800Y0135319D01*
X0187800Y0131321D02*
X0188200Y0131321D01*
X0188200Y0127322D02*
X0187800Y0127322D01*
X0187800Y0123323D02*
X0188200Y0123323D01*
X0188200Y0119325D02*
X0187800Y0119325D01*
X0187800Y0115326D02*
X0188200Y0115326D01*
X0193000Y0112367D02*
X0215500Y0089867D01*
X0215500Y0014867D01*
X0210500Y0020952D02*
X0210417Y0021152D01*
X0210300Y0021269D01*
X0210300Y0088278D01*
X0210700Y0087878D01*
X0210700Y0021269D01*
X0210583Y0021152D01*
X0210500Y0020952D01*
X0210300Y0023361D02*
X0210700Y0023361D01*
X0210700Y0027359D02*
X0210300Y0027359D01*
X0210300Y0031358D02*
X0210700Y0031358D01*
X0210700Y0035356D02*
X0210300Y0035356D01*
X0210300Y0039355D02*
X0210700Y0039355D01*
X0210700Y0043353D02*
X0210300Y0043353D01*
X0210300Y0047352D02*
X0210700Y0047352D01*
X0210700Y0051350D02*
X0210300Y0051350D01*
X0210300Y0055349D02*
X0210700Y0055349D01*
X0210700Y0059347D02*
X0210300Y0059347D01*
X0210300Y0063346D02*
X0210700Y0063346D01*
X0210700Y0067344D02*
X0210300Y0067344D01*
X0210300Y0071343D02*
X0210700Y0071343D01*
X0210700Y0075341D02*
X0210300Y0075341D01*
X0210300Y0079340D02*
X0210700Y0079340D01*
X0210700Y0083338D02*
X0210300Y0083338D01*
X0210300Y0087337D02*
X0210700Y0087337D01*
X0220300Y0087337D02*
X0220700Y0087337D01*
X0220700Y0090378D02*
X0220300Y0090778D01*
X0220300Y0021269D01*
X0220417Y0021152D01*
X0220500Y0020952D01*
X0220583Y0021152D01*
X0220700Y0021269D01*
X0220700Y0090378D01*
X0225500Y0092367D02*
X0225500Y0014867D01*
X0220700Y0023361D02*
X0220300Y0023361D01*
X0220300Y0027359D02*
X0220700Y0027359D01*
X0220700Y0031358D02*
X0220300Y0031358D01*
X0220300Y0035356D02*
X0220700Y0035356D01*
X0220700Y0039355D02*
X0220300Y0039355D01*
X0220300Y0043353D02*
X0220700Y0043353D01*
X0220700Y0047352D02*
X0220300Y0047352D01*
X0220300Y0051350D02*
X0220700Y0051350D01*
X0220700Y0055349D02*
X0220300Y0055349D01*
X0220300Y0059347D02*
X0220700Y0059347D01*
X0220700Y0063346D02*
X0220300Y0063346D01*
X0220300Y0067344D02*
X0220700Y0067344D01*
X0220700Y0071343D02*
X0220300Y0071343D01*
X0220300Y0075341D02*
X0220700Y0075341D01*
X0220700Y0079340D02*
X0220300Y0079340D01*
X0220300Y0083338D02*
X0220700Y0083338D01*
X0225500Y0092367D02*
X0203000Y0114867D01*
X0203000Y0157367D01*
X0198000Y0151282D02*
X0198083Y0151081D01*
X0198200Y0150964D01*
X0198200Y0113955D01*
X0197800Y0114355D01*
X0197800Y0150964D01*
X0197917Y0151081D01*
X0198000Y0151282D01*
X0197800Y0147315D02*
X0198200Y0147315D01*
X0198200Y0143316D02*
X0197800Y0143316D01*
X0197800Y0139318D02*
X0198200Y0139318D01*
X0198200Y0135319D02*
X0197800Y0135319D01*
X0197800Y0131321D02*
X0198200Y0131321D01*
X0198200Y0127322D02*
X0197800Y0127322D01*
X0197800Y0123323D02*
X0198200Y0123323D01*
X0198200Y0119325D02*
X0197800Y0119325D01*
X0197800Y0115326D02*
X0198200Y0115326D01*
X0193000Y0112367D02*
X0193000Y0157367D01*
X0181227Y0171306D02*
X0226951Y0171306D01*
X0226951Y0175304D02*
X0185226Y0175304D01*
X0189224Y0179303D02*
X0226951Y0179303D01*
X0226951Y0183301D02*
X0193223Y0183301D01*
X0197221Y0187300D02*
X0226951Y0187300D01*
X0226951Y0191298D02*
X0201220Y0191298D01*
X0202800Y0195297D02*
X0226951Y0195297D01*
X0226951Y0199295D02*
X0202800Y0199295D01*
X0202800Y0203294D02*
X0226951Y0203294D01*
X0226951Y0207292D02*
X0202800Y0207292D01*
X0202800Y0211291D02*
X0226951Y0211291D01*
X0226951Y0215289D02*
X0202800Y0215289D01*
X0202800Y0219288D02*
X0226951Y0219288D01*
X0226951Y0223286D02*
X0202800Y0223286D01*
X0202800Y0227285D02*
X0226951Y0227285D01*
X0226951Y0231283D02*
X0202800Y0231283D01*
X0202800Y0235282D02*
X0226951Y0235282D01*
X0226951Y0239280D02*
X0202800Y0239280D01*
X0202800Y0243279D02*
X0226951Y0243279D01*
X0226951Y0247277D02*
X0202800Y0247277D01*
X0202800Y0251276D02*
X0226951Y0251276D01*
X0226951Y0255274D02*
X0202800Y0255274D01*
X0202800Y0259273D02*
X0226951Y0259273D01*
X0226951Y0263271D02*
X0202800Y0263271D01*
X0202800Y0267270D02*
X0226951Y0267270D01*
X0226951Y0271268D02*
X0202800Y0271268D01*
X0202800Y0275267D02*
X0226951Y0275267D01*
X0226951Y0279265D02*
X0202800Y0279265D01*
X0202800Y0283264D02*
X0226951Y0283264D01*
X0226951Y0287262D02*
X0202800Y0287262D01*
X0193200Y0287262D02*
X0192800Y0287262D01*
X0192800Y0283264D02*
X0193200Y0283264D01*
X0193200Y0279265D02*
X0192800Y0279265D01*
X0192800Y0275267D02*
X0193200Y0275267D01*
X0193200Y0271268D02*
X0192800Y0271268D01*
X0192800Y0267270D02*
X0193200Y0267270D01*
X0193200Y0263271D02*
X0192800Y0263271D01*
X0192800Y0259273D02*
X0193200Y0259273D01*
X0193200Y0255274D02*
X0192800Y0255274D01*
X0192800Y0251276D02*
X0193200Y0251276D01*
X0193200Y0247277D02*
X0192800Y0247277D01*
X0192800Y0243279D02*
X0193200Y0243279D01*
X0193200Y0239280D02*
X0192800Y0239280D01*
X0192800Y0235282D02*
X0193200Y0235282D01*
X0193200Y0231283D02*
X0192800Y0231283D01*
X0192800Y0227285D02*
X0193200Y0227285D01*
X0193200Y0223286D02*
X0192800Y0223286D01*
X0192800Y0219288D02*
X0193200Y0219288D01*
X0193200Y0215289D02*
X0192800Y0215289D01*
X0192800Y0211291D02*
X0193200Y0211291D01*
X0193200Y0207292D02*
X0192800Y0207292D01*
X0192800Y0203294D02*
X0193200Y0203294D01*
X0193200Y0199295D02*
X0192800Y0199295D01*
X0193200Y0196855D02*
X0192800Y0196455D01*
X0192800Y0295964D01*
X0192917Y0296081D01*
X0193000Y0296282D01*
X0193083Y0296081D01*
X0193200Y0295964D01*
X0193200Y0196855D01*
X0183200Y0196855D02*
X0182800Y0196455D01*
X0182800Y0295964D01*
X0182917Y0296081D01*
X0183000Y0296282D01*
X0183083Y0296081D01*
X0183200Y0295964D01*
X0183200Y0196855D01*
X0183200Y0199295D02*
X0182800Y0199295D01*
X0182800Y0203294D02*
X0183200Y0203294D01*
X0183200Y0207292D02*
X0182800Y0207292D01*
X0182800Y0211291D02*
X0183200Y0211291D01*
X0183200Y0215289D02*
X0182800Y0215289D01*
X0182800Y0219288D02*
X0183200Y0219288D01*
X0183200Y0223286D02*
X0182800Y0223286D01*
X0182800Y0227285D02*
X0183200Y0227285D01*
X0183200Y0231283D02*
X0182800Y0231283D01*
X0182800Y0235282D02*
X0183200Y0235282D01*
X0183200Y0239280D02*
X0182800Y0239280D01*
X0182800Y0243279D02*
X0183200Y0243279D01*
X0183200Y0247277D02*
X0182800Y0247277D01*
X0182800Y0251276D02*
X0183200Y0251276D01*
X0183200Y0255274D02*
X0182800Y0255274D01*
X0182800Y0259273D02*
X0183200Y0259273D01*
X0183200Y0263271D02*
X0182800Y0263271D01*
X0182800Y0267270D02*
X0183200Y0267270D01*
X0183200Y0271268D02*
X0182800Y0271268D01*
X0182800Y0275267D02*
X0183200Y0275267D01*
X0183200Y0279265D02*
X0182800Y0279265D01*
X0182800Y0283264D02*
X0183200Y0283264D01*
X0183200Y0287262D02*
X0182800Y0287262D01*
X0182800Y0291261D02*
X0183200Y0291261D01*
X0183200Y0295259D02*
X0182800Y0295259D01*
X0192800Y0295259D02*
X0193200Y0295259D01*
X0193200Y0291261D02*
X0192800Y0291261D01*
X0177229Y0167307D02*
X0226951Y0167307D01*
X0226951Y0163309D02*
X0218059Y0163309D01*
X0218800Y0159310D02*
X0226951Y0159310D01*
X0226951Y0155312D02*
X0218800Y0155312D01*
X0218013Y0151313D02*
X0226951Y0151313D01*
X0226951Y0147315D02*
X0207800Y0147315D01*
X0207800Y0143316D02*
X0226951Y0143316D01*
X0226951Y0139318D02*
X0207800Y0139318D01*
X0207800Y0135319D02*
X0226951Y0135319D01*
X0226951Y0131321D02*
X0207800Y0131321D01*
X0207800Y0127322D02*
X0226951Y0127322D01*
X0226951Y0123323D02*
X0207800Y0123323D01*
X0207800Y0119325D02*
X0226951Y0119325D01*
X0226951Y0115326D02*
X0209328Y0115326D01*
X0213327Y0111328D02*
X0226951Y0111328D01*
X0226951Y0107329D02*
X0217325Y0107329D01*
X0221324Y0103331D02*
X0226951Y0103331D01*
X0226951Y0099332D02*
X0225322Y0099332D01*
X0200700Y0083338D02*
X0172800Y0083338D01*
X0172800Y0079340D02*
X0200700Y0079340D01*
X0200700Y0075341D02*
X0172800Y0075341D01*
X0172800Y0071343D02*
X0200700Y0071343D01*
X0200700Y0067344D02*
X0172800Y0067344D01*
X0172800Y0063346D02*
X0200700Y0063346D01*
X0200700Y0059347D02*
X0172800Y0059347D01*
X0172800Y0055349D02*
X0200700Y0055349D01*
X0200700Y0051350D02*
X0172800Y0051350D01*
X0172800Y0047352D02*
X0200700Y0047352D01*
X0200700Y0043353D02*
X0172800Y0043353D01*
X0172800Y0039355D02*
X0200700Y0039355D01*
X0200700Y0035356D02*
X0172800Y0035356D01*
X0172800Y0031358D02*
X0200700Y0031358D01*
X0198742Y0087337D02*
X0172800Y0087337D01*
X0172800Y0091335D02*
X0194743Y0091335D01*
X0190745Y0095334D02*
X0172800Y0095334D01*
X0172800Y0099332D02*
X0186746Y0099332D01*
X0182748Y0103331D02*
X0172800Y0103331D01*
X0172800Y0107329D02*
X0178855Y0107329D01*
X0178200Y0111328D02*
X0172800Y0111328D01*
X0172800Y0115326D02*
X0178200Y0115326D01*
X0178200Y0119325D02*
X0172800Y0119325D01*
X0172800Y0123323D02*
X0178200Y0123323D01*
X0178200Y0127322D02*
X0172800Y0127322D01*
X0172800Y0131321D02*
X0178200Y0131321D01*
X0178200Y0135319D02*
X0172800Y0135319D01*
X0172800Y0139318D02*
X0178200Y0139318D01*
X0178200Y0143316D02*
X0172800Y0143316D01*
X0172800Y0147315D02*
X0178200Y0147315D01*
D14*
X0168000Y0302367D02*
X0168000Y0307367D01*
X0163000Y0312367D01*
X0133000Y0312367D01*
X0133000Y0302367D01*
X0133000Y0312367D02*
X0033000Y0312367D01*
X0028000Y0307367D01*
X0028000Y0302367D01*
D15*
X0093000Y0302367D02*
X0093000Y0159867D01*
X0095500Y0157367D01*
X0103000Y0157367D01*
X0133000Y0157367D02*
X0140500Y0157367D01*
X0143000Y0159867D01*
X0143000Y0212367D01*
X0138000Y0217367D01*
X0108000Y0217367D01*
X0103000Y0222367D01*
X0103000Y0302367D01*
M02*
