G75*
%MOIN*%
%OFA0B0*%
%FSLAX25Y25*%
%IPPOS*%
%LPD*%
%AMOC8*
5,1,8,0,0,1.08239X$1,22.5*
%
%ADD10C,0.11824*%
%ADD11C,0.06800*%
%ADD12OC8,0.06800*%
D10*
X0048000Y0014867D03*
X0188000Y0014867D03*
X0223000Y0309867D03*
X0013000Y0309867D03*
D11*
X0010500Y0017867D02*
X0010500Y0011867D01*
X0020500Y0011867D02*
X0020500Y0017867D01*
X0030500Y0017867D02*
X0030500Y0011867D01*
X0068000Y0011867D02*
X0068000Y0017867D01*
X0078000Y0017867D02*
X0078000Y0011867D01*
X0088000Y0011867D02*
X0088000Y0017867D01*
X0148000Y0017867D02*
X0148000Y0011867D01*
X0158000Y0011867D02*
X0158000Y0017867D01*
X0168000Y0017867D02*
X0168000Y0011867D01*
X0205500Y0011867D02*
X0205500Y0017867D01*
X0215500Y0017867D02*
X0215500Y0011867D01*
X0225500Y0011867D02*
X0225500Y0017867D01*
X0213000Y0154367D02*
X0213000Y0160367D01*
X0203000Y0160367D02*
X0203000Y0154367D01*
X0193000Y0154367D02*
X0193000Y0160367D01*
X0183000Y0160367D02*
X0183000Y0154367D01*
X0173000Y0154367D02*
X0173000Y0160367D01*
X0168000Y0299367D02*
X0168000Y0305367D01*
X0178000Y0305367D02*
X0178000Y0299367D01*
X0188000Y0299367D02*
X0188000Y0305367D01*
X0198000Y0305367D02*
X0198000Y0299367D01*
X0208000Y0299367D02*
X0208000Y0305367D01*
X0143000Y0305367D02*
X0143000Y0299367D01*
X0133000Y0299367D02*
X0133000Y0305367D01*
X0123000Y0305367D02*
X0123000Y0299367D01*
X0113000Y0299367D02*
X0113000Y0305367D01*
X0103000Y0305367D02*
X0103000Y0299367D01*
X0093000Y0299367D02*
X0093000Y0305367D01*
X0068000Y0305367D02*
X0068000Y0299367D01*
X0058000Y0299367D02*
X0058000Y0305367D01*
X0048000Y0305367D02*
X0048000Y0299367D01*
X0038000Y0299367D02*
X0038000Y0305367D01*
X0028000Y0305367D02*
X0028000Y0299367D01*
X0023000Y0160367D02*
X0023000Y0154367D01*
X0033000Y0154367D02*
X0033000Y0160367D01*
X0043000Y0160367D02*
X0043000Y0154367D01*
X0053000Y0154367D02*
X0053000Y0160367D01*
X0063000Y0160367D02*
X0063000Y0154367D01*
D12*
X0103000Y0157367D03*
X0103000Y0167367D03*
X0103000Y0177367D03*
X0103000Y0187367D03*
X0103000Y0197367D03*
X0103000Y0207367D03*
X0113000Y0207367D03*
X0113000Y0197367D03*
X0113000Y0187367D03*
X0113000Y0177367D03*
X0113000Y0167367D03*
X0113000Y0157367D03*
X0123000Y0157367D03*
X0123000Y0167367D03*
X0123000Y0177367D03*
X0123000Y0187367D03*
X0123000Y0197367D03*
X0123000Y0207367D03*
X0133000Y0207367D03*
X0133000Y0197367D03*
X0133000Y0187367D03*
X0133000Y0177367D03*
X0133000Y0167367D03*
X0133000Y0157367D03*
X0133000Y0062367D03*
X0133000Y0052367D03*
X0133000Y0042367D03*
X0133000Y0032367D03*
X0123000Y0032367D03*
X0123000Y0042367D03*
X0123000Y0052367D03*
X0123000Y0062367D03*
X0113000Y0062367D03*
X0113000Y0052367D03*
X0113000Y0042367D03*
X0113000Y0032367D03*
X0103000Y0032367D03*
X0103000Y0042367D03*
X0103000Y0052367D03*
X0103000Y0062367D03*
X0103000Y0022367D03*
X0103000Y0012367D03*
X0113000Y0012367D03*
X0113000Y0022367D03*
X0123000Y0022367D03*
X0123000Y0012367D03*
X0133000Y0012367D03*
X0133000Y0022367D03*
M02*
