G75*
%MOIN*%
%OFA0B0*%
%FSLAX25Y25*%
%IPPOS*%
%LPD*%
%AMOC8*
5,1,8,0,0,1.08239X$1,22.5*
%
%ADD10OC8,0.06000*%
%ADD11C,0.06400*%
%ADD12C,0.06000*%
%ADD13C,0.08200*%
%ADD14C,0.00500*%
%ADD15R,0.04762X0.04762*%
D10*
X0035433Y0040433D03*
X0045433Y0040433D03*
X0060433Y0035433D03*
X0067933Y0040433D03*
X0060433Y0045433D03*
X0040433Y0060433D03*
X0040433Y0075433D03*
X0040433Y0087933D03*
X0035433Y0095433D03*
X0045433Y0095433D03*
X0060433Y0085433D03*
X0080433Y0075433D03*
X0090433Y0070433D03*
X0100433Y0070433D03*
X0100433Y0055433D03*
X0110433Y0040433D03*
X0110433Y0030433D03*
X0090433Y0030433D03*
X0080433Y0060433D03*
X0130433Y0040433D03*
X0130433Y0030433D03*
X0140433Y0055433D03*
X0155433Y0060433D03*
X0162933Y0065433D03*
X0155433Y0070433D03*
X0140433Y0070433D03*
X0170433Y0040433D03*
X0170433Y0030433D03*
X0190433Y0035433D03*
X0200433Y0035433D03*
X0182933Y0055433D03*
X0175433Y0050433D03*
X0175433Y0060433D03*
X0125433Y0130433D03*
X0110433Y0145433D03*
X0110433Y0160433D03*
X0125433Y0160433D03*
X0110433Y0175433D03*
X0120433Y0185433D03*
X0130433Y0185433D03*
X0150433Y0185433D03*
X0160433Y0185433D03*
X0170433Y0195433D03*
X0175433Y0185433D03*
X0190433Y0180433D03*
X0195433Y0187933D03*
X0200433Y0180433D03*
X0195433Y0165433D03*
X0195433Y0155433D03*
X0175433Y0145433D03*
X0165433Y0160433D03*
X0210433Y0195433D03*
X0085433Y0130433D03*
X0070433Y0145433D03*
X0060433Y0145433D03*
X0070433Y0160433D03*
X0070433Y0175433D03*
X0060433Y0185433D03*
X0040433Y0180433D03*
X0040433Y0190433D03*
X0040433Y0155433D03*
X0032933Y0150433D03*
X0040433Y0145433D03*
X0060433Y0125433D03*
X0045433Y0120433D03*
X0035433Y0120433D03*
D11*
X0070433Y0187633D02*
X0070433Y0193233D01*
X0080433Y0193233D02*
X0080433Y0187633D01*
X0090433Y0187633D02*
X0090433Y0193233D01*
X0100433Y0193233D02*
X0100433Y0187633D01*
D12*
X0132833Y0145433D02*
X0138033Y0145433D01*
X0138033Y0135433D02*
X0132833Y0135433D01*
X0132833Y0125433D02*
X0138033Y0125433D01*
X0138033Y0115433D02*
X0132833Y0115433D01*
X0123033Y0115433D02*
X0117833Y0115433D01*
X0117833Y0105433D02*
X0123033Y0105433D01*
X0132833Y0105433D02*
X0138033Y0105433D01*
X0138033Y0095433D02*
X0132833Y0095433D01*
X0123033Y0095433D02*
X0117833Y0095433D01*
X0117833Y0085433D02*
X0123033Y0085433D01*
X0132833Y0085433D02*
X0138033Y0085433D01*
X0162833Y0085433D02*
X0168033Y0085433D01*
X0168033Y0095433D02*
X0162833Y0095433D01*
X0162833Y0105433D02*
X0168033Y0105433D01*
X0168033Y0115433D02*
X0162833Y0115433D01*
X0162833Y0125433D02*
X0168033Y0125433D01*
X0168033Y0135433D02*
X0162833Y0135433D01*
X0162833Y0145433D02*
X0168033Y0145433D01*
X0093033Y0115433D02*
X0087833Y0115433D01*
X0087833Y0105433D02*
X0093033Y0105433D01*
X0093033Y0095433D02*
X0087833Y0095433D01*
X0087833Y0085433D02*
X0093033Y0085433D01*
D13*
X0205433Y0100433D03*
X0205433Y0110433D03*
X0205433Y0120433D03*
D14*
X0077213Y0119943D02*
X0077162Y0119550D01*
X0077024Y0119178D01*
X0076808Y0118846D01*
X0076523Y0118571D01*
X0076184Y0118366D01*
X0075808Y0118241D01*
X0075413Y0118203D01*
X0075030Y0118250D01*
X0074666Y0118380D01*
X0074341Y0118589D01*
X0074070Y0118864D01*
X0073867Y0119193D01*
X0073743Y0119559D01*
X0073703Y0119943D01*
X0073737Y0120325D01*
X0073855Y0120689D01*
X0074051Y0121018D01*
X0074315Y0121295D01*
X0074635Y0121506D01*
X0074993Y0121641D01*
X0075373Y0121693D01*
X0075773Y0121658D01*
X0076156Y0121535D01*
X0076502Y0121329D01*
X0076793Y0121052D01*
X0077016Y0120717D01*
X0077158Y0120341D01*
X0077213Y0119943D01*
X0077186Y0120135D02*
X0073720Y0120135D01*
X0073735Y0119637D02*
X0077173Y0119637D01*
X0076999Y0119138D02*
X0073901Y0119138D01*
X0074290Y0118640D02*
X0076595Y0118640D01*
X0077047Y0120634D02*
X0073837Y0120634D01*
X0074160Y0121132D02*
X0076709Y0121132D01*
X0075857Y0121631D02*
X0074966Y0121631D01*
X0075413Y0129223D02*
X0075030Y0129270D01*
X0074666Y0129401D01*
X0074341Y0129609D01*
X0074070Y0129884D01*
X0073867Y0130213D01*
X0073743Y0130579D01*
X0073703Y0130963D01*
X0073737Y0131345D01*
X0073855Y0131709D01*
X0074051Y0132038D01*
X0074315Y0132315D01*
X0074635Y0132527D01*
X0074993Y0132661D01*
X0075373Y0132713D01*
X0075773Y0132678D01*
X0076156Y0132555D01*
X0076502Y0132350D01*
X0076793Y0132072D01*
X0077016Y0131737D01*
X0077158Y0131361D01*
X0077213Y0130963D01*
X0077162Y0130570D01*
X0077024Y0130198D01*
X0076808Y0129866D01*
X0076523Y0129591D01*
X0076184Y0129386D01*
X0075808Y0129261D01*
X0075413Y0129223D01*
X0074343Y0129607D02*
X0076540Y0129607D01*
X0076964Y0130106D02*
X0073934Y0130106D01*
X0073740Y0130604D02*
X0077166Y0130604D01*
X0077193Y0131103D02*
X0073715Y0131103D01*
X0073820Y0131601D02*
X0077067Y0131601D01*
X0076764Y0132100D02*
X0074110Y0132100D01*
X0074826Y0132598D02*
X0076021Y0132598D01*
X0075453Y0102663D02*
X0075837Y0102617D01*
X0076200Y0102486D01*
X0076526Y0102278D01*
X0076796Y0102002D01*
X0076999Y0101673D01*
X0077124Y0101308D01*
X0077164Y0100923D01*
X0077130Y0100542D01*
X0077012Y0100177D01*
X0076815Y0099848D01*
X0076551Y0099571D01*
X0076231Y0099360D01*
X0075873Y0099225D01*
X0075493Y0099173D01*
X0075093Y0099208D01*
X0074710Y0099332D01*
X0074365Y0099537D01*
X0074073Y0099814D01*
X0073851Y0100149D01*
X0073709Y0100525D01*
X0073654Y0100923D01*
X0073705Y0101316D01*
X0073842Y0101688D01*
X0074058Y0102020D01*
X0074343Y0102296D01*
X0074682Y0102501D01*
X0075059Y0102625D01*
X0075453Y0102663D01*
X0076613Y0102189D02*
X0074233Y0102189D01*
X0073843Y0101691D02*
X0076989Y0101691D01*
X0077136Y0101192D02*
X0073689Y0101192D01*
X0073685Y0100694D02*
X0077143Y0100694D01*
X0077017Y0100195D02*
X0073834Y0100195D01*
X0074197Y0099697D02*
X0076670Y0099697D01*
X0075674Y0099198D02*
X0075212Y0099198D01*
X0075453Y0091643D02*
X0075837Y0091597D01*
X0076200Y0091466D01*
X0076526Y0091258D01*
X0076796Y0090982D01*
X0076999Y0090653D01*
X0077124Y0090288D01*
X0077164Y0089903D01*
X0077130Y0089522D01*
X0077012Y0089157D01*
X0076815Y0088828D01*
X0076551Y0088551D01*
X0076231Y0088340D01*
X0075873Y0088205D01*
X0075493Y0088153D01*
X0075093Y0088188D01*
X0074710Y0088312D01*
X0074365Y0088517D01*
X0074073Y0088794D01*
X0073851Y0089129D01*
X0073709Y0089505D01*
X0073654Y0089903D01*
X0073705Y0090296D01*
X0073842Y0090668D01*
X0074058Y0091000D01*
X0074343Y0091276D01*
X0074682Y0091481D01*
X0075059Y0091605D01*
X0075453Y0091643D01*
X0076561Y0091222D02*
X0074288Y0091222D01*
X0073878Y0090723D02*
X0076956Y0090723D01*
X0077130Y0090225D02*
X0073695Y0090225D01*
X0073678Y0089726D02*
X0077148Y0089726D01*
X0077034Y0089228D02*
X0073814Y0089228D01*
X0074141Y0088729D02*
X0076721Y0088729D01*
X0075941Y0088231D02*
X0074961Y0088231D01*
D15*
X0065433Y0080433D03*
X0110433Y0080433D03*
X0110433Y0110433D03*
X0110433Y0120433D03*
X0145433Y0130433D03*
X0150433Y0120433D03*
X0175433Y0130433D03*
X0150433Y0150433D03*
X0140433Y0180433D03*
X0140433Y0190433D03*
X0100433Y0155433D03*
X0090433Y0170433D03*
X0090433Y0175433D03*
X0075433Y0170433D03*
X0155433Y0090433D03*
X0165433Y0050433D03*
X0185433Y0185433D03*
M02*
