G75*
%MOIN*%
%OFA0B0*%
%FSLAX25Y25*%
%IPPOS*%
%LPD*%
%AMOC8*
5,1,8,0,0,1.08239X$1,22.5*
%
%ADD10C,0.05200*%
%ADD11C,0.05600*%
%ADD12OC8,0.05200*%
%ADD13C,0.06600*%
%ADD14C,0.05200*%
%ADD15C,0.06500*%
%ADD16C,0.01600*%
%ADD17C,0.03962*%
%ADD18R,0.03962X0.03962*%
D10*
X0109200Y0013500D02*
X0114400Y0013500D01*
X0114400Y0023500D02*
X0109200Y0023500D01*
X0109200Y0033500D02*
X0114400Y0033500D01*
X0114400Y0043500D02*
X0109200Y0043500D01*
X0109200Y0053500D02*
X0114400Y0053500D01*
X0114400Y0063500D02*
X0109200Y0063500D01*
X0109200Y0073500D02*
X0114400Y0073500D01*
X0139200Y0073500D02*
X0144400Y0073500D01*
X0144400Y0063500D02*
X0139200Y0063500D01*
X0139200Y0053500D02*
X0144400Y0053500D01*
X0144400Y0043500D02*
X0139200Y0043500D01*
X0139200Y0033500D02*
X0144400Y0033500D01*
X0144400Y0023500D02*
X0139200Y0023500D01*
X0139200Y0013500D02*
X0144400Y0013500D01*
D11*
X0164000Y0028500D02*
X0169600Y0028500D01*
X0169600Y0038500D02*
X0164000Y0038500D01*
X0164000Y0058500D02*
X0169600Y0058500D01*
X0169600Y0068500D02*
X0164000Y0068500D01*
X0164000Y0078500D02*
X0169600Y0078500D01*
X0169600Y0088500D02*
X0164000Y0088500D01*
X0164000Y0098500D02*
X0169600Y0098500D01*
X0099600Y0093500D02*
X0094000Y0093500D01*
X0094000Y0083500D02*
X0099600Y0083500D01*
X0099600Y0073500D02*
X0094000Y0073500D01*
X0094000Y0063500D02*
X0099600Y0063500D01*
X0099600Y0053500D02*
X0094000Y0053500D01*
X0094000Y0043500D02*
X0099600Y0043500D01*
X0099600Y0033500D02*
X0094000Y0033500D01*
X0094000Y0023500D02*
X0099600Y0023500D01*
X0099600Y0013500D02*
X0094000Y0013500D01*
X0069600Y0013500D02*
X0064000Y0013500D01*
X0064000Y0023500D02*
X0069600Y0023500D01*
X0069600Y0033500D02*
X0064000Y0033500D01*
X0064000Y0043500D02*
X0069600Y0043500D01*
X0069600Y0053500D02*
X0064000Y0053500D01*
X0064000Y0063500D02*
X0069600Y0063500D01*
X0069600Y0073500D02*
X0064000Y0073500D01*
X0064000Y0083500D02*
X0069600Y0083500D01*
X0069600Y0093500D02*
X0064000Y0093500D01*
X0064000Y0103500D02*
X0069600Y0103500D01*
X0069600Y0113500D02*
X0064000Y0113500D01*
X0064000Y0123500D02*
X0069600Y0123500D01*
X0069600Y0133500D02*
X0064000Y0133500D01*
X0064000Y0143500D02*
X0069600Y0143500D01*
X0094000Y0143500D02*
X0099600Y0143500D01*
X0099600Y0133500D02*
X0094000Y0133500D01*
X0094000Y0123500D02*
X0099600Y0123500D01*
X0099600Y0113500D02*
X0094000Y0113500D01*
X0094000Y0103500D02*
X0099600Y0103500D01*
X0051800Y0016300D02*
X0051800Y0010700D01*
X0041800Y0010700D02*
X0041800Y0016300D01*
X0031800Y0016300D02*
X0031800Y0010700D01*
D12*
X0026800Y0038500D03*
X0011800Y0038500D03*
X0011800Y0078500D03*
X0026800Y0078500D03*
X0026800Y0148500D03*
X0036800Y0158500D03*
X0046800Y0148500D03*
X0061800Y0163500D03*
X0101800Y0163500D03*
X0156800Y0143500D03*
X0166800Y0143500D03*
X0166800Y0118500D03*
X0156800Y0118500D03*
X0151800Y0103500D03*
X0151800Y0063500D03*
X0151800Y0053500D03*
X0151800Y0013500D03*
D13*
X0136800Y0085200D02*
X0136800Y0091800D01*
X0126800Y0091800D02*
X0126800Y0085200D01*
X0116800Y0085200D02*
X0116800Y0091800D01*
D14*
X0046800Y0068000D03*
X0046800Y0049000D03*
D15*
X0041800Y0028500D03*
X0051800Y0028500D03*
X0050550Y0088500D03*
X0040550Y0088500D03*
X0026800Y0093500D03*
X0026800Y0103500D03*
X0040550Y0103500D03*
X0050550Y0103500D03*
D16*
X0021409Y0009520D02*
X0020705Y0008300D01*
X0027815Y0008300D01*
X0027200Y0009785D01*
X0027200Y0017215D01*
X0027900Y0018906D01*
X0029194Y0020200D01*
X0029200Y0020202D01*
X0029200Y0020267D01*
X0029596Y0021223D01*
X0030327Y0021954D01*
X0032827Y0024454D01*
X0033783Y0024850D01*
X0038308Y0024850D01*
X0037519Y0025639D01*
X0036750Y0027495D01*
X0036750Y0029505D01*
X0037519Y0031361D01*
X0038641Y0032482D01*
X0035223Y0035900D01*
X0030423Y0035900D01*
X0028623Y0034100D01*
X0024977Y0034100D01*
X0022400Y0036677D01*
X0022400Y0040323D01*
X0024977Y0042900D01*
X0028623Y0042900D01*
X0030423Y0041100D01*
X0035223Y0041100D01*
X0042400Y0048277D01*
X0042400Y0049875D01*
X0043070Y0051492D01*
X0044308Y0052730D01*
X0045925Y0053400D01*
X0047523Y0053400D01*
X0049096Y0054973D01*
X0049827Y0055704D01*
X0050783Y0056100D01*
X0060098Y0056100D01*
X0060100Y0056106D01*
X0061394Y0057400D01*
X0063085Y0058100D01*
X0070515Y0058100D01*
X0072206Y0057400D01*
X0073500Y0056106D01*
X0074200Y0054415D01*
X0074200Y0052585D01*
X0073500Y0050894D01*
X0072206Y0049600D01*
X0070515Y0048900D01*
X0063085Y0048900D01*
X0061394Y0049600D01*
X0060100Y0050894D01*
X0060098Y0050900D01*
X0052377Y0050900D01*
X0051200Y0049723D01*
X0051200Y0048125D01*
X0050530Y0046508D01*
X0049292Y0045270D01*
X0047675Y0044600D01*
X0046077Y0044600D01*
X0039977Y0038500D01*
X0044004Y0034473D01*
X0044400Y0033517D01*
X0044400Y0032889D01*
X0044661Y0032781D01*
X0046081Y0031361D01*
X0046800Y0029625D01*
X0047519Y0031361D01*
X0048939Y0032781D01*
X0050795Y0033550D01*
X0052805Y0033550D01*
X0054661Y0032781D01*
X0056081Y0031361D01*
X0056850Y0029505D01*
X0056850Y0027495D01*
X0056081Y0025639D01*
X0054661Y0024219D01*
X0054339Y0024086D01*
X0054004Y0023277D01*
X0051627Y0020900D01*
X0052715Y0020900D01*
X0054406Y0020200D01*
X0054614Y0019991D01*
X0055327Y0020704D01*
X0056283Y0021100D01*
X0060015Y0021100D01*
X0059400Y0022585D01*
X0059400Y0024415D01*
X0060100Y0026106D01*
X0061394Y0027400D01*
X0063085Y0028100D01*
X0070515Y0028100D01*
X0072206Y0027400D01*
X0073500Y0026106D01*
X0074200Y0024415D01*
X0074200Y0022585D01*
X0073585Y0021100D01*
X0080723Y0021100D01*
X0083019Y0023396D01*
X0083019Y0024252D01*
X0083595Y0025642D01*
X0084658Y0026705D01*
X0086048Y0027281D01*
X0087552Y0027281D01*
X0088942Y0026705D01*
X0089937Y0025711D01*
X0090100Y0026106D01*
X0090309Y0026314D01*
X0076904Y0039719D01*
X0076048Y0039719D01*
X0074658Y0040295D01*
X0073663Y0041289D01*
X0073500Y0040894D01*
X0072206Y0039600D01*
X0070515Y0038900D01*
X0063085Y0038900D01*
X0061394Y0039600D01*
X0060100Y0040894D01*
X0059400Y0042585D01*
X0059400Y0044415D01*
X0060100Y0046106D01*
X0061394Y0047400D01*
X0063085Y0048100D01*
X0070515Y0048100D01*
X0072206Y0047400D01*
X0073500Y0046106D01*
X0073663Y0045711D01*
X0074200Y0046247D01*
X0074200Y0065753D01*
X0073595Y0066358D01*
X0073019Y0067748D01*
X0073019Y0068604D01*
X0072076Y0069547D01*
X0070515Y0068900D01*
X0063085Y0068900D01*
X0061394Y0069600D01*
X0060100Y0070894D01*
X0059656Y0071967D01*
X0059596Y0072027D01*
X0059596Y0072027D01*
X0048346Y0083277D01*
X0048011Y0084086D01*
X0047689Y0084219D01*
X0046269Y0085639D01*
X0045550Y0087375D01*
X0044831Y0085639D01*
X0043411Y0084219D01*
X0043150Y0084111D01*
X0043150Y0081733D01*
X0042754Y0080777D01*
X0040227Y0078250D01*
X0046077Y0072400D01*
X0047675Y0072400D01*
X0049292Y0071730D01*
X0050530Y0070492D01*
X0051200Y0068875D01*
X0051200Y0067277D01*
X0052377Y0066100D01*
X0060098Y0066100D01*
X0060100Y0066106D01*
X0061394Y0067400D01*
X0063085Y0068100D01*
X0070515Y0068100D01*
X0072206Y0067400D01*
X0073500Y0066106D01*
X0074200Y0064415D01*
X0074200Y0062585D01*
X0073500Y0060894D01*
X0072206Y0059600D01*
X0070515Y0058900D01*
X0063085Y0058900D01*
X0061394Y0059600D01*
X0060100Y0060894D01*
X0060098Y0060900D01*
X0050783Y0060900D01*
X0049827Y0061296D01*
X0049096Y0062027D01*
X0047523Y0063600D01*
X0045925Y0063600D01*
X0044308Y0064270D01*
X0043070Y0065508D01*
X0042400Y0067125D01*
X0042400Y0068723D01*
X0035223Y0075900D01*
X0030423Y0075900D01*
X0028623Y0074100D01*
X0024977Y0074100D01*
X0022400Y0076677D01*
X0022400Y0080323D01*
X0024977Y0082900D01*
X0028623Y0082900D01*
X0030423Y0081100D01*
X0035723Y0081100D01*
X0037950Y0083327D01*
X0037950Y0084111D01*
X0037689Y0084219D01*
X0036269Y0085639D01*
X0035500Y0087495D01*
X0035500Y0089505D01*
X0036269Y0091361D01*
X0037058Y0092150D01*
X0031707Y0092150D01*
X0031081Y0090639D01*
X0029661Y0089219D01*
X0027805Y0088450D01*
X0025795Y0088450D01*
X0023939Y0089219D01*
X0022519Y0090639D01*
X0022411Y0090900D01*
X0018783Y0090900D01*
X0017827Y0091296D01*
X0017096Y0092027D01*
X0016800Y0092323D01*
X0014400Y0089923D01*
X0014400Y0082123D01*
X0016200Y0080323D01*
X0016200Y0076677D01*
X0013623Y0074100D01*
X0009977Y0074100D01*
X0007400Y0076677D01*
X0007400Y0080323D01*
X0009200Y0082123D01*
X0009200Y0091517D01*
X0009596Y0092473D01*
X0014200Y0097077D01*
X0014200Y0127767D01*
X0014596Y0128723D01*
X0015327Y0129454D01*
X0024200Y0138327D01*
X0024200Y0144877D01*
X0022400Y0146677D01*
X0022400Y0150323D01*
X0024977Y0152900D01*
X0028623Y0152900D01*
X0031200Y0150323D01*
X0031200Y0146677D01*
X0029400Y0144877D01*
X0029400Y0136733D01*
X0029004Y0135777D01*
X0019400Y0126173D01*
X0019400Y0097077D01*
X0020377Y0096100D01*
X0022411Y0096100D01*
X0022519Y0096361D01*
X0023939Y0097781D01*
X0025675Y0098500D01*
X0023939Y0099219D01*
X0022519Y0100639D01*
X0021750Y0102495D01*
X0021750Y0104505D01*
X0022519Y0106361D01*
X0023939Y0107781D01*
X0025795Y0108550D01*
X0027805Y0108550D01*
X0029661Y0107781D01*
X0031081Y0106361D01*
X0031850Y0104505D01*
X0031850Y0102495D01*
X0031081Y0100639D01*
X0029661Y0099219D01*
X0027925Y0098500D01*
X0029661Y0097781D01*
X0030092Y0097350D01*
X0047317Y0097350D01*
X0048273Y0096954D01*
X0049004Y0096223D01*
X0051764Y0093463D01*
X0053411Y0092781D01*
X0054831Y0091361D01*
X0055600Y0089505D01*
X0055600Y0087495D01*
X0054831Y0085639D01*
X0054084Y0084893D01*
X0061524Y0077453D01*
X0063085Y0078100D01*
X0070515Y0078100D01*
X0072206Y0077400D01*
X0073500Y0076106D01*
X0073944Y0075033D01*
X0074004Y0074973D01*
X0076696Y0072281D01*
X0077552Y0072281D01*
X0078474Y0071899D01*
X0071192Y0079181D01*
X0070515Y0078900D01*
X0063085Y0078900D01*
X0061394Y0079600D01*
X0060100Y0080894D01*
X0059400Y0082585D01*
X0059400Y0084415D01*
X0060100Y0086106D01*
X0061394Y0087400D01*
X0063085Y0088100D01*
X0070515Y0088100D01*
X0072206Y0087400D01*
X0073500Y0086106D01*
X0074200Y0084415D01*
X0074200Y0083527D01*
X0079200Y0078527D01*
X0079200Y0144719D01*
X0079073Y0144719D01*
X0078019Y0145773D01*
X0078019Y0151227D01*
X0079073Y0152281D01*
X0084527Y0152281D01*
X0085581Y0151227D01*
X0085581Y0145773D01*
X0084527Y0144719D01*
X0084400Y0144719D01*
X0084400Y0086447D01*
X0084658Y0086705D01*
X0086048Y0087281D01*
X0087552Y0087281D01*
X0088942Y0086705D01*
X0089547Y0086100D01*
X0090098Y0086100D01*
X0090100Y0086106D01*
X0091394Y0087400D01*
X0093085Y0088100D01*
X0100515Y0088100D01*
X0102206Y0087400D01*
X0103500Y0086106D01*
X0103944Y0085033D01*
X0107877Y0081100D01*
X0113688Y0081100D01*
X0112476Y0082311D01*
X0111700Y0084186D01*
X0111700Y0092814D01*
X0112476Y0094689D01*
X0113688Y0095900D01*
X0112877Y0095900D01*
X0109400Y0092423D01*
X0109400Y0091247D01*
X0110005Y0090642D01*
X0110581Y0089252D01*
X0110581Y0087748D01*
X0110005Y0086358D01*
X0108942Y0085295D01*
X0107552Y0084719D01*
X0106048Y0084719D01*
X0104658Y0085295D01*
X0103595Y0086358D01*
X0103019Y0087748D01*
X0103019Y0089252D01*
X0103595Y0090642D01*
X0104200Y0091247D01*
X0104200Y0094017D01*
X0104596Y0094973D01*
X0105327Y0095704D01*
X0105327Y0095704D01*
X0109596Y0099973D01*
X0109596Y0099973D01*
X0110327Y0100704D01*
X0111283Y0101100D01*
X0125723Y0101100D01*
X0134200Y0109577D01*
X0134200Y0135753D01*
X0134053Y0135900D01*
X0116283Y0135900D01*
X0115327Y0136296D01*
X0114596Y0137027D01*
X0109400Y0142223D01*
X0109400Y0106247D01*
X0110005Y0105642D01*
X0110581Y0104252D01*
X0110581Y0102748D01*
X0110005Y0101358D01*
X0108942Y0100295D01*
X0107552Y0099719D01*
X0106048Y0099719D01*
X0104658Y0100295D01*
X0103663Y0101289D01*
X0103500Y0100894D01*
X0102206Y0099600D01*
X0100515Y0098900D01*
X0093085Y0098900D01*
X0091394Y0099600D01*
X0090100Y0100894D01*
X0089400Y0102585D01*
X0089400Y0104415D01*
X0090100Y0106106D01*
X0091394Y0107400D01*
X0093085Y0108100D01*
X0100515Y0108100D01*
X0102206Y0107400D01*
X0103500Y0106106D01*
X0103663Y0105711D01*
X0104200Y0106247D01*
X0104200Y0142423D01*
X0104153Y0142470D01*
X0103500Y0140894D01*
X0102206Y0139600D01*
X0100515Y0138900D01*
X0093085Y0138900D01*
X0091394Y0139600D01*
X0090100Y0140894D01*
X0089400Y0142585D01*
X0089400Y0144415D01*
X0090100Y0146106D01*
X0091394Y0147400D01*
X0093085Y0148100D01*
X0098523Y0148100D01*
X0096904Y0149719D01*
X0096048Y0149719D01*
X0094658Y0150295D01*
X0093595Y0151358D01*
X0093019Y0152748D01*
X0093019Y0154252D01*
X0093595Y0155642D01*
X0094658Y0156705D01*
X0096048Y0157281D01*
X0097552Y0157281D01*
X0098942Y0156705D01*
X0100005Y0155642D01*
X0100581Y0154252D01*
X0100581Y0153396D01*
X0104200Y0149777D01*
X0104200Y0152423D01*
X0099596Y0157027D01*
X0099200Y0157983D01*
X0099200Y0159877D01*
X0097400Y0161677D01*
X0097400Y0165323D01*
X0099977Y0167900D01*
X0103623Y0167900D01*
X0106200Y0165323D01*
X0106200Y0161677D01*
X0104400Y0159877D01*
X0104400Y0159577D01*
X0108273Y0155704D01*
X0109004Y0154973D01*
X0109400Y0154017D01*
X0109400Y0149577D01*
X0117877Y0141100D01*
X0121164Y0141100D01*
X0120122Y0141379D01*
X0116178Y0143657D01*
X0112957Y0146878D01*
X0110679Y0150822D01*
X0109500Y0155222D01*
X0109500Y0159778D01*
X0110679Y0164178D01*
X0112957Y0168122D01*
X0113495Y0168661D01*
X0020728Y0168661D01*
X0021409Y0167480D01*
X0022112Y0164858D01*
X0022112Y0162142D01*
X0021409Y0159520D01*
X0020051Y0157168D01*
X0018132Y0155248D01*
X0015780Y0153891D01*
X0013158Y0153188D01*
X0010442Y0153188D01*
X0007820Y0153891D01*
X0006600Y0154595D01*
X0006600Y0022405D01*
X0007820Y0023109D01*
X0010442Y0023812D01*
X0013158Y0023812D01*
X0015780Y0023109D01*
X0018132Y0021751D01*
X0020051Y0019832D01*
X0021409Y0017480D01*
X0022112Y0014858D01*
X0022112Y0012142D01*
X0021409Y0009520D01*
X0021509Y0009894D02*
X0027200Y0009894D01*
X0027200Y0011493D02*
X0021938Y0011493D01*
X0022112Y0013091D02*
X0027200Y0013091D01*
X0027200Y0014690D02*
X0022112Y0014690D01*
X0021728Y0016288D02*
X0027200Y0016288D01*
X0027478Y0017887D02*
X0021174Y0017887D01*
X0020252Y0019485D02*
X0028480Y0019485D01*
X0029538Y0021084D02*
X0018799Y0021084D01*
X0016520Y0022682D02*
X0031055Y0022682D01*
X0032654Y0024281D02*
X0006600Y0024281D01*
X0006600Y0025879D02*
X0037419Y0025879D01*
X0036757Y0027478D02*
X0006600Y0027478D01*
X0006600Y0029076D02*
X0036750Y0029076D01*
X0037235Y0030675D02*
X0006600Y0030675D01*
X0006600Y0032273D02*
X0038431Y0032273D01*
X0037251Y0033872D02*
X0006600Y0033872D01*
X0006600Y0035470D02*
X0008607Y0035470D01*
X0007400Y0036677D02*
X0009977Y0034100D01*
X0013623Y0034100D01*
X0016200Y0036677D01*
X0016200Y0040323D01*
X0013623Y0042900D01*
X0009977Y0042900D01*
X0007400Y0040323D01*
X0007400Y0036677D01*
X0007400Y0037069D02*
X0006600Y0037069D01*
X0006600Y0038667D02*
X0007400Y0038667D01*
X0007400Y0040266D02*
X0006600Y0040266D01*
X0006600Y0041864D02*
X0008942Y0041864D01*
X0006600Y0043463D02*
X0037586Y0043463D01*
X0039184Y0045061D02*
X0006600Y0045061D01*
X0006600Y0046660D02*
X0040783Y0046660D01*
X0042381Y0048258D02*
X0006600Y0048258D01*
X0006600Y0049857D02*
X0042400Y0049857D01*
X0043055Y0051455D02*
X0006600Y0051455D01*
X0006600Y0053054D02*
X0045089Y0053054D01*
X0048775Y0054652D02*
X0006600Y0054652D01*
X0006600Y0056251D02*
X0060245Y0056251D01*
X0062480Y0057849D02*
X0006600Y0057849D01*
X0006600Y0059448D02*
X0061762Y0059448D01*
X0066800Y0063500D02*
X0051300Y0063500D01*
X0046800Y0068000D01*
X0036800Y0078000D01*
X0036800Y0078500D01*
X0040550Y0082250D01*
X0040550Y0088500D01*
X0035862Y0086623D02*
X0014400Y0086623D01*
X0014400Y0088221D02*
X0035500Y0088221D01*
X0035631Y0089820D02*
X0030261Y0089820D01*
X0031404Y0091418D02*
X0036326Y0091418D01*
X0030550Y0094750D02*
X0029300Y0093500D01*
X0026800Y0093500D01*
X0019300Y0093500D01*
X0016800Y0096000D01*
X0011800Y0091000D01*
X0011800Y0078500D01*
X0014956Y0075433D02*
X0023644Y0075433D01*
X0022400Y0077032D02*
X0016200Y0077032D01*
X0016200Y0078630D02*
X0022400Y0078630D01*
X0022400Y0080229D02*
X0016200Y0080229D01*
X0014695Y0081827D02*
X0023905Y0081827D01*
X0026800Y0078500D02*
X0036800Y0078500D01*
X0035690Y0075433D02*
X0029956Y0075433D01*
X0029695Y0081827D02*
X0036450Y0081827D01*
X0037950Y0083426D02*
X0014400Y0083426D01*
X0014400Y0085024D02*
X0036884Y0085024D01*
X0042205Y0080229D02*
X0051395Y0080229D01*
X0052993Y0078630D02*
X0040607Y0078630D01*
X0041445Y0077032D02*
X0054592Y0077032D01*
X0056190Y0075433D02*
X0043044Y0075433D01*
X0044642Y0073834D02*
X0057789Y0073834D01*
X0059387Y0072236D02*
X0048071Y0072236D01*
X0050385Y0070637D02*
X0060357Y0070637D01*
X0061493Y0067440D02*
X0051200Y0067440D01*
X0051132Y0069039D02*
X0062749Y0069039D01*
X0061800Y0073500D02*
X0050550Y0084750D01*
X0050550Y0088500D01*
X0050550Y0091000D01*
X0046800Y0094750D01*
X0030550Y0094750D01*
X0029586Y0097812D02*
X0062390Y0097812D01*
X0063085Y0098100D02*
X0061394Y0097400D01*
X0060100Y0096106D01*
X0059400Y0094415D01*
X0059400Y0092585D01*
X0060100Y0090894D01*
X0061394Y0089600D01*
X0063085Y0088900D01*
X0070515Y0088900D01*
X0072206Y0089600D01*
X0073500Y0090894D01*
X0074200Y0092585D01*
X0074200Y0094415D01*
X0073500Y0096106D01*
X0072206Y0097400D01*
X0070515Y0098100D01*
X0063085Y0098100D01*
X0063085Y0098900D02*
X0070515Y0098900D01*
X0072206Y0099600D01*
X0073500Y0100894D01*
X0074200Y0102585D01*
X0074200Y0104415D01*
X0073500Y0106106D01*
X0072206Y0107400D01*
X0070515Y0108100D01*
X0063085Y0108100D01*
X0061394Y0107400D01*
X0060100Y0106106D01*
X0059400Y0104415D01*
X0059400Y0102585D01*
X0060100Y0100894D01*
X0061394Y0099600D01*
X0063085Y0098900D01*
X0061852Y0099411D02*
X0053602Y0099411D01*
X0053411Y0099219D02*
X0054831Y0100639D01*
X0055600Y0102495D01*
X0055600Y0104505D01*
X0054831Y0106361D01*
X0053411Y0107781D01*
X0053150Y0107889D01*
X0053150Y0131173D01*
X0061524Y0139547D01*
X0063085Y0138900D01*
X0070515Y0138900D01*
X0072206Y0139600D01*
X0073500Y0140894D01*
X0074200Y0142585D01*
X0074200Y0144415D01*
X0073500Y0146106D01*
X0072206Y0147400D01*
X0070515Y0148100D01*
X0064400Y0148100D01*
X0064400Y0159877D01*
X0066200Y0161677D01*
X0066200Y0165323D01*
X0063623Y0167900D01*
X0059977Y0167900D01*
X0057400Y0165323D01*
X0057400Y0161677D01*
X0059200Y0159877D01*
X0059200Y0152281D01*
X0054073Y0152281D01*
X0053019Y0151227D01*
X0053019Y0151100D01*
X0050423Y0151100D01*
X0048623Y0152900D01*
X0044977Y0152900D01*
X0042400Y0150323D01*
X0042400Y0146677D01*
X0044977Y0144100D01*
X0048623Y0144100D01*
X0050423Y0145900D01*
X0053019Y0145900D01*
X0053019Y0145773D01*
X0054073Y0144719D01*
X0059200Y0144719D01*
X0059200Y0144577D01*
X0049077Y0134454D01*
X0048346Y0133723D01*
X0047950Y0132767D01*
X0047950Y0107889D01*
X0047689Y0107781D01*
X0046269Y0106361D01*
X0045550Y0104625D01*
X0044831Y0106361D01*
X0043411Y0107781D01*
X0041555Y0108550D01*
X0039545Y0108550D01*
X0037689Y0107781D01*
X0036269Y0106361D01*
X0035500Y0104505D01*
X0035500Y0102495D01*
X0036269Y0100639D01*
X0037689Y0099219D01*
X0039545Y0098450D01*
X0041555Y0098450D01*
X0043411Y0099219D01*
X0044831Y0100639D01*
X0045550Y0102375D01*
X0046269Y0100639D01*
X0047689Y0099219D01*
X0049545Y0098450D01*
X0051555Y0098450D01*
X0053411Y0099219D01*
X0054984Y0101009D02*
X0060053Y0101009D01*
X0059400Y0102608D02*
X0055600Y0102608D01*
X0055600Y0104206D02*
X0059400Y0104206D01*
X0059976Y0105805D02*
X0055061Y0105805D01*
X0053789Y0107403D02*
X0061403Y0107403D01*
X0062839Y0109002D02*
X0053150Y0109002D01*
X0053150Y0110600D02*
X0060394Y0110600D01*
X0060100Y0110894D02*
X0061394Y0109600D01*
X0063085Y0108900D01*
X0070515Y0108900D01*
X0072206Y0109600D01*
X0073500Y0110894D01*
X0074200Y0112585D01*
X0074200Y0114415D01*
X0073500Y0116106D01*
X0072206Y0117400D01*
X0070515Y0118100D01*
X0063085Y0118100D01*
X0061394Y0117400D01*
X0060100Y0116106D01*
X0059400Y0114415D01*
X0059400Y0112585D01*
X0060100Y0110894D01*
X0059560Y0112199D02*
X0053150Y0112199D01*
X0053150Y0113797D02*
X0059400Y0113797D01*
X0059806Y0115396D02*
X0053150Y0115396D01*
X0053150Y0116994D02*
X0060989Y0116994D01*
X0061394Y0119600D02*
X0063085Y0118900D01*
X0070515Y0118900D01*
X0072206Y0119600D01*
X0073500Y0120894D01*
X0074200Y0122585D01*
X0074200Y0124415D01*
X0073500Y0126106D01*
X0072206Y0127400D01*
X0070515Y0128100D01*
X0063085Y0128100D01*
X0061394Y0127400D01*
X0060100Y0126106D01*
X0059400Y0124415D01*
X0059400Y0122585D01*
X0060100Y0120894D01*
X0061394Y0119600D01*
X0060803Y0120191D02*
X0053150Y0120191D01*
X0053150Y0118593D02*
X0079200Y0118593D01*
X0079200Y0120191D02*
X0072797Y0120191D01*
X0073871Y0121790D02*
X0079200Y0121790D01*
X0079200Y0123388D02*
X0074200Y0123388D01*
X0073963Y0124987D02*
X0079200Y0124987D01*
X0079200Y0126585D02*
X0073020Y0126585D01*
X0072206Y0129600D02*
X0070515Y0128900D01*
X0063085Y0128900D01*
X0061394Y0129600D01*
X0060100Y0130894D01*
X0059400Y0132585D01*
X0059400Y0134415D01*
X0060100Y0136106D01*
X0061394Y0137400D01*
X0063085Y0138100D01*
X0070515Y0138100D01*
X0072206Y0137400D01*
X0073500Y0136106D01*
X0074200Y0134415D01*
X0074200Y0132585D01*
X0073500Y0130894D01*
X0072206Y0129600D01*
X0072388Y0129782D02*
X0079200Y0129782D01*
X0079200Y0128184D02*
X0053150Y0128184D01*
X0053150Y0129782D02*
X0061212Y0129782D01*
X0059899Y0131381D02*
X0053358Y0131381D01*
X0054956Y0132979D02*
X0059400Y0132979D01*
X0059467Y0134578D02*
X0056555Y0134578D01*
X0058153Y0136176D02*
X0060171Y0136176D01*
X0059752Y0137775D02*
X0062300Y0137775D01*
X0061942Y0139373D02*
X0061350Y0139373D01*
X0061800Y0143500D02*
X0061800Y0163500D01*
X0058626Y0166548D02*
X0021659Y0166548D01*
X0022087Y0164950D02*
X0057400Y0164950D01*
X0057400Y0163351D02*
X0022112Y0163351D01*
X0022007Y0161753D02*
X0033830Y0161753D01*
X0034977Y0162900D02*
X0032400Y0160323D01*
X0032400Y0156677D01*
X0034977Y0154100D01*
X0038623Y0154100D01*
X0041200Y0156677D01*
X0041200Y0160323D01*
X0038623Y0162900D01*
X0034977Y0162900D01*
X0032400Y0160154D02*
X0021579Y0160154D01*
X0020852Y0158556D02*
X0032400Y0158556D01*
X0032400Y0156957D02*
X0019840Y0156957D01*
X0018242Y0155359D02*
X0033719Y0155359D01*
X0029361Y0152162D02*
X0044239Y0152162D01*
X0042641Y0150563D02*
X0030959Y0150563D01*
X0031200Y0148965D02*
X0042400Y0148965D01*
X0042400Y0147366D02*
X0031200Y0147366D01*
X0030290Y0145768D02*
X0043310Y0145768D01*
X0044908Y0144169D02*
X0029400Y0144169D01*
X0029400Y0142570D02*
X0057194Y0142570D01*
X0055595Y0140972D02*
X0029400Y0140972D01*
X0029400Y0139373D02*
X0053997Y0139373D01*
X0052398Y0137775D02*
X0029400Y0137775D01*
X0029170Y0136176D02*
X0050799Y0136176D01*
X0049201Y0134578D02*
X0027805Y0134578D01*
X0026206Y0132979D02*
X0048038Y0132979D01*
X0047950Y0131381D02*
X0024608Y0131381D01*
X0023009Y0129782D02*
X0047950Y0129782D01*
X0047950Y0128184D02*
X0021411Y0128184D01*
X0019812Y0126585D02*
X0047950Y0126585D01*
X0047950Y0124987D02*
X0019400Y0124987D01*
X0019400Y0123388D02*
X0047950Y0123388D01*
X0047950Y0121790D02*
X0019400Y0121790D01*
X0019400Y0120191D02*
X0047950Y0120191D01*
X0047950Y0118593D02*
X0019400Y0118593D01*
X0019400Y0116994D02*
X0047950Y0116994D01*
X0047950Y0115396D02*
X0019400Y0115396D01*
X0019400Y0113797D02*
X0047950Y0113797D01*
X0047950Y0112199D02*
X0019400Y0112199D01*
X0019400Y0110600D02*
X0047950Y0110600D01*
X0047950Y0109002D02*
X0019400Y0109002D01*
X0019400Y0107403D02*
X0023561Y0107403D01*
X0022289Y0105805D02*
X0019400Y0105805D01*
X0019400Y0104206D02*
X0021750Y0104206D01*
X0021750Y0102608D02*
X0019400Y0102608D01*
X0019400Y0101009D02*
X0022366Y0101009D01*
X0023748Y0099411D02*
X0019400Y0099411D01*
X0019400Y0097812D02*
X0024014Y0097812D01*
X0022458Y0096214D02*
X0020263Y0096214D01*
X0016800Y0096000D02*
X0016800Y0127250D01*
X0026800Y0137250D01*
X0026800Y0148500D01*
X0022400Y0148965D02*
X0006600Y0148965D01*
X0006600Y0150563D02*
X0022641Y0150563D01*
X0024239Y0152162D02*
X0006600Y0152162D01*
X0006600Y0153760D02*
X0008308Y0153760D01*
X0006600Y0147366D02*
X0022400Y0147366D01*
X0023310Y0145768D02*
X0006600Y0145768D01*
X0006600Y0144169D02*
X0024200Y0144169D01*
X0024200Y0142570D02*
X0006600Y0142570D01*
X0006600Y0140972D02*
X0024200Y0140972D01*
X0024200Y0139373D02*
X0006600Y0139373D01*
X0006600Y0137775D02*
X0023648Y0137775D01*
X0022049Y0136176D02*
X0006600Y0136176D01*
X0006600Y0134578D02*
X0020451Y0134578D01*
X0018852Y0132979D02*
X0006600Y0132979D01*
X0006600Y0131381D02*
X0017254Y0131381D01*
X0015655Y0129782D02*
X0006600Y0129782D01*
X0006600Y0128184D02*
X0014373Y0128184D01*
X0014200Y0126585D02*
X0006600Y0126585D01*
X0006600Y0124987D02*
X0014200Y0124987D01*
X0014200Y0123388D02*
X0006600Y0123388D01*
X0006600Y0121790D02*
X0014200Y0121790D01*
X0014200Y0120191D02*
X0006600Y0120191D01*
X0006600Y0118593D02*
X0014200Y0118593D01*
X0014200Y0116994D02*
X0006600Y0116994D01*
X0006600Y0115396D02*
X0014200Y0115396D01*
X0014200Y0113797D02*
X0006600Y0113797D01*
X0006600Y0112199D02*
X0014200Y0112199D01*
X0014200Y0110600D02*
X0006600Y0110600D01*
X0006600Y0109002D02*
X0014200Y0109002D01*
X0014200Y0107403D02*
X0006600Y0107403D01*
X0006600Y0105805D02*
X0014200Y0105805D01*
X0014200Y0104206D02*
X0006600Y0104206D01*
X0006600Y0102608D02*
X0014200Y0102608D01*
X0014200Y0101009D02*
X0006600Y0101009D01*
X0006600Y0099411D02*
X0014200Y0099411D01*
X0014200Y0097812D02*
X0006600Y0097812D01*
X0006600Y0096214D02*
X0013337Y0096214D01*
X0011738Y0094615D02*
X0006600Y0094615D01*
X0006600Y0093017D02*
X0010140Y0093017D01*
X0009200Y0091418D02*
X0006600Y0091418D01*
X0006600Y0089820D02*
X0009200Y0089820D01*
X0009200Y0088221D02*
X0006600Y0088221D01*
X0006600Y0086623D02*
X0009200Y0086623D01*
X0009200Y0085024D02*
X0006600Y0085024D01*
X0006600Y0083426D02*
X0009200Y0083426D01*
X0008905Y0081827D02*
X0006600Y0081827D01*
X0006600Y0080229D02*
X0007400Y0080229D01*
X0007400Y0078630D02*
X0006600Y0078630D01*
X0006600Y0077032D02*
X0007400Y0077032D01*
X0006600Y0075433D02*
X0008644Y0075433D01*
X0006600Y0073834D02*
X0037289Y0073834D01*
X0038887Y0072236D02*
X0006600Y0072236D01*
X0006600Y0070637D02*
X0040486Y0070637D01*
X0042084Y0069039D02*
X0006600Y0069039D01*
X0006600Y0067440D02*
X0042400Y0067440D01*
X0042931Y0065842D02*
X0006600Y0065842D01*
X0006600Y0064243D02*
X0044371Y0064243D01*
X0048478Y0062645D02*
X0006600Y0062645D01*
X0006600Y0061046D02*
X0050429Y0061046D01*
X0051300Y0053500D02*
X0066800Y0053500D01*
X0071120Y0057849D02*
X0074200Y0057849D01*
X0074200Y0056251D02*
X0073354Y0056251D01*
X0074102Y0054652D02*
X0074200Y0054652D01*
X0074200Y0053054D02*
X0074200Y0053054D01*
X0074200Y0051455D02*
X0073732Y0051455D01*
X0074200Y0049857D02*
X0072462Y0049857D01*
X0074200Y0048258D02*
X0051200Y0048258D01*
X0051334Y0049857D02*
X0061138Y0049857D01*
X0060654Y0046660D02*
X0050593Y0046660D01*
X0048789Y0045061D02*
X0059668Y0045061D01*
X0059400Y0043463D02*
X0044940Y0043463D01*
X0043341Y0041864D02*
X0059699Y0041864D01*
X0060729Y0040266D02*
X0041743Y0040266D01*
X0040144Y0038667D02*
X0077956Y0038667D01*
X0079554Y0037069D02*
X0072537Y0037069D01*
X0072206Y0037400D02*
X0073500Y0036106D01*
X0074200Y0034415D01*
X0074200Y0032585D01*
X0073500Y0030894D01*
X0072206Y0029600D01*
X0070515Y0028900D01*
X0063085Y0028900D01*
X0061394Y0029600D01*
X0060100Y0030894D01*
X0059400Y0032585D01*
X0059400Y0034415D01*
X0060100Y0036106D01*
X0061394Y0037400D01*
X0063085Y0038100D01*
X0070515Y0038100D01*
X0072206Y0037400D01*
X0073763Y0035470D02*
X0081153Y0035470D01*
X0082751Y0033872D02*
X0074200Y0033872D01*
X0074071Y0032273D02*
X0084350Y0032273D01*
X0085948Y0030675D02*
X0073280Y0030675D01*
X0070940Y0029076D02*
X0087547Y0029076D01*
X0089145Y0027478D02*
X0072017Y0027478D01*
X0073594Y0025879D02*
X0083832Y0025879D01*
X0083031Y0024281D02*
X0074200Y0024281D01*
X0074200Y0022682D02*
X0082305Y0022682D01*
X0081800Y0018500D02*
X0086800Y0023500D01*
X0089768Y0025879D02*
X0090006Y0025879D01*
X0091800Y0028500D02*
X0076800Y0043500D01*
X0076800Y0068500D01*
X0071800Y0073500D01*
X0066800Y0073500D01*
X0061800Y0073500D01*
X0060347Y0078630D02*
X0071743Y0078630D01*
X0072574Y0077032D02*
X0073342Y0077032D01*
X0073778Y0075433D02*
X0074940Y0075433D01*
X0075142Y0073834D02*
X0076539Y0073834D01*
X0077661Y0072236D02*
X0078137Y0072236D01*
X0080199Y0070174D02*
X0089077Y0061296D01*
X0090033Y0060900D01*
X0090098Y0060900D01*
X0090100Y0060894D01*
X0090309Y0060686D01*
X0085327Y0055704D01*
X0084596Y0054973D01*
X0084200Y0054017D01*
X0084200Y0039777D01*
X0080581Y0043396D01*
X0080581Y0044252D01*
X0080005Y0045642D01*
X0079400Y0046247D01*
X0079400Y0065753D01*
X0080005Y0066358D01*
X0080581Y0067748D01*
X0080581Y0069252D01*
X0080199Y0070174D01*
X0080581Y0069039D02*
X0081334Y0069039D01*
X0080454Y0067440D02*
X0082933Y0067440D01*
X0084531Y0065842D02*
X0079489Y0065842D01*
X0079400Y0064243D02*
X0086130Y0064243D01*
X0087728Y0062645D02*
X0079400Y0062645D01*
X0079400Y0061046D02*
X0089679Y0061046D01*
X0089071Y0059448D02*
X0079400Y0059448D01*
X0079400Y0057849D02*
X0087472Y0057849D01*
X0085874Y0056251D02*
X0079400Y0056251D01*
X0079400Y0054652D02*
X0084463Y0054652D01*
X0085327Y0055704D02*
X0085327Y0055704D01*
X0086800Y0053500D02*
X0086800Y0038500D01*
X0091800Y0033500D01*
X0096800Y0033500D01*
X0100515Y0038100D02*
X0093085Y0038100D01*
X0091524Y0037453D01*
X0089400Y0039577D01*
X0089400Y0052423D01*
X0089447Y0052470D01*
X0090100Y0050894D01*
X0091394Y0049600D01*
X0093085Y0048900D01*
X0100515Y0048900D01*
X0102206Y0049600D01*
X0103500Y0050894D01*
X0104200Y0052585D01*
X0104200Y0054415D01*
X0103585Y0055900D01*
X0105432Y0055900D01*
X0104800Y0054375D01*
X0104800Y0052625D01*
X0105470Y0051008D01*
X0106708Y0049770D01*
X0108325Y0049100D01*
X0112523Y0049100D01*
X0113723Y0047900D01*
X0108325Y0047900D01*
X0106708Y0047230D01*
X0105470Y0045992D01*
X0104800Y0044375D01*
X0104800Y0042625D01*
X0105470Y0041008D01*
X0106708Y0039770D01*
X0108325Y0039100D01*
X0115275Y0039100D01*
X0116865Y0039758D01*
X0124200Y0032423D01*
X0124200Y0029500D01*
X0124004Y0029973D01*
X0119004Y0034973D01*
X0118273Y0035704D01*
X0118245Y0035716D01*
X0118130Y0035992D01*
X0116892Y0037230D01*
X0115275Y0037900D01*
X0108325Y0037900D01*
X0106708Y0037230D01*
X0105470Y0035992D01*
X0104800Y0034375D01*
X0104800Y0032625D01*
X0105432Y0031100D01*
X0103585Y0031100D01*
X0104200Y0032585D01*
X0104200Y0034415D01*
X0103500Y0036106D01*
X0102206Y0037400D01*
X0100515Y0038100D01*
X0100515Y0038900D02*
X0102206Y0039600D01*
X0103500Y0040894D01*
X0104200Y0042585D01*
X0104200Y0044415D01*
X0103500Y0046106D01*
X0102206Y0047400D01*
X0100515Y0048100D01*
X0093085Y0048100D01*
X0091394Y0047400D01*
X0090100Y0046106D01*
X0089400Y0044415D01*
X0089400Y0042585D01*
X0090100Y0040894D01*
X0091394Y0039600D01*
X0093085Y0038900D01*
X0100515Y0038900D01*
X0102871Y0040266D02*
X0106212Y0040266D01*
X0105115Y0041864D02*
X0103901Y0041864D01*
X0104200Y0043463D02*
X0104800Y0043463D01*
X0105084Y0045061D02*
X0103932Y0045061D01*
X0102946Y0046660D02*
X0106137Y0046660D01*
X0106621Y0049857D02*
X0102462Y0049857D01*
X0103732Y0051455D02*
X0105284Y0051455D01*
X0104800Y0053054D02*
X0104200Y0053054D01*
X0104102Y0054652D02*
X0104915Y0054652D01*
X0106800Y0058500D02*
X0091800Y0058500D01*
X0086800Y0053500D01*
X0084200Y0053054D02*
X0079400Y0053054D01*
X0079400Y0051455D02*
X0084200Y0051455D01*
X0084200Y0049857D02*
X0079400Y0049857D01*
X0079400Y0048258D02*
X0084200Y0048258D01*
X0084200Y0046660D02*
X0079400Y0046660D01*
X0080246Y0045061D02*
X0084200Y0045061D01*
X0084200Y0043463D02*
X0080581Y0043463D01*
X0082113Y0041864D02*
X0084200Y0041864D01*
X0084200Y0040266D02*
X0083711Y0040266D01*
X0089400Y0040266D02*
X0090729Y0040266D01*
X0090310Y0038667D02*
X0117956Y0038667D01*
X0117054Y0037069D02*
X0119554Y0037069D01*
X0118507Y0035470D02*
X0121153Y0035470D01*
X0120105Y0033872D02*
X0122751Y0033872D01*
X0121704Y0032273D02*
X0124200Y0032273D01*
X0124200Y0030675D02*
X0123302Y0030675D01*
X0121800Y0028500D02*
X0116800Y0033500D01*
X0111800Y0033500D01*
X0109877Y0029100D02*
X0115275Y0029100D01*
X0116865Y0029758D01*
X0119200Y0027423D01*
X0119200Y0026247D01*
X0118595Y0025642D01*
X0118435Y0025256D01*
X0118130Y0025992D01*
X0116892Y0027230D01*
X0115275Y0027900D01*
X0111077Y0027900D01*
X0109877Y0029100D01*
X0109901Y0029076D02*
X0117547Y0029076D01*
X0116295Y0027478D02*
X0119145Y0027478D01*
X0118832Y0025879D02*
X0118177Y0025879D01*
X0118435Y0021743D02*
X0118595Y0021358D01*
X0119658Y0020295D01*
X0121048Y0019719D01*
X0122552Y0019719D01*
X0123942Y0020295D01*
X0125005Y0021358D01*
X0125081Y0021542D01*
X0130327Y0016296D01*
X0130800Y0016100D01*
X0118023Y0016100D01*
X0116892Y0017230D01*
X0115275Y0017900D01*
X0114400Y0017900D01*
X0114400Y0019100D01*
X0115275Y0019100D01*
X0116892Y0019770D01*
X0118130Y0021008D01*
X0118435Y0021743D01*
X0118162Y0021084D02*
X0118869Y0021084D01*
X0116205Y0019485D02*
X0127138Y0019485D01*
X0128736Y0017887D02*
X0115308Y0017887D01*
X0117834Y0016288D02*
X0130346Y0016288D01*
X0131800Y0018500D02*
X0126800Y0023500D01*
X0126800Y0033500D01*
X0116800Y0043500D01*
X0111800Y0043500D01*
X0113365Y0048258D02*
X0089400Y0048258D01*
X0089400Y0046660D02*
X0090654Y0046660D01*
X0089668Y0045061D02*
X0089400Y0045061D01*
X0089400Y0043463D02*
X0089400Y0043463D01*
X0089400Y0041864D02*
X0089699Y0041864D01*
X0089400Y0049857D02*
X0091138Y0049857D01*
X0089868Y0051455D02*
X0089400Y0051455D01*
X0090550Y0063500D02*
X0070550Y0083500D01*
X0066800Y0083500D01*
X0060766Y0080229D02*
X0058748Y0080229D01*
X0059714Y0081827D02*
X0057150Y0081827D01*
X0055551Y0083426D02*
X0059400Y0083426D01*
X0059652Y0085024D02*
X0054216Y0085024D01*
X0055238Y0086623D02*
X0060617Y0086623D01*
X0061175Y0089820D02*
X0055469Y0089820D01*
X0055600Y0088221D02*
X0079200Y0088221D01*
X0079200Y0086623D02*
X0072983Y0086623D01*
X0073948Y0085024D02*
X0079200Y0085024D01*
X0079200Y0083426D02*
X0074301Y0083426D01*
X0075900Y0081827D02*
X0079200Y0081827D01*
X0079200Y0080229D02*
X0077498Y0080229D01*
X0079097Y0078630D02*
X0079200Y0078630D01*
X0081800Y0078500D02*
X0091800Y0068500D01*
X0101800Y0068500D01*
X0106800Y0073500D01*
X0111800Y0073500D01*
X0105643Y0076165D02*
X0105470Y0075992D01*
X0105355Y0075716D01*
X0105327Y0075704D01*
X0104596Y0074973D01*
X0104596Y0074973D01*
X0104153Y0074529D01*
X0103500Y0076106D01*
X0102206Y0077400D01*
X0100515Y0078100D01*
X0093085Y0078100D01*
X0091394Y0077400D01*
X0090100Y0076106D01*
X0089447Y0074529D01*
X0084400Y0079577D01*
X0084400Y0080553D01*
X0084658Y0080295D01*
X0086048Y0079719D01*
X0087552Y0079719D01*
X0088942Y0080295D01*
X0089547Y0080900D01*
X0090098Y0080900D01*
X0090100Y0080894D01*
X0091394Y0079600D01*
X0093085Y0078900D01*
X0100515Y0078900D01*
X0102076Y0079547D01*
X0104596Y0077027D01*
X0105327Y0076296D01*
X0105643Y0076165D01*
X0105056Y0075433D02*
X0103778Y0075433D01*
X0104592Y0077032D02*
X0102574Y0077032D01*
X0102993Y0078630D02*
X0085347Y0078630D01*
X0084817Y0080229D02*
X0084400Y0080229D01*
X0081800Y0078500D02*
X0081800Y0148500D01*
X0085581Y0148965D02*
X0097659Y0148965D01*
X0094390Y0150563D02*
X0085581Y0150563D01*
X0084646Y0152162D02*
X0093262Y0152162D01*
X0093019Y0153760D02*
X0064400Y0153760D01*
X0064400Y0152162D02*
X0078954Y0152162D01*
X0078019Y0150563D02*
X0064400Y0150563D01*
X0064400Y0148965D02*
X0078019Y0148965D01*
X0078019Y0147366D02*
X0072239Y0147366D01*
X0073640Y0145768D02*
X0078025Y0145768D01*
X0079200Y0144169D02*
X0074200Y0144169D01*
X0074194Y0142570D02*
X0079200Y0142570D01*
X0079200Y0140972D02*
X0073532Y0140972D01*
X0071658Y0139373D02*
X0079200Y0139373D01*
X0079200Y0137775D02*
X0071300Y0137775D01*
X0073429Y0136176D02*
X0079200Y0136176D01*
X0079200Y0134578D02*
X0074133Y0134578D01*
X0074200Y0132979D02*
X0079200Y0132979D01*
X0079200Y0131381D02*
X0073701Y0131381D01*
X0084400Y0131381D02*
X0089899Y0131381D01*
X0090100Y0130894D02*
X0089400Y0132585D01*
X0089400Y0134415D01*
X0090100Y0136106D01*
X0091394Y0137400D01*
X0093085Y0138100D01*
X0100515Y0138100D01*
X0102206Y0137400D01*
X0103500Y0136106D01*
X0104200Y0134415D01*
X0104200Y0132585D01*
X0103500Y0130894D01*
X0102206Y0129600D01*
X0100515Y0128900D01*
X0093085Y0128900D01*
X0091394Y0129600D01*
X0090100Y0130894D01*
X0091212Y0129782D02*
X0084400Y0129782D01*
X0084400Y0128184D02*
X0104200Y0128184D01*
X0104200Y0129782D02*
X0102388Y0129782D01*
X0103701Y0131381D02*
X0104200Y0131381D01*
X0104200Y0132979D02*
X0104200Y0132979D01*
X0104200Y0134578D02*
X0104133Y0134578D01*
X0104200Y0136176D02*
X0103429Y0136176D01*
X0104200Y0137775D02*
X0101300Y0137775D01*
X0101658Y0139373D02*
X0104200Y0139373D01*
X0104200Y0140972D02*
X0103532Y0140972D01*
X0106800Y0143500D02*
X0096800Y0153500D01*
X0095266Y0156957D02*
X0064400Y0156957D01*
X0064400Y0155359D02*
X0093477Y0155359D01*
X0098334Y0156957D02*
X0099666Y0156957D01*
X0100123Y0155359D02*
X0101264Y0155359D01*
X0100581Y0153760D02*
X0102863Y0153760D01*
X0101815Y0152162D02*
X0104200Y0152162D01*
X0104200Y0150563D02*
X0103414Y0150563D01*
X0106800Y0148500D02*
X0106800Y0153500D01*
X0101800Y0158500D01*
X0101800Y0163500D01*
X0098626Y0166548D02*
X0064974Y0166548D01*
X0066200Y0164950D02*
X0097400Y0164950D01*
X0097400Y0163351D02*
X0066200Y0163351D01*
X0066200Y0161753D02*
X0097400Y0161753D01*
X0098923Y0160154D02*
X0064677Y0160154D01*
X0064400Y0158556D02*
X0099200Y0158556D01*
X0104677Y0160154D02*
X0109601Y0160154D01*
X0109500Y0158556D02*
X0105421Y0158556D01*
X0107020Y0156957D02*
X0109500Y0156957D01*
X0109500Y0155359D02*
X0108618Y0155359D01*
X0109400Y0153760D02*
X0109892Y0153760D01*
X0110320Y0152162D02*
X0109400Y0152162D01*
X0109400Y0150563D02*
X0110829Y0150563D01*
X0110012Y0148965D02*
X0111752Y0148965D01*
X0111611Y0147366D02*
X0112675Y0147366D01*
X0113209Y0145768D02*
X0114067Y0145768D01*
X0114808Y0144169D02*
X0115665Y0144169D01*
X0116406Y0142570D02*
X0118059Y0142570D01*
X0116800Y0138500D02*
X0136800Y0138500D01*
X0136800Y0108500D01*
X0126800Y0098500D01*
X0111800Y0098500D01*
X0106800Y0093500D01*
X0106800Y0088500D01*
X0108289Y0085024D02*
X0111700Y0085024D01*
X0111700Y0086623D02*
X0110115Y0086623D01*
X0110581Y0088221D02*
X0111700Y0088221D01*
X0111700Y0089820D02*
X0110346Y0089820D01*
X0109400Y0091418D02*
X0111700Y0091418D01*
X0111784Y0093017D02*
X0109994Y0093017D01*
X0111592Y0094615D02*
X0112446Y0094615D01*
X0109034Y0099411D02*
X0101748Y0099411D01*
X0101210Y0097812D02*
X0107435Y0097812D01*
X0105837Y0096214D02*
X0103392Y0096214D01*
X0103500Y0096106D02*
X0102206Y0097400D01*
X0100515Y0098100D01*
X0093085Y0098100D01*
X0091394Y0097400D01*
X0090100Y0096106D01*
X0089400Y0094415D01*
X0089400Y0092585D01*
X0090100Y0090894D01*
X0091394Y0089600D01*
X0093085Y0088900D01*
X0100515Y0088900D01*
X0102206Y0089600D01*
X0103500Y0090894D01*
X0104200Y0092585D01*
X0104200Y0094415D01*
X0103500Y0096106D01*
X0104117Y0094615D02*
X0104448Y0094615D01*
X0104200Y0093017D02*
X0104200Y0093017D01*
X0104200Y0091418D02*
X0103717Y0091418D01*
X0103254Y0089820D02*
X0102425Y0089820D01*
X0103019Y0088221D02*
X0084400Y0088221D01*
X0084400Y0086623D02*
X0084575Y0086623D01*
X0086800Y0083500D02*
X0096800Y0083500D01*
X0101800Y0083500D01*
X0106800Y0078500D01*
X0131800Y0078500D01*
X0135284Y0077032D02*
X0136509Y0077032D01*
X0136708Y0077230D02*
X0135577Y0076100D01*
X0134747Y0076100D01*
X0135005Y0076358D01*
X0135581Y0077748D01*
X0135581Y0079252D01*
X0135115Y0080378D01*
X0135786Y0080100D01*
X0137814Y0080100D01*
X0139689Y0080876D01*
X0141124Y0082311D01*
X0141900Y0084186D01*
X0141900Y0092814D01*
X0141124Y0094689D01*
X0139912Y0095900D01*
X0140723Y0095900D01*
X0149200Y0087423D01*
X0149200Y0077983D01*
X0149596Y0077027D01*
X0150327Y0076296D01*
X0159656Y0066967D01*
X0160100Y0065894D01*
X0161394Y0064600D01*
X0163085Y0063900D01*
X0170515Y0063900D01*
X0172206Y0064600D01*
X0173500Y0065894D01*
X0174200Y0067585D01*
X0174200Y0069415D01*
X0173500Y0071106D01*
X0172206Y0072400D01*
X0170515Y0073100D01*
X0163085Y0073100D01*
X0161524Y0072453D01*
X0154400Y0079577D01*
X0154400Y0089017D01*
X0154004Y0089973D01*
X0144004Y0099973D01*
X0143273Y0100704D01*
X0142317Y0101100D01*
X0133077Y0101100D01*
X0139004Y0107027D01*
X0139400Y0107983D01*
X0139400Y0135753D01*
X0140005Y0136358D01*
X0140581Y0137748D01*
X0140581Y0139252D01*
X0140005Y0140642D01*
X0138942Y0141705D01*
X0137552Y0142281D01*
X0136048Y0142281D01*
X0134658Y0141705D01*
X0134053Y0141100D01*
X0132436Y0141100D01*
X0133478Y0141379D01*
X0137422Y0143657D01*
X0140643Y0146878D01*
X0142921Y0150822D01*
X0144100Y0155222D01*
X0144100Y0159778D01*
X0142921Y0164178D01*
X0140643Y0168122D01*
X0140105Y0168661D01*
X0162872Y0168661D01*
X0162191Y0167480D01*
X0161488Y0164858D01*
X0161488Y0162142D01*
X0162191Y0159520D01*
X0163548Y0157168D01*
X0165468Y0155248D01*
X0167820Y0153891D01*
X0170442Y0153188D01*
X0173158Y0153188D01*
X0175701Y0153870D01*
X0175701Y0023130D01*
X0173158Y0023812D01*
X0170442Y0023812D01*
X0167820Y0023109D01*
X0165468Y0021751D01*
X0163548Y0019832D01*
X0162191Y0017480D01*
X0161488Y0014858D01*
X0161488Y0012142D01*
X0162191Y0009520D01*
X0162895Y0008300D01*
X0055785Y0008300D01*
X0056400Y0009785D01*
X0056400Y0014423D01*
X0057877Y0015900D01*
X0060015Y0015900D01*
X0059400Y0014415D01*
X0059400Y0012585D01*
X0060100Y0010894D01*
X0061394Y0009600D01*
X0063085Y0008900D01*
X0070515Y0008900D01*
X0072206Y0009600D01*
X0073500Y0010894D01*
X0074200Y0012585D01*
X0074200Y0014415D01*
X0073585Y0015900D01*
X0082317Y0015900D01*
X0083273Y0016296D01*
X0086696Y0019719D01*
X0087552Y0019719D01*
X0088942Y0020295D01*
X0089937Y0021289D01*
X0090100Y0020894D01*
X0091394Y0019600D01*
X0093085Y0018900D01*
X0100515Y0018900D01*
X0102206Y0019600D01*
X0103500Y0020894D01*
X0104200Y0022585D01*
X0104200Y0024415D01*
X0103585Y0025900D01*
X0105432Y0025900D01*
X0104800Y0024375D01*
X0104800Y0022625D01*
X0105470Y0021008D01*
X0106708Y0019770D01*
X0108325Y0019100D01*
X0109200Y0019100D01*
X0109200Y0017900D01*
X0108325Y0017900D01*
X0106708Y0017230D01*
X0105470Y0015992D01*
X0104800Y0014375D01*
X0104800Y0012625D01*
X0105470Y0011008D01*
X0106708Y0009770D01*
X0108325Y0009100D01*
X0115275Y0009100D01*
X0116892Y0009770D01*
X0118023Y0010900D01*
X0135577Y0010900D01*
X0136708Y0009770D01*
X0138325Y0009100D01*
X0145275Y0009100D01*
X0146892Y0009770D01*
X0148100Y0010977D01*
X0149977Y0009100D01*
X0153623Y0009100D01*
X0156200Y0011677D01*
X0156200Y0015323D01*
X0153623Y0017900D01*
X0151077Y0017900D01*
X0148273Y0020704D01*
X0147957Y0020835D01*
X0148130Y0021008D01*
X0148800Y0022625D01*
X0148800Y0024375D01*
X0148168Y0025900D01*
X0160098Y0025900D01*
X0160100Y0025894D01*
X0161394Y0024600D01*
X0163085Y0023900D01*
X0170515Y0023900D01*
X0172206Y0024600D01*
X0173500Y0025894D01*
X0174200Y0027585D01*
X0174200Y0029415D01*
X0173500Y0031106D01*
X0172206Y0032400D01*
X0170515Y0033100D01*
X0163085Y0033100D01*
X0161394Y0032400D01*
X0160100Y0031106D01*
X0160098Y0031100D01*
X0152800Y0031100D01*
X0153273Y0031296D01*
X0154004Y0032027D01*
X0157877Y0035900D01*
X0160098Y0035900D01*
X0160100Y0035894D01*
X0161394Y0034600D01*
X0163085Y0033900D01*
X0170515Y0033900D01*
X0172206Y0034600D01*
X0173500Y0035894D01*
X0174200Y0037585D01*
X0174200Y0039415D01*
X0173500Y0041106D01*
X0172206Y0042400D01*
X0170515Y0043100D01*
X0164400Y0043100D01*
X0164400Y0045753D01*
X0165005Y0046358D01*
X0165581Y0047748D01*
X0165581Y0049252D01*
X0165005Y0050642D01*
X0163942Y0051705D01*
X0162552Y0052281D01*
X0161048Y0052281D01*
X0159658Y0051705D01*
X0159400Y0051447D01*
X0159400Y0052423D01*
X0161524Y0054547D01*
X0163085Y0053900D01*
X0170515Y0053900D01*
X0172206Y0054600D01*
X0173500Y0055894D01*
X0174200Y0057585D01*
X0174200Y0059415D01*
X0173500Y0061106D01*
X0172206Y0062400D01*
X0170515Y0063100D01*
X0163085Y0063100D01*
X0161394Y0062400D01*
X0160100Y0061106D01*
X0159656Y0060033D01*
X0155573Y0055950D01*
X0153623Y0057900D01*
X0149977Y0057900D01*
X0148100Y0056023D01*
X0146892Y0057230D01*
X0145275Y0057900D01*
X0138325Y0057900D01*
X0136708Y0057230D01*
X0135470Y0055992D01*
X0134800Y0054375D01*
X0134800Y0052625D01*
X0135470Y0051008D01*
X0136708Y0049770D01*
X0138325Y0049100D01*
X0142523Y0049100D01*
X0143723Y0047900D01*
X0138325Y0047900D01*
X0136708Y0047230D01*
X0135470Y0045992D01*
X0134800Y0044375D01*
X0134800Y0042625D01*
X0135470Y0041008D01*
X0136708Y0039770D01*
X0138325Y0039100D01*
X0145275Y0039100D01*
X0146892Y0039770D01*
X0148130Y0041008D01*
X0148800Y0042625D01*
X0148800Y0042823D01*
X0149596Y0042027D01*
X0150327Y0041296D01*
X0151283Y0040900D01*
X0155800Y0040900D01*
X0155327Y0040704D01*
X0150723Y0036100D01*
X0148023Y0036100D01*
X0146892Y0037230D01*
X0145275Y0037900D01*
X0138325Y0037900D01*
X0136708Y0037230D01*
X0135470Y0035992D01*
X0134800Y0034375D01*
X0134800Y0032625D01*
X0135432Y0031100D01*
X0134547Y0031100D01*
X0134400Y0031247D01*
X0134400Y0034017D01*
X0134004Y0034973D01*
X0133273Y0035704D01*
X0118050Y0050927D01*
X0118130Y0051008D01*
X0118800Y0052625D01*
X0118800Y0054375D01*
X0118130Y0055992D01*
X0116892Y0057230D01*
X0115275Y0057900D01*
X0109877Y0057900D01*
X0111077Y0059100D01*
X0115275Y0059100D01*
X0116892Y0059770D01*
X0118130Y0061008D01*
X0118800Y0062625D01*
X0118800Y0064375D01*
X0118168Y0065900D01*
X0119053Y0065900D01*
X0119658Y0065295D01*
X0121048Y0064719D01*
X0122552Y0064719D01*
X0123942Y0065295D01*
X0125005Y0066358D01*
X0125581Y0067748D01*
X0125581Y0068604D01*
X0127877Y0070900D01*
X0135577Y0070900D01*
X0136708Y0069770D01*
X0138325Y0069100D01*
X0145275Y0069100D01*
X0146892Y0069770D01*
X0148130Y0071008D01*
X0148800Y0072625D01*
X0148800Y0074375D01*
X0148130Y0075992D01*
X0146892Y0077230D01*
X0145275Y0077900D01*
X0138325Y0077900D01*
X0136708Y0077230D01*
X0135581Y0078630D02*
X0149200Y0078630D01*
X0149200Y0080229D02*
X0138125Y0080229D01*
X0135475Y0080229D02*
X0135177Y0080229D01*
X0132506Y0082281D02*
X0131094Y0082281D01*
X0131124Y0082311D01*
X0131800Y0083944D01*
X0132476Y0082311D01*
X0132506Y0082281D01*
X0132015Y0083426D02*
X0131585Y0083426D01*
X0126800Y0088500D02*
X0126800Y0093500D01*
X0131800Y0098500D01*
X0141800Y0098500D01*
X0151800Y0088500D01*
X0151800Y0078500D01*
X0161800Y0068500D01*
X0166800Y0068500D01*
X0171344Y0064243D02*
X0175701Y0064243D01*
X0175701Y0062645D02*
X0171614Y0062645D01*
X0173524Y0061046D02*
X0175701Y0061046D01*
X0175701Y0059448D02*
X0174186Y0059448D01*
X0174200Y0057849D02*
X0175701Y0057849D01*
X0175701Y0056251D02*
X0173647Y0056251D01*
X0172258Y0054652D02*
X0175701Y0054652D01*
X0175701Y0053054D02*
X0160031Y0053054D01*
X0159408Y0051455D02*
X0159400Y0051455D01*
X0156800Y0053500D02*
X0156800Y0048500D01*
X0153019Y0048258D02*
X0150719Y0048258D01*
X0149977Y0049100D02*
X0153019Y0049100D01*
X0153019Y0047748D01*
X0153595Y0046358D01*
X0153853Y0046100D01*
X0152877Y0046100D01*
X0148050Y0050927D01*
X0148100Y0050977D01*
X0149977Y0049100D01*
X0149221Y0049857D02*
X0149120Y0049857D01*
X0152317Y0046660D02*
X0153470Y0046660D01*
X0151800Y0043500D02*
X0161800Y0043500D01*
X0161800Y0048500D01*
X0165331Y0049857D02*
X0175701Y0049857D01*
X0175701Y0051455D02*
X0164192Y0051455D01*
X0165581Y0048258D02*
X0175701Y0048258D01*
X0175701Y0046660D02*
X0165130Y0046660D01*
X0164400Y0045061D02*
X0175701Y0045061D01*
X0175701Y0043463D02*
X0164400Y0043463D01*
X0166800Y0038500D02*
X0156800Y0038500D01*
X0151800Y0033500D01*
X0141800Y0033500D01*
X0147054Y0037069D02*
X0151692Y0037069D01*
X0153290Y0038667D02*
X0130310Y0038667D01*
X0131908Y0037069D02*
X0136546Y0037069D01*
X0135254Y0035470D02*
X0133507Y0035470D01*
X0134400Y0033872D02*
X0134800Y0033872D01*
X0134946Y0032273D02*
X0134400Y0032273D01*
X0131800Y0033500D02*
X0131800Y0028500D01*
X0166800Y0028500D01*
X0171434Y0024281D02*
X0175701Y0024281D01*
X0175701Y0025879D02*
X0173485Y0025879D01*
X0174156Y0027478D02*
X0175701Y0027478D01*
X0175701Y0029076D02*
X0174200Y0029076D01*
X0173678Y0030675D02*
X0175701Y0030675D01*
X0175701Y0032273D02*
X0172332Y0032273D01*
X0175701Y0033872D02*
X0155849Y0033872D01*
X0157447Y0035470D02*
X0160524Y0035470D01*
X0161268Y0032273D02*
X0154250Y0032273D01*
X0154889Y0040266D02*
X0147388Y0040266D01*
X0148485Y0041864D02*
X0149759Y0041864D01*
X0149596Y0042027D02*
X0149596Y0042027D01*
X0151800Y0043500D02*
X0141800Y0053500D01*
X0138203Y0057849D02*
X0134826Y0057849D01*
X0135728Y0056251D02*
X0133228Y0056251D01*
X0131629Y0054652D02*
X0134915Y0054652D01*
X0134800Y0053054D02*
X0130031Y0053054D01*
X0129400Y0052423D02*
X0136735Y0059758D01*
X0138325Y0059100D01*
X0145275Y0059100D01*
X0146892Y0059770D01*
X0148023Y0060900D01*
X0148177Y0060900D01*
X0149977Y0059100D01*
X0153623Y0059100D01*
X0156200Y0061677D01*
X0156200Y0065323D01*
X0153623Y0067900D01*
X0149977Y0067900D01*
X0148177Y0066100D01*
X0148023Y0066100D01*
X0146892Y0067230D01*
X0145275Y0067900D01*
X0138325Y0067900D01*
X0136708Y0067230D01*
X0135470Y0065992D01*
X0135355Y0065716D01*
X0135327Y0065704D01*
X0125327Y0055704D01*
X0124596Y0054973D01*
X0124200Y0054017D01*
X0124200Y0051247D01*
X0123595Y0050642D01*
X0123019Y0049252D01*
X0123019Y0047748D01*
X0123595Y0046358D01*
X0124658Y0045295D01*
X0126048Y0044719D01*
X0127552Y0044719D01*
X0128942Y0045295D01*
X0130005Y0046358D01*
X0130581Y0047748D01*
X0130581Y0049252D01*
X0130005Y0050642D01*
X0129400Y0051247D01*
X0129400Y0052423D01*
X0129400Y0051455D02*
X0135284Y0051455D01*
X0136621Y0049857D02*
X0130331Y0049857D01*
X0130581Y0048258D02*
X0143365Y0048258D01*
X0136137Y0046660D02*
X0130130Y0046660D01*
X0128379Y0045061D02*
X0135084Y0045061D01*
X0134800Y0043463D02*
X0125514Y0043463D01*
X0125221Y0045061D02*
X0123916Y0045061D01*
X0123470Y0046660D02*
X0122317Y0046660D01*
X0123019Y0048258D02*
X0120719Y0048258D01*
X0119120Y0049857D02*
X0123269Y0049857D01*
X0124200Y0051455D02*
X0118316Y0051455D01*
X0118800Y0053054D02*
X0124200Y0053054D01*
X0124463Y0054652D02*
X0118685Y0054652D01*
X0117872Y0056251D02*
X0125874Y0056251D01*
X0127472Y0057849D02*
X0115397Y0057849D01*
X0116115Y0059448D02*
X0129071Y0059448D01*
X0130669Y0061046D02*
X0118146Y0061046D01*
X0118800Y0062645D02*
X0132268Y0062645D01*
X0133866Y0064243D02*
X0118800Y0064243D01*
X0119111Y0065842D02*
X0118192Y0065842D01*
X0121800Y0068500D02*
X0106800Y0068500D01*
X0101800Y0063500D01*
X0096800Y0063500D01*
X0090550Y0063500D01*
X0103585Y0061100D02*
X0103944Y0061967D01*
X0104800Y0062823D01*
X0104800Y0062625D01*
X0105432Y0061100D01*
X0103585Y0061100D01*
X0104622Y0062645D02*
X0104800Y0062645D01*
X0106800Y0058500D02*
X0111800Y0063500D01*
X0118168Y0071100D02*
X0118800Y0072625D01*
X0118800Y0074375D01*
X0118168Y0075900D01*
X0125800Y0075900D01*
X0125327Y0075704D01*
X0124596Y0074973D01*
X0121904Y0072281D01*
X0121048Y0072281D01*
X0119658Y0071705D01*
X0119053Y0071100D01*
X0118168Y0071100D01*
X0118639Y0072236D02*
X0120939Y0072236D01*
X0118800Y0073834D02*
X0123458Y0073834D01*
X0125056Y0075433D02*
X0118362Y0075433D01*
X0119912Y0081100D02*
X0121124Y0082311D01*
X0121800Y0083944D01*
X0122476Y0082311D01*
X0123688Y0081100D01*
X0119912Y0081100D01*
X0120640Y0081827D02*
X0122960Y0081827D01*
X0122015Y0083426D02*
X0121585Y0083426D01*
X0112960Y0081827D02*
X0107150Y0081827D01*
X0105551Y0083426D02*
X0112015Y0083426D01*
X0105311Y0085024D02*
X0103953Y0085024D01*
X0103485Y0086623D02*
X0102983Y0086623D01*
X0091175Y0089820D02*
X0084400Y0089820D01*
X0084400Y0091418D02*
X0089883Y0091418D01*
X0089400Y0093017D02*
X0084400Y0093017D01*
X0084400Y0094615D02*
X0089483Y0094615D01*
X0090208Y0096214D02*
X0084400Y0096214D01*
X0084400Y0097812D02*
X0092390Y0097812D01*
X0091852Y0099411D02*
X0084400Y0099411D01*
X0084400Y0101009D02*
X0090053Y0101009D01*
X0089400Y0102608D02*
X0084400Y0102608D01*
X0084400Y0104206D02*
X0089400Y0104206D01*
X0089976Y0105805D02*
X0084400Y0105805D01*
X0084400Y0107403D02*
X0091403Y0107403D01*
X0092839Y0109002D02*
X0084400Y0109002D01*
X0084400Y0110600D02*
X0090394Y0110600D01*
X0090100Y0110894D02*
X0091394Y0109600D01*
X0093085Y0108900D01*
X0100515Y0108900D01*
X0102206Y0109600D01*
X0103500Y0110894D01*
X0104200Y0112585D01*
X0104200Y0114415D01*
X0103500Y0116106D01*
X0102206Y0117400D01*
X0100515Y0118100D01*
X0093085Y0118100D01*
X0091394Y0117400D01*
X0090100Y0116106D01*
X0089400Y0114415D01*
X0089400Y0112585D01*
X0090100Y0110894D01*
X0089560Y0112199D02*
X0084400Y0112199D01*
X0084400Y0113797D02*
X0089400Y0113797D01*
X0089806Y0115396D02*
X0084400Y0115396D01*
X0084400Y0116994D02*
X0090989Y0116994D01*
X0091394Y0119600D02*
X0093085Y0118900D01*
X0100515Y0118900D01*
X0102206Y0119600D01*
X0103500Y0120894D01*
X0104200Y0122585D01*
X0104200Y0124415D01*
X0103500Y0126106D01*
X0102206Y0127400D01*
X0100515Y0128100D01*
X0093085Y0128100D01*
X0091394Y0127400D01*
X0090100Y0126106D01*
X0089400Y0124415D01*
X0089400Y0122585D01*
X0090100Y0120894D01*
X0091394Y0119600D01*
X0090803Y0120191D02*
X0084400Y0120191D01*
X0084400Y0118593D02*
X0104200Y0118593D01*
X0104200Y0120191D02*
X0102797Y0120191D01*
X0103871Y0121790D02*
X0104200Y0121790D01*
X0104200Y0123388D02*
X0104200Y0123388D01*
X0104200Y0124987D02*
X0103963Y0124987D01*
X0104200Y0126585D02*
X0103020Y0126585D01*
X0109400Y0126585D02*
X0134200Y0126585D01*
X0134200Y0124987D02*
X0109400Y0124987D01*
X0109400Y0123388D02*
X0134200Y0123388D01*
X0134200Y0121790D02*
X0109400Y0121790D01*
X0109400Y0120191D02*
X0134200Y0120191D01*
X0134200Y0118593D02*
X0109400Y0118593D01*
X0109400Y0116994D02*
X0134200Y0116994D01*
X0134200Y0115396D02*
X0109400Y0115396D01*
X0109400Y0113797D02*
X0134200Y0113797D01*
X0134200Y0112199D02*
X0109400Y0112199D01*
X0109400Y0110600D02*
X0134200Y0110600D01*
X0133625Y0109002D02*
X0109400Y0109002D01*
X0109400Y0107403D02*
X0132026Y0107403D01*
X0130428Y0105805D02*
X0109843Y0105805D01*
X0110581Y0104206D02*
X0128829Y0104206D01*
X0127231Y0102608D02*
X0110523Y0102608D01*
X0111064Y0101009D02*
X0109656Y0101009D01*
X0106800Y0103500D02*
X0106800Y0143500D01*
X0109400Y0140972D02*
X0110651Y0140972D01*
X0109400Y0139373D02*
X0112250Y0139373D01*
X0113848Y0137775D02*
X0109400Y0137775D01*
X0109400Y0136176D02*
X0115615Y0136176D01*
X0116800Y0138500D02*
X0106800Y0148500D01*
X0091942Y0139373D02*
X0084400Y0139373D01*
X0084400Y0137775D02*
X0092300Y0137775D01*
X0090171Y0136176D02*
X0084400Y0136176D01*
X0084400Y0134578D02*
X0089467Y0134578D01*
X0089400Y0132979D02*
X0084400Y0132979D01*
X0084400Y0126585D02*
X0090580Y0126585D01*
X0089637Y0124987D02*
X0084400Y0124987D01*
X0084400Y0123388D02*
X0089400Y0123388D01*
X0089729Y0121790D02*
X0084400Y0121790D01*
X0079200Y0116994D02*
X0072611Y0116994D01*
X0073794Y0115396D02*
X0079200Y0115396D01*
X0079200Y0113797D02*
X0074200Y0113797D01*
X0074040Y0112199D02*
X0079200Y0112199D01*
X0079200Y0110600D02*
X0073206Y0110600D01*
X0070761Y0109002D02*
X0079200Y0109002D01*
X0079200Y0107403D02*
X0072197Y0107403D01*
X0073624Y0105805D02*
X0079200Y0105805D01*
X0079200Y0104206D02*
X0074200Y0104206D01*
X0074200Y0102608D02*
X0079200Y0102608D01*
X0079200Y0101009D02*
X0073547Y0101009D01*
X0071748Y0099411D02*
X0079200Y0099411D01*
X0079200Y0097812D02*
X0071210Y0097812D01*
X0073392Y0096214D02*
X0079200Y0096214D01*
X0079200Y0094615D02*
X0074117Y0094615D01*
X0074200Y0093017D02*
X0079200Y0093017D01*
X0079200Y0091418D02*
X0073717Y0091418D01*
X0072425Y0089820D02*
X0079200Y0089820D01*
X0089025Y0086623D02*
X0090617Y0086623D01*
X0090766Y0080229D02*
X0088782Y0080229D01*
X0086945Y0077032D02*
X0091026Y0077032D01*
X0089822Y0075433D02*
X0088544Y0075433D01*
X0072584Y0069039D02*
X0070850Y0069039D01*
X0072107Y0067440D02*
X0073146Y0067440D01*
X0073609Y0065842D02*
X0074111Y0065842D01*
X0074200Y0064243D02*
X0074200Y0064243D01*
X0074200Y0062645D02*
X0074200Y0062645D01*
X0074200Y0061046D02*
X0073563Y0061046D01*
X0074200Y0059448D02*
X0071838Y0059448D01*
X0072946Y0046660D02*
X0074200Y0046660D01*
X0074728Y0040266D02*
X0072871Y0040266D01*
X0061063Y0037069D02*
X0041408Y0037069D01*
X0043007Y0035470D02*
X0059837Y0035470D01*
X0059400Y0033872D02*
X0044253Y0033872D01*
X0045169Y0032273D02*
X0048431Y0032273D01*
X0047235Y0030675D02*
X0046365Y0030675D01*
X0046800Y0027375D02*
X0047519Y0025639D01*
X0048266Y0024893D01*
X0048223Y0024850D01*
X0045292Y0024850D01*
X0046081Y0025639D01*
X0046800Y0027375D01*
X0046180Y0025879D02*
X0047420Y0025879D01*
X0049300Y0022250D02*
X0034300Y0022250D01*
X0031800Y0019750D01*
X0031800Y0013500D01*
X0036400Y0013091D02*
X0037200Y0013091D01*
X0037200Y0011493D02*
X0036400Y0011493D01*
X0036400Y0009894D02*
X0037200Y0009894D01*
X0037200Y0009785D02*
X0037815Y0008300D01*
X0035785Y0008300D01*
X0036400Y0009785D01*
X0036400Y0017215D01*
X0035700Y0018906D01*
X0035166Y0019439D01*
X0035377Y0019650D01*
X0038645Y0019650D01*
X0037900Y0018906D01*
X0037200Y0017215D01*
X0037200Y0009785D01*
X0037200Y0014690D02*
X0036400Y0014690D01*
X0036400Y0016288D02*
X0037200Y0016288D01*
X0037478Y0017887D02*
X0036122Y0017887D01*
X0035212Y0019485D02*
X0038480Y0019485D01*
X0044955Y0019650D02*
X0048645Y0019650D01*
X0047900Y0018906D01*
X0047200Y0017215D01*
X0047200Y0009785D01*
X0047815Y0008300D01*
X0045785Y0008300D01*
X0046400Y0009785D01*
X0046400Y0017215D01*
X0045700Y0018906D01*
X0044955Y0019650D01*
X0045120Y0019485D02*
X0048480Y0019485D01*
X0047478Y0017887D02*
X0046122Y0017887D01*
X0046400Y0016288D02*
X0047200Y0016288D01*
X0047200Y0014690D02*
X0046400Y0014690D01*
X0046400Y0013091D02*
X0047200Y0013091D01*
X0047200Y0011493D02*
X0046400Y0011493D01*
X0046400Y0009894D02*
X0047200Y0009894D01*
X0051800Y0013500D02*
X0056800Y0018500D01*
X0081800Y0018500D01*
X0083254Y0016288D02*
X0090283Y0016288D01*
X0090100Y0016106D02*
X0089400Y0014415D01*
X0089400Y0012585D01*
X0090100Y0010894D01*
X0091394Y0009600D01*
X0093085Y0008900D01*
X0100515Y0008900D01*
X0102206Y0009600D01*
X0103500Y0010894D01*
X0104200Y0012585D01*
X0104200Y0014415D01*
X0103500Y0016106D01*
X0102206Y0017400D01*
X0100515Y0018100D01*
X0093085Y0018100D01*
X0091394Y0017400D01*
X0090100Y0016106D01*
X0089514Y0014690D02*
X0074086Y0014690D01*
X0074200Y0013091D02*
X0089400Y0013091D01*
X0089852Y0011493D02*
X0073747Y0011493D01*
X0072499Y0009894D02*
X0091101Y0009894D01*
X0092570Y0017887D02*
X0084864Y0017887D01*
X0086462Y0019485D02*
X0091672Y0019485D01*
X0090022Y0021084D02*
X0089731Y0021084D01*
X0091800Y0028500D02*
X0106800Y0028500D01*
X0111800Y0023500D01*
X0111800Y0013500D01*
X0141800Y0013500D01*
X0147017Y0009894D02*
X0149183Y0009894D01*
X0151800Y0013500D02*
X0146800Y0018500D01*
X0131800Y0018500D01*
X0132877Y0021100D02*
X0129400Y0024577D01*
X0129400Y0025553D01*
X0129658Y0025295D01*
X0131048Y0024719D01*
X0132552Y0024719D01*
X0133942Y0025295D01*
X0134547Y0025900D01*
X0135432Y0025900D01*
X0134800Y0024375D01*
X0134800Y0022625D01*
X0135432Y0021100D01*
X0132877Y0021100D01*
X0131295Y0022682D02*
X0134800Y0022682D01*
X0134800Y0024281D02*
X0129696Y0024281D01*
X0134526Y0025879D02*
X0135423Y0025879D01*
X0131800Y0033500D02*
X0111800Y0053500D01*
X0126800Y0053500D02*
X0126800Y0048500D01*
X0126800Y0053500D02*
X0136800Y0063500D01*
X0141800Y0063500D01*
X0151800Y0063500D01*
X0156200Y0064243D02*
X0162256Y0064243D01*
X0161986Y0062645D02*
X0156200Y0062645D01*
X0155569Y0061046D02*
X0160076Y0061046D01*
X0159071Y0059448D02*
X0153970Y0059448D01*
X0153673Y0057849D02*
X0157472Y0057849D01*
X0155874Y0056251D02*
X0155272Y0056251D01*
X0156800Y0053500D02*
X0161800Y0058500D01*
X0166800Y0058500D01*
X0160153Y0065842D02*
X0155681Y0065842D01*
X0154082Y0067440D02*
X0159183Y0067440D01*
X0157584Y0069039D02*
X0126016Y0069039D01*
X0125454Y0067440D02*
X0137215Y0067440D01*
X0135408Y0065842D02*
X0124489Y0065842D01*
X0121800Y0068500D02*
X0126800Y0073500D01*
X0141800Y0073500D01*
X0136800Y0073500D01*
X0135840Y0070637D02*
X0127614Y0070637D01*
X0136425Y0059448D02*
X0137485Y0059448D01*
X0145397Y0057849D02*
X0149927Y0057849D01*
X0149630Y0059448D02*
X0146115Y0059448D01*
X0147872Y0056251D02*
X0148328Y0056251D01*
X0149518Y0067440D02*
X0146385Y0067440D01*
X0147760Y0070637D02*
X0155986Y0070637D01*
X0154387Y0072236D02*
X0148639Y0072236D01*
X0148800Y0073834D02*
X0152789Y0073834D01*
X0151190Y0075433D02*
X0148362Y0075433D01*
X0149594Y0077032D02*
X0147091Y0077032D01*
X0149200Y0081827D02*
X0140640Y0081827D01*
X0141585Y0083426D02*
X0149200Y0083426D01*
X0149200Y0085024D02*
X0141900Y0085024D01*
X0141900Y0086623D02*
X0149200Y0086623D01*
X0148402Y0088221D02*
X0141900Y0088221D01*
X0141900Y0089820D02*
X0146803Y0089820D01*
X0145205Y0091418D02*
X0141900Y0091418D01*
X0141816Y0093017D02*
X0143606Y0093017D01*
X0142008Y0094615D02*
X0141154Y0094615D01*
X0146165Y0097812D02*
X0154200Y0097812D01*
X0154200Y0099017D02*
X0154200Y0092983D01*
X0154596Y0092027D01*
X0159596Y0087027D01*
X0159656Y0086967D01*
X0160100Y0085894D01*
X0161394Y0084600D01*
X0163085Y0083900D01*
X0170515Y0083900D01*
X0172206Y0084600D01*
X0173500Y0085894D01*
X0174200Y0087585D01*
X0174200Y0089415D01*
X0173500Y0091106D01*
X0172206Y0092400D01*
X0170515Y0093100D01*
X0163085Y0093100D01*
X0161524Y0092453D01*
X0159400Y0094577D01*
X0159400Y0097423D01*
X0159447Y0097470D01*
X0160100Y0095894D01*
X0161394Y0094600D01*
X0163085Y0093900D01*
X0170515Y0093900D01*
X0172206Y0094600D01*
X0173500Y0095894D01*
X0174200Y0097585D01*
X0174200Y0099415D01*
X0173500Y0101106D01*
X0172206Y0102400D01*
X0170515Y0103100D01*
X0170077Y0103100D01*
X0174004Y0107027D01*
X0174400Y0107983D01*
X0174400Y0135753D01*
X0175005Y0136358D01*
X0175581Y0137748D01*
X0175581Y0139252D01*
X0175005Y0140642D01*
X0173942Y0141705D01*
X0172552Y0142281D01*
X0171200Y0142281D01*
X0171200Y0145323D01*
X0168623Y0147900D01*
X0164977Y0147900D01*
X0162400Y0145323D01*
X0162400Y0141677D01*
X0164200Y0139877D01*
X0164200Y0122123D01*
X0162400Y0120323D01*
X0162400Y0116677D01*
X0164200Y0114877D01*
X0164200Y0109577D01*
X0154596Y0099973D01*
X0154200Y0099017D01*
X0154363Y0099411D02*
X0153933Y0099411D01*
X0153623Y0099100D02*
X0156200Y0101677D01*
X0156200Y0104719D01*
X0157552Y0104719D01*
X0158942Y0105295D01*
X0160005Y0106358D01*
X0160581Y0107748D01*
X0160581Y0109252D01*
X0160005Y0110642D01*
X0159400Y0111247D01*
X0159400Y0114877D01*
X0161200Y0116677D01*
X0161200Y0120323D01*
X0158623Y0122900D01*
X0154977Y0122900D01*
X0154400Y0122323D01*
X0154400Y0137423D01*
X0156077Y0139100D01*
X0158623Y0139100D01*
X0161200Y0141677D01*
X0161200Y0145323D01*
X0158623Y0147900D01*
X0154977Y0147900D01*
X0152400Y0145323D01*
X0152400Y0142777D01*
X0150327Y0140704D01*
X0149596Y0139973D01*
X0149200Y0139017D01*
X0149200Y0107123D01*
X0147400Y0105323D01*
X0147400Y0101677D01*
X0149977Y0099100D01*
X0153623Y0099100D01*
X0154200Y0096214D02*
X0147763Y0096214D01*
X0149362Y0094615D02*
X0154200Y0094615D01*
X0154200Y0093017D02*
X0150960Y0093017D01*
X0152559Y0091418D02*
X0155205Y0091418D01*
X0154068Y0089820D02*
X0156803Y0089820D01*
X0158402Y0088221D02*
X0154400Y0088221D01*
X0154400Y0086623D02*
X0159799Y0086623D01*
X0160971Y0085024D02*
X0154400Y0085024D01*
X0154400Y0083426D02*
X0175701Y0083426D01*
X0175701Y0085024D02*
X0172629Y0085024D01*
X0173801Y0086623D02*
X0175701Y0086623D01*
X0175701Y0088221D02*
X0174200Y0088221D01*
X0174032Y0089820D02*
X0175701Y0089820D01*
X0175701Y0091418D02*
X0173187Y0091418D01*
X0170716Y0093017D02*
X0175701Y0093017D01*
X0175701Y0094615D02*
X0172221Y0094615D01*
X0173632Y0096214D02*
X0175701Y0096214D01*
X0175701Y0097812D02*
X0174200Y0097812D01*
X0174200Y0099411D02*
X0175701Y0099411D01*
X0175701Y0101009D02*
X0173540Y0101009D01*
X0171703Y0102608D02*
X0175701Y0102608D01*
X0175701Y0104206D02*
X0171183Y0104206D01*
X0172782Y0105805D02*
X0175701Y0105805D01*
X0175701Y0107403D02*
X0174160Y0107403D01*
X0174400Y0109002D02*
X0175701Y0109002D01*
X0175701Y0110600D02*
X0174400Y0110600D01*
X0174400Y0112199D02*
X0175701Y0112199D01*
X0175701Y0113797D02*
X0174400Y0113797D01*
X0174400Y0115396D02*
X0175701Y0115396D01*
X0175701Y0116994D02*
X0174400Y0116994D01*
X0174400Y0118593D02*
X0175701Y0118593D01*
X0175701Y0120191D02*
X0174400Y0120191D01*
X0174400Y0121790D02*
X0175701Y0121790D01*
X0175701Y0123388D02*
X0174400Y0123388D01*
X0174400Y0124987D02*
X0175701Y0124987D01*
X0175701Y0126585D02*
X0174400Y0126585D01*
X0174400Y0128184D02*
X0175701Y0128184D01*
X0175701Y0129782D02*
X0174400Y0129782D01*
X0174400Y0131381D02*
X0175701Y0131381D01*
X0175701Y0132979D02*
X0174400Y0132979D01*
X0174400Y0134578D02*
X0175701Y0134578D01*
X0175701Y0136176D02*
X0174824Y0136176D01*
X0175581Y0137775D02*
X0175701Y0137775D01*
X0175701Y0139373D02*
X0175531Y0139373D01*
X0175701Y0140972D02*
X0174675Y0140972D01*
X0175701Y0142570D02*
X0171200Y0142570D01*
X0171200Y0144169D02*
X0175701Y0144169D01*
X0175701Y0145768D02*
X0170755Y0145768D01*
X0169156Y0147366D02*
X0175701Y0147366D01*
X0175701Y0148965D02*
X0141848Y0148965D01*
X0142771Y0150563D02*
X0175701Y0150563D01*
X0175701Y0152162D02*
X0143280Y0152162D01*
X0143708Y0153760D02*
X0168308Y0153760D01*
X0165358Y0155359D02*
X0144100Y0155359D01*
X0144100Y0156957D02*
X0163760Y0156957D01*
X0162748Y0158556D02*
X0144100Y0158556D01*
X0143999Y0160154D02*
X0162021Y0160154D01*
X0161593Y0161753D02*
X0143571Y0161753D01*
X0143142Y0163351D02*
X0161488Y0163351D01*
X0161513Y0164950D02*
X0142475Y0164950D01*
X0141552Y0166548D02*
X0161941Y0166548D01*
X0162576Y0168147D02*
X0140619Y0168147D01*
X0140925Y0147366D02*
X0154443Y0147366D01*
X0152845Y0145768D02*
X0139533Y0145768D01*
X0137935Y0144169D02*
X0152400Y0144169D01*
X0152194Y0142570D02*
X0135541Y0142570D01*
X0139675Y0140972D02*
X0150595Y0140972D01*
X0149348Y0139373D02*
X0140531Y0139373D01*
X0140581Y0137775D02*
X0149200Y0137775D01*
X0149200Y0136176D02*
X0139824Y0136176D01*
X0139400Y0134578D02*
X0149200Y0134578D01*
X0149200Y0132979D02*
X0139400Y0132979D01*
X0139400Y0131381D02*
X0149200Y0131381D01*
X0149200Y0129782D02*
X0139400Y0129782D01*
X0139400Y0128184D02*
X0149200Y0128184D01*
X0149200Y0126585D02*
X0139400Y0126585D01*
X0139400Y0124987D02*
X0149200Y0124987D01*
X0149200Y0123388D02*
X0139400Y0123388D01*
X0139400Y0121790D02*
X0149200Y0121790D01*
X0149200Y0120191D02*
X0139400Y0120191D01*
X0139400Y0118593D02*
X0149200Y0118593D01*
X0149200Y0116994D02*
X0139400Y0116994D01*
X0139400Y0115396D02*
X0149200Y0115396D01*
X0149200Y0113797D02*
X0139400Y0113797D01*
X0139400Y0112199D02*
X0149200Y0112199D01*
X0149200Y0110600D02*
X0139400Y0110600D01*
X0139400Y0109002D02*
X0149200Y0109002D01*
X0149200Y0107403D02*
X0139160Y0107403D01*
X0137782Y0105805D02*
X0147882Y0105805D01*
X0147400Y0104206D02*
X0136183Y0104206D01*
X0134585Y0102608D02*
X0147400Y0102608D01*
X0148068Y0101009D02*
X0142536Y0101009D01*
X0144566Y0099411D02*
X0149667Y0099411D01*
X0151800Y0103500D02*
X0151800Y0138500D01*
X0156800Y0143500D01*
X0161200Y0144169D02*
X0162400Y0144169D01*
X0162400Y0142570D02*
X0161200Y0142570D01*
X0160495Y0140972D02*
X0163105Y0140972D01*
X0164200Y0139373D02*
X0158896Y0139373D01*
X0154752Y0137775D02*
X0164200Y0137775D01*
X0164200Y0136176D02*
X0154400Y0136176D01*
X0154400Y0134578D02*
X0164200Y0134578D01*
X0164200Y0132979D02*
X0154400Y0132979D01*
X0154400Y0131381D02*
X0164200Y0131381D01*
X0164200Y0129782D02*
X0154400Y0129782D01*
X0154400Y0128184D02*
X0164200Y0128184D01*
X0164200Y0126585D02*
X0154400Y0126585D01*
X0154400Y0124987D02*
X0164200Y0124987D01*
X0164200Y0123388D02*
X0154400Y0123388D01*
X0156800Y0118500D02*
X0156800Y0108500D01*
X0160023Y0110600D02*
X0164200Y0110600D01*
X0164200Y0112199D02*
X0159400Y0112199D01*
X0159400Y0113797D02*
X0164200Y0113797D01*
X0163682Y0115396D02*
X0159918Y0115396D01*
X0161200Y0116994D02*
X0162400Y0116994D01*
X0162400Y0118593D02*
X0161200Y0118593D01*
X0161200Y0120191D02*
X0162400Y0120191D01*
X0163867Y0121790D02*
X0159733Y0121790D01*
X0166800Y0118500D02*
X0166800Y0108500D01*
X0156800Y0098500D01*
X0156800Y0093500D01*
X0161800Y0088500D01*
X0166800Y0088500D01*
X0162884Y0093017D02*
X0160960Y0093017D01*
X0161379Y0094615D02*
X0159400Y0094615D01*
X0159400Y0096214D02*
X0159968Y0096214D01*
X0155632Y0101009D02*
X0155532Y0101009D01*
X0156200Y0102608D02*
X0157231Y0102608D01*
X0156200Y0104206D02*
X0158829Y0104206D01*
X0159452Y0105805D02*
X0160428Y0105805D01*
X0160438Y0107403D02*
X0162026Y0107403D01*
X0160581Y0109002D02*
X0163625Y0109002D01*
X0166800Y0103500D02*
X0166800Y0098500D01*
X0166800Y0103500D02*
X0171800Y0108500D01*
X0171800Y0138500D01*
X0166800Y0143500D02*
X0166800Y0118500D01*
X0162845Y0145768D02*
X0160755Y0145768D01*
X0159156Y0147366D02*
X0164443Y0147366D01*
X0175292Y0153760D02*
X0175701Y0153760D01*
X0134200Y0134578D02*
X0109400Y0134578D01*
X0109400Y0132979D02*
X0134200Y0132979D01*
X0134200Y0131381D02*
X0109400Y0131381D01*
X0109400Y0129782D02*
X0134200Y0129782D01*
X0134200Y0128184D02*
X0109400Y0128184D01*
X0104200Y0116994D02*
X0102611Y0116994D01*
X0103794Y0115396D02*
X0104200Y0115396D01*
X0104200Y0113797D02*
X0104200Y0113797D01*
X0104200Y0112199D02*
X0104040Y0112199D01*
X0104200Y0110600D02*
X0103206Y0110600D01*
X0104200Y0109002D02*
X0100761Y0109002D01*
X0102197Y0107403D02*
X0104200Y0107403D01*
X0103757Y0105805D02*
X0103624Y0105805D01*
X0103547Y0101009D02*
X0103944Y0101009D01*
X0119912Y0095900D02*
X0121124Y0094689D01*
X0121800Y0093056D01*
X0122476Y0094689D01*
X0123688Y0095900D01*
X0119912Y0095900D01*
X0121154Y0094615D02*
X0122446Y0094615D01*
X0131282Y0094305D02*
X0131800Y0093056D01*
X0132476Y0094689D01*
X0133688Y0095900D01*
X0132877Y0095900D01*
X0131282Y0094305D01*
X0131592Y0094615D02*
X0132446Y0094615D01*
X0154400Y0081827D02*
X0160822Y0081827D01*
X0161394Y0082400D02*
X0160100Y0081106D01*
X0159400Y0079415D01*
X0159400Y0077585D01*
X0160100Y0075894D01*
X0161394Y0074600D01*
X0163085Y0073900D01*
X0170515Y0073900D01*
X0172206Y0074600D01*
X0173500Y0075894D01*
X0174200Y0077585D01*
X0174200Y0079415D01*
X0173500Y0081106D01*
X0172206Y0082400D01*
X0170515Y0083100D01*
X0163085Y0083100D01*
X0161394Y0082400D01*
X0159737Y0080229D02*
X0154400Y0080229D01*
X0155347Y0078630D02*
X0159400Y0078630D01*
X0159629Y0077032D02*
X0156945Y0077032D01*
X0158544Y0075433D02*
X0160562Y0075433D01*
X0160142Y0073834D02*
X0175701Y0073834D01*
X0175701Y0072236D02*
X0172369Y0072236D01*
X0173694Y0070637D02*
X0175701Y0070637D01*
X0175701Y0069039D02*
X0174200Y0069039D01*
X0174140Y0067440D02*
X0175701Y0067440D01*
X0175701Y0065842D02*
X0173447Y0065842D01*
X0173038Y0075433D02*
X0175701Y0075433D01*
X0175701Y0077032D02*
X0173971Y0077032D01*
X0174200Y0078630D02*
X0175701Y0078630D01*
X0175701Y0080229D02*
X0173863Y0080229D01*
X0172778Y0081827D02*
X0175701Y0081827D01*
X0175701Y0041864D02*
X0172741Y0041864D01*
X0173848Y0040266D02*
X0175701Y0040266D01*
X0175701Y0038667D02*
X0174200Y0038667D01*
X0173986Y0037069D02*
X0175701Y0037069D01*
X0175701Y0035470D02*
X0173076Y0035470D01*
X0162166Y0024281D02*
X0148800Y0024281D01*
X0148800Y0022682D02*
X0167080Y0022682D01*
X0164801Y0021084D02*
X0148162Y0021084D01*
X0149492Y0019485D02*
X0163348Y0019485D01*
X0162426Y0017887D02*
X0153636Y0017887D01*
X0155234Y0016288D02*
X0161872Y0016288D01*
X0161488Y0014690D02*
X0156200Y0014690D01*
X0156200Y0013091D02*
X0161488Y0013091D01*
X0161662Y0011493D02*
X0156015Y0011493D01*
X0154417Y0009894D02*
X0162091Y0009894D01*
X0160115Y0025879D02*
X0148177Y0025879D01*
X0136212Y0040266D02*
X0128711Y0040266D01*
X0127113Y0041864D02*
X0135115Y0041864D01*
X0121800Y0028500D02*
X0121800Y0023500D01*
X0124731Y0021084D02*
X0125539Y0021084D01*
X0117017Y0009894D02*
X0136583Y0009894D01*
X0108292Y0017887D02*
X0101030Y0017887D01*
X0101928Y0019485D02*
X0107395Y0019485D01*
X0105438Y0021084D02*
X0103578Y0021084D01*
X0104200Y0022682D02*
X0104800Y0022682D01*
X0104800Y0024281D02*
X0104200Y0024281D01*
X0103594Y0025879D02*
X0105423Y0025879D01*
X0104946Y0032273D02*
X0104071Y0032273D01*
X0104200Y0033872D02*
X0104800Y0033872D01*
X0105254Y0035470D02*
X0103763Y0035470D01*
X0102537Y0037069D02*
X0106546Y0037069D01*
X0105766Y0016288D02*
X0103317Y0016288D01*
X0104086Y0014690D02*
X0104930Y0014690D01*
X0104800Y0013091D02*
X0104200Y0013091D01*
X0103747Y0011493D02*
X0105269Y0011493D01*
X0106583Y0009894D02*
X0102499Y0009894D01*
X0062660Y0029076D02*
X0056850Y0029076D01*
X0056843Y0027478D02*
X0061583Y0027478D01*
X0060006Y0025879D02*
X0056180Y0025879D01*
X0054722Y0024281D02*
X0059400Y0024281D01*
X0059400Y0022682D02*
X0053409Y0022682D01*
X0051811Y0021084D02*
X0056243Y0021084D01*
X0051800Y0024750D02*
X0049300Y0022250D01*
X0051800Y0024750D02*
X0051800Y0028500D01*
X0056365Y0030675D02*
X0060320Y0030675D01*
X0059529Y0032273D02*
X0055169Y0032273D01*
X0041800Y0033000D02*
X0041800Y0028500D01*
X0041800Y0033000D02*
X0036300Y0038500D01*
X0026800Y0038500D01*
X0023607Y0035470D02*
X0014993Y0035470D01*
X0016200Y0037069D02*
X0022400Y0037069D01*
X0022400Y0038667D02*
X0016200Y0038667D01*
X0016200Y0040266D02*
X0022400Y0040266D01*
X0023942Y0041864D02*
X0014658Y0041864D01*
X0029658Y0041864D02*
X0035987Y0041864D01*
X0036300Y0038500D02*
X0046800Y0049000D01*
X0051300Y0053500D01*
X0035653Y0035470D02*
X0029993Y0035470D01*
X0007080Y0022682D02*
X0006600Y0022682D01*
X0056667Y0014690D02*
X0059514Y0014690D01*
X0059400Y0013091D02*
X0056400Y0013091D01*
X0056400Y0011493D02*
X0059852Y0011493D01*
X0061101Y0009894D02*
X0056400Y0009894D01*
X0049796Y0081827D02*
X0043150Y0081827D01*
X0043150Y0083426D02*
X0048284Y0083426D01*
X0046884Y0085024D02*
X0044216Y0085024D01*
X0045238Y0086623D02*
X0045862Y0086623D01*
X0045550Y0089625D02*
X0044831Y0091361D01*
X0044042Y0092150D01*
X0045723Y0092150D01*
X0046391Y0091482D01*
X0046269Y0091361D01*
X0045550Y0089625D01*
X0045469Y0089820D02*
X0045631Y0089820D01*
X0046326Y0091418D02*
X0044774Y0091418D01*
X0049013Y0096214D02*
X0060208Y0096214D01*
X0059483Y0094615D02*
X0050612Y0094615D01*
X0052842Y0093017D02*
X0059400Y0093017D01*
X0059883Y0091418D02*
X0054774Y0091418D01*
X0047498Y0099411D02*
X0043602Y0099411D01*
X0044984Y0101009D02*
X0046116Y0101009D01*
X0046039Y0105805D02*
X0045061Y0105805D01*
X0043789Y0107403D02*
X0047311Y0107403D01*
X0050550Y0103500D02*
X0050550Y0132250D01*
X0061800Y0143500D01*
X0066800Y0143500D01*
X0058792Y0144169D02*
X0048692Y0144169D01*
X0050290Y0145768D02*
X0053025Y0145768D01*
X0056800Y0148500D02*
X0046800Y0148500D01*
X0049361Y0152162D02*
X0053954Y0152162D01*
X0059200Y0153760D02*
X0015292Y0153760D01*
X0021024Y0168147D02*
X0112981Y0168147D01*
X0112048Y0166548D02*
X0104974Y0166548D01*
X0106200Y0164950D02*
X0111125Y0164950D01*
X0110458Y0163351D02*
X0106200Y0163351D01*
X0106200Y0161753D02*
X0110029Y0161753D01*
X0091361Y0147366D02*
X0085581Y0147366D01*
X0085575Y0145768D02*
X0089960Y0145768D01*
X0089400Y0144169D02*
X0084400Y0144169D01*
X0084400Y0142570D02*
X0089406Y0142570D01*
X0090068Y0140972D02*
X0084400Y0140972D01*
X0060580Y0126585D02*
X0053150Y0126585D01*
X0053150Y0124987D02*
X0059637Y0124987D01*
X0059400Y0123388D02*
X0053150Y0123388D01*
X0053150Y0121790D02*
X0059729Y0121790D01*
X0037311Y0107403D02*
X0030039Y0107403D01*
X0031311Y0105805D02*
X0036039Y0105805D01*
X0035500Y0104206D02*
X0031850Y0104206D01*
X0031850Y0102608D02*
X0035500Y0102608D01*
X0036116Y0101009D02*
X0031234Y0101009D01*
X0029852Y0099411D02*
X0037498Y0099411D01*
X0023339Y0089820D02*
X0014400Y0089820D01*
X0015895Y0091418D02*
X0017705Y0091418D01*
X0039881Y0155359D02*
X0059200Y0155359D01*
X0059200Y0156957D02*
X0041200Y0156957D01*
X0041200Y0158556D02*
X0059200Y0158556D01*
X0058923Y0160154D02*
X0041200Y0160154D01*
X0039770Y0161753D02*
X0057400Y0161753D01*
D17*
X0096800Y0153500D03*
X0136800Y0138500D03*
X0156800Y0108500D03*
X0171800Y0138500D03*
X0106800Y0103500D03*
X0106800Y0088500D03*
X0086800Y0083500D03*
X0076800Y0068500D03*
X0076800Y0043500D03*
X0086800Y0023500D03*
X0121800Y0023500D03*
X0131800Y0028500D03*
X0126800Y0048500D03*
X0121800Y0068500D03*
X0131800Y0078500D03*
X0156800Y0048500D03*
X0161800Y0048500D03*
D18*
X0081800Y0148500D03*
X0056800Y0148500D03*
M02*
