%
M48
M72
T01C0.02362
T02C0.02756
T03C0.03200
T04C0.03346
T05C0.03600
T06C0.04400
T07C0.11024
T08C0.13000
%
T01
X76800Y43500
X86800Y23500
X121800Y23500
X131800Y28500
X126800Y48500
X121800Y68500
X131800Y78500
X106800Y88500
X106800Y103500
X86800Y83500
X76800Y68500
X136800Y138500
X156800Y108500
X171800Y138500
X96800Y153500
X81800Y148500
X56800Y148500
X156800Y48500
X161800Y48500
T02
X51800Y28500
X41800Y28500
X40550Y88500
X50550Y88500
X50550Y103500
X40550Y103500
X26800Y103500
X26800Y93500
T03
X26800Y78500
X11800Y78500
X46800Y68000
X46800Y49000
X26800Y38500
X11800Y38500
X111800Y33500
X111800Y23500
X111800Y13500
X141800Y13500
X151800Y13500
X141800Y23500
X141800Y33500
X141800Y43500
X141800Y53500
X141800Y63500
X151800Y63500
X151800Y53500
X141800Y73500
X111800Y73500
X111800Y63500
X111800Y53500
X111800Y43500
X151800Y103500
X156800Y118500
X166800Y118500
X166800Y143500
X156800Y143500
X101800Y163500
X61800Y163500
X46800Y148500
X36800Y158500
X26800Y148500
T04
X66800Y143500
X66800Y133500
X66800Y123500
X66800Y113500
X66800Y103500
X66800Y93500
X66800Y83500
X66800Y73500
X66800Y63500
X66800Y53500
X66800Y43500
X66800Y33500
X66800Y23500
X66800Y13500
X96800Y13500
X96800Y23500
X96800Y33500
X96800Y43500
X96800Y53500
X96800Y63500
X96800Y73500
X96800Y83500
X96800Y93500
X96800Y103500
X96800Y113500
X96800Y123500
X96800Y133500
X96800Y143500
T05
X166800Y98500
X166800Y88500
X166800Y78500
X166800Y68500
X166800Y58500
X166800Y38500
X166800Y28500
X51800Y13500
X41800Y13500
X31800Y13500
T06
X116800Y88500
X126800Y88500
X136800Y88500
T07
X11800Y13500
X171800Y13500
X171800Y163500
X11800Y163500
T08
X126800Y157500
M30
