G75*
%MOIN*%
%OFA0B0*%
%FSLAX25Y25*%
%IPPOS*%
%LPD*%
%AMOC8*
5,1,8,0,0,1.08239X$1,22.5*
%
%ADD10C,0.00000*%
%ADD11C,0.05200*%
%ADD12C,0.05600*%
%ADD13OC8,0.05200*%
%ADD14C,0.06600*%
%ADD15C,0.05200*%
%ADD16C,0.06500*%
%ADD17C,0.03962*%
%ADD18C,0.01600*%
%ADD19R,0.03962X0.03962*%
D10*
X0001800Y0003500D02*
X0001800Y0173461D01*
X0180501Y0173461D01*
X0180501Y0003500D01*
X0001800Y0003500D01*
X0006288Y0013500D02*
X0006290Y0013648D01*
X0006296Y0013796D01*
X0006306Y0013944D01*
X0006320Y0014091D01*
X0006338Y0014238D01*
X0006359Y0014384D01*
X0006385Y0014530D01*
X0006415Y0014675D01*
X0006448Y0014819D01*
X0006486Y0014962D01*
X0006527Y0015104D01*
X0006572Y0015245D01*
X0006620Y0015385D01*
X0006673Y0015524D01*
X0006729Y0015661D01*
X0006789Y0015796D01*
X0006852Y0015930D01*
X0006919Y0016062D01*
X0006990Y0016192D01*
X0007064Y0016320D01*
X0007141Y0016446D01*
X0007222Y0016570D01*
X0007306Y0016692D01*
X0007393Y0016811D01*
X0007484Y0016928D01*
X0007578Y0017043D01*
X0007674Y0017155D01*
X0007774Y0017265D01*
X0007876Y0017371D01*
X0007982Y0017475D01*
X0008090Y0017576D01*
X0008201Y0017674D01*
X0008314Y0017770D01*
X0008430Y0017862D01*
X0008548Y0017951D01*
X0008669Y0018036D01*
X0008792Y0018119D01*
X0008917Y0018198D01*
X0009044Y0018274D01*
X0009173Y0018346D01*
X0009304Y0018415D01*
X0009437Y0018480D01*
X0009572Y0018541D01*
X0009708Y0018599D01*
X0009845Y0018654D01*
X0009984Y0018704D01*
X0010125Y0018751D01*
X0010266Y0018794D01*
X0010409Y0018834D01*
X0010553Y0018869D01*
X0010697Y0018901D01*
X0010843Y0018928D01*
X0010989Y0018952D01*
X0011136Y0018972D01*
X0011283Y0018988D01*
X0011430Y0019000D01*
X0011578Y0019008D01*
X0011726Y0019012D01*
X0011874Y0019012D01*
X0012022Y0019008D01*
X0012170Y0019000D01*
X0012317Y0018988D01*
X0012464Y0018972D01*
X0012611Y0018952D01*
X0012757Y0018928D01*
X0012903Y0018901D01*
X0013047Y0018869D01*
X0013191Y0018834D01*
X0013334Y0018794D01*
X0013475Y0018751D01*
X0013616Y0018704D01*
X0013755Y0018654D01*
X0013892Y0018599D01*
X0014028Y0018541D01*
X0014163Y0018480D01*
X0014296Y0018415D01*
X0014427Y0018346D01*
X0014556Y0018274D01*
X0014683Y0018198D01*
X0014808Y0018119D01*
X0014931Y0018036D01*
X0015052Y0017951D01*
X0015170Y0017862D01*
X0015286Y0017770D01*
X0015399Y0017674D01*
X0015510Y0017576D01*
X0015618Y0017475D01*
X0015724Y0017371D01*
X0015826Y0017265D01*
X0015926Y0017155D01*
X0016022Y0017043D01*
X0016116Y0016928D01*
X0016207Y0016811D01*
X0016294Y0016692D01*
X0016378Y0016570D01*
X0016459Y0016446D01*
X0016536Y0016320D01*
X0016610Y0016192D01*
X0016681Y0016062D01*
X0016748Y0015930D01*
X0016811Y0015796D01*
X0016871Y0015661D01*
X0016927Y0015524D01*
X0016980Y0015385D01*
X0017028Y0015245D01*
X0017073Y0015104D01*
X0017114Y0014962D01*
X0017152Y0014819D01*
X0017185Y0014675D01*
X0017215Y0014530D01*
X0017241Y0014384D01*
X0017262Y0014238D01*
X0017280Y0014091D01*
X0017294Y0013944D01*
X0017304Y0013796D01*
X0017310Y0013648D01*
X0017312Y0013500D01*
X0017310Y0013352D01*
X0017304Y0013204D01*
X0017294Y0013056D01*
X0017280Y0012909D01*
X0017262Y0012762D01*
X0017241Y0012616D01*
X0017215Y0012470D01*
X0017185Y0012325D01*
X0017152Y0012181D01*
X0017114Y0012038D01*
X0017073Y0011896D01*
X0017028Y0011755D01*
X0016980Y0011615D01*
X0016927Y0011476D01*
X0016871Y0011339D01*
X0016811Y0011204D01*
X0016748Y0011070D01*
X0016681Y0010938D01*
X0016610Y0010808D01*
X0016536Y0010680D01*
X0016459Y0010554D01*
X0016378Y0010430D01*
X0016294Y0010308D01*
X0016207Y0010189D01*
X0016116Y0010072D01*
X0016022Y0009957D01*
X0015926Y0009845D01*
X0015826Y0009735D01*
X0015724Y0009629D01*
X0015618Y0009525D01*
X0015510Y0009424D01*
X0015399Y0009326D01*
X0015286Y0009230D01*
X0015170Y0009138D01*
X0015052Y0009049D01*
X0014931Y0008964D01*
X0014808Y0008881D01*
X0014683Y0008802D01*
X0014556Y0008726D01*
X0014427Y0008654D01*
X0014296Y0008585D01*
X0014163Y0008520D01*
X0014028Y0008459D01*
X0013892Y0008401D01*
X0013755Y0008346D01*
X0013616Y0008296D01*
X0013475Y0008249D01*
X0013334Y0008206D01*
X0013191Y0008166D01*
X0013047Y0008131D01*
X0012903Y0008099D01*
X0012757Y0008072D01*
X0012611Y0008048D01*
X0012464Y0008028D01*
X0012317Y0008012D01*
X0012170Y0008000D01*
X0012022Y0007992D01*
X0011874Y0007988D01*
X0011726Y0007988D01*
X0011578Y0007992D01*
X0011430Y0008000D01*
X0011283Y0008012D01*
X0011136Y0008028D01*
X0010989Y0008048D01*
X0010843Y0008072D01*
X0010697Y0008099D01*
X0010553Y0008131D01*
X0010409Y0008166D01*
X0010266Y0008206D01*
X0010125Y0008249D01*
X0009984Y0008296D01*
X0009845Y0008346D01*
X0009708Y0008401D01*
X0009572Y0008459D01*
X0009437Y0008520D01*
X0009304Y0008585D01*
X0009173Y0008654D01*
X0009044Y0008726D01*
X0008917Y0008802D01*
X0008792Y0008881D01*
X0008669Y0008964D01*
X0008548Y0009049D01*
X0008430Y0009138D01*
X0008314Y0009230D01*
X0008201Y0009326D01*
X0008090Y0009424D01*
X0007982Y0009525D01*
X0007876Y0009629D01*
X0007774Y0009735D01*
X0007674Y0009845D01*
X0007578Y0009957D01*
X0007484Y0010072D01*
X0007393Y0010189D01*
X0007306Y0010308D01*
X0007222Y0010430D01*
X0007141Y0010554D01*
X0007064Y0010680D01*
X0006990Y0010808D01*
X0006919Y0010938D01*
X0006852Y0011070D01*
X0006789Y0011204D01*
X0006729Y0011339D01*
X0006673Y0011476D01*
X0006620Y0011615D01*
X0006572Y0011755D01*
X0006527Y0011896D01*
X0006486Y0012038D01*
X0006448Y0012181D01*
X0006415Y0012325D01*
X0006385Y0012470D01*
X0006359Y0012616D01*
X0006338Y0012762D01*
X0006320Y0012909D01*
X0006306Y0013056D01*
X0006296Y0013204D01*
X0006290Y0013352D01*
X0006288Y0013500D01*
X0120300Y0157500D02*
X0120302Y0157661D01*
X0120308Y0157821D01*
X0120318Y0157982D01*
X0120332Y0158142D01*
X0120350Y0158302D01*
X0120371Y0158461D01*
X0120397Y0158620D01*
X0120427Y0158778D01*
X0120460Y0158935D01*
X0120498Y0159092D01*
X0120539Y0159247D01*
X0120584Y0159401D01*
X0120633Y0159554D01*
X0120686Y0159706D01*
X0120742Y0159857D01*
X0120803Y0160006D01*
X0120866Y0160154D01*
X0120934Y0160300D01*
X0121005Y0160444D01*
X0121079Y0160586D01*
X0121157Y0160727D01*
X0121239Y0160865D01*
X0121324Y0161002D01*
X0121412Y0161136D01*
X0121504Y0161268D01*
X0121599Y0161398D01*
X0121697Y0161526D01*
X0121798Y0161651D01*
X0121902Y0161773D01*
X0122009Y0161893D01*
X0122119Y0162010D01*
X0122232Y0162125D01*
X0122348Y0162236D01*
X0122467Y0162345D01*
X0122588Y0162450D01*
X0122712Y0162553D01*
X0122838Y0162653D01*
X0122966Y0162749D01*
X0123097Y0162842D01*
X0123231Y0162932D01*
X0123366Y0163019D01*
X0123504Y0163102D01*
X0123643Y0163182D01*
X0123785Y0163258D01*
X0123928Y0163331D01*
X0124073Y0163400D01*
X0124220Y0163466D01*
X0124368Y0163528D01*
X0124518Y0163586D01*
X0124669Y0163641D01*
X0124822Y0163692D01*
X0124976Y0163739D01*
X0125131Y0163782D01*
X0125287Y0163821D01*
X0125443Y0163857D01*
X0125601Y0163888D01*
X0125759Y0163916D01*
X0125918Y0163940D01*
X0126078Y0163960D01*
X0126238Y0163976D01*
X0126398Y0163988D01*
X0126559Y0163996D01*
X0126720Y0164000D01*
X0126880Y0164000D01*
X0127041Y0163996D01*
X0127202Y0163988D01*
X0127362Y0163976D01*
X0127522Y0163960D01*
X0127682Y0163940D01*
X0127841Y0163916D01*
X0127999Y0163888D01*
X0128157Y0163857D01*
X0128313Y0163821D01*
X0128469Y0163782D01*
X0128624Y0163739D01*
X0128778Y0163692D01*
X0128931Y0163641D01*
X0129082Y0163586D01*
X0129232Y0163528D01*
X0129380Y0163466D01*
X0129527Y0163400D01*
X0129672Y0163331D01*
X0129815Y0163258D01*
X0129957Y0163182D01*
X0130096Y0163102D01*
X0130234Y0163019D01*
X0130369Y0162932D01*
X0130503Y0162842D01*
X0130634Y0162749D01*
X0130762Y0162653D01*
X0130888Y0162553D01*
X0131012Y0162450D01*
X0131133Y0162345D01*
X0131252Y0162236D01*
X0131368Y0162125D01*
X0131481Y0162010D01*
X0131591Y0161893D01*
X0131698Y0161773D01*
X0131802Y0161651D01*
X0131903Y0161526D01*
X0132001Y0161398D01*
X0132096Y0161268D01*
X0132188Y0161136D01*
X0132276Y0161002D01*
X0132361Y0160865D01*
X0132443Y0160727D01*
X0132521Y0160586D01*
X0132595Y0160444D01*
X0132666Y0160300D01*
X0132734Y0160154D01*
X0132797Y0160006D01*
X0132858Y0159857D01*
X0132914Y0159706D01*
X0132967Y0159554D01*
X0133016Y0159401D01*
X0133061Y0159247D01*
X0133102Y0159092D01*
X0133140Y0158935D01*
X0133173Y0158778D01*
X0133203Y0158620D01*
X0133229Y0158461D01*
X0133250Y0158302D01*
X0133268Y0158142D01*
X0133282Y0157982D01*
X0133292Y0157821D01*
X0133298Y0157661D01*
X0133300Y0157500D01*
X0133298Y0157339D01*
X0133292Y0157179D01*
X0133282Y0157018D01*
X0133268Y0156858D01*
X0133250Y0156698D01*
X0133229Y0156539D01*
X0133203Y0156380D01*
X0133173Y0156222D01*
X0133140Y0156065D01*
X0133102Y0155908D01*
X0133061Y0155753D01*
X0133016Y0155599D01*
X0132967Y0155446D01*
X0132914Y0155294D01*
X0132858Y0155143D01*
X0132797Y0154994D01*
X0132734Y0154846D01*
X0132666Y0154700D01*
X0132595Y0154556D01*
X0132521Y0154414D01*
X0132443Y0154273D01*
X0132361Y0154135D01*
X0132276Y0153998D01*
X0132188Y0153864D01*
X0132096Y0153732D01*
X0132001Y0153602D01*
X0131903Y0153474D01*
X0131802Y0153349D01*
X0131698Y0153227D01*
X0131591Y0153107D01*
X0131481Y0152990D01*
X0131368Y0152875D01*
X0131252Y0152764D01*
X0131133Y0152655D01*
X0131012Y0152550D01*
X0130888Y0152447D01*
X0130762Y0152347D01*
X0130634Y0152251D01*
X0130503Y0152158D01*
X0130369Y0152068D01*
X0130234Y0151981D01*
X0130096Y0151898D01*
X0129957Y0151818D01*
X0129815Y0151742D01*
X0129672Y0151669D01*
X0129527Y0151600D01*
X0129380Y0151534D01*
X0129232Y0151472D01*
X0129082Y0151414D01*
X0128931Y0151359D01*
X0128778Y0151308D01*
X0128624Y0151261D01*
X0128469Y0151218D01*
X0128313Y0151179D01*
X0128157Y0151143D01*
X0127999Y0151112D01*
X0127841Y0151084D01*
X0127682Y0151060D01*
X0127522Y0151040D01*
X0127362Y0151024D01*
X0127202Y0151012D01*
X0127041Y0151004D01*
X0126880Y0151000D01*
X0126720Y0151000D01*
X0126559Y0151004D01*
X0126398Y0151012D01*
X0126238Y0151024D01*
X0126078Y0151040D01*
X0125918Y0151060D01*
X0125759Y0151084D01*
X0125601Y0151112D01*
X0125443Y0151143D01*
X0125287Y0151179D01*
X0125131Y0151218D01*
X0124976Y0151261D01*
X0124822Y0151308D01*
X0124669Y0151359D01*
X0124518Y0151414D01*
X0124368Y0151472D01*
X0124220Y0151534D01*
X0124073Y0151600D01*
X0123928Y0151669D01*
X0123785Y0151742D01*
X0123643Y0151818D01*
X0123504Y0151898D01*
X0123366Y0151981D01*
X0123231Y0152068D01*
X0123097Y0152158D01*
X0122966Y0152251D01*
X0122838Y0152347D01*
X0122712Y0152447D01*
X0122588Y0152550D01*
X0122467Y0152655D01*
X0122348Y0152764D01*
X0122232Y0152875D01*
X0122119Y0152990D01*
X0122009Y0153107D01*
X0121902Y0153227D01*
X0121798Y0153349D01*
X0121697Y0153474D01*
X0121599Y0153602D01*
X0121504Y0153732D01*
X0121412Y0153864D01*
X0121324Y0153998D01*
X0121239Y0154135D01*
X0121157Y0154273D01*
X0121079Y0154414D01*
X0121005Y0154556D01*
X0120934Y0154700D01*
X0120866Y0154846D01*
X0120803Y0154994D01*
X0120742Y0155143D01*
X0120686Y0155294D01*
X0120633Y0155446D01*
X0120584Y0155599D01*
X0120539Y0155753D01*
X0120498Y0155908D01*
X0120460Y0156065D01*
X0120427Y0156222D01*
X0120397Y0156380D01*
X0120371Y0156539D01*
X0120350Y0156698D01*
X0120332Y0156858D01*
X0120318Y0157018D01*
X0120308Y0157179D01*
X0120302Y0157339D01*
X0120300Y0157500D01*
X0166288Y0163500D02*
X0166290Y0163648D01*
X0166296Y0163796D01*
X0166306Y0163944D01*
X0166320Y0164091D01*
X0166338Y0164238D01*
X0166359Y0164384D01*
X0166385Y0164530D01*
X0166415Y0164675D01*
X0166448Y0164819D01*
X0166486Y0164962D01*
X0166527Y0165104D01*
X0166572Y0165245D01*
X0166620Y0165385D01*
X0166673Y0165524D01*
X0166729Y0165661D01*
X0166789Y0165796D01*
X0166852Y0165930D01*
X0166919Y0166062D01*
X0166990Y0166192D01*
X0167064Y0166320D01*
X0167141Y0166446D01*
X0167222Y0166570D01*
X0167306Y0166692D01*
X0167393Y0166811D01*
X0167484Y0166928D01*
X0167578Y0167043D01*
X0167674Y0167155D01*
X0167774Y0167265D01*
X0167876Y0167371D01*
X0167982Y0167475D01*
X0168090Y0167576D01*
X0168201Y0167674D01*
X0168314Y0167770D01*
X0168430Y0167862D01*
X0168548Y0167951D01*
X0168669Y0168036D01*
X0168792Y0168119D01*
X0168917Y0168198D01*
X0169044Y0168274D01*
X0169173Y0168346D01*
X0169304Y0168415D01*
X0169437Y0168480D01*
X0169572Y0168541D01*
X0169708Y0168599D01*
X0169845Y0168654D01*
X0169984Y0168704D01*
X0170125Y0168751D01*
X0170266Y0168794D01*
X0170409Y0168834D01*
X0170553Y0168869D01*
X0170697Y0168901D01*
X0170843Y0168928D01*
X0170989Y0168952D01*
X0171136Y0168972D01*
X0171283Y0168988D01*
X0171430Y0169000D01*
X0171578Y0169008D01*
X0171726Y0169012D01*
X0171874Y0169012D01*
X0172022Y0169008D01*
X0172170Y0169000D01*
X0172317Y0168988D01*
X0172464Y0168972D01*
X0172611Y0168952D01*
X0172757Y0168928D01*
X0172903Y0168901D01*
X0173047Y0168869D01*
X0173191Y0168834D01*
X0173334Y0168794D01*
X0173475Y0168751D01*
X0173616Y0168704D01*
X0173755Y0168654D01*
X0173892Y0168599D01*
X0174028Y0168541D01*
X0174163Y0168480D01*
X0174296Y0168415D01*
X0174427Y0168346D01*
X0174556Y0168274D01*
X0174683Y0168198D01*
X0174808Y0168119D01*
X0174931Y0168036D01*
X0175052Y0167951D01*
X0175170Y0167862D01*
X0175286Y0167770D01*
X0175399Y0167674D01*
X0175510Y0167576D01*
X0175618Y0167475D01*
X0175724Y0167371D01*
X0175826Y0167265D01*
X0175926Y0167155D01*
X0176022Y0167043D01*
X0176116Y0166928D01*
X0176207Y0166811D01*
X0176294Y0166692D01*
X0176378Y0166570D01*
X0176459Y0166446D01*
X0176536Y0166320D01*
X0176610Y0166192D01*
X0176681Y0166062D01*
X0176748Y0165930D01*
X0176811Y0165796D01*
X0176871Y0165661D01*
X0176927Y0165524D01*
X0176980Y0165385D01*
X0177028Y0165245D01*
X0177073Y0165104D01*
X0177114Y0164962D01*
X0177152Y0164819D01*
X0177185Y0164675D01*
X0177215Y0164530D01*
X0177241Y0164384D01*
X0177262Y0164238D01*
X0177280Y0164091D01*
X0177294Y0163944D01*
X0177304Y0163796D01*
X0177310Y0163648D01*
X0177312Y0163500D01*
X0177310Y0163352D01*
X0177304Y0163204D01*
X0177294Y0163056D01*
X0177280Y0162909D01*
X0177262Y0162762D01*
X0177241Y0162616D01*
X0177215Y0162470D01*
X0177185Y0162325D01*
X0177152Y0162181D01*
X0177114Y0162038D01*
X0177073Y0161896D01*
X0177028Y0161755D01*
X0176980Y0161615D01*
X0176927Y0161476D01*
X0176871Y0161339D01*
X0176811Y0161204D01*
X0176748Y0161070D01*
X0176681Y0160938D01*
X0176610Y0160808D01*
X0176536Y0160680D01*
X0176459Y0160554D01*
X0176378Y0160430D01*
X0176294Y0160308D01*
X0176207Y0160189D01*
X0176116Y0160072D01*
X0176022Y0159957D01*
X0175926Y0159845D01*
X0175826Y0159735D01*
X0175724Y0159629D01*
X0175618Y0159525D01*
X0175510Y0159424D01*
X0175399Y0159326D01*
X0175286Y0159230D01*
X0175170Y0159138D01*
X0175052Y0159049D01*
X0174931Y0158964D01*
X0174808Y0158881D01*
X0174683Y0158802D01*
X0174556Y0158726D01*
X0174427Y0158654D01*
X0174296Y0158585D01*
X0174163Y0158520D01*
X0174028Y0158459D01*
X0173892Y0158401D01*
X0173755Y0158346D01*
X0173616Y0158296D01*
X0173475Y0158249D01*
X0173334Y0158206D01*
X0173191Y0158166D01*
X0173047Y0158131D01*
X0172903Y0158099D01*
X0172757Y0158072D01*
X0172611Y0158048D01*
X0172464Y0158028D01*
X0172317Y0158012D01*
X0172170Y0158000D01*
X0172022Y0157992D01*
X0171874Y0157988D01*
X0171726Y0157988D01*
X0171578Y0157992D01*
X0171430Y0158000D01*
X0171283Y0158012D01*
X0171136Y0158028D01*
X0170989Y0158048D01*
X0170843Y0158072D01*
X0170697Y0158099D01*
X0170553Y0158131D01*
X0170409Y0158166D01*
X0170266Y0158206D01*
X0170125Y0158249D01*
X0169984Y0158296D01*
X0169845Y0158346D01*
X0169708Y0158401D01*
X0169572Y0158459D01*
X0169437Y0158520D01*
X0169304Y0158585D01*
X0169173Y0158654D01*
X0169044Y0158726D01*
X0168917Y0158802D01*
X0168792Y0158881D01*
X0168669Y0158964D01*
X0168548Y0159049D01*
X0168430Y0159138D01*
X0168314Y0159230D01*
X0168201Y0159326D01*
X0168090Y0159424D01*
X0167982Y0159525D01*
X0167876Y0159629D01*
X0167774Y0159735D01*
X0167674Y0159845D01*
X0167578Y0159957D01*
X0167484Y0160072D01*
X0167393Y0160189D01*
X0167306Y0160308D01*
X0167222Y0160430D01*
X0167141Y0160554D01*
X0167064Y0160680D01*
X0166990Y0160808D01*
X0166919Y0160938D01*
X0166852Y0161070D01*
X0166789Y0161204D01*
X0166729Y0161339D01*
X0166673Y0161476D01*
X0166620Y0161615D01*
X0166572Y0161755D01*
X0166527Y0161896D01*
X0166486Y0162038D01*
X0166448Y0162181D01*
X0166415Y0162325D01*
X0166385Y0162470D01*
X0166359Y0162616D01*
X0166338Y0162762D01*
X0166320Y0162909D01*
X0166306Y0163056D01*
X0166296Y0163204D01*
X0166290Y0163352D01*
X0166288Y0163500D01*
X0006288Y0163500D02*
X0006290Y0163648D01*
X0006296Y0163796D01*
X0006306Y0163944D01*
X0006320Y0164091D01*
X0006338Y0164238D01*
X0006359Y0164384D01*
X0006385Y0164530D01*
X0006415Y0164675D01*
X0006448Y0164819D01*
X0006486Y0164962D01*
X0006527Y0165104D01*
X0006572Y0165245D01*
X0006620Y0165385D01*
X0006673Y0165524D01*
X0006729Y0165661D01*
X0006789Y0165796D01*
X0006852Y0165930D01*
X0006919Y0166062D01*
X0006990Y0166192D01*
X0007064Y0166320D01*
X0007141Y0166446D01*
X0007222Y0166570D01*
X0007306Y0166692D01*
X0007393Y0166811D01*
X0007484Y0166928D01*
X0007578Y0167043D01*
X0007674Y0167155D01*
X0007774Y0167265D01*
X0007876Y0167371D01*
X0007982Y0167475D01*
X0008090Y0167576D01*
X0008201Y0167674D01*
X0008314Y0167770D01*
X0008430Y0167862D01*
X0008548Y0167951D01*
X0008669Y0168036D01*
X0008792Y0168119D01*
X0008917Y0168198D01*
X0009044Y0168274D01*
X0009173Y0168346D01*
X0009304Y0168415D01*
X0009437Y0168480D01*
X0009572Y0168541D01*
X0009708Y0168599D01*
X0009845Y0168654D01*
X0009984Y0168704D01*
X0010125Y0168751D01*
X0010266Y0168794D01*
X0010409Y0168834D01*
X0010553Y0168869D01*
X0010697Y0168901D01*
X0010843Y0168928D01*
X0010989Y0168952D01*
X0011136Y0168972D01*
X0011283Y0168988D01*
X0011430Y0169000D01*
X0011578Y0169008D01*
X0011726Y0169012D01*
X0011874Y0169012D01*
X0012022Y0169008D01*
X0012170Y0169000D01*
X0012317Y0168988D01*
X0012464Y0168972D01*
X0012611Y0168952D01*
X0012757Y0168928D01*
X0012903Y0168901D01*
X0013047Y0168869D01*
X0013191Y0168834D01*
X0013334Y0168794D01*
X0013475Y0168751D01*
X0013616Y0168704D01*
X0013755Y0168654D01*
X0013892Y0168599D01*
X0014028Y0168541D01*
X0014163Y0168480D01*
X0014296Y0168415D01*
X0014427Y0168346D01*
X0014556Y0168274D01*
X0014683Y0168198D01*
X0014808Y0168119D01*
X0014931Y0168036D01*
X0015052Y0167951D01*
X0015170Y0167862D01*
X0015286Y0167770D01*
X0015399Y0167674D01*
X0015510Y0167576D01*
X0015618Y0167475D01*
X0015724Y0167371D01*
X0015826Y0167265D01*
X0015926Y0167155D01*
X0016022Y0167043D01*
X0016116Y0166928D01*
X0016207Y0166811D01*
X0016294Y0166692D01*
X0016378Y0166570D01*
X0016459Y0166446D01*
X0016536Y0166320D01*
X0016610Y0166192D01*
X0016681Y0166062D01*
X0016748Y0165930D01*
X0016811Y0165796D01*
X0016871Y0165661D01*
X0016927Y0165524D01*
X0016980Y0165385D01*
X0017028Y0165245D01*
X0017073Y0165104D01*
X0017114Y0164962D01*
X0017152Y0164819D01*
X0017185Y0164675D01*
X0017215Y0164530D01*
X0017241Y0164384D01*
X0017262Y0164238D01*
X0017280Y0164091D01*
X0017294Y0163944D01*
X0017304Y0163796D01*
X0017310Y0163648D01*
X0017312Y0163500D01*
X0017310Y0163352D01*
X0017304Y0163204D01*
X0017294Y0163056D01*
X0017280Y0162909D01*
X0017262Y0162762D01*
X0017241Y0162616D01*
X0017215Y0162470D01*
X0017185Y0162325D01*
X0017152Y0162181D01*
X0017114Y0162038D01*
X0017073Y0161896D01*
X0017028Y0161755D01*
X0016980Y0161615D01*
X0016927Y0161476D01*
X0016871Y0161339D01*
X0016811Y0161204D01*
X0016748Y0161070D01*
X0016681Y0160938D01*
X0016610Y0160808D01*
X0016536Y0160680D01*
X0016459Y0160554D01*
X0016378Y0160430D01*
X0016294Y0160308D01*
X0016207Y0160189D01*
X0016116Y0160072D01*
X0016022Y0159957D01*
X0015926Y0159845D01*
X0015826Y0159735D01*
X0015724Y0159629D01*
X0015618Y0159525D01*
X0015510Y0159424D01*
X0015399Y0159326D01*
X0015286Y0159230D01*
X0015170Y0159138D01*
X0015052Y0159049D01*
X0014931Y0158964D01*
X0014808Y0158881D01*
X0014683Y0158802D01*
X0014556Y0158726D01*
X0014427Y0158654D01*
X0014296Y0158585D01*
X0014163Y0158520D01*
X0014028Y0158459D01*
X0013892Y0158401D01*
X0013755Y0158346D01*
X0013616Y0158296D01*
X0013475Y0158249D01*
X0013334Y0158206D01*
X0013191Y0158166D01*
X0013047Y0158131D01*
X0012903Y0158099D01*
X0012757Y0158072D01*
X0012611Y0158048D01*
X0012464Y0158028D01*
X0012317Y0158012D01*
X0012170Y0158000D01*
X0012022Y0157992D01*
X0011874Y0157988D01*
X0011726Y0157988D01*
X0011578Y0157992D01*
X0011430Y0158000D01*
X0011283Y0158012D01*
X0011136Y0158028D01*
X0010989Y0158048D01*
X0010843Y0158072D01*
X0010697Y0158099D01*
X0010553Y0158131D01*
X0010409Y0158166D01*
X0010266Y0158206D01*
X0010125Y0158249D01*
X0009984Y0158296D01*
X0009845Y0158346D01*
X0009708Y0158401D01*
X0009572Y0158459D01*
X0009437Y0158520D01*
X0009304Y0158585D01*
X0009173Y0158654D01*
X0009044Y0158726D01*
X0008917Y0158802D01*
X0008792Y0158881D01*
X0008669Y0158964D01*
X0008548Y0159049D01*
X0008430Y0159138D01*
X0008314Y0159230D01*
X0008201Y0159326D01*
X0008090Y0159424D01*
X0007982Y0159525D01*
X0007876Y0159629D01*
X0007774Y0159735D01*
X0007674Y0159845D01*
X0007578Y0159957D01*
X0007484Y0160072D01*
X0007393Y0160189D01*
X0007306Y0160308D01*
X0007222Y0160430D01*
X0007141Y0160554D01*
X0007064Y0160680D01*
X0006990Y0160808D01*
X0006919Y0160938D01*
X0006852Y0161070D01*
X0006789Y0161204D01*
X0006729Y0161339D01*
X0006673Y0161476D01*
X0006620Y0161615D01*
X0006572Y0161755D01*
X0006527Y0161896D01*
X0006486Y0162038D01*
X0006448Y0162181D01*
X0006415Y0162325D01*
X0006385Y0162470D01*
X0006359Y0162616D01*
X0006338Y0162762D01*
X0006320Y0162909D01*
X0006306Y0163056D01*
X0006296Y0163204D01*
X0006290Y0163352D01*
X0006288Y0163500D01*
X0166288Y0013500D02*
X0166290Y0013648D01*
X0166296Y0013796D01*
X0166306Y0013944D01*
X0166320Y0014091D01*
X0166338Y0014238D01*
X0166359Y0014384D01*
X0166385Y0014530D01*
X0166415Y0014675D01*
X0166448Y0014819D01*
X0166486Y0014962D01*
X0166527Y0015104D01*
X0166572Y0015245D01*
X0166620Y0015385D01*
X0166673Y0015524D01*
X0166729Y0015661D01*
X0166789Y0015796D01*
X0166852Y0015930D01*
X0166919Y0016062D01*
X0166990Y0016192D01*
X0167064Y0016320D01*
X0167141Y0016446D01*
X0167222Y0016570D01*
X0167306Y0016692D01*
X0167393Y0016811D01*
X0167484Y0016928D01*
X0167578Y0017043D01*
X0167674Y0017155D01*
X0167774Y0017265D01*
X0167876Y0017371D01*
X0167982Y0017475D01*
X0168090Y0017576D01*
X0168201Y0017674D01*
X0168314Y0017770D01*
X0168430Y0017862D01*
X0168548Y0017951D01*
X0168669Y0018036D01*
X0168792Y0018119D01*
X0168917Y0018198D01*
X0169044Y0018274D01*
X0169173Y0018346D01*
X0169304Y0018415D01*
X0169437Y0018480D01*
X0169572Y0018541D01*
X0169708Y0018599D01*
X0169845Y0018654D01*
X0169984Y0018704D01*
X0170125Y0018751D01*
X0170266Y0018794D01*
X0170409Y0018834D01*
X0170553Y0018869D01*
X0170697Y0018901D01*
X0170843Y0018928D01*
X0170989Y0018952D01*
X0171136Y0018972D01*
X0171283Y0018988D01*
X0171430Y0019000D01*
X0171578Y0019008D01*
X0171726Y0019012D01*
X0171874Y0019012D01*
X0172022Y0019008D01*
X0172170Y0019000D01*
X0172317Y0018988D01*
X0172464Y0018972D01*
X0172611Y0018952D01*
X0172757Y0018928D01*
X0172903Y0018901D01*
X0173047Y0018869D01*
X0173191Y0018834D01*
X0173334Y0018794D01*
X0173475Y0018751D01*
X0173616Y0018704D01*
X0173755Y0018654D01*
X0173892Y0018599D01*
X0174028Y0018541D01*
X0174163Y0018480D01*
X0174296Y0018415D01*
X0174427Y0018346D01*
X0174556Y0018274D01*
X0174683Y0018198D01*
X0174808Y0018119D01*
X0174931Y0018036D01*
X0175052Y0017951D01*
X0175170Y0017862D01*
X0175286Y0017770D01*
X0175399Y0017674D01*
X0175510Y0017576D01*
X0175618Y0017475D01*
X0175724Y0017371D01*
X0175826Y0017265D01*
X0175926Y0017155D01*
X0176022Y0017043D01*
X0176116Y0016928D01*
X0176207Y0016811D01*
X0176294Y0016692D01*
X0176378Y0016570D01*
X0176459Y0016446D01*
X0176536Y0016320D01*
X0176610Y0016192D01*
X0176681Y0016062D01*
X0176748Y0015930D01*
X0176811Y0015796D01*
X0176871Y0015661D01*
X0176927Y0015524D01*
X0176980Y0015385D01*
X0177028Y0015245D01*
X0177073Y0015104D01*
X0177114Y0014962D01*
X0177152Y0014819D01*
X0177185Y0014675D01*
X0177215Y0014530D01*
X0177241Y0014384D01*
X0177262Y0014238D01*
X0177280Y0014091D01*
X0177294Y0013944D01*
X0177304Y0013796D01*
X0177310Y0013648D01*
X0177312Y0013500D01*
X0177310Y0013352D01*
X0177304Y0013204D01*
X0177294Y0013056D01*
X0177280Y0012909D01*
X0177262Y0012762D01*
X0177241Y0012616D01*
X0177215Y0012470D01*
X0177185Y0012325D01*
X0177152Y0012181D01*
X0177114Y0012038D01*
X0177073Y0011896D01*
X0177028Y0011755D01*
X0176980Y0011615D01*
X0176927Y0011476D01*
X0176871Y0011339D01*
X0176811Y0011204D01*
X0176748Y0011070D01*
X0176681Y0010938D01*
X0176610Y0010808D01*
X0176536Y0010680D01*
X0176459Y0010554D01*
X0176378Y0010430D01*
X0176294Y0010308D01*
X0176207Y0010189D01*
X0176116Y0010072D01*
X0176022Y0009957D01*
X0175926Y0009845D01*
X0175826Y0009735D01*
X0175724Y0009629D01*
X0175618Y0009525D01*
X0175510Y0009424D01*
X0175399Y0009326D01*
X0175286Y0009230D01*
X0175170Y0009138D01*
X0175052Y0009049D01*
X0174931Y0008964D01*
X0174808Y0008881D01*
X0174683Y0008802D01*
X0174556Y0008726D01*
X0174427Y0008654D01*
X0174296Y0008585D01*
X0174163Y0008520D01*
X0174028Y0008459D01*
X0173892Y0008401D01*
X0173755Y0008346D01*
X0173616Y0008296D01*
X0173475Y0008249D01*
X0173334Y0008206D01*
X0173191Y0008166D01*
X0173047Y0008131D01*
X0172903Y0008099D01*
X0172757Y0008072D01*
X0172611Y0008048D01*
X0172464Y0008028D01*
X0172317Y0008012D01*
X0172170Y0008000D01*
X0172022Y0007992D01*
X0171874Y0007988D01*
X0171726Y0007988D01*
X0171578Y0007992D01*
X0171430Y0008000D01*
X0171283Y0008012D01*
X0171136Y0008028D01*
X0170989Y0008048D01*
X0170843Y0008072D01*
X0170697Y0008099D01*
X0170553Y0008131D01*
X0170409Y0008166D01*
X0170266Y0008206D01*
X0170125Y0008249D01*
X0169984Y0008296D01*
X0169845Y0008346D01*
X0169708Y0008401D01*
X0169572Y0008459D01*
X0169437Y0008520D01*
X0169304Y0008585D01*
X0169173Y0008654D01*
X0169044Y0008726D01*
X0168917Y0008802D01*
X0168792Y0008881D01*
X0168669Y0008964D01*
X0168548Y0009049D01*
X0168430Y0009138D01*
X0168314Y0009230D01*
X0168201Y0009326D01*
X0168090Y0009424D01*
X0167982Y0009525D01*
X0167876Y0009629D01*
X0167774Y0009735D01*
X0167674Y0009845D01*
X0167578Y0009957D01*
X0167484Y0010072D01*
X0167393Y0010189D01*
X0167306Y0010308D01*
X0167222Y0010430D01*
X0167141Y0010554D01*
X0167064Y0010680D01*
X0166990Y0010808D01*
X0166919Y0010938D01*
X0166852Y0011070D01*
X0166789Y0011204D01*
X0166729Y0011339D01*
X0166673Y0011476D01*
X0166620Y0011615D01*
X0166572Y0011755D01*
X0166527Y0011896D01*
X0166486Y0012038D01*
X0166448Y0012181D01*
X0166415Y0012325D01*
X0166385Y0012470D01*
X0166359Y0012616D01*
X0166338Y0012762D01*
X0166320Y0012909D01*
X0166306Y0013056D01*
X0166296Y0013204D01*
X0166290Y0013352D01*
X0166288Y0013500D01*
D11*
X0144400Y0013500D02*
X0139200Y0013500D01*
X0139200Y0023500D02*
X0144400Y0023500D01*
X0144400Y0033500D02*
X0139200Y0033500D01*
X0139200Y0043500D02*
X0144400Y0043500D01*
X0144400Y0053500D02*
X0139200Y0053500D01*
X0139200Y0063500D02*
X0144400Y0063500D01*
X0144400Y0073500D02*
X0139200Y0073500D01*
X0114400Y0073500D02*
X0109200Y0073500D01*
X0109200Y0063500D02*
X0114400Y0063500D01*
X0114400Y0053500D02*
X0109200Y0053500D01*
X0109200Y0043500D02*
X0114400Y0043500D01*
X0114400Y0033500D02*
X0109200Y0033500D01*
X0109200Y0023500D02*
X0114400Y0023500D01*
X0114400Y0013500D02*
X0109200Y0013500D01*
D12*
X0099600Y0013500D02*
X0094000Y0013500D01*
X0094000Y0023500D02*
X0099600Y0023500D01*
X0099600Y0033500D02*
X0094000Y0033500D01*
X0094000Y0043500D02*
X0099600Y0043500D01*
X0099600Y0053500D02*
X0094000Y0053500D01*
X0094000Y0063500D02*
X0099600Y0063500D01*
X0099600Y0073500D02*
X0094000Y0073500D01*
X0094000Y0083500D02*
X0099600Y0083500D01*
X0099600Y0093500D02*
X0094000Y0093500D01*
X0094000Y0103500D02*
X0099600Y0103500D01*
X0099600Y0113500D02*
X0094000Y0113500D01*
X0094000Y0123500D02*
X0099600Y0123500D01*
X0099600Y0133500D02*
X0094000Y0133500D01*
X0094000Y0143500D02*
X0099600Y0143500D01*
X0069600Y0143500D02*
X0064000Y0143500D01*
X0064000Y0133500D02*
X0069600Y0133500D01*
X0069600Y0123500D02*
X0064000Y0123500D01*
X0064000Y0113500D02*
X0069600Y0113500D01*
X0069600Y0103500D02*
X0064000Y0103500D01*
X0064000Y0093500D02*
X0069600Y0093500D01*
X0069600Y0083500D02*
X0064000Y0083500D01*
X0064000Y0073500D02*
X0069600Y0073500D01*
X0069600Y0063500D02*
X0064000Y0063500D01*
X0064000Y0053500D02*
X0069600Y0053500D01*
X0069600Y0043500D02*
X0064000Y0043500D01*
X0064000Y0033500D02*
X0069600Y0033500D01*
X0069600Y0023500D02*
X0064000Y0023500D01*
X0064000Y0013500D02*
X0069600Y0013500D01*
X0051800Y0010700D02*
X0051800Y0016300D01*
X0041800Y0016300D02*
X0041800Y0010700D01*
X0031800Y0010700D02*
X0031800Y0016300D01*
X0164000Y0028500D02*
X0169600Y0028500D01*
X0169600Y0038500D02*
X0164000Y0038500D01*
X0164000Y0058500D02*
X0169600Y0058500D01*
X0169600Y0068500D02*
X0164000Y0068500D01*
X0164000Y0078500D02*
X0169600Y0078500D01*
X0169600Y0088500D02*
X0164000Y0088500D01*
X0164000Y0098500D02*
X0169600Y0098500D01*
D13*
X0151800Y0103500D03*
X0156800Y0118500D03*
X0166800Y0118500D03*
X0166800Y0143500D03*
X0156800Y0143500D03*
X0101800Y0163500D03*
X0061800Y0163500D03*
X0046800Y0148500D03*
X0036800Y0158500D03*
X0026800Y0148500D03*
X0026800Y0078500D03*
X0011800Y0078500D03*
X0011800Y0038500D03*
X0026800Y0038500D03*
X0151800Y0053500D03*
X0151800Y0063500D03*
X0151800Y0013500D03*
D14*
X0136800Y0085200D02*
X0136800Y0091800D01*
X0126800Y0091800D02*
X0126800Y0085200D01*
X0116800Y0085200D02*
X0116800Y0091800D01*
D15*
X0046800Y0068000D03*
X0046800Y0049000D03*
D16*
X0041800Y0028500D03*
X0051800Y0028500D03*
X0050550Y0088500D03*
X0040550Y0088500D03*
X0026800Y0093500D03*
X0026800Y0103500D03*
X0040550Y0103500D03*
X0050550Y0103500D03*
D17*
X0086800Y0083500D03*
X0076800Y0068500D03*
X0076800Y0043500D03*
X0086800Y0023500D03*
X0121800Y0023500D03*
X0131800Y0028500D03*
X0126800Y0048500D03*
X0121800Y0068500D03*
X0131800Y0078500D03*
X0106800Y0088500D03*
X0106800Y0103500D03*
X0136800Y0138500D03*
X0156800Y0108500D03*
X0171800Y0138500D03*
X0096800Y0153500D03*
X0156800Y0048500D03*
X0161800Y0048500D03*
D18*
X0161800Y0053500D01*
X0156800Y0058500D01*
X0156800Y0073500D01*
X0161800Y0078500D01*
X0166800Y0078500D01*
X0170515Y0083100D02*
X0163085Y0083100D01*
X0161394Y0082400D01*
X0160100Y0081106D01*
X0159656Y0080033D01*
X0159596Y0079973D01*
X0154596Y0074973D01*
X0154400Y0074500D01*
X0154400Y0084017D01*
X0154004Y0084973D01*
X0153273Y0085704D01*
X0149400Y0089577D01*
X0149400Y0099677D01*
X0149977Y0099100D01*
X0153623Y0099100D01*
X0156200Y0101677D01*
X0156200Y0104719D01*
X0157552Y0104719D01*
X0158942Y0105295D01*
X0160005Y0106358D01*
X0160581Y0107748D01*
X0160581Y0109252D01*
X0160005Y0110642D01*
X0158942Y0111705D01*
X0157552Y0112281D01*
X0156048Y0112281D01*
X0154658Y0111705D01*
X0154053Y0111100D01*
X0146283Y0111100D01*
X0145327Y0110704D01*
X0144596Y0109973D01*
X0144400Y0109500D01*
X0144400Y0117423D01*
X0147877Y0120900D01*
X0152977Y0120900D01*
X0152400Y0120323D01*
X0152400Y0116677D01*
X0154977Y0114100D01*
X0158623Y0114100D01*
X0161200Y0116677D01*
X0161200Y0120323D01*
X0160623Y0120900D01*
X0160723Y0120900D01*
X0162400Y0119223D01*
X0162400Y0116677D01*
X0164977Y0114100D01*
X0168623Y0114100D01*
X0171200Y0116677D01*
X0171200Y0120323D01*
X0168623Y0122900D01*
X0166077Y0122900D01*
X0163273Y0125704D01*
X0162317Y0126100D01*
X0146283Y0126100D01*
X0145327Y0125704D01*
X0144596Y0124973D01*
X0140327Y0120704D01*
X0139596Y0119973D01*
X0139200Y0119017D01*
X0139200Y0096326D01*
X0137814Y0096900D01*
X0135786Y0096900D01*
X0133911Y0096124D01*
X0132476Y0094689D01*
X0131800Y0093056D01*
X0131124Y0094689D01*
X0129689Y0096124D01*
X0127814Y0096900D01*
X0125786Y0096900D01*
X0123911Y0096124D01*
X0122476Y0094689D01*
X0121800Y0093056D01*
X0121124Y0094689D01*
X0119689Y0096124D01*
X0117814Y0096900D01*
X0115786Y0096900D01*
X0113911Y0096124D01*
X0113382Y0095595D01*
X0109400Y0099577D01*
X0109400Y0100753D01*
X0110005Y0101358D01*
X0110581Y0102748D01*
X0110581Y0104252D01*
X0110005Y0105642D01*
X0108942Y0106705D01*
X0107552Y0107281D01*
X0106048Y0107281D01*
X0104658Y0106705D01*
X0103663Y0105711D01*
X0103500Y0106106D01*
X0102206Y0107400D01*
X0100515Y0108100D01*
X0093085Y0108100D01*
X0091394Y0107400D01*
X0090100Y0106106D01*
X0089400Y0104415D01*
X0089400Y0102585D01*
X0090100Y0100894D01*
X0091394Y0099600D01*
X0093085Y0098900D01*
X0100515Y0098900D01*
X0102206Y0099600D01*
X0103500Y0100894D01*
X0103663Y0101289D01*
X0104200Y0100753D01*
X0104200Y0097983D01*
X0104596Y0097027D01*
X0111700Y0089923D01*
X0111700Y0084186D01*
X0112476Y0082311D01*
X0113688Y0081100D01*
X0112877Y0081100D01*
X0109400Y0084577D01*
X0109400Y0085753D01*
X0110005Y0086358D01*
X0110581Y0087748D01*
X0110581Y0089252D01*
X0110005Y0090642D01*
X0108942Y0091705D01*
X0107552Y0092281D01*
X0106048Y0092281D01*
X0104658Y0091705D01*
X0103595Y0090642D01*
X0103019Y0089252D01*
X0103019Y0087748D01*
X0103595Y0086358D01*
X0104200Y0085753D01*
X0104200Y0082983D01*
X0104596Y0082027D01*
X0105327Y0081296D01*
X0108723Y0077900D01*
X0108325Y0077900D01*
X0106708Y0077230D01*
X0105470Y0075992D01*
X0104800Y0074375D01*
X0104800Y0072625D01*
X0105470Y0071008D01*
X0106708Y0069770D01*
X0108325Y0069100D01*
X0115275Y0069100D01*
X0116892Y0069770D01*
X0118130Y0071008D01*
X0118800Y0072625D01*
X0118800Y0072823D01*
X0119200Y0072423D01*
X0119200Y0071247D01*
X0118595Y0070642D01*
X0118019Y0069252D01*
X0118019Y0067748D01*
X0118595Y0066358D01*
X0119200Y0065753D01*
X0119200Y0034577D01*
X0118800Y0034177D01*
X0118800Y0034375D01*
X0118130Y0035992D01*
X0116892Y0037230D01*
X0115275Y0037900D01*
X0108325Y0037900D01*
X0106708Y0037230D01*
X0105470Y0035992D01*
X0104800Y0034375D01*
X0104800Y0032625D01*
X0105432Y0031100D01*
X0103585Y0031100D01*
X0104200Y0032585D01*
X0104200Y0034415D01*
X0103500Y0036106D01*
X0102206Y0037400D01*
X0100515Y0038100D01*
X0093085Y0038100D01*
X0091394Y0037400D01*
X0090100Y0036106D01*
X0089400Y0034415D01*
X0089400Y0032585D01*
X0090100Y0030894D01*
X0090309Y0030686D01*
X0086904Y0027281D01*
X0086048Y0027281D01*
X0084658Y0026705D01*
X0083595Y0025642D01*
X0083019Y0024252D01*
X0083019Y0022748D01*
X0083595Y0021358D01*
X0083853Y0021100D01*
X0073585Y0021100D01*
X0074200Y0022585D01*
X0074200Y0024415D01*
X0073500Y0026106D01*
X0072206Y0027400D01*
X0070515Y0028100D01*
X0063085Y0028100D01*
X0061394Y0027400D01*
X0060100Y0026106D01*
X0059400Y0024415D01*
X0059400Y0022585D01*
X0060015Y0021100D01*
X0059127Y0021100D01*
X0056504Y0023723D01*
X0055773Y0024454D01*
X0055153Y0024711D01*
X0056081Y0025639D01*
X0056850Y0027495D01*
X0056850Y0029505D01*
X0056081Y0031361D01*
X0055334Y0032107D01*
X0059127Y0035900D01*
X0060015Y0035900D01*
X0059400Y0034415D01*
X0059400Y0032585D01*
X0060100Y0030894D01*
X0061394Y0029600D01*
X0063085Y0028900D01*
X0070515Y0028900D01*
X0072206Y0029600D01*
X0073500Y0030894D01*
X0074200Y0032585D01*
X0074200Y0034415D01*
X0073500Y0036106D01*
X0073291Y0036314D01*
X0074004Y0037027D01*
X0074004Y0037027D01*
X0076696Y0039719D01*
X0077552Y0039719D01*
X0078942Y0040295D01*
X0080005Y0041358D01*
X0080581Y0042748D01*
X0080581Y0044252D01*
X0080005Y0045642D01*
X0078942Y0046705D01*
X0077552Y0047281D01*
X0076048Y0047281D01*
X0074658Y0046705D01*
X0073663Y0045711D01*
X0073500Y0046106D01*
X0072206Y0047400D01*
X0070515Y0048100D01*
X0063085Y0048100D01*
X0061394Y0047400D01*
X0060100Y0046106D01*
X0059400Y0044415D01*
X0059400Y0042585D01*
X0060015Y0041100D01*
X0057533Y0041100D01*
X0056577Y0040704D01*
X0055846Y0039973D01*
X0055846Y0039973D01*
X0050327Y0034454D01*
X0049596Y0033723D01*
X0049261Y0032914D01*
X0048939Y0032781D01*
X0047519Y0031361D01*
X0046800Y0029625D01*
X0046081Y0031361D01*
X0044661Y0032781D01*
X0042805Y0033550D01*
X0040795Y0033550D01*
X0038939Y0032781D01*
X0037519Y0031361D01*
X0036750Y0029505D01*
X0036750Y0027495D01*
X0037519Y0025639D01*
X0038939Y0024219D01*
X0040638Y0023515D01*
X0040327Y0023204D01*
X0039596Y0022473D01*
X0039200Y0021517D01*
X0039200Y0020202D01*
X0039194Y0020200D01*
X0037900Y0018906D01*
X0037200Y0017215D01*
X0037200Y0009785D01*
X0037815Y0008300D01*
X0035785Y0008300D01*
X0036400Y0009785D01*
X0036400Y0017215D01*
X0035700Y0018906D01*
X0034406Y0020200D01*
X0032715Y0020900D01*
X0030885Y0020900D01*
X0029194Y0020200D01*
X0027900Y0018906D01*
X0027200Y0017215D01*
X0027200Y0009785D01*
X0027815Y0008300D01*
X0020705Y0008300D01*
X0021409Y0009520D01*
X0022112Y0012142D01*
X0022112Y0014858D01*
X0021409Y0017480D01*
X0020051Y0019832D01*
X0018132Y0021751D01*
X0015780Y0023109D01*
X0013158Y0023812D01*
X0010442Y0023812D01*
X0007820Y0023109D01*
X0006600Y0022405D01*
X0006600Y0154595D01*
X0007820Y0153891D01*
X0010442Y0153188D01*
X0013158Y0153188D01*
X0015780Y0153891D01*
X0018132Y0155248D01*
X0020051Y0157168D01*
X0021409Y0159520D01*
X0022112Y0162142D01*
X0022112Y0164858D01*
X0021409Y0167480D01*
X0020728Y0168661D01*
X0124792Y0168661D01*
X0122438Y0168030D01*
X0119862Y0166542D01*
X0117758Y0164438D01*
X0116270Y0161862D01*
X0115500Y0158988D01*
X0115500Y0156012D01*
X0116270Y0153138D01*
X0117758Y0150562D01*
X0119862Y0148458D01*
X0122438Y0146970D01*
X0125312Y0146200D01*
X0128288Y0146200D01*
X0131162Y0146970D01*
X0133738Y0148458D01*
X0135842Y0150562D01*
X0137330Y0153138D01*
X0138100Y0156012D01*
X0138100Y0158988D01*
X0137330Y0161862D01*
X0135842Y0164438D01*
X0133738Y0166542D01*
X0131162Y0168030D01*
X0128808Y0168661D01*
X0162872Y0168661D01*
X0162191Y0167480D01*
X0161488Y0164858D01*
X0161488Y0162142D01*
X0162191Y0159520D01*
X0163548Y0157168D01*
X0165468Y0155248D01*
X0167820Y0153891D01*
X0170442Y0153188D01*
X0173158Y0153188D01*
X0175701Y0153870D01*
X0175701Y0023130D01*
X0173158Y0023812D01*
X0170442Y0023812D01*
X0167820Y0023109D01*
X0165468Y0021751D01*
X0163548Y0019832D01*
X0162191Y0017480D01*
X0161488Y0014858D01*
X0161488Y0012142D01*
X0162191Y0009520D01*
X0162895Y0008300D01*
X0055785Y0008300D01*
X0056400Y0009785D01*
X0056400Y0016473D01*
X0056577Y0016296D01*
X0057533Y0015900D01*
X0060015Y0015900D01*
X0059400Y0014415D01*
X0059400Y0012585D01*
X0060100Y0010894D01*
X0061394Y0009600D01*
X0063085Y0008900D01*
X0070515Y0008900D01*
X0072206Y0009600D01*
X0073500Y0010894D01*
X0074200Y0012585D01*
X0074200Y0014415D01*
X0073585Y0015900D01*
X0090015Y0015900D01*
X0089400Y0014415D01*
X0089400Y0012585D01*
X0090100Y0010894D01*
X0091394Y0009600D01*
X0093085Y0008900D01*
X0100515Y0008900D01*
X0102206Y0009600D01*
X0103500Y0010894D01*
X0104200Y0012585D01*
X0104200Y0014415D01*
X0103585Y0015900D01*
X0105432Y0015900D01*
X0104800Y0014375D01*
X0104800Y0012625D01*
X0105470Y0011008D01*
X0106708Y0009770D01*
X0108325Y0009100D01*
X0115275Y0009100D01*
X0116892Y0009770D01*
X0118130Y0011008D01*
X0118800Y0012625D01*
X0118800Y0014375D01*
X0118168Y0015900D01*
X0135432Y0015900D01*
X0134800Y0014375D01*
X0134800Y0012625D01*
X0135470Y0011008D01*
X0136708Y0009770D01*
X0138325Y0009100D01*
X0145275Y0009100D01*
X0146892Y0009770D01*
X0148100Y0010977D01*
X0149977Y0009100D01*
X0153623Y0009100D01*
X0156200Y0011677D01*
X0156200Y0015323D01*
X0153623Y0017900D01*
X0149977Y0017900D01*
X0148100Y0016023D01*
X0147957Y0016165D01*
X0148273Y0016296D01*
X0149004Y0017027D01*
X0159004Y0027027D01*
X0159400Y0027983D01*
X0159400Y0045553D01*
X0159658Y0045295D01*
X0161048Y0044719D01*
X0162552Y0044719D01*
X0163942Y0045295D01*
X0165005Y0046358D01*
X0165581Y0047748D01*
X0165581Y0049252D01*
X0165005Y0050642D01*
X0164400Y0051247D01*
X0164400Y0053900D01*
X0170515Y0053900D01*
X0172206Y0054600D01*
X0173500Y0055894D01*
X0174200Y0057585D01*
X0174200Y0059415D01*
X0173500Y0061106D01*
X0172206Y0062400D01*
X0170515Y0063100D01*
X0163085Y0063100D01*
X0161394Y0062400D01*
X0160100Y0061106D01*
X0159447Y0059529D01*
X0159400Y0059577D01*
X0159400Y0072423D01*
X0161524Y0074547D01*
X0163085Y0073900D01*
X0170515Y0073900D01*
X0172206Y0074600D01*
X0173500Y0075894D01*
X0174200Y0077585D01*
X0174200Y0079415D01*
X0173500Y0081106D01*
X0172206Y0082400D01*
X0170515Y0083100D01*
X0170515Y0083900D02*
X0172206Y0084600D01*
X0173500Y0085894D01*
X0174200Y0087585D01*
X0174200Y0089415D01*
X0173500Y0091106D01*
X0172206Y0092400D01*
X0170515Y0093100D01*
X0163085Y0093100D01*
X0161394Y0092400D01*
X0160100Y0091106D01*
X0159400Y0089415D01*
X0159400Y0087585D01*
X0160100Y0085894D01*
X0161394Y0084600D01*
X0163085Y0083900D01*
X0170515Y0083900D01*
X0172629Y0085024D02*
X0175701Y0085024D01*
X0175701Y0083426D02*
X0154400Y0083426D01*
X0154400Y0081827D02*
X0160822Y0081827D01*
X0159737Y0080229D02*
X0154400Y0080229D01*
X0154400Y0078630D02*
X0158253Y0078630D01*
X0156655Y0077032D02*
X0154400Y0077032D01*
X0154400Y0075433D02*
X0155056Y0075433D01*
X0154200Y0072500D02*
X0154200Y0067323D01*
X0153623Y0067900D01*
X0149977Y0067900D01*
X0148100Y0066023D01*
X0147957Y0066165D01*
X0148273Y0066296D01*
X0154004Y0072027D01*
X0154200Y0072500D01*
X0154200Y0072236D02*
X0154091Y0072236D01*
X0154200Y0070637D02*
X0152614Y0070637D01*
X0154200Y0069039D02*
X0151016Y0069039D01*
X0149518Y0067440D02*
X0149417Y0067440D01*
X0146800Y0068500D02*
X0136800Y0068500D01*
X0131800Y0063500D01*
X0131800Y0058500D01*
X0146800Y0058500D01*
X0151800Y0053500D01*
X0156200Y0053054D02*
X0158569Y0053054D01*
X0159200Y0052423D02*
X0159200Y0051447D01*
X0158942Y0051705D01*
X0157552Y0052281D01*
X0156200Y0052281D01*
X0156200Y0055323D01*
X0153623Y0057900D01*
X0151077Y0057900D01*
X0148273Y0060704D01*
X0147957Y0060835D01*
X0148100Y0060977D01*
X0149977Y0059100D01*
X0153623Y0059100D01*
X0154200Y0059677D01*
X0154200Y0057983D01*
X0154596Y0057027D01*
X0155327Y0056296D01*
X0159200Y0052423D01*
X0159192Y0051455D02*
X0159200Y0051455D01*
X0156971Y0054652D02*
X0156200Y0054652D01*
X0155372Y0056251D02*
X0155272Y0056251D01*
X0154255Y0057849D02*
X0153673Y0057849D01*
X0153970Y0059448D02*
X0154200Y0059448D01*
X0149630Y0059448D02*
X0149529Y0059448D01*
X0148100Y0050977D02*
X0149977Y0049100D01*
X0153019Y0049100D01*
X0153019Y0047748D01*
X0153595Y0046358D01*
X0154200Y0045753D01*
X0154200Y0034500D01*
X0154004Y0034973D01*
X0153273Y0035704D01*
X0148273Y0040704D01*
X0147957Y0040835D01*
X0148130Y0041008D01*
X0148800Y0042625D01*
X0148800Y0044375D01*
X0148130Y0045992D01*
X0146892Y0047230D01*
X0145275Y0047900D01*
X0141077Y0047900D01*
X0139877Y0049100D01*
X0145275Y0049100D01*
X0146892Y0049770D01*
X0148100Y0050977D01*
X0146979Y0049857D02*
X0149221Y0049857D01*
X0147463Y0046660D02*
X0153470Y0046660D01*
X0153019Y0048258D02*
X0140719Y0048258D01*
X0135550Y0046073D02*
X0135470Y0045992D01*
X0134800Y0044375D01*
X0134800Y0044177D01*
X0130581Y0048396D01*
X0130581Y0049252D01*
X0130005Y0050642D01*
X0128942Y0051705D01*
X0127552Y0052281D01*
X0126048Y0052281D01*
X0124658Y0051705D01*
X0124400Y0051447D01*
X0124400Y0057500D01*
X0124596Y0057027D01*
X0125327Y0056296D01*
X0135550Y0046073D01*
X0134963Y0046660D02*
X0132317Y0046660D01*
X0133365Y0048258D02*
X0130719Y0048258D01*
X0130331Y0049857D02*
X0131766Y0049857D01*
X0130168Y0051455D02*
X0129192Y0051455D01*
X0128569Y0053054D02*
X0124400Y0053054D01*
X0124400Y0054652D02*
X0126971Y0054652D01*
X0125372Y0056251D02*
X0124400Y0056251D01*
X0126800Y0058500D02*
X0126800Y0063500D01*
X0131800Y0068500D01*
X0131800Y0078500D01*
X0131800Y0083500D01*
X0136800Y0088500D01*
X0141800Y0093500D01*
X0141800Y0118500D01*
X0146800Y0123500D01*
X0161800Y0123500D01*
X0166800Y0118500D01*
X0169918Y0115396D02*
X0175701Y0115396D01*
X0175701Y0116994D02*
X0171200Y0116994D01*
X0171200Y0118593D02*
X0175701Y0118593D01*
X0175701Y0120191D02*
X0171200Y0120191D01*
X0169733Y0121790D02*
X0175701Y0121790D01*
X0175701Y0123388D02*
X0165589Y0123388D01*
X0163990Y0124987D02*
X0175701Y0124987D01*
X0175701Y0126585D02*
X0103020Y0126585D01*
X0103500Y0126106D02*
X0102206Y0127400D01*
X0100515Y0128100D01*
X0093085Y0128100D01*
X0091394Y0127400D01*
X0090100Y0126106D01*
X0089400Y0124415D01*
X0089400Y0122585D01*
X0090100Y0120894D01*
X0091394Y0119600D01*
X0093085Y0118900D01*
X0100515Y0118900D01*
X0102206Y0119600D01*
X0103500Y0120894D01*
X0104200Y0122585D01*
X0104200Y0124415D01*
X0103500Y0126106D01*
X0103963Y0124987D02*
X0144610Y0124987D01*
X0143011Y0123388D02*
X0104200Y0123388D01*
X0103871Y0121790D02*
X0141413Y0121790D01*
X0139814Y0120191D02*
X0102797Y0120191D01*
X0102206Y0117400D02*
X0100515Y0118100D01*
X0093085Y0118100D01*
X0091394Y0117400D01*
X0090100Y0116106D01*
X0089400Y0114415D01*
X0089400Y0112585D01*
X0090100Y0110894D01*
X0091394Y0109600D01*
X0093085Y0108900D01*
X0100515Y0108900D01*
X0102206Y0109600D01*
X0103500Y0110894D01*
X0104200Y0112585D01*
X0104200Y0114415D01*
X0103500Y0116106D01*
X0102206Y0117400D01*
X0102611Y0116994D02*
X0139200Y0116994D01*
X0139200Y0115396D02*
X0103794Y0115396D01*
X0104200Y0113797D02*
X0139200Y0113797D01*
X0139200Y0112199D02*
X0104040Y0112199D01*
X0103206Y0110600D02*
X0139200Y0110600D01*
X0139200Y0109002D02*
X0100761Y0109002D01*
X0102197Y0107403D02*
X0139200Y0107403D01*
X0139200Y0105805D02*
X0109843Y0105805D01*
X0110581Y0104206D02*
X0139200Y0104206D01*
X0139200Y0102608D02*
X0110523Y0102608D01*
X0109656Y0101009D02*
X0139200Y0101009D01*
X0139200Y0099411D02*
X0109566Y0099411D01*
X0111165Y0097812D02*
X0139200Y0097812D01*
X0134129Y0096214D02*
X0129471Y0096214D01*
X0131154Y0094615D02*
X0132446Y0094615D01*
X0124129Y0096214D02*
X0119471Y0096214D01*
X0121154Y0094615D02*
X0122446Y0094615D01*
X0116800Y0088500D02*
X0106800Y0098500D01*
X0106800Y0103500D01*
X0103944Y0101009D02*
X0103547Y0101009D01*
X0104200Y0099411D02*
X0101748Y0099411D01*
X0101210Y0097812D02*
X0104271Y0097812D01*
X0103392Y0096214D02*
X0105409Y0096214D01*
X0103500Y0096106D02*
X0104200Y0094415D01*
X0104200Y0092585D01*
X0103500Y0090894D01*
X0102206Y0089600D01*
X0100515Y0088900D01*
X0093085Y0088900D01*
X0091394Y0089600D01*
X0090100Y0090894D01*
X0089400Y0092585D01*
X0089400Y0094415D01*
X0090100Y0096106D01*
X0091394Y0097400D01*
X0093085Y0098100D01*
X0100515Y0098100D01*
X0102206Y0097400D01*
X0103500Y0096106D01*
X0104117Y0094615D02*
X0107008Y0094615D01*
X0108606Y0093017D02*
X0104200Y0093017D01*
X0104371Y0091418D02*
X0103717Y0091418D01*
X0103254Y0089820D02*
X0102425Y0089820D01*
X0103019Y0088221D02*
X0060756Y0088221D01*
X0060650Y0088327D02*
X0060650Y0090345D01*
X0061394Y0089600D01*
X0063085Y0088900D01*
X0070515Y0088900D01*
X0072206Y0089600D01*
X0073500Y0090894D01*
X0074200Y0092585D01*
X0074200Y0094415D01*
X0073500Y0096106D01*
X0072206Y0097400D01*
X0070515Y0098100D01*
X0063085Y0098100D01*
X0061394Y0097400D01*
X0060650Y0096655D01*
X0060650Y0100345D01*
X0061394Y0099600D01*
X0063085Y0098900D01*
X0070515Y0098900D01*
X0072206Y0099600D01*
X0073500Y0100894D01*
X0074200Y0102585D01*
X0074200Y0104415D01*
X0073500Y0106106D01*
X0072206Y0107400D01*
X0070515Y0108100D01*
X0063085Y0108100D01*
X0061394Y0107400D01*
X0060650Y0106655D01*
X0060650Y0109017D01*
X0060254Y0109973D01*
X0056504Y0113723D01*
X0055773Y0114454D01*
X0054817Y0114850D01*
X0028783Y0114850D01*
X0027827Y0114454D01*
X0025327Y0111954D01*
X0024596Y0111223D01*
X0024200Y0110267D01*
X0024200Y0107889D01*
X0023939Y0107781D01*
X0022519Y0106361D01*
X0021750Y0104505D01*
X0021750Y0102495D01*
X0022519Y0100639D01*
X0023939Y0099219D01*
X0025675Y0098500D01*
X0023939Y0097781D01*
X0022519Y0096361D01*
X0021750Y0094505D01*
X0021750Y0092495D01*
X0022519Y0090639D01*
X0023939Y0089219D01*
X0025433Y0088600D01*
X0022533Y0088600D01*
X0021577Y0088204D01*
X0017827Y0084454D01*
X0017096Y0083723D01*
X0016700Y0082767D01*
X0016700Y0043327D01*
X0014948Y0041575D01*
X0013623Y0042900D01*
X0009977Y0042900D01*
X0007400Y0040323D01*
X0007400Y0036677D01*
X0009977Y0034100D01*
X0013623Y0034100D01*
X0015423Y0035900D01*
X0016067Y0035900D01*
X0017023Y0036296D01*
X0017754Y0037027D01*
X0017754Y0037027D01*
X0020773Y0040046D01*
X0021504Y0040777D01*
X0021900Y0041733D01*
X0021900Y0081173D01*
X0024127Y0083400D01*
X0031067Y0083400D01*
X0032023Y0083796D01*
X0032754Y0084527D01*
X0035254Y0087027D01*
X0035500Y0087621D01*
X0035500Y0087495D01*
X0036269Y0085639D01*
X0037689Y0084219D01*
X0039545Y0083450D01*
X0041555Y0083450D01*
X0043411Y0084219D01*
X0044831Y0085639D01*
X0045550Y0087375D01*
X0046269Y0085639D01*
X0047689Y0084219D01*
X0049545Y0083450D01*
X0051555Y0083450D01*
X0053411Y0084219D01*
X0054831Y0085639D01*
X0055450Y0087133D01*
X0055450Y0086733D01*
X0055846Y0085777D01*
X0056577Y0085046D01*
X0059656Y0081967D01*
X0060100Y0080894D01*
X0061394Y0079600D01*
X0063085Y0078900D01*
X0070515Y0078900D01*
X0072206Y0079600D01*
X0073500Y0080894D01*
X0074200Y0082585D01*
X0074200Y0084415D01*
X0073500Y0086106D01*
X0072206Y0087400D01*
X0070515Y0088100D01*
X0063085Y0088100D01*
X0061524Y0087453D01*
X0060650Y0088327D01*
X0060650Y0089820D02*
X0061175Y0089820D01*
X0058050Y0087250D02*
X0058050Y0108500D01*
X0054300Y0112250D01*
X0029300Y0112250D01*
X0026800Y0109750D01*
X0026800Y0103500D01*
X0030450Y0100008D02*
X0030450Y0096992D01*
X0029661Y0097781D01*
X0027925Y0098500D01*
X0029661Y0099219D01*
X0030450Y0100008D01*
X0030450Y0099411D02*
X0029852Y0099411D01*
X0029586Y0097812D02*
X0030450Y0097812D01*
X0033050Y0101000D02*
X0033050Y0088500D01*
X0030550Y0086000D01*
X0023050Y0086000D01*
X0019300Y0082250D01*
X0019300Y0042250D01*
X0015550Y0038500D01*
X0011800Y0038500D01*
X0014993Y0035470D02*
X0023607Y0035470D01*
X0022400Y0036677D02*
X0024977Y0034100D01*
X0028623Y0034100D01*
X0031200Y0036677D01*
X0031200Y0040323D01*
X0028623Y0042900D01*
X0024977Y0042900D01*
X0022400Y0040323D01*
X0022400Y0036677D01*
X0022400Y0037069D02*
X0017796Y0037069D01*
X0019394Y0038667D02*
X0022400Y0038667D01*
X0022400Y0040266D02*
X0020993Y0040266D01*
X0020773Y0040046D02*
X0020773Y0040046D01*
X0021900Y0041864D02*
X0023942Y0041864D01*
X0021900Y0043463D02*
X0059400Y0043463D01*
X0059668Y0045061D02*
X0048789Y0045061D01*
X0049292Y0045270D02*
X0047675Y0044600D01*
X0045925Y0044600D01*
X0044308Y0045270D01*
X0043070Y0046508D01*
X0042400Y0048125D01*
X0042400Y0049875D01*
X0043070Y0051492D01*
X0044308Y0052730D01*
X0045925Y0053400D01*
X0047675Y0053400D01*
X0049292Y0052730D01*
X0050530Y0051492D01*
X0051200Y0049875D01*
X0051200Y0048125D01*
X0050530Y0046508D01*
X0049292Y0045270D01*
X0050593Y0046660D02*
X0060654Y0046660D01*
X0061394Y0049600D02*
X0063085Y0048900D01*
X0070515Y0048900D01*
X0072206Y0049600D01*
X0073500Y0050894D01*
X0074200Y0052585D01*
X0074200Y0054415D01*
X0073500Y0056106D01*
X0072206Y0057400D01*
X0070515Y0058100D01*
X0063085Y0058100D01*
X0061394Y0057400D01*
X0060100Y0056106D01*
X0059400Y0054415D01*
X0059400Y0052585D01*
X0060100Y0050894D01*
X0061394Y0049600D01*
X0061138Y0049857D02*
X0051200Y0049857D01*
X0051200Y0048258D02*
X0119200Y0048258D01*
X0119200Y0046660D02*
X0117463Y0046660D01*
X0116892Y0047230D02*
X0118130Y0045992D01*
X0118800Y0044375D01*
X0118800Y0042625D01*
X0118130Y0041008D01*
X0116892Y0039770D01*
X0115275Y0039100D01*
X0108325Y0039100D01*
X0106708Y0039770D01*
X0105470Y0041008D01*
X0104800Y0042625D01*
X0104800Y0044375D01*
X0105470Y0045992D01*
X0106708Y0047230D01*
X0108325Y0047900D01*
X0115275Y0047900D01*
X0116892Y0047230D01*
X0115275Y0049100D02*
X0116892Y0049770D01*
X0118130Y0051008D01*
X0118800Y0052625D01*
X0118800Y0054375D01*
X0118130Y0055992D01*
X0116892Y0057230D01*
X0115275Y0057900D01*
X0108325Y0057900D01*
X0106708Y0057230D01*
X0105470Y0055992D01*
X0104800Y0054375D01*
X0104800Y0052625D01*
X0105470Y0051008D01*
X0106708Y0049770D01*
X0108325Y0049100D01*
X0115275Y0049100D01*
X0116979Y0049857D02*
X0119200Y0049857D01*
X0119200Y0051455D02*
X0118316Y0051455D01*
X0118800Y0053054D02*
X0119200Y0053054D01*
X0119200Y0054652D02*
X0118685Y0054652D01*
X0119200Y0056251D02*
X0117872Y0056251D01*
X0119200Y0057849D02*
X0115397Y0057849D01*
X0115275Y0059100D02*
X0116892Y0059770D01*
X0118130Y0061008D01*
X0118800Y0062625D01*
X0118800Y0064375D01*
X0118130Y0065992D01*
X0116892Y0067230D01*
X0115275Y0067900D01*
X0108325Y0067900D01*
X0106708Y0067230D01*
X0105470Y0065992D01*
X0104800Y0064375D01*
X0104800Y0062625D01*
X0105470Y0061008D01*
X0106708Y0059770D01*
X0108325Y0059100D01*
X0115275Y0059100D01*
X0116115Y0059448D02*
X0119200Y0059448D01*
X0119200Y0061046D02*
X0118146Y0061046D01*
X0118800Y0062645D02*
X0119200Y0062645D01*
X0119200Y0064243D02*
X0118800Y0064243D01*
X0119111Y0065842D02*
X0118192Y0065842D01*
X0118146Y0067440D02*
X0116385Y0067440D01*
X0118019Y0069039D02*
X0100850Y0069039D01*
X0100515Y0068900D02*
X0102206Y0069600D01*
X0103500Y0070894D01*
X0104200Y0072585D01*
X0104200Y0074415D01*
X0103500Y0076106D01*
X0102206Y0077400D01*
X0100515Y0078100D01*
X0093085Y0078100D01*
X0091394Y0077400D01*
X0090100Y0076106D01*
X0089400Y0074415D01*
X0089400Y0072585D01*
X0090100Y0070894D01*
X0091394Y0069600D01*
X0093085Y0068900D01*
X0100515Y0068900D01*
X0100515Y0068100D02*
X0102206Y0067400D01*
X0103500Y0066106D01*
X0104200Y0064415D01*
X0104200Y0062585D01*
X0103500Y0060894D01*
X0102206Y0059600D01*
X0100515Y0058900D01*
X0093085Y0058900D01*
X0091394Y0059600D01*
X0090100Y0060894D01*
X0089400Y0062585D01*
X0089400Y0064415D01*
X0090100Y0066106D01*
X0091394Y0067400D01*
X0093085Y0068100D01*
X0100515Y0068100D01*
X0102107Y0067440D02*
X0107215Y0067440D01*
X0105408Y0065842D02*
X0103609Y0065842D01*
X0104200Y0064243D02*
X0104800Y0064243D01*
X0104800Y0062645D02*
X0104200Y0062645D01*
X0103563Y0061046D02*
X0105454Y0061046D01*
X0107485Y0059448D02*
X0101838Y0059448D01*
X0101120Y0057849D02*
X0108203Y0057849D01*
X0105728Y0056251D02*
X0103354Y0056251D01*
X0103500Y0056106D02*
X0102206Y0057400D01*
X0100515Y0058100D01*
X0093085Y0058100D01*
X0091394Y0057400D01*
X0090100Y0056106D01*
X0089400Y0054415D01*
X0089400Y0052585D01*
X0090100Y0050894D01*
X0091394Y0049600D01*
X0093085Y0048900D01*
X0100515Y0048900D01*
X0102206Y0049600D01*
X0103500Y0050894D01*
X0104200Y0052585D01*
X0104200Y0054415D01*
X0103500Y0056106D01*
X0104102Y0054652D02*
X0104915Y0054652D01*
X0104800Y0053054D02*
X0104200Y0053054D01*
X0103732Y0051455D02*
X0105284Y0051455D01*
X0106621Y0049857D02*
X0102462Y0049857D01*
X0102206Y0047400D02*
X0100515Y0048100D01*
X0093085Y0048100D01*
X0091394Y0047400D01*
X0090100Y0046106D01*
X0089400Y0044415D01*
X0089400Y0042585D01*
X0090100Y0040894D01*
X0091394Y0039600D01*
X0093085Y0038900D01*
X0100515Y0038900D01*
X0102206Y0039600D01*
X0103500Y0040894D01*
X0104200Y0042585D01*
X0104200Y0044415D01*
X0103500Y0046106D01*
X0102206Y0047400D01*
X0102946Y0046660D02*
X0106137Y0046660D01*
X0105084Y0045061D02*
X0103932Y0045061D01*
X0104200Y0043463D02*
X0104800Y0043463D01*
X0105115Y0041864D02*
X0103901Y0041864D01*
X0102871Y0040266D02*
X0106212Y0040266D01*
X0106546Y0037069D02*
X0102537Y0037069D01*
X0103763Y0035470D02*
X0105254Y0035470D01*
X0104800Y0033872D02*
X0104200Y0033872D01*
X0104071Y0032273D02*
X0104946Y0032273D01*
X0105432Y0025900D02*
X0103585Y0025900D01*
X0104200Y0024415D01*
X0104200Y0022585D01*
X0103585Y0021100D01*
X0105432Y0021100D01*
X0104800Y0022625D01*
X0104800Y0024375D01*
X0105432Y0025900D01*
X0105423Y0025879D02*
X0103594Y0025879D01*
X0104200Y0024281D02*
X0104800Y0024281D01*
X0104800Y0022682D02*
X0104200Y0022682D01*
X0104086Y0014690D02*
X0104930Y0014690D01*
X0104800Y0013091D02*
X0104200Y0013091D01*
X0103747Y0011493D02*
X0105269Y0011493D01*
X0106583Y0009894D02*
X0102499Y0009894D01*
X0091101Y0009894D02*
X0072499Y0009894D01*
X0073747Y0011493D02*
X0089852Y0011493D01*
X0089400Y0013091D02*
X0074200Y0013091D01*
X0074086Y0014690D02*
X0089514Y0014690D01*
X0089747Y0021100D02*
X0089937Y0021289D01*
X0090015Y0021100D01*
X0089747Y0021100D01*
X0086800Y0023500D02*
X0091800Y0028500D01*
X0116800Y0028500D01*
X0121800Y0033500D01*
X0121800Y0068500D01*
X0121800Y0073500D01*
X0116800Y0078500D01*
X0111800Y0078500D01*
X0106800Y0083500D01*
X0106800Y0088500D01*
X0110346Y0089820D02*
X0111700Y0089820D01*
X0111700Y0088221D02*
X0110581Y0088221D01*
X0110115Y0086623D02*
X0111700Y0086623D01*
X0111700Y0085024D02*
X0109400Y0085024D01*
X0110551Y0083426D02*
X0112015Y0083426D01*
X0112150Y0081827D02*
X0112960Y0081827D01*
X0107993Y0078630D02*
X0080607Y0078630D01*
X0079400Y0077423D02*
X0082877Y0080900D01*
X0084053Y0080900D01*
X0084658Y0080295D01*
X0086048Y0079719D01*
X0087552Y0079719D01*
X0088942Y0080295D01*
X0089937Y0081289D01*
X0090100Y0080894D01*
X0091394Y0079600D01*
X0093085Y0078900D01*
X0100515Y0078900D01*
X0102206Y0079600D01*
X0103500Y0080894D01*
X0104200Y0082585D01*
X0104200Y0084415D01*
X0103500Y0086106D01*
X0102206Y0087400D01*
X0100515Y0088100D01*
X0093085Y0088100D01*
X0091394Y0087400D01*
X0090100Y0086106D01*
X0089937Y0085711D01*
X0088942Y0086705D01*
X0087552Y0087281D01*
X0086048Y0087281D01*
X0084658Y0086705D01*
X0084053Y0086100D01*
X0081283Y0086100D01*
X0080327Y0085704D01*
X0075327Y0080704D01*
X0074596Y0079973D01*
X0074200Y0079017D01*
X0074200Y0071247D01*
X0073595Y0070642D01*
X0073019Y0069252D01*
X0073019Y0067748D01*
X0073595Y0066358D01*
X0074658Y0065295D01*
X0076048Y0064719D01*
X0077552Y0064719D01*
X0078942Y0065295D01*
X0080005Y0066358D01*
X0080581Y0067748D01*
X0080581Y0069252D01*
X0080005Y0070642D01*
X0079400Y0071247D01*
X0079400Y0077423D01*
X0079400Y0077032D02*
X0091026Y0077032D01*
X0089822Y0075433D02*
X0079400Y0075433D01*
X0079400Y0073834D02*
X0089400Y0073834D01*
X0089545Y0072236D02*
X0079400Y0072236D01*
X0080007Y0070637D02*
X0090357Y0070637D01*
X0092749Y0069039D02*
X0080581Y0069039D01*
X0080454Y0067440D02*
X0091493Y0067440D01*
X0089991Y0065842D02*
X0079489Y0065842D01*
X0076800Y0068500D02*
X0076800Y0078500D01*
X0081800Y0083500D01*
X0086800Y0083500D01*
X0084575Y0086623D02*
X0072983Y0086623D01*
X0073948Y0085024D02*
X0079647Y0085024D01*
X0078049Y0083426D02*
X0074200Y0083426D01*
X0073886Y0081827D02*
X0076450Y0081827D01*
X0074852Y0080229D02*
X0072834Y0080229D01*
X0074200Y0078630D02*
X0031200Y0078630D01*
X0031200Y0077032D02*
X0061026Y0077032D01*
X0061394Y0077400D02*
X0060100Y0076106D01*
X0059400Y0074415D01*
X0059400Y0072585D01*
X0060100Y0070894D01*
X0061394Y0069600D01*
X0063085Y0068900D01*
X0070515Y0068900D01*
X0072206Y0069600D01*
X0073500Y0070894D01*
X0074200Y0072585D01*
X0074200Y0074415D01*
X0073500Y0076106D01*
X0072206Y0077400D01*
X0070515Y0078100D01*
X0063085Y0078100D01*
X0061394Y0077400D01*
X0059822Y0075433D02*
X0029956Y0075433D01*
X0031200Y0076677D02*
X0028623Y0074100D01*
X0024977Y0074100D01*
X0022400Y0076677D01*
X0022400Y0080323D01*
X0024977Y0082900D01*
X0028623Y0082900D01*
X0031200Y0080323D01*
X0031200Y0076677D01*
X0031200Y0080229D02*
X0060766Y0080229D01*
X0059714Y0081827D02*
X0029695Y0081827D01*
X0031129Y0083426D02*
X0058197Y0083426D01*
X0056599Y0085024D02*
X0054216Y0085024D01*
X0055238Y0086623D02*
X0055496Y0086623D01*
X0058050Y0087250D02*
X0061800Y0083500D01*
X0066800Y0083500D01*
X0072425Y0089820D02*
X0091175Y0089820D01*
X0089883Y0091418D02*
X0073717Y0091418D01*
X0074200Y0093017D02*
X0089400Y0093017D01*
X0089483Y0094615D02*
X0074117Y0094615D01*
X0073392Y0096214D02*
X0090208Y0096214D01*
X0092390Y0097812D02*
X0071210Y0097812D01*
X0071748Y0099411D02*
X0091852Y0099411D01*
X0090053Y0101009D02*
X0073547Y0101009D01*
X0074200Y0102608D02*
X0089400Y0102608D01*
X0089400Y0104206D02*
X0074200Y0104206D01*
X0073624Y0105805D02*
X0089976Y0105805D01*
X0091403Y0107403D02*
X0072197Y0107403D01*
X0070761Y0109002D02*
X0092839Y0109002D01*
X0090394Y0110600D02*
X0073206Y0110600D01*
X0073500Y0110894D02*
X0074200Y0112585D01*
X0074200Y0114415D01*
X0073500Y0116106D01*
X0072206Y0117400D01*
X0070515Y0118100D01*
X0063085Y0118100D01*
X0061394Y0117400D01*
X0060100Y0116106D01*
X0059400Y0114415D01*
X0059400Y0112585D01*
X0060100Y0110894D01*
X0061394Y0109600D01*
X0063085Y0108900D01*
X0070515Y0108900D01*
X0072206Y0109600D01*
X0073500Y0110894D01*
X0074040Y0112199D02*
X0089560Y0112199D01*
X0089400Y0113797D02*
X0074200Y0113797D01*
X0073794Y0115396D02*
X0089806Y0115396D01*
X0090989Y0116994D02*
X0072611Y0116994D01*
X0072206Y0119600D02*
X0073500Y0120894D01*
X0074200Y0122585D01*
X0074200Y0124415D01*
X0073500Y0126106D01*
X0072206Y0127400D01*
X0070515Y0128100D01*
X0063085Y0128100D01*
X0061394Y0127400D01*
X0060100Y0126106D01*
X0059400Y0124415D01*
X0059400Y0122585D01*
X0060100Y0120894D01*
X0061394Y0119600D01*
X0063085Y0118900D01*
X0070515Y0118900D01*
X0072206Y0119600D01*
X0072797Y0120191D02*
X0090803Y0120191D01*
X0089729Y0121790D02*
X0073871Y0121790D01*
X0074200Y0123388D02*
X0089400Y0123388D01*
X0089637Y0124987D02*
X0073963Y0124987D01*
X0073020Y0126585D02*
X0090580Y0126585D01*
X0091394Y0129600D02*
X0093085Y0128900D01*
X0100515Y0128900D01*
X0102206Y0129600D01*
X0103500Y0130894D01*
X0104200Y0132585D01*
X0104200Y0134415D01*
X0103500Y0136106D01*
X0102206Y0137400D01*
X0100515Y0138100D01*
X0093085Y0138100D01*
X0091394Y0137400D01*
X0090100Y0136106D01*
X0089400Y0134415D01*
X0089400Y0132585D01*
X0090100Y0130894D01*
X0091394Y0129600D01*
X0091212Y0129782D02*
X0072388Y0129782D01*
X0072206Y0129600D02*
X0073500Y0130894D01*
X0074200Y0132585D01*
X0074200Y0134415D01*
X0073500Y0136106D01*
X0072206Y0137400D01*
X0070515Y0138100D01*
X0063085Y0138100D01*
X0061394Y0137400D01*
X0060100Y0136106D01*
X0059400Y0134415D01*
X0059400Y0132585D01*
X0060100Y0130894D01*
X0061394Y0129600D01*
X0063085Y0128900D01*
X0070515Y0128900D01*
X0072206Y0129600D01*
X0073701Y0131381D02*
X0089899Y0131381D01*
X0089400Y0132979D02*
X0074200Y0132979D01*
X0074133Y0134578D02*
X0089467Y0134578D01*
X0090171Y0136176D02*
X0073429Y0136176D01*
X0071300Y0137775D02*
X0092300Y0137775D01*
X0093085Y0138900D02*
X0091394Y0139600D01*
X0090100Y0140894D01*
X0089400Y0142585D01*
X0089400Y0144415D01*
X0090100Y0146106D01*
X0091394Y0147400D01*
X0093085Y0148100D01*
X0100515Y0148100D01*
X0102206Y0147400D01*
X0103500Y0146106D01*
X0104200Y0144415D01*
X0104200Y0142585D01*
X0103500Y0140894D01*
X0102206Y0139600D01*
X0100515Y0138900D01*
X0093085Y0138900D01*
X0091942Y0139373D02*
X0071658Y0139373D01*
X0072206Y0139600D02*
X0073500Y0140894D01*
X0074200Y0142585D01*
X0074200Y0144415D01*
X0073585Y0145900D01*
X0078019Y0145900D01*
X0078019Y0145773D01*
X0079073Y0144719D01*
X0084527Y0144719D01*
X0085581Y0145773D01*
X0085581Y0150900D01*
X0094053Y0150900D01*
X0094658Y0150295D01*
X0096048Y0149719D01*
X0097552Y0149719D01*
X0098942Y0150295D01*
X0100005Y0151358D01*
X0100581Y0152748D01*
X0100581Y0154252D01*
X0100005Y0155642D01*
X0098942Y0156705D01*
X0097552Y0157281D01*
X0096048Y0157281D01*
X0094658Y0156705D01*
X0094053Y0156100D01*
X0057877Y0156100D01*
X0054004Y0159973D01*
X0053273Y0160704D01*
X0052317Y0161100D01*
X0040423Y0161100D01*
X0038623Y0162900D01*
X0034977Y0162900D01*
X0032400Y0160323D01*
X0032400Y0156677D01*
X0034977Y0154100D01*
X0038623Y0154100D01*
X0040423Y0155900D01*
X0050723Y0155900D01*
X0054342Y0152281D01*
X0054073Y0152281D01*
X0053019Y0151227D01*
X0053019Y0145773D01*
X0054073Y0144719D01*
X0059526Y0144719D01*
X0059400Y0144415D01*
X0059400Y0142585D01*
X0060100Y0140894D01*
X0061394Y0139600D01*
X0063085Y0138900D01*
X0070515Y0138900D01*
X0072206Y0139600D01*
X0073532Y0140972D02*
X0090068Y0140972D01*
X0089406Y0142570D02*
X0074194Y0142570D01*
X0074200Y0144169D02*
X0089400Y0144169D01*
X0089960Y0145768D02*
X0085575Y0145768D01*
X0085581Y0147366D02*
X0091361Y0147366D01*
X0094390Y0150563D02*
X0085581Y0150563D01*
X0085581Y0148965D02*
X0119355Y0148965D01*
X0117757Y0150563D02*
X0099210Y0150563D01*
X0100338Y0152162D02*
X0116834Y0152162D01*
X0116103Y0153760D02*
X0100581Y0153760D01*
X0100123Y0155359D02*
X0115675Y0155359D01*
X0115500Y0156957D02*
X0098334Y0156957D01*
X0099977Y0159100D02*
X0103623Y0159100D01*
X0106200Y0161677D01*
X0106200Y0165323D01*
X0103623Y0167900D01*
X0099977Y0167900D01*
X0097400Y0165323D01*
X0097400Y0161677D01*
X0099977Y0159100D01*
X0098923Y0160154D02*
X0064677Y0160154D01*
X0063623Y0159100D02*
X0066200Y0161677D01*
X0066200Y0165323D01*
X0063623Y0167900D01*
X0059977Y0167900D01*
X0057400Y0165323D01*
X0057400Y0161677D01*
X0059977Y0159100D01*
X0063623Y0159100D01*
X0066200Y0161753D02*
X0097400Y0161753D01*
X0097400Y0163351D02*
X0066200Y0163351D01*
X0066200Y0164950D02*
X0097400Y0164950D01*
X0098626Y0166548D02*
X0064974Y0166548D01*
X0058626Y0166548D02*
X0021659Y0166548D01*
X0022087Y0164950D02*
X0057400Y0164950D01*
X0057400Y0163351D02*
X0022112Y0163351D01*
X0022007Y0161753D02*
X0033830Y0161753D01*
X0032400Y0160154D02*
X0021579Y0160154D01*
X0020852Y0158556D02*
X0032400Y0158556D01*
X0032400Y0156957D02*
X0019840Y0156957D01*
X0018242Y0155359D02*
X0033719Y0155359D01*
X0036800Y0158500D02*
X0051800Y0158500D01*
X0056800Y0153500D01*
X0096800Y0153500D01*
X0095266Y0156957D02*
X0057020Y0156957D01*
X0055421Y0158556D02*
X0115500Y0158556D01*
X0115813Y0160154D02*
X0104677Y0160154D01*
X0106200Y0161753D02*
X0116241Y0161753D01*
X0117130Y0163351D02*
X0106200Y0163351D01*
X0106200Y0164950D02*
X0118269Y0164950D01*
X0119872Y0166548D02*
X0104974Y0166548D01*
X0122874Y0168147D02*
X0021024Y0168147D01*
X0015292Y0153760D02*
X0052863Y0153760D01*
X0053954Y0152162D02*
X0049361Y0152162D01*
X0048623Y0152900D02*
X0044977Y0152900D01*
X0042400Y0150323D01*
X0042400Y0146677D01*
X0044977Y0144100D01*
X0048623Y0144100D01*
X0051200Y0146677D01*
X0051200Y0150323D01*
X0048623Y0152900D01*
X0050959Y0150563D02*
X0053019Y0150563D01*
X0053019Y0148965D02*
X0051200Y0148965D01*
X0051200Y0147366D02*
X0053019Y0147366D01*
X0053025Y0145768D02*
X0050290Y0145768D01*
X0048692Y0144169D02*
X0059400Y0144169D01*
X0059406Y0142570D02*
X0006600Y0142570D01*
X0006600Y0140972D02*
X0060068Y0140972D01*
X0061942Y0139373D02*
X0006600Y0139373D01*
X0006600Y0137775D02*
X0062300Y0137775D01*
X0060171Y0136176D02*
X0006600Y0136176D01*
X0006600Y0134578D02*
X0059467Y0134578D01*
X0059400Y0132979D02*
X0006600Y0132979D01*
X0006600Y0131381D02*
X0059899Y0131381D01*
X0061212Y0129782D02*
X0006600Y0129782D01*
X0006600Y0128184D02*
X0175701Y0128184D01*
X0175701Y0129782D02*
X0102388Y0129782D01*
X0103701Y0131381D02*
X0175701Y0131381D01*
X0175701Y0132979D02*
X0104200Y0132979D01*
X0104133Y0134578D02*
X0175701Y0134578D01*
X0175701Y0136176D02*
X0174824Y0136176D01*
X0175005Y0136358D02*
X0175581Y0137748D01*
X0175581Y0139252D01*
X0175005Y0140642D01*
X0173942Y0141705D01*
X0172552Y0142281D01*
X0171200Y0142281D01*
X0171200Y0145323D01*
X0168623Y0147900D01*
X0164977Y0147900D01*
X0162400Y0145323D01*
X0162400Y0141677D01*
X0162977Y0141100D01*
X0160623Y0141100D01*
X0161200Y0141677D01*
X0161200Y0145323D01*
X0158623Y0147900D01*
X0154977Y0147900D01*
X0152400Y0145323D01*
X0152400Y0141677D01*
X0152977Y0141100D01*
X0139547Y0141100D01*
X0138942Y0141705D01*
X0137552Y0142281D01*
X0136048Y0142281D01*
X0134658Y0141705D01*
X0133595Y0140642D01*
X0133019Y0139252D01*
X0133019Y0137748D01*
X0133595Y0136358D01*
X0134658Y0135295D01*
X0136048Y0134719D01*
X0137552Y0134719D01*
X0138942Y0135295D01*
X0139547Y0135900D01*
X0169053Y0135900D01*
X0169658Y0135295D01*
X0171048Y0134719D01*
X0172552Y0134719D01*
X0173942Y0135295D01*
X0175005Y0136358D01*
X0175581Y0137775D02*
X0175701Y0137775D01*
X0175701Y0139373D02*
X0175531Y0139373D01*
X0175701Y0140972D02*
X0174675Y0140972D01*
X0175701Y0142570D02*
X0171200Y0142570D01*
X0171200Y0144169D02*
X0175701Y0144169D01*
X0175701Y0145768D02*
X0170755Y0145768D01*
X0169156Y0147366D02*
X0175701Y0147366D01*
X0175701Y0148965D02*
X0134245Y0148965D01*
X0135843Y0150563D02*
X0175701Y0150563D01*
X0175701Y0152162D02*
X0136766Y0152162D01*
X0137496Y0153760D02*
X0168308Y0153760D01*
X0165358Y0155359D02*
X0137925Y0155359D01*
X0138100Y0156957D02*
X0163760Y0156957D01*
X0162748Y0158556D02*
X0138100Y0158556D01*
X0137787Y0160154D02*
X0162021Y0160154D01*
X0161593Y0161753D02*
X0137359Y0161753D01*
X0136470Y0163351D02*
X0161488Y0163351D01*
X0161513Y0164950D02*
X0135331Y0164950D01*
X0133728Y0166548D02*
X0161941Y0166548D01*
X0162576Y0168147D02*
X0130726Y0168147D01*
X0131847Y0147366D02*
X0154443Y0147366D01*
X0152845Y0145768D02*
X0103640Y0145768D01*
X0104200Y0144169D02*
X0152400Y0144169D01*
X0152400Y0142570D02*
X0104194Y0142570D01*
X0103532Y0140972D02*
X0133925Y0140972D01*
X0133069Y0139373D02*
X0101658Y0139373D01*
X0101300Y0137775D02*
X0133019Y0137775D01*
X0133776Y0136176D02*
X0103429Y0136176D01*
X0102239Y0147366D02*
X0121753Y0147366D01*
X0136800Y0138500D02*
X0171800Y0138500D01*
X0162400Y0142570D02*
X0161200Y0142570D01*
X0161200Y0144169D02*
X0162400Y0144169D01*
X0162845Y0145768D02*
X0160755Y0145768D01*
X0159156Y0147366D02*
X0164443Y0147366D01*
X0175292Y0153760D02*
X0175701Y0153760D01*
X0161432Y0120191D02*
X0161200Y0120191D01*
X0161200Y0118593D02*
X0162400Y0118593D01*
X0162400Y0116994D02*
X0161200Y0116994D01*
X0159918Y0115396D02*
X0163682Y0115396D01*
X0160023Y0110600D02*
X0175701Y0110600D01*
X0175701Y0109002D02*
X0160581Y0109002D01*
X0160438Y0107403D02*
X0175701Y0107403D01*
X0175701Y0105805D02*
X0159452Y0105805D01*
X0156200Y0104206D02*
X0175701Y0104206D01*
X0175701Y0102608D02*
X0171703Y0102608D01*
X0172206Y0102400D02*
X0170515Y0103100D01*
X0163085Y0103100D01*
X0161394Y0102400D01*
X0160100Y0101106D01*
X0159400Y0099415D01*
X0159400Y0097585D01*
X0160100Y0095894D01*
X0161394Y0094600D01*
X0163085Y0093900D01*
X0170515Y0093900D01*
X0172206Y0094600D01*
X0173500Y0095894D01*
X0174200Y0097585D01*
X0174200Y0099415D01*
X0173500Y0101106D01*
X0172206Y0102400D01*
X0173540Y0101009D02*
X0175701Y0101009D01*
X0175701Y0099411D02*
X0174200Y0099411D01*
X0174200Y0097812D02*
X0175701Y0097812D01*
X0175701Y0096214D02*
X0173632Y0096214D01*
X0172221Y0094615D02*
X0175701Y0094615D01*
X0175701Y0093017D02*
X0170716Y0093017D01*
X0173187Y0091418D02*
X0175701Y0091418D01*
X0175701Y0089820D02*
X0174032Y0089820D01*
X0174200Y0088221D02*
X0175701Y0088221D01*
X0175701Y0086623D02*
X0173801Y0086623D01*
X0172778Y0081827D02*
X0175701Y0081827D01*
X0175701Y0080229D02*
X0173863Y0080229D01*
X0174200Y0078630D02*
X0175701Y0078630D01*
X0175701Y0077032D02*
X0173971Y0077032D01*
X0173038Y0075433D02*
X0175701Y0075433D01*
X0175701Y0073834D02*
X0160811Y0073834D01*
X0161394Y0072400D02*
X0160100Y0071106D01*
X0159400Y0069415D01*
X0159400Y0067585D01*
X0160100Y0065894D01*
X0161394Y0064600D01*
X0163085Y0063900D01*
X0170515Y0063900D01*
X0172206Y0064600D01*
X0173500Y0065894D01*
X0174200Y0067585D01*
X0174200Y0069415D01*
X0173500Y0071106D01*
X0172206Y0072400D01*
X0170515Y0073100D01*
X0163085Y0073100D01*
X0161394Y0072400D01*
X0161231Y0072236D02*
X0159400Y0072236D01*
X0159400Y0070637D02*
X0159906Y0070637D01*
X0159400Y0069039D02*
X0159400Y0069039D01*
X0159400Y0067440D02*
X0159460Y0067440D01*
X0159400Y0065842D02*
X0160153Y0065842D01*
X0159400Y0064243D02*
X0162256Y0064243D01*
X0161986Y0062645D02*
X0159400Y0062645D01*
X0159400Y0061046D02*
X0160076Y0061046D01*
X0154200Y0067440D02*
X0154082Y0067440D01*
X0151800Y0073500D02*
X0146800Y0068500D01*
X0148800Y0074177D02*
X0148800Y0074375D01*
X0148130Y0075992D01*
X0146892Y0077230D01*
X0145275Y0077900D01*
X0138325Y0077900D01*
X0136708Y0077230D01*
X0135470Y0075992D01*
X0134800Y0074375D01*
X0134800Y0072625D01*
X0135470Y0071008D01*
X0135643Y0070835D01*
X0135327Y0070704D01*
X0134400Y0069777D01*
X0134400Y0075753D01*
X0135005Y0076358D01*
X0135581Y0077748D01*
X0135581Y0079252D01*
X0135115Y0080378D01*
X0135786Y0080100D01*
X0137814Y0080100D01*
X0139689Y0080876D01*
X0141124Y0082311D01*
X0141900Y0084186D01*
X0141900Y0089923D01*
X0143273Y0091296D01*
X0144004Y0092027D01*
X0144200Y0092500D01*
X0144200Y0087983D01*
X0144596Y0087027D01*
X0149200Y0082423D01*
X0149200Y0074577D01*
X0148800Y0074177D01*
X0149200Y0075433D02*
X0148362Y0075433D01*
X0149200Y0077032D02*
X0147091Y0077032D01*
X0149200Y0078630D02*
X0135581Y0078630D01*
X0135475Y0080229D02*
X0135177Y0080229D01*
X0138125Y0080229D02*
X0149200Y0080229D01*
X0149200Y0081827D02*
X0140640Y0081827D01*
X0141585Y0083426D02*
X0148197Y0083426D01*
X0146599Y0085024D02*
X0141900Y0085024D01*
X0141900Y0086623D02*
X0145000Y0086623D01*
X0144200Y0088221D02*
X0141900Y0088221D01*
X0141900Y0089820D02*
X0144200Y0089820D01*
X0144200Y0091418D02*
X0143395Y0091418D01*
X0146800Y0088500D02*
X0151800Y0083500D01*
X0151800Y0073500D01*
X0153953Y0085024D02*
X0160971Y0085024D01*
X0159799Y0086623D02*
X0152354Y0086623D01*
X0150756Y0088221D02*
X0159400Y0088221D01*
X0159568Y0089820D02*
X0149400Y0089820D01*
X0149400Y0091418D02*
X0160413Y0091418D01*
X0162884Y0093017D02*
X0149400Y0093017D01*
X0149400Y0094615D02*
X0161379Y0094615D01*
X0159968Y0096214D02*
X0149400Y0096214D01*
X0149400Y0097812D02*
X0159400Y0097812D01*
X0159400Y0099411D02*
X0153933Y0099411D01*
X0155532Y0101009D02*
X0160060Y0101009D01*
X0161897Y0102608D02*
X0156200Y0102608D01*
X0149667Y0099411D02*
X0149400Y0099411D01*
X0146800Y0108500D02*
X0146800Y0088500D01*
X0136509Y0077032D02*
X0135284Y0077032D01*
X0135238Y0075433D02*
X0134400Y0075433D01*
X0134400Y0073834D02*
X0134800Y0073834D01*
X0134961Y0072236D02*
X0134400Y0072236D01*
X0134400Y0070637D02*
X0135261Y0070637D01*
X0129200Y0070637D02*
X0125007Y0070637D01*
X0125005Y0070642D02*
X0124400Y0071247D01*
X0124400Y0074017D01*
X0124004Y0074973D01*
X0119004Y0079973D01*
X0118566Y0080411D01*
X0119689Y0080876D01*
X0121124Y0082311D01*
X0121800Y0083944D01*
X0122476Y0082311D01*
X0123911Y0080876D01*
X0125786Y0080100D01*
X0127814Y0080100D01*
X0128485Y0080378D01*
X0128019Y0079252D01*
X0128019Y0077748D01*
X0128595Y0076358D01*
X0129200Y0075753D01*
X0129200Y0069577D01*
X0125327Y0065704D01*
X0124596Y0064973D01*
X0124400Y0064500D01*
X0124400Y0065753D01*
X0125005Y0066358D01*
X0125581Y0067748D01*
X0125581Y0069252D01*
X0125005Y0070642D01*
X0125581Y0069039D02*
X0128662Y0069039D01*
X0127064Y0067440D02*
X0125454Y0067440D01*
X0125465Y0065842D02*
X0124489Y0065842D01*
X0124400Y0072236D02*
X0129200Y0072236D01*
X0129200Y0073834D02*
X0124400Y0073834D01*
X0123544Y0075433D02*
X0129200Y0075433D01*
X0128316Y0077032D02*
X0121945Y0077032D01*
X0120347Y0078630D02*
X0128019Y0078630D01*
X0128125Y0080229D02*
X0128423Y0080229D01*
X0125475Y0080229D02*
X0118748Y0080229D01*
X0120640Y0081827D02*
X0122960Y0081827D01*
X0122015Y0083426D02*
X0121585Y0083426D01*
X0110205Y0091418D02*
X0109229Y0091418D01*
X0112763Y0096214D02*
X0114129Y0096214D01*
X0103757Y0105805D02*
X0103624Y0105805D01*
X0103485Y0086623D02*
X0102983Y0086623D01*
X0103948Y0085024D02*
X0104200Y0085024D01*
X0104200Y0083426D02*
X0104200Y0083426D01*
X0103886Y0081827D02*
X0104796Y0081827D01*
X0106395Y0080229D02*
X0102834Y0080229D01*
X0102574Y0077032D02*
X0106509Y0077032D01*
X0105238Y0075433D02*
X0103778Y0075433D01*
X0104200Y0073834D02*
X0104800Y0073834D01*
X0104961Y0072236D02*
X0104055Y0072236D01*
X0103243Y0070637D02*
X0105840Y0070637D01*
X0117760Y0070637D02*
X0118593Y0070637D01*
X0118639Y0072236D02*
X0119200Y0072236D01*
X0126800Y0058500D02*
X0141800Y0043500D01*
X0148485Y0041864D02*
X0154200Y0041864D01*
X0154200Y0040266D02*
X0148711Y0040266D01*
X0150310Y0038667D02*
X0154200Y0038667D01*
X0154200Y0037069D02*
X0151908Y0037069D01*
X0153507Y0035470D02*
X0154200Y0035470D01*
X0151800Y0033500D02*
X0151800Y0028500D01*
X0146800Y0023500D01*
X0141800Y0023500D01*
X0138325Y0027900D02*
X0136708Y0027230D01*
X0135470Y0025992D01*
X0134800Y0024375D01*
X0134800Y0022625D01*
X0135432Y0021100D01*
X0127800Y0021100D01*
X0128273Y0021296D01*
X0131696Y0024719D01*
X0132552Y0024719D01*
X0133942Y0025295D01*
X0135005Y0026358D01*
X0135581Y0027748D01*
X0135581Y0029252D01*
X0135005Y0030642D01*
X0133942Y0031705D01*
X0132552Y0032281D01*
X0131048Y0032281D01*
X0129658Y0031705D01*
X0128595Y0030642D01*
X0128019Y0029252D01*
X0128019Y0028396D01*
X0125723Y0026100D01*
X0124547Y0026100D01*
X0123942Y0026705D01*
X0122552Y0027281D01*
X0121048Y0027281D01*
X0119658Y0026705D01*
X0118595Y0025642D01*
X0118435Y0025257D01*
X0118130Y0025992D01*
X0117957Y0026165D01*
X0118273Y0026296D01*
X0123273Y0031296D01*
X0124004Y0032027D01*
X0124400Y0032983D01*
X0124400Y0045553D01*
X0124658Y0045295D01*
X0126048Y0044719D01*
X0126904Y0044719D01*
X0135327Y0036296D01*
X0135643Y0036165D01*
X0135470Y0035992D01*
X0134800Y0034375D01*
X0134800Y0032625D01*
X0135470Y0031008D01*
X0136708Y0029770D01*
X0138325Y0029100D01*
X0145275Y0029100D01*
X0146892Y0029770D01*
X0148130Y0031008D01*
X0148800Y0032625D01*
X0148800Y0032823D01*
X0149200Y0032423D01*
X0149200Y0029577D01*
X0146865Y0027242D01*
X0145275Y0027900D01*
X0138325Y0027900D01*
X0137305Y0027478D02*
X0135469Y0027478D01*
X0135423Y0025879D02*
X0134526Y0025879D01*
X0134800Y0024281D02*
X0131258Y0024281D01*
X0129659Y0022682D02*
X0134800Y0022682D01*
X0135581Y0029076D02*
X0148699Y0029076D01*
X0149200Y0030675D02*
X0147797Y0030675D01*
X0148654Y0032273D02*
X0149200Y0032273D01*
X0151800Y0033500D02*
X0146800Y0038500D01*
X0136800Y0038500D01*
X0126800Y0048500D01*
X0125221Y0045061D02*
X0124400Y0045061D01*
X0124400Y0043463D02*
X0128160Y0043463D01*
X0129759Y0041864D02*
X0124400Y0041864D01*
X0124400Y0040266D02*
X0131357Y0040266D01*
X0132956Y0038667D02*
X0124400Y0038667D01*
X0124400Y0037069D02*
X0134554Y0037069D01*
X0135254Y0035470D02*
X0124400Y0035470D01*
X0124400Y0033872D02*
X0134800Y0033872D01*
X0134946Y0032273D02*
X0132571Y0032273D01*
X0131029Y0032273D02*
X0124106Y0032273D01*
X0122652Y0030675D02*
X0128627Y0030675D01*
X0128019Y0029076D02*
X0121053Y0029076D01*
X0119455Y0027478D02*
X0127101Y0027478D01*
X0126800Y0023500D02*
X0121800Y0023500D01*
X0118435Y0021743D02*
X0118168Y0021100D01*
X0118853Y0021100D01*
X0118595Y0021358D01*
X0118435Y0021743D01*
X0118177Y0025879D02*
X0118832Y0025879D01*
X0126800Y0023500D02*
X0131800Y0028500D01*
X0134973Y0030675D02*
X0135803Y0030675D01*
X0146295Y0027478D02*
X0147101Y0027478D01*
X0153061Y0021084D02*
X0164801Y0021084D01*
X0163348Y0019485D02*
X0151462Y0019485D01*
X0149964Y0017887D02*
X0149864Y0017887D01*
X0148366Y0016288D02*
X0148254Y0016288D01*
X0146800Y0018500D02*
X0058050Y0018500D01*
X0054300Y0022250D01*
X0043050Y0022250D01*
X0041800Y0021000D01*
X0041800Y0013500D01*
X0046400Y0013091D02*
X0047200Y0013091D01*
X0047200Y0011493D02*
X0046400Y0011493D01*
X0046400Y0009894D02*
X0047200Y0009894D01*
X0047200Y0009785D02*
X0047815Y0008300D01*
X0045785Y0008300D01*
X0046400Y0009785D01*
X0046400Y0017215D01*
X0045700Y0018906D01*
X0044955Y0019650D01*
X0048645Y0019650D01*
X0047900Y0018906D01*
X0047200Y0017215D01*
X0047200Y0009785D01*
X0047200Y0014690D02*
X0046400Y0014690D01*
X0046400Y0016288D02*
X0047200Y0016288D01*
X0047478Y0017887D02*
X0046122Y0017887D01*
X0045120Y0019485D02*
X0048480Y0019485D01*
X0048308Y0024850D02*
X0045292Y0024850D01*
X0046081Y0025639D01*
X0046800Y0027375D01*
X0047519Y0025639D01*
X0048308Y0024850D01*
X0047420Y0025879D02*
X0046180Y0025879D01*
X0046365Y0030675D02*
X0047235Y0030675D01*
X0048431Y0032273D02*
X0045169Y0032273D01*
X0049745Y0033872D02*
X0006600Y0033872D01*
X0006600Y0035470D02*
X0008607Y0035470D01*
X0007400Y0037069D02*
X0006600Y0037069D01*
X0006600Y0038667D02*
X0007400Y0038667D01*
X0007400Y0040266D02*
X0006600Y0040266D01*
X0006600Y0041864D02*
X0008942Y0041864D01*
X0006600Y0043463D02*
X0016700Y0043463D01*
X0016700Y0045061D02*
X0006600Y0045061D01*
X0006600Y0046660D02*
X0016700Y0046660D01*
X0016700Y0048258D02*
X0006600Y0048258D01*
X0006600Y0049857D02*
X0016700Y0049857D01*
X0016700Y0051455D02*
X0006600Y0051455D01*
X0006600Y0053054D02*
X0016700Y0053054D01*
X0016700Y0054652D02*
X0006600Y0054652D01*
X0006600Y0056251D02*
X0016700Y0056251D01*
X0016700Y0057849D02*
X0006600Y0057849D01*
X0006600Y0059448D02*
X0016700Y0059448D01*
X0016700Y0061046D02*
X0006600Y0061046D01*
X0006600Y0062645D02*
X0016700Y0062645D01*
X0016700Y0064243D02*
X0006600Y0064243D01*
X0006600Y0065842D02*
X0016700Y0065842D01*
X0016700Y0067440D02*
X0006600Y0067440D01*
X0006600Y0069039D02*
X0016700Y0069039D01*
X0016700Y0070637D02*
X0006600Y0070637D01*
X0006600Y0072236D02*
X0016700Y0072236D01*
X0016700Y0073834D02*
X0006600Y0073834D01*
X0006600Y0075433D02*
X0008644Y0075433D01*
X0007400Y0076677D02*
X0009977Y0074100D01*
X0013623Y0074100D01*
X0016200Y0076677D01*
X0016200Y0080323D01*
X0013623Y0082900D01*
X0009977Y0082900D01*
X0007400Y0080323D01*
X0007400Y0076677D01*
X0007400Y0077032D02*
X0006600Y0077032D01*
X0006600Y0078630D02*
X0007400Y0078630D01*
X0007400Y0080229D02*
X0006600Y0080229D01*
X0006600Y0081827D02*
X0008905Y0081827D01*
X0006600Y0083426D02*
X0016973Y0083426D01*
X0016700Y0081827D02*
X0014695Y0081827D01*
X0016200Y0080229D02*
X0016700Y0080229D01*
X0016700Y0078630D02*
X0016200Y0078630D01*
X0016200Y0077032D02*
X0016700Y0077032D01*
X0016700Y0075433D02*
X0014956Y0075433D01*
X0021900Y0075433D02*
X0023644Y0075433D01*
X0022400Y0077032D02*
X0021900Y0077032D01*
X0021900Y0078630D02*
X0022400Y0078630D01*
X0022400Y0080229D02*
X0021900Y0080229D01*
X0022554Y0081827D02*
X0023905Y0081827D01*
X0019996Y0086623D02*
X0006600Y0086623D01*
X0006600Y0088221D02*
X0021618Y0088221D01*
X0023339Y0089820D02*
X0006600Y0089820D01*
X0006600Y0091418D02*
X0022196Y0091418D01*
X0021750Y0093017D02*
X0006600Y0093017D01*
X0006600Y0094615D02*
X0021796Y0094615D01*
X0022458Y0096214D02*
X0006600Y0096214D01*
X0006600Y0097812D02*
X0024014Y0097812D01*
X0023748Y0099411D02*
X0006600Y0099411D01*
X0006600Y0101009D02*
X0022366Y0101009D01*
X0021750Y0102608D02*
X0006600Y0102608D01*
X0006600Y0104206D02*
X0021750Y0104206D01*
X0022289Y0105805D02*
X0006600Y0105805D01*
X0006600Y0107403D02*
X0023561Y0107403D01*
X0024200Y0109002D02*
X0006600Y0109002D01*
X0006600Y0110600D02*
X0024338Y0110600D01*
X0025572Y0112199D02*
X0006600Y0112199D01*
X0006600Y0113797D02*
X0027170Y0113797D01*
X0030377Y0109650D02*
X0053223Y0109650D01*
X0055450Y0107423D01*
X0055450Y0104867D01*
X0054831Y0106361D01*
X0053411Y0107781D01*
X0051555Y0108550D01*
X0049545Y0108550D01*
X0047689Y0107781D01*
X0046269Y0106361D01*
X0045550Y0104625D01*
X0044831Y0106361D01*
X0043411Y0107781D01*
X0041555Y0108550D01*
X0039545Y0108550D01*
X0037689Y0107781D01*
X0036269Y0106361D01*
X0036161Y0106100D01*
X0035033Y0106100D01*
X0034077Y0105704D01*
X0031850Y0103477D01*
X0031850Y0104505D01*
X0031081Y0106361D01*
X0029661Y0107781D01*
X0029400Y0107889D01*
X0029400Y0108673D01*
X0030377Y0109650D01*
X0029729Y0109002D02*
X0053871Y0109002D01*
X0053789Y0107403D02*
X0055450Y0107403D01*
X0055450Y0105805D02*
X0055061Y0105805D01*
X0055450Y0102133D02*
X0055450Y0089867D01*
X0054831Y0091361D01*
X0053411Y0092781D01*
X0051555Y0093550D01*
X0049545Y0093550D01*
X0047689Y0092781D01*
X0046269Y0091361D01*
X0045550Y0089625D01*
X0044831Y0091361D01*
X0043411Y0092781D01*
X0041555Y0093550D01*
X0039545Y0093550D01*
X0037689Y0092781D01*
X0036269Y0091361D01*
X0035650Y0089867D01*
X0035650Y0099923D01*
X0036318Y0100591D01*
X0037689Y0099219D01*
X0039545Y0098450D01*
X0041555Y0098450D01*
X0043411Y0099219D01*
X0044831Y0100639D01*
X0045550Y0102375D01*
X0046269Y0100639D01*
X0047689Y0099219D01*
X0049545Y0098450D01*
X0051555Y0098450D01*
X0053411Y0099219D01*
X0054831Y0100639D01*
X0055450Y0102133D01*
X0055450Y0101009D02*
X0054984Y0101009D01*
X0055450Y0099411D02*
X0053602Y0099411D01*
X0055450Y0097812D02*
X0035650Y0097812D01*
X0035650Y0096214D02*
X0055450Y0096214D01*
X0055450Y0094615D02*
X0035650Y0094615D01*
X0035650Y0093017D02*
X0038258Y0093017D01*
X0036326Y0091418D02*
X0035650Y0091418D01*
X0035862Y0086623D02*
X0034850Y0086623D01*
X0033251Y0085024D02*
X0036884Y0085024D01*
X0030450Y0089577D02*
X0029473Y0088600D01*
X0028167Y0088600D01*
X0029661Y0089219D01*
X0030450Y0090008D01*
X0030450Y0089577D01*
X0030450Y0089820D02*
X0030261Y0089820D01*
X0035650Y0099411D02*
X0037498Y0099411D01*
X0035550Y0103500D02*
X0033050Y0101000D01*
X0032579Y0104206D02*
X0031850Y0104206D01*
X0031311Y0105805D02*
X0034320Y0105805D01*
X0035550Y0103500D02*
X0040550Y0103500D01*
X0043789Y0107403D02*
X0047311Y0107403D01*
X0046039Y0105805D02*
X0045061Y0105805D01*
X0044984Y0101009D02*
X0046116Y0101009D01*
X0047498Y0099411D02*
X0043602Y0099411D01*
X0042842Y0093017D02*
X0048258Y0093017D01*
X0046326Y0091418D02*
X0044774Y0091418D01*
X0045469Y0089820D02*
X0045631Y0089820D01*
X0045862Y0086623D02*
X0045238Y0086623D01*
X0044216Y0085024D02*
X0046884Y0085024D01*
X0052842Y0093017D02*
X0055450Y0093017D01*
X0055450Y0091418D02*
X0054774Y0091418D01*
X0060650Y0097812D02*
X0062390Y0097812D01*
X0061852Y0099411D02*
X0060650Y0099411D01*
X0060650Y0107403D02*
X0061403Y0107403D01*
X0060650Y0109002D02*
X0062839Y0109002D01*
X0060394Y0110600D02*
X0059627Y0110600D01*
X0059560Y0112199D02*
X0058028Y0112199D01*
X0059400Y0113797D02*
X0056430Y0113797D01*
X0059806Y0115396D02*
X0006600Y0115396D01*
X0006600Y0116994D02*
X0060989Y0116994D01*
X0060803Y0120191D02*
X0006600Y0120191D01*
X0006600Y0118593D02*
X0139200Y0118593D01*
X0144400Y0116994D02*
X0152400Y0116994D01*
X0152400Y0118593D02*
X0145570Y0118593D01*
X0147168Y0120191D02*
X0152400Y0120191D01*
X0153682Y0115396D02*
X0144400Y0115396D01*
X0144400Y0113797D02*
X0175701Y0113797D01*
X0175701Y0112199D02*
X0157751Y0112199D01*
X0155849Y0112199D02*
X0144400Y0112199D01*
X0144400Y0110600D02*
X0145223Y0110600D01*
X0146800Y0108500D02*
X0156800Y0108500D01*
X0172369Y0072236D02*
X0175701Y0072236D01*
X0175701Y0070637D02*
X0173694Y0070637D01*
X0174200Y0069039D02*
X0175701Y0069039D01*
X0175701Y0067440D02*
X0174140Y0067440D01*
X0173447Y0065842D02*
X0175701Y0065842D01*
X0175701Y0064243D02*
X0171344Y0064243D01*
X0171614Y0062645D02*
X0175701Y0062645D01*
X0175701Y0061046D02*
X0173524Y0061046D01*
X0174186Y0059448D02*
X0175701Y0059448D01*
X0175701Y0057849D02*
X0174200Y0057849D01*
X0173647Y0056251D02*
X0175701Y0056251D01*
X0175701Y0054652D02*
X0172258Y0054652D01*
X0175701Y0053054D02*
X0164400Y0053054D01*
X0164400Y0051455D02*
X0175701Y0051455D01*
X0175701Y0049857D02*
X0165331Y0049857D01*
X0165581Y0048258D02*
X0175701Y0048258D01*
X0175701Y0046660D02*
X0165130Y0046660D01*
X0163379Y0045061D02*
X0175701Y0045061D01*
X0175701Y0043463D02*
X0159400Y0043463D01*
X0159400Y0045061D02*
X0160221Y0045061D01*
X0161394Y0042400D02*
X0160100Y0041106D01*
X0159400Y0039415D01*
X0159400Y0037585D01*
X0160100Y0035894D01*
X0161394Y0034600D01*
X0163085Y0033900D01*
X0170515Y0033900D01*
X0172206Y0034600D01*
X0173500Y0035894D01*
X0174200Y0037585D01*
X0174200Y0039415D01*
X0173500Y0041106D01*
X0172206Y0042400D01*
X0170515Y0043100D01*
X0163085Y0043100D01*
X0161394Y0042400D01*
X0160859Y0041864D02*
X0159400Y0041864D01*
X0159400Y0040266D02*
X0159752Y0040266D01*
X0159400Y0038667D02*
X0159400Y0038667D01*
X0159400Y0037069D02*
X0159614Y0037069D01*
X0159400Y0035470D02*
X0160524Y0035470D01*
X0159400Y0033872D02*
X0175701Y0033872D01*
X0175701Y0035470D02*
X0173076Y0035470D01*
X0173986Y0037069D02*
X0175701Y0037069D01*
X0175701Y0038667D02*
X0174200Y0038667D01*
X0173848Y0040266D02*
X0175701Y0040266D01*
X0175701Y0041864D02*
X0172741Y0041864D01*
X0170515Y0033100D02*
X0163085Y0033100D01*
X0161394Y0032400D01*
X0160100Y0031106D01*
X0159400Y0029415D01*
X0159400Y0027585D01*
X0160100Y0025894D01*
X0161394Y0024600D01*
X0163085Y0023900D01*
X0170515Y0023900D01*
X0172206Y0024600D01*
X0173500Y0025894D01*
X0174200Y0027585D01*
X0174200Y0029415D01*
X0173500Y0031106D01*
X0172206Y0032400D01*
X0170515Y0033100D01*
X0172332Y0032273D02*
X0175701Y0032273D01*
X0175701Y0030675D02*
X0173678Y0030675D01*
X0174200Y0029076D02*
X0175701Y0029076D01*
X0175701Y0027478D02*
X0174156Y0027478D01*
X0173485Y0025879D02*
X0175701Y0025879D01*
X0175701Y0024281D02*
X0171434Y0024281D01*
X0167080Y0022682D02*
X0154659Y0022682D01*
X0156258Y0024281D02*
X0162166Y0024281D01*
X0160115Y0025879D02*
X0157856Y0025879D01*
X0159191Y0027478D02*
X0159444Y0027478D01*
X0159400Y0029076D02*
X0159400Y0029076D01*
X0159400Y0030675D02*
X0159922Y0030675D01*
X0159400Y0032273D02*
X0161268Y0032273D01*
X0156800Y0028500D02*
X0146800Y0018500D01*
X0153636Y0017887D02*
X0162426Y0017887D01*
X0161872Y0016288D02*
X0155234Y0016288D01*
X0156200Y0014690D02*
X0161488Y0014690D01*
X0161488Y0013091D02*
X0156200Y0013091D01*
X0156015Y0011493D02*
X0161662Y0011493D01*
X0162091Y0009894D02*
X0154417Y0009894D01*
X0149183Y0009894D02*
X0147017Y0009894D01*
X0136583Y0009894D02*
X0117017Y0009894D01*
X0118331Y0011493D02*
X0135269Y0011493D01*
X0134800Y0013091D02*
X0118800Y0013091D01*
X0118670Y0014690D02*
X0134930Y0014690D01*
X0156800Y0028500D02*
X0156800Y0048500D01*
X0154200Y0045061D02*
X0148516Y0045061D01*
X0148800Y0043463D02*
X0154200Y0043463D01*
X0135084Y0045061D02*
X0133916Y0045061D01*
X0134800Y0054177D02*
X0133077Y0055900D01*
X0135432Y0055900D01*
X0134800Y0054375D01*
X0134800Y0054177D01*
X0134915Y0054652D02*
X0134325Y0054652D01*
X0134400Y0061100D02*
X0134400Y0062423D01*
X0134800Y0062823D01*
X0134800Y0062625D01*
X0135432Y0061100D01*
X0134400Y0061100D01*
X0134622Y0062645D02*
X0134800Y0062645D01*
X0124408Y0051455D02*
X0124400Y0051455D01*
X0119200Y0045061D02*
X0118516Y0045061D01*
X0118800Y0043463D02*
X0119200Y0043463D01*
X0119200Y0041864D02*
X0118485Y0041864D01*
X0119200Y0040266D02*
X0117388Y0040266D01*
X0119200Y0038667D02*
X0075644Y0038667D01*
X0074046Y0037069D02*
X0091063Y0037069D01*
X0089837Y0035470D02*
X0073763Y0035470D01*
X0074200Y0033872D02*
X0089400Y0033872D01*
X0089529Y0032273D02*
X0074071Y0032273D01*
X0073280Y0030675D02*
X0090298Y0030675D01*
X0088699Y0029076D02*
X0070940Y0029076D01*
X0072017Y0027478D02*
X0087101Y0027478D01*
X0083832Y0025879D02*
X0073594Y0025879D01*
X0074200Y0024281D02*
X0083031Y0024281D01*
X0083046Y0022682D02*
X0074200Y0022682D01*
X0062660Y0029076D02*
X0056850Y0029076D01*
X0056843Y0027478D02*
X0061583Y0027478D01*
X0060006Y0025879D02*
X0056180Y0025879D01*
X0055946Y0024281D02*
X0059400Y0024281D01*
X0059400Y0022682D02*
X0057545Y0022682D01*
X0056596Y0016288D02*
X0056400Y0016288D01*
X0056400Y0014690D02*
X0059514Y0014690D01*
X0059400Y0013091D02*
X0056400Y0013091D01*
X0056400Y0011493D02*
X0059852Y0011493D01*
X0061101Y0009894D02*
X0056400Y0009894D01*
X0039200Y0021084D02*
X0018799Y0021084D01*
X0020252Y0019485D02*
X0028480Y0019485D01*
X0027478Y0017887D02*
X0021174Y0017887D01*
X0021728Y0016288D02*
X0027200Y0016288D01*
X0027200Y0014690D02*
X0022112Y0014690D01*
X0022112Y0013091D02*
X0027200Y0013091D01*
X0027200Y0011493D02*
X0021938Y0011493D01*
X0021509Y0009894D02*
X0027200Y0009894D01*
X0036400Y0009894D02*
X0037200Y0009894D01*
X0037200Y0011493D02*
X0036400Y0011493D01*
X0036400Y0013091D02*
X0037200Y0013091D01*
X0037200Y0014690D02*
X0036400Y0014690D01*
X0036400Y0016288D02*
X0037200Y0016288D01*
X0037478Y0017887D02*
X0036122Y0017887D01*
X0035120Y0019485D02*
X0038480Y0019485D01*
X0039805Y0022682D02*
X0016520Y0022682D01*
X0007080Y0022682D02*
X0006600Y0022682D01*
X0006600Y0024281D02*
X0038878Y0024281D01*
X0037419Y0025879D02*
X0006600Y0025879D01*
X0006600Y0027478D02*
X0036757Y0027478D01*
X0036750Y0029076D02*
X0006600Y0029076D01*
X0006600Y0030675D02*
X0037235Y0030675D01*
X0038431Y0032273D02*
X0006600Y0032273D01*
X0014658Y0041864D02*
X0015237Y0041864D01*
X0021900Y0045061D02*
X0044811Y0045061D01*
X0043007Y0046660D02*
X0021900Y0046660D01*
X0021900Y0048258D02*
X0042400Y0048258D01*
X0042400Y0049857D02*
X0021900Y0049857D01*
X0021900Y0051455D02*
X0043055Y0051455D01*
X0045089Y0053054D02*
X0021900Y0053054D01*
X0021900Y0054652D02*
X0059498Y0054652D01*
X0059400Y0053054D02*
X0048511Y0053054D01*
X0050545Y0051455D02*
X0059868Y0051455D01*
X0060245Y0056251D02*
X0021900Y0056251D01*
X0021900Y0057849D02*
X0062480Y0057849D01*
X0063085Y0058900D02*
X0061394Y0059600D01*
X0060100Y0060894D01*
X0059400Y0062585D01*
X0059400Y0064415D01*
X0060100Y0066106D01*
X0061394Y0067400D01*
X0063085Y0068100D01*
X0070515Y0068100D01*
X0072206Y0067400D01*
X0073500Y0066106D01*
X0074200Y0064415D01*
X0074200Y0062585D01*
X0073500Y0060894D01*
X0072206Y0059600D01*
X0070515Y0058900D01*
X0063085Y0058900D01*
X0061762Y0059448D02*
X0021900Y0059448D01*
X0021900Y0061046D02*
X0060037Y0061046D01*
X0059400Y0062645D02*
X0021900Y0062645D01*
X0021900Y0064243D02*
X0044371Y0064243D01*
X0044308Y0064270D02*
X0045925Y0063600D01*
X0047675Y0063600D01*
X0049292Y0064270D01*
X0050530Y0065508D01*
X0051200Y0067125D01*
X0051200Y0068875D01*
X0050530Y0070492D01*
X0049292Y0071730D01*
X0047675Y0072400D01*
X0045925Y0072400D01*
X0044308Y0071730D01*
X0043070Y0070492D01*
X0042400Y0068875D01*
X0042400Y0067125D01*
X0043070Y0065508D01*
X0044308Y0064270D01*
X0042931Y0065842D02*
X0021900Y0065842D01*
X0021900Y0067440D02*
X0042400Y0067440D01*
X0042468Y0069039D02*
X0021900Y0069039D01*
X0021900Y0070637D02*
X0043215Y0070637D01*
X0045529Y0072236D02*
X0021900Y0072236D01*
X0021900Y0073834D02*
X0059400Y0073834D01*
X0059545Y0072236D02*
X0048071Y0072236D01*
X0050385Y0070637D02*
X0060357Y0070637D01*
X0061493Y0067440D02*
X0051200Y0067440D01*
X0051132Y0069039D02*
X0062749Y0069039D01*
X0059991Y0065842D02*
X0050669Y0065842D01*
X0049229Y0064243D02*
X0059400Y0064243D01*
X0070850Y0069039D02*
X0073019Y0069039D01*
X0073146Y0067440D02*
X0072107Y0067440D01*
X0073609Y0065842D02*
X0074111Y0065842D01*
X0074200Y0064243D02*
X0089400Y0064243D01*
X0089400Y0062645D02*
X0074200Y0062645D01*
X0073563Y0061046D02*
X0090037Y0061046D01*
X0091762Y0059448D02*
X0071838Y0059448D01*
X0071120Y0057849D02*
X0092480Y0057849D01*
X0090245Y0056251D02*
X0073354Y0056251D01*
X0074102Y0054652D02*
X0089498Y0054652D01*
X0089400Y0053054D02*
X0074200Y0053054D01*
X0073732Y0051455D02*
X0089868Y0051455D01*
X0091138Y0049857D02*
X0072462Y0049857D01*
X0072946Y0046660D02*
X0074613Y0046660D01*
X0076800Y0043500D02*
X0071800Y0038500D01*
X0058050Y0038500D01*
X0051800Y0032250D01*
X0051800Y0028500D01*
X0056365Y0030675D02*
X0060320Y0030675D01*
X0059529Y0032273D02*
X0055500Y0032273D01*
X0057099Y0033872D02*
X0059400Y0033872D01*
X0059837Y0035470D02*
X0058697Y0035470D01*
X0056139Y0040266D02*
X0031200Y0040266D01*
X0031200Y0038667D02*
X0054540Y0038667D01*
X0052942Y0037069D02*
X0031200Y0037069D01*
X0029993Y0035470D02*
X0051343Y0035470D01*
X0050327Y0034454D02*
X0050327Y0034454D01*
X0059699Y0041864D02*
X0029658Y0041864D01*
X0073243Y0070637D02*
X0073593Y0070637D01*
X0074055Y0072236D02*
X0074200Y0072236D01*
X0074200Y0073834D02*
X0074200Y0073834D01*
X0074200Y0075433D02*
X0073778Y0075433D01*
X0074200Y0077032D02*
X0072574Y0077032D01*
X0082205Y0080229D02*
X0084817Y0080229D01*
X0088782Y0080229D02*
X0090766Y0080229D01*
X0090617Y0086623D02*
X0089025Y0086623D01*
X0059729Y0121790D02*
X0006600Y0121790D01*
X0006600Y0123388D02*
X0059400Y0123388D01*
X0059637Y0124987D02*
X0006600Y0124987D01*
X0006600Y0126585D02*
X0060580Y0126585D01*
X0044908Y0144169D02*
X0028692Y0144169D01*
X0028623Y0144100D02*
X0031200Y0146677D01*
X0031200Y0150323D01*
X0028623Y0152900D01*
X0024977Y0152900D01*
X0022400Y0150323D01*
X0022400Y0146677D01*
X0024977Y0144100D01*
X0028623Y0144100D01*
X0030290Y0145768D02*
X0043310Y0145768D01*
X0042400Y0147366D02*
X0031200Y0147366D01*
X0031200Y0148965D02*
X0042400Y0148965D01*
X0042641Y0150563D02*
X0030959Y0150563D01*
X0029361Y0152162D02*
X0044239Y0152162D01*
X0039881Y0155359D02*
X0051264Y0155359D01*
X0053823Y0160154D02*
X0058923Y0160154D01*
X0057400Y0161753D02*
X0039770Y0161753D01*
X0024239Y0152162D02*
X0006600Y0152162D01*
X0006600Y0153760D02*
X0008308Y0153760D01*
X0006600Y0150563D02*
X0022641Y0150563D01*
X0022400Y0148965D02*
X0006600Y0148965D01*
X0006600Y0147366D02*
X0022400Y0147366D01*
X0023310Y0145768D02*
X0006600Y0145768D01*
X0006600Y0144169D02*
X0024908Y0144169D01*
X0056800Y0148500D02*
X0081800Y0148500D01*
X0078025Y0145768D02*
X0073640Y0145768D01*
X0037311Y0107403D02*
X0030039Y0107403D01*
X0018397Y0085024D02*
X0006600Y0085024D01*
X0078987Y0046660D02*
X0090654Y0046660D01*
X0089668Y0045061D02*
X0080246Y0045061D01*
X0080581Y0043463D02*
X0089400Y0043463D01*
X0089699Y0041864D02*
X0080215Y0041864D01*
X0078872Y0040266D02*
X0090729Y0040266D01*
X0117054Y0037069D02*
X0119200Y0037069D01*
X0119200Y0035470D02*
X0118346Y0035470D01*
D19*
X0081800Y0148500D03*
X0056800Y0148500D03*
M02*
